<?xml version="1.0" encoding="UTF-8"?><svg id="Layer_1" xmlns="http://www.w3.org/2000/svg" viewBox="0 0 1920 1080"><defs><style>.cls-1{font-size:45.75px;}.cls-1,.cls-2{fill:#000;font-family:Roboto-Thin, Roboto;font-weight:200;}.cls-2{font-size:45.75px;}.cls-3{stroke-width:.5px;}.cls-3,.cls-4,.cls-5,.cls-6{stroke-miterlimit:10;}.cls-3,.cls-7,.cls-8,.cls-6{fill:#2d3c2d;}.cls-3,.cls-6{fill-rule:evenodd;stroke:#2d3c2d;}.cls-9{letter-spacing:-.02em;}.cls-4{stroke:#bdbdbd;}.cls-4,.cls-5{fill:none;}.cls-7,.cls-10,.cls-11{stroke-width:0px;}.cls-5{stroke:#409935;}.cls-12{letter-spacing:0em;}.cls-13{letter-spacing:0em;}.cls-10{fill:#409935;}.cls-14{letter-spacing:0em;}.cls-15{letter-spacing:0em;}.cls-11{fill:#fff;}.cls-8{font-family:Roboto-Light, Roboto;font-size:41.93px;font-weight:300;}.cls-6{stroke-width:2px;}</style></defs><rect class="cls-11" width="1920" height="1080"/><text class="cls-8" transform="translate(1660.3 314.31)"><tspan x="0" y="0">Cache</tspan></text><line class="cls-4" x1="395.64" y1="487.49" x2="1300.82" y2="775.27"/><text class="cls-8" transform="translate(1398.77 1033.42)"><tspan x="0" y="0">Database</tspan></text><line class="cls-4" x1="395.64" y1="487.49" x2="1592.31" y2="148.42"/><line class="cls-5" x1="661.74" y1="367.19" x2="1196.99" y2="218.15"/><polygon class="cls-10" points="1195.86 221.48 1205.52 215.77 1194.3 215.88 1195.86 221.48"/><line class="cls-5" x1="683.08" y1="443.83" x2="1218.33" y2="294.79"/><polygon class="cls-10" points="1217.2 298.12 1226.86 292.41 1215.64 292.52 1217.2 298.12"/><line class="cls-5" x1="545.55" y1="582.03" x2="1115.14" y2="761.02"/><polygon class="cls-10" points="1112.38 763.2 1123.59 763.68 1114.12 757.66 1112.38 763.2"/><g id="database"><path class="cls-3" d="M1484.48,586.81c-47.61,0-90.64,8.03-122.33,21.44-15.85,6.71-28.9,14.76-38.29,24.19-9.39,9.43-15.19,20.61-15.19,32.63v228.31c0,4.27.75,8.42,2.11,12.43.07.22.13.44.21.66,0,0,0,.02.01.03,6.77,19.34,27.66,34.5,55.9,45.6,2.39.94,4.86,1.84,7.37,2.72.09.03.18.07.27.1,4.21,1.47,8.57,2.84,13.07,4.13.29.09.59.18.88.26,2.01.57,4.06,1.12,6.13,1.66.27.07.54.14.82.21,2.14.55,4.31,1.07,6.5,1.58.19.04.37.09.56.13,4.82,1.1,9.77,2.1,14.84,3.01.12.02.25.04.38.07,2.05.36,4.13.71,6.22,1.04.7.11,1.4.22,2.1.32,1.82.28,3.66.54,5.51.79.81.11,1.61.22,2.42.32,1.98.25,3.98.49,5.99.71.68.08,1.35.15,2.03.22,1.54.16,3.09.32,4.65.47,1.45.14,2.89.27,4.35.39.89.07,1.8.14,2.7.21,1.73.13,3.45.27,5.2.38,1.99.12,4,.22,6.01.31.73.04,1.45.09,2.18.12,5.73.24,11.52.36,17.4.36,8.7,0,17.24-.27,25.59-.79,4.1-.26,8.14-.6,12.14-.97,1.63-.15,3.25-.3,4.86-.47.56-.06,1.1-.13,1.66-.2,2.17-.24,4.32-.49,6.45-.76.6-.08,1.19-.15,1.79-.23,2.04-.27,4.08-.56,6.09-.87.58-.09,1.15-.18,1.72-.27,2.3-.36,4.57-.74,6.82-1.14,0,0,.02,0,.03,0,18.63-3.32,35.66-7.99,50.44-13.8,31.18-12.25,53.4-29.46,57.54-51.76h-.03c.43-2.28.66-4.59.66-6.95v-228.31c0-2.21-.19-4.39-.57-6.53-.05-.38-.12-.75-.23-1.11-1.88-9.11-7.01-17.58-14.38-24.98-9.39-9.43-22.44-17.48-38.29-24.19-31.69-13.42-74.68-21.44-122.29-21.44ZM1484.48,600.08c46.1,0,87.64,7.95,117.1,20.42,14.73,6.23,26.41,13.59,34.09,21.3,5.8,5.82,9.29,11.66,10.65,17.53-3.47,14.29-20.81,29.5-49.1,40.61-29.13,11.44-68.89,18.61-112.74,18.61s-83.6-7.16-112.73-18.61c-28.37-11.14-45.72-26.4-49.12-40.73h0c1.38-5.84,4.87-11.63,10.63-17.41,7.68-7.71,19.36-15.07,34.09-21.3,29.45-12.47,71.03-20.42,117.13-20.42ZM1321.94,684.3c10.28,11.19,25.95,20.51,44.96,27.98,31.18,12.25,72.29,19.49,117.58,19.49s86.41-7.24,117.59-19.49c18.97-7.45,34.63-16.75,44.91-27.91v52.56c-.16.36-.29.73-.39,1.11-2.73,14.66-20.24,30.38-49.37,41.83-29.13,11.44-68.89,18.61-112.74,18.61s-83.6-7.16-112.73-18.61c-29.13-11.44-46.64-27.17-49.37-41.83-.1-.44-.25-.86-.44-1.27v-52.46ZM1359.71,733.63c-4.34.02-7.85,3.52-7.87,7.85-.01,4.35,3.51,7.89,7.87,7.9,4.36.02,7.91-3.5,7.93-7.85,0-.02,0-.04,0-.05-.02-4.35-3.56-7.87-7.93-7.85,0,0,0,0,0,0ZM1321.94,764.22c10.28,11.19,25.95,20.51,44.96,27.98,31.18,12.25,72.29,19.54,117.58,19.54s86.41-7.29,117.59-19.54c18.97-7.45,34.63-16.75,44.91-27.91v51.49c-.42.67-.72,1.4-.88,2.18-2.73,14.66-20.19,30.38-49.32,41.83-29.13,11.44-68.89,18.61-112.74,18.61s-81.52-6.8-110.42-17.73c-28.91-10.93-47.11-26.13-51.13-40.4-.14-.41-.33-.8-.54-1.17v-54.87ZM1359.71,812.6c-4.34.02-7.85,3.52-7.87,7.85-.01,4.35,3.51,7.89,7.87,7.9,4.36.02,7.91-3.5,7.93-7.85,0-.02,0-.04,0-.05-.02-4.35-3.56-7.87-7.93-7.85h0ZM1646.97,843.77v49.61c0,2.23-.3,4.46-.91,6.67-2.79,9.85-12.09,20.07-26.96,29.05-.2.12-.39.23-.58.35-.75.45-1.51.89-2.29,1.33-4.46,2.51-9.36,4.91-14.65,7.15-11.04,4.68-23.79,8.72-37.84,11.95-.21.05-.42.1-.63.14-2.14.49-4.3.95-6.49,1.4-.11.02-.23.04-.34.07-2.3.47-4.63.91-7,1.33-.09.02-.18.04-.27.05-2.39.43-4.82.83-7.27,1.21-.16.02-.31.04-.47.07-2,.31-4.02.59-6.05.87-.61.08-1.21.17-1.83.25-2.19.28-4.4.54-6.63.79-.27.03-.53.06-.8.09-2.3.25-4.63.48-6.97.69-.4.04-.79.08-1.19.12-1.97.17-3.97.31-5.97.45-.82.06-1.64.12-2.46.17-2.01.13-4.03.24-6.06.34-.59.03-1.16.07-1.75.09-5.61.24-11.3.36-17.06.36s-11.32-.13-16.87-.36c-.06,0-.12,0-.18,0-2.64-.11-5.26-.26-7.87-.43-.74-.05-1.48-.11-2.22-.16-10.15-.7-19.99-1.79-29.4-3.23-.66-.1-1.32-.21-1.98-.31-1.9-.3-3.8-.62-5.66-.95-.46-.08-.92-.16-1.39-.25-2.01-.36-3.99-.75-5.95-1.14-.5-.1-1-.2-1.49-.3-1.75-.36-3.49-.74-5.21-1.13-.67-.15-1.34-.3-2.01-.45-13.68-3.19-26.12-7.16-36.92-11.73-1.64-.7-3.24-1.4-4.81-2.13-.39-.18-.78-.36-1.17-.54-1.16-.55-2.29-1.12-3.41-1.68-20.84-10.59-33.32-23.54-35.58-35.71h-.03c-.27-1.5-.41-2.99-.41-4.5v-48.69c10.72,11.46,27.07,20.89,46.97,28.42,30.86,11.67,71.03,18.56,115.13,18.56s86.41-7.29,117.59-19.54c19.24-7.56,35.08-16.99,45.35-28.35ZM1359.71,895.69c-4.34.02-7.85,3.52-7.87,7.85-.01,4.35,3.51,7.89,7.87,7.9,4.36.02,7.91-3.5,7.93-7.85,0-.02,0-.04,0-.05-.02-4.35-3.56-7.87-7.93-7.85h0Z"/></g><text class="cls-8" transform="translate(131.33 726)"><tspan x="0" y="0">Application</tspan><tspan x="44" y="50.32">Se</tspan><tspan class="cls-12" x="90.5" y="50.32">r</tspan><tspan class="cls-13" x="104.98" y="50.32">ver</tspan></text><g id="noun-server-6742457"><path class="cls-6" d="M103.85,441.12h31.03v-26.09h-31.03c-6.7,0-12.69-2.82-16.93-7.05-4.23-4.23-7.05-10.58-7.05-16.93v-45.49c0-6.7,2.82-12.69,7.05-16.93,4.23-4.23,10.58-7.05,16.93-7.05h259.88c6.7,0,12.69,2.82,16.93,7.05,4.23,4.23,7.05,10.58,7.05,16.93v45.49c0,6.7-2.82,12.69-7.05,16.93-4.23,4.23-10.58,7.05-16.93,7.05h-31.03v26.09h31.03c6.7,0,12.69,2.82,16.93,7.05,4.23,4.23,7.05,10.58,7.05,16.93v45.49c0,6.7-2.82,12.69-7.05,16.93-4.23,4.23-10.58,7.05-16.93,7.05h-31.03v26.09h31.03c6.7,0,12.69,2.82,16.93,7.05,4.23,4.23,7.05,10.58,7.05,16.93v45.49c0,6.7-2.82,12.69-7.05,16.93-4.23,4.23-10.58,7.05-16.93,7.05H103.85c-6.7,0-12.69-2.82-16.93-7.05-4.23-4.23-7.05-10.58-7.05-16.93v-45.49c0-6.7,2.82-12.69,7.05-16.93,4.23-4.23,10.58-7.05,16.93-7.05h31.03v-26.09h-31.03c-6.7,0-12.69-2.82-16.93-7.05-4.23-4.23-7.05-10.58-7.05-16.93v-45.49c0-6.7,2.82-12.69,7.05-16.93,4.23-4.23,10.58-7.05,16.93-7.05h0ZM315.07,415.02v26.09h9.52v-26.09h-9.52ZM306.96,441.12v-26.09h-147.04v26.09h147.04ZM315.07,534.91v26.09h9.52v-26.09h-9.52ZM306.96,561.01v-26.09h-147.04v26.09h147.04ZM152.16,441.12v-26.09h-9.52v26.09h9.52ZM152.16,561.01v-26.09h-9.52v26.09h9.52ZM354.57,614.96h-106.14c-2.12,0-3.88,1.76-3.88,3.88s1.76,3.88,3.88,3.88h106.14c2.12,0,3.88-1.76,3.88-3.88s-1.76-3.88-3.88-3.88ZM354.57,593.45h-106.14c-2.12,0-3.88,1.76-3.88,3.88s1.76,3.88,3.88,3.88h106.14c2.12,0,3.88-1.76,3.88-3.88s-1.76-3.88-3.88-3.88ZM354.57,494.72h-106.14c-2.12,0-3.88,1.76-3.88,3.88s1.76,3.88,3.88,3.88h106.14c2.12,0,3.88-1.76,3.88-3.88s-1.76-3.88-3.88-3.88ZM354.57,473.21h-106.14c-2.12,0-3.88,1.76-3.88,3.88s1.76,3.88,3.88,3.88h106.14c2.12,0,3.88-1.76,3.88-3.88s-1.76-3.88-3.88-3.88ZM354.57,374.82h-106.14c-2.12,0-3.88,1.76-3.88,3.88s1.76,3.88,3.88,3.88h106.14c2.12,0,3.88-1.76,3.88-3.88s-1.76-3.88-3.88-3.88ZM354.57,353.31h-106.14c-2.12,0-3.88,1.76-3.88,3.88s1.76,3.88,3.88,3.88h106.14c2.12,0,3.88-1.76,3.88-3.88s-1.76-3.88-3.88-3.88ZM183.9,346.61c-5.99,0-11.28,2.47-15.16,6.35-3.88,3.88-6.35,9.17-6.35,15.16s2.47,11.28,6.35,15.16c3.88,3.88,9.17,6.35,15.16,6.35s11.28-2.47,15.16-6.35c3.88-3.88,6.35-9.17,6.35-15.16s-2.47-11.28-6.35-15.16c-3.88-3.88-9.17-6.35-15.16-6.35ZM193.42,358.6c-2.47-2.47-5.64-3.88-9.52-3.88s-7.05,1.41-9.52,3.88c-2.47,2.47-3.88,5.64-3.88,9.52s1.41,7.05,3.88,9.52c2.47,2.47,5.64,3.88,9.52,3.88s7.05-1.41,9.52-3.88c2.47-2.47,3.88-5.64,3.88-9.52s-1.41-7.05-3.88-9.52ZM129.94,346.61c-5.99,0-11.28,2.47-15.16,6.35-3.88,3.88-6.35,9.17-6.35,15.16s2.47,11.28,6.35,15.16c3.88,3.88,9.17,6.35,15.16,6.35s11.28-2.47,15.16-6.35c3.88-3.88,6.35-9.17,6.35-15.16s-2.47-11.28-6.35-15.16c-3.88-3.88-9.17-6.35-15.16-6.35ZM139.46,358.6c-2.47-2.47-5.64-3.88-9.52-3.88s-7.05,1.41-9.52,3.88-3.88,5.64-3.88,9.52,1.41,7.05,3.88,9.52c2.47,2.47,5.64,3.88,9.52,3.88s7.05-1.41,9.52-3.88c2.47-2.47,3.88-5.64,3.88-9.52s-1.41-7.05-3.88-9.52ZM183.9,587.1c-5.99,0-11.28,2.47-15.16,6.35-3.88,3.88-6.35,9.17-6.35,15.16s2.47,11.28,6.35,15.16c3.88,3.88,9.17,6.35,15.16,6.35s11.28-2.47,15.16-6.35c3.88-3.88,6.35-9.17,6.35-15.16s-2.47-11.28-6.35-15.16c-3.88-3.88-9.17-6.35-15.16-6.35ZM193.42,598.74c-2.47-2.47-5.64-3.88-9.52-3.88s-7.05,1.41-9.52,3.88c-2.47,2.47-3.88,5.64-3.88,9.52s1.41,7.05,3.88,9.52c2.47,2.47,5.64,3.88,9.52,3.88s7.05-1.41,9.52-3.88c2.47-2.47,3.88-5.64,3.88-9.52s-1.41-7.05-3.88-9.52ZM130.3,587.1c-5.99,0-11.28,2.47-15.16,6.35-3.88,3.88-6.35,9.17-6.35,15.16s2.47,11.28,6.35,15.16c3.88,3.88,9.17,6.35,15.16,6.35s11.28-2.47,15.16-6.35c3.88-3.88,6.35-9.17,6.35-15.16s-2.47-11.28-6.35-15.16c-3.88-3.88-9.17-6.35-15.16-6.35ZM139.46,598.74c-2.47-2.47-5.64-3.88-9.52-3.88s-7.05,1.41-9.52,3.88c-2.47,2.47-3.88,5.64-3.88,9.52s1.41,7.05,3.88,9.52c2.47,2.47,5.64,3.88,9.52,3.88s7.05-1.41,9.52-3.88c2.47-2.47,3.88-5.64,3.88-9.52s-1.41-7.05-3.88-9.52ZM363.73,569.12H103.85c-4.58,0-8.46,1.76-11.64,4.94-3.17,3.17-4.94,7.05-4.94,11.64v45.49c0,4.58,1.76,8.46,4.94,11.64,3.17,3.17,7.05,4.94,11.64,4.94h259.88c4.58,0,8.46-1.76,11.64-4.94,3.17-3.17,4.94-7.05,4.94-11.64v-45.49c0-4.58-1.76-8.46-4.94-11.64-3.17-3.17-7.05-4.94-11.64-4.94h0ZM363.73,328.98H103.85c-4.58,0-8.46,1.76-11.64,4.94-3.17,3.17-4.94,7.05-4.94,11.64v45.49c0,4.58,1.76,8.46,4.94,11.64,3.17,3.17,7.05,4.94,11.64,4.94h259.88c4.58,0,8.46-1.76,11.64-4.94,3.17-3.17,4.94-7.05,4.94-11.64v-45.49c0-4.58-1.76-8.46-4.94-11.64-3.17-3.17-7.05-4.94-11.64-4.94h0ZM183.9,466.86c-5.99,0-11.28,2.47-15.16,6.35-3.88,3.88-6.35,9.17-6.35,15.16s2.47,11.28,6.35,15.16c3.88,3.88,9.17,6.35,15.16,6.35s11.28-2.47,15.16-6.35c3.88-3.88,6.35-9.17,6.35-15.16s-2.47-11.28-6.35-15.16c-3.88-3.88-9.17-6.35-15.16-6.35ZM193.42,478.5c-2.47-2.47-5.64-3.88-9.52-3.88s-7.05,1.41-9.52,3.88c-2.47,2.47-3.88,5.64-3.88,9.52s1.41,7.05,3.88,9.52c2.47,2.47,5.64,3.88,9.52,3.88s7.05-1.41,9.52-3.88c2.47-2.47,3.88-5.64,3.88-9.52s-1.41-7.05-3.88-9.52ZM130.3,466.86c-5.99,0-11.28,2.47-15.16,6.35-3.88,3.88-6.35,9.17-6.35,15.16s2.47,11.28,6.35,15.16c3.88,3.88,9.17,6.35,15.16,6.35s11.28-2.47,15.16-6.35c3.88-3.88,6.35-9.17,6.35-15.16s-2.47-11.28-6.35-15.16c-3.88-3.88-9.17-6.35-15.16-6.35ZM139.46,478.5c-2.47-2.47-5.64-3.88-9.52-3.88s-7.05,1.41-9.52,3.88c-2.47,2.47-3.88,5.64-3.88,9.52s1.41,7.05,3.88,9.52c2.47,2.47,5.64,3.88,9.52,3.88s7.05-1.41,9.52-3.88c2.47-2.47,3.88-5.64,3.88-9.52s-1.41-7.05-3.88-9.52ZM363.73,448.87H103.85c-4.58,0-8.46,1.76-11.64,4.94-3.17,3.17-4.94,7.05-4.94,11.64v45.49c0,4.58,1.76,8.46,4.94,11.64,3.17,3.17,7.05,4.94,11.64,4.94h259.88c4.58,0,8.46-1.76,11.64-4.94,3.17-3.17,4.94-7.05,4.94-11.64v-45.49c0-4.58-1.76-8.46-4.94-11.64-3.17-3.17-7.05-4.94-11.64-4.94h0Z"/></g><g id="cache_not_filled_in"><path class="cls-7" d="M1600.55,112.59l113.4,55.43c1.05.51,2.18.77,3.32.77s2.27-.26,3.32-.77l113.4-55.43c2.59-1.27,4.24-3.9,4.24-6.79s-1.64-5.52-4.24-6.79l-113.4-55.43c-2.1-1.03-4.54-1.03-6.64,0l-113.4,55.43c-2.59,1.27-4.24,3.9-4.24,6.79s1.64,5.52,4.24,6.79ZM1717.27,58.78l96.18,47.02-96.18,47.02-96.18-47.02,96.18-47.02Z"/><path class="cls-7" d="M1827.34,141.51l-110.08,53.81-110.08-53.81c-3.75-1.83-8.28-.28-10.11,3.47-1.83,3.75-.28,8.28,3.47,10.11l113.4,55.43c1.05.51,2.18.77,3.32.77s2.27-.26,3.32-.77l113.4-55.43c3.75-1.83,5.31-6.36,3.47-10.11-1.83-3.75-6.36-5.31-10.11-3.47Z"/><path class="cls-7" d="M1827.34,184.02l-110.08,53.81-110.08-53.81c-3.75-1.83-8.28-.28-10.11,3.47-1.83,3.75-.28,8.28,3.47,10.11l113.4,55.43c1.05.51,2.18.77,3.32.77s2.27-.26,3.32-.77l113.4-55.43c3.75-1.83,5.31-6.36,3.47-10.11-1.83-3.75-6.36-5.31-10.11-3.47Z"/></g><text class="cls-2" transform="translate(710.42 329.01) rotate(-15.56)"><tspan x="0" y="0">1 hit: read f</tspan><tspan class="cls-14" x="216.89" y="0">r</tspan><tspan x="231.74" y="0">om cache</tspan></text><text class="cls-2" transform="translate(790.35 471.38) rotate(-15.56)"><tspan x="0" y="0">2.1</tspan><tspan class="cls-9" x="59.88" y="0"> </tspan><tspan x="69.91" y="0">write </tspan><tspan class="cls-14" x="177.73" y="0">t</tspan><tspan x="191.76" y="0">o cache</tspan></text><text class="cls-1" transform="translate(541.02 640.09) rotate(17.45)"><tspan x="0" y="0">2 miss: read f</tspan><tspan class="cls-15" x="263.91" y="0">r</tspan><tspan x="278.76" y="0">om database</tspan></text></svg>