<?xml version="1.0" encoding="UTF-8"?><svg id="Layer_1" xmlns="http://www.w3.org/2000/svg" viewBox="0 0 1920 1080"><defs><style>.cls-1{stroke-width:.5px;}.cls-1,.cls-2,.cls-3,.cls-4{fill:#2d3c2d;}.cls-1,.cls-4{fill-rule:evenodd;stroke:#2d3c2d;stroke-miterlimit:10;}.cls-5{letter-spacing:0em;}.cls-6{stroke:#bdbdbd;}.cls-6,.cls-7{fill:none;stroke-miterlimit:10;}.cls-2,.cls-8,.cls-9{stroke-width:0px;}.cls-7{stroke:#3d8d39;stroke-width:3px;}.cls-10{fill:#000;font-family:Roboto-Thin, Roboto;font-size:41.59px;font-weight:200;}.cls-11{letter-spacing:0em;}.cls-12{letter-spacing:0em;}.cls-13{letter-spacing:-.01em;}.cls-3{font-family:Roboto-Light, Roboto;font-size:41.59px;font-weight:300;}.cls-8{fill:#fff;}.cls-9{fill:#3d8d39;}.cls-4{stroke-width:2px;}</style></defs><rect class="cls-8" x="-17.67" y="-15.88" width="1952.68" height="1109.36"/><text class="cls-3" transform="translate(1397.94 1020.91)"><tspan x="0" y="0">Database</tspan></text><g id="database"><path class="cls-1" d="M1484.48,581.97c-47.22,0-89.9,7.96-121.33,21.27-15.72,6.65-28.66,14.64-37.98,23.99-9.32,9.35-15.06,20.44-15.06,32.36v226.45c0,4.23.75,8.35,2.09,12.32.07.22.13.44.21.66,0,0,0,.02.01.02,6.71,19.18,27.43,34.22,55.44,45.23,2.37.93,4.82,1.83,7.31,2.7.09.03.18.07.27.1,4.17,1.46,8.5,2.82,12.97,4.1.29.08.58.17.87.26,2,.57,4.03,1.11,6.08,1.65.27.07.54.14.81.21,2.12.54,4.27,1.07,6.45,1.57.18.04.37.09.55.13,4.78,1.09,9.69,2.09,14.72,2.98.12.02.25.04.37.06,2.04.36,4.09.7,6.17,1.03.69.11,1.38.22,2.08.32,1.81.27,3.63.54,5.46.78.8.11,1.6.22,2.4.32,1.96.25,3.95.48,5.94.71.67.07,1.34.15,2.02.22,1.53.16,3.07.32,4.61.46,1.44.13,2.87.27,4.32.39.89.07,1.78.14,2.67.21,1.71.13,3.42.26,5.15.37,1.97.12,3.97.21,5.96.31.72.03,1.43.08,2.16.12,5.68.24,11.43.36,17.26.36,8.63,0,17.1-.27,25.38-.78,4.07-.25,8.07-.59,12.04-.96,1.61-.15,3.22-.29,4.82-.46.55-.06,1.1-.13,1.65-.19,2.15-.24,4.29-.49,6.4-.76.59-.08,1.18-.15,1.77-.23,2.03-.27,4.05-.56,6.04-.86.57-.09,1.14-.18,1.71-.27,2.28-.36,4.53-.73,6.76-1.13,0,0,.02,0,.02,0,18.48-3.29,35.37-7.93,50.03-13.69,30.92-12.15,52.96-29.22,57.07-51.34h-.02c.42-2.26.66-4.56.66-6.89v-226.45c0-2.19-.19-4.35-.57-6.48-.05-.37-.12-.74-.23-1.11-1.86-9.04-6.96-17.44-14.27-24.78-9.32-9.35-22.26-17.34-37.98-23.99-31.44-13.31-74.07-21.27-121.29-21.27ZM1484.48,595.13c45.72,0,86.93,7.89,116.14,20.25,14.61,6.18,26.19,13.48,33.81,21.13,5.75,5.78,9.21,11.56,10.56,17.39-3.45,14.18-20.64,29.26-48.7,40.28-28.89,11.35-68.33,18.46-111.82,18.46s-82.92-7.11-111.81-18.46c-28.13-11.05-45.34-26.18-48.72-40.39h0c1.37-5.79,4.83-11.54,10.54-17.27,7.62-7.65,19.21-14.94,33.81-21.13,29.21-12.37,70.45-20.25,116.18-20.25ZM1323.26,678.66c10.2,11.1,25.74,20.34,44.6,27.75,30.92,12.15,71.7,19.33,116.62,19.33s85.71-7.18,116.63-19.33c18.82-7.39,34.34-16.61,44.54-27.68v52.13c-.16.36-.29.73-.39,1.11-2.7,14.54-20.07,30.14-48.96,41.49-28.89,11.35-68.33,18.46-111.82,18.46s-82.92-7.11-111.81-18.46c-28.89-11.35-46.26-26.95-48.96-41.49-.1-.43-.25-.86-.44-1.26v-52.04ZM1360.73,727.59c-4.3.02-7.79,3.5-7.8,7.79-.01,4.31,3.48,7.82,7.8,7.84,4.33.02,7.85-3.47,7.87-7.79,0-.02,0-.04,0-.05-.02-4.32-3.54-7.8-7.86-7.79,0,0,0,0,0,0ZM1323.26,757.93c10.2,11.1,25.74,20.34,44.6,27.75,30.92,12.15,71.7,19.38,116.62,19.38s85.71-7.23,116.63-19.38c18.82-7.39,34.34-16.61,44.54-27.68v51.07c-.42.66-.71,1.39-.87,2.16-2.7,14.54-20.02,30.14-48.91,41.49-28.89,11.35-68.33,18.46-111.82,18.46s-80.85-6.74-109.52-17.58c-28.67-10.84-46.73-25.92-50.71-40.07-.14-.4-.32-.79-.54-1.16v-54.43ZM1360.73,805.92c-4.3.02-7.79,3.5-7.8,7.79-.01,4.31,3.48,7.82,7.8,7.84,4.33.02,7.85-3.47,7.87-7.79,0-.02,0-.04,0-.05-.02-4.32-3.54-7.8-7.86-7.79h0ZM1645.65,836.83v49.21c0,2.22-.3,4.42-.9,6.62-2.76,9.77-11.99,19.9-26.74,28.81-.19.11-.38.23-.58.35-.75.44-1.5.89-2.27,1.32-4.43,2.49-9.28,4.87-14.54,7.09-10.95,4.64-23.59,8.65-37.53,11.85-.21.05-.42.09-.63.14-2.12.48-4.26.94-6.44,1.39-.11.02-.22.04-.33.06-2.29.46-4.59.9-6.94,1.32-.09.02-.18.03-.27.05-2.37.42-4.78.82-7.21,1.2-.15.02-.31.04-.46.06-1.98.3-3.98.59-6,.86-.6.08-1.2.17-1.81.24-2.17.28-4.37.54-6.58.78-.27.03-.53.06-.8.09-2.28.25-4.59.47-6.91.68-.4.03-.79.08-1.18.12-1.96.17-3.94.31-5.92.45-.82.06-1.62.11-2.44.17-1.99.13-4,.24-6.01.33-.58.03-1.15.06-1.73.09-5.56.24-11.21.36-16.93.36s-11.23-.12-16.73-.36c-.06,0-.12,0-.18,0-2.62-.11-5.22-.26-7.8-.42-.74-.05-1.46-.1-2.2-.15-10.07-.7-19.82-1.78-29.16-3.2-.66-.1-1.31-.2-1.97-.31-1.89-.3-3.76-.61-5.62-.94-.46-.08-.92-.16-1.38-.24-1.99-.36-3.95-.74-5.9-1.13-.49-.1-.99-.19-1.48-.3-1.74-.36-3.46-.73-5.17-1.12-.67-.15-1.33-.3-1.99-.45-13.57-3.16-25.91-7.1-36.61-11.63-1.63-.69-3.21-1.39-4.77-2.11-.38-.18-.78-.36-1.16-.54-1.15-.54-2.27-1.11-3.38-1.67-20.67-10.51-33.05-23.35-35.29-35.42h-.03c-.27-1.48-.41-2.97-.41-4.46v-48.3c10.63,11.36,26.85,20.72,46.59,28.18,30.61,11.57,70.45,18.4,114.19,18.4s85.71-7.23,116.63-19.38c19.09-7.5,34.79-16.85,44.98-28.12ZM1360.73,888.33c-4.3.02-7.79,3.5-7.8,7.79-.01,4.31,3.48,7.82,7.8,7.84,4.33.02,7.85-3.47,7.87-7.79,0-.02,0-.04,0-.05-.01-4.32-3.54-7.8-7.86-7.79h0Z"/></g><text class="cls-3" transform="translate(134.81 773.06)"><tspan x="0" y="0">Application</tspan><tspan x="43.64" y="49.91">Se</tspan><tspan class="cls-11" x="89.76" y="49.91">r</tspan><tspan class="cls-12" x="104.12" y="49.91">ver</tspan></text><text class="cls-3" transform="translate(967.57 310.77)"><tspan x="0" y="0">Cache</tspan></text><g id="cache_not_filled_in"><path class="cls-2" d="M909.32,110.44l112.47,54.98c1.04.51,2.17.76,3.29.76s2.25-.25,3.29-.76l112.47-54.98c2.57-1.26,4.2-3.87,4.2-6.74s-1.63-5.48-4.2-6.74l-112.47-54.98c-2.08-1.02-4.51-1.02-6.59,0l-112.47,54.98c-2.57,1.26-4.2,3.87-4.2,6.74s1.63,5.48,4.2,6.74ZM1025.08,57.07l95.4,46.63-95.4,46.63-95.4-46.63,95.4-46.63Z"/><path class="cls-2" d="M1134.26,139.13l-109.18,53.37-109.18-53.37c-3.72-1.82-8.21-.28-10.03,3.44-1.82,3.72-.28,8.21,3.44,10.03l112.47,54.98c1.04.51,2.17.76,3.29.76s2.25-.25,3.29-.76l112.47-54.98c3.72-1.82,5.26-6.31,3.44-10.03-1.82-3.72-6.3-5.27-10.03-3.44Z"/><path class="cls-2" d="M1134.26,181.29l-109.18,53.37-109.18-53.37c-3.72-1.82-8.21-.28-10.03,3.44-1.82,3.72-.28,8.21,3.44,10.03l112.47,54.98c1.04.51,2.17.76,3.29.76s2.25-.25,3.29-.76l112.47-54.98c3.72-1.82,5.26-6.31,3.44-10.03-1.82-3.72-6.3-5.27-10.03-3.44Z"/></g><g id="noun-server-6742457"><path class="cls-4" d="M109.12,493.66h30.78v-25.88h-30.78c-6.65,0-12.59-2.8-16.79-6.99-4.2-4.2-6.99-10.49-6.99-16.79v-45.12c0-6.65,2.8-12.59,6.99-16.79,4.2-4.2,10.49-6.99,16.79-6.99h257.76c6.65,0,12.59,2.8,16.79,6.99,4.2,4.2,6.99,10.49,6.99,16.79v45.12c0,6.65-2.8,12.59-6.99,16.79-4.2,4.2-10.49,6.99-16.79,6.99h-30.78v25.88h30.78c6.65,0,12.59,2.8,16.79,6.99,4.2,4.2,6.99,10.49,6.99,16.79v45.12c0,6.65-2.8,12.59-6.99,16.79-4.2,4.2-10.49,6.99-16.79,6.99h-30.78v25.88h30.78c6.65,0,12.59,2.8,16.79,6.99,4.2,4.2,6.99,10.49,6.99,16.79v45.12c0,6.65-2.8,12.59-6.99,16.79-4.2,4.2-10.49,6.99-16.79,6.99H109.12c-6.65,0-12.59-2.8-16.79-6.99-4.2-4.2-6.99-10.49-6.99-16.79v-45.12c0-6.65,2.8-12.59,6.99-16.79,4.2-4.2,10.49-6.99,16.79-6.99h30.78v-25.88h-30.78c-6.65,0-12.59-2.8-16.79-6.99-4.2-4.2-6.99-10.49-6.99-16.79v-45.12c0-6.65,2.8-12.59,6.99-16.79,4.2-4.2,10.49-6.99,16.79-6.99h0ZM318.62,467.78v25.88h9.44v-25.88h-9.44ZM310.57,493.66v-25.88h-145.84v25.88h145.84ZM318.62,586.69v25.88h9.44v-25.88h-9.44ZM310.57,612.57v-25.88h-145.84v25.88h145.84ZM157.04,493.66v-25.88h-9.44v25.88h9.44ZM157.04,612.57v-25.88h-9.44v25.88h9.44ZM357.79,666.08h-105.27c-2.1,0-3.85,1.75-3.85,3.85s1.75,3.85,3.85,3.85h105.27c2.1,0,3.85-1.75,3.85-3.85s-1.75-3.85-3.85-3.85ZM357.79,644.75h-105.27c-2.1,0-3.85,1.75-3.85,3.85s1.75,3.85,3.85,3.85h105.27c2.1,0,3.85-1.75,3.85-3.85s-1.75-3.85-3.85-3.85ZM357.79,546.82h-105.27c-2.1,0-3.85,1.75-3.85,3.85s1.75,3.85,3.85,3.85h105.27c2.1,0,3.85-1.75,3.85-3.85s-1.75-3.85-3.85-3.85ZM357.79,525.49h-105.27c-2.1,0-3.85,1.75-3.85,3.85s1.75,3.85,3.85,3.85h105.27c2.1,0,3.85-1.75,3.85-3.85s-1.75-3.85-3.85-3.85ZM357.79,427.91h-105.27c-2.1,0-3.85,1.75-3.85,3.85s1.75,3.85,3.85,3.85h105.27c2.1,0,3.85-1.75,3.85-3.85s-1.75-3.85-3.85-3.85ZM357.79,406.57h-105.27c-2.1,0-3.85,1.75-3.85,3.85s1.75,3.85,3.85,3.85h105.27c2.1,0,3.85-1.75,3.85-3.85s-1.75-3.85-3.85-3.85ZM188.51,399.93c-5.95,0-11.19,2.45-15.04,6.3-3.85,3.85-6.3,9.09-6.3,15.04s2.45,11.19,6.3,15.04c3.85,3.85,9.09,6.3,15.04,6.3s11.19-2.45,15.04-6.3c3.85-3.85,6.3-9.09,6.3-15.04s-2.45-11.19-6.3-15.04c-3.85-3.85-9.09-6.3-15.04-6.3ZM197.96,411.82c-2.45-2.45-5.6-3.85-9.44-3.85s-6.99,1.4-9.44,3.85c-2.45,2.45-3.85,5.6-3.85,9.44s1.4,6.99,3.85,9.44c2.45,2.45,5.6,3.85,9.44,3.85s6.99-1.4,9.44-3.85c2.45-2.45,3.85-5.6,3.85-9.44s-1.4-6.99-3.85-9.44ZM135,399.93c-5.95,0-11.19,2.45-15.04,6.3-3.85,3.85-6.3,9.09-6.3,15.04s2.45,11.19,6.3,15.04c3.85,3.85,9.09,6.3,15.04,6.3s11.19-2.45,15.04-6.3c3.85-3.85,6.3-9.09,6.3-15.04s-2.45-11.19-6.3-15.04c-3.85-3.85-9.09-6.3-15.04-6.3ZM144.45,411.82c-2.45-2.45-5.6-3.85-9.44-3.85s-6.99,1.4-9.44,3.85c-2.45,2.45-3.85,5.6-3.85,9.44s1.4,6.99,3.85,9.44c2.45,2.45,5.6,3.85,9.44,3.85s6.99-1.4,9.44-3.85c2.45-2.45,3.85-5.6,3.85-9.44s-1.4-6.99-3.85-9.44ZM188.51,638.45c-5.95,0-11.19,2.45-15.04,6.3-3.85,3.85-6.3,9.09-6.3,15.04s2.45,11.19,6.3,15.04c3.85,3.85,9.09,6.3,15.04,6.3s11.19-2.45,15.04-6.3c3.85-3.85,6.3-9.09,6.3-15.04s-2.45-11.19-6.3-15.04c-3.85-3.85-9.09-6.3-15.04-6.3ZM197.96,650c-2.45-2.45-5.6-3.85-9.44-3.85s-6.99,1.4-9.44,3.85-3.85,5.6-3.85,9.44,1.4,6.99,3.85,9.44c2.45,2.45,5.6,3.85,9.44,3.85s6.99-1.4,9.44-3.85c2.45-2.45,3.85-5.6,3.85-9.44s-1.4-6.99-3.85-9.44ZM135.35,638.45c-5.95,0-11.19,2.45-15.04,6.3-3.85,3.85-6.3,9.09-6.3,15.04s2.45,11.19,6.3,15.04c3.85,3.85,9.09,6.3,15.04,6.3s11.19-2.45,15.04-6.3c3.85-3.85,6.3-9.09,6.3-15.04s-2.45-11.19-6.3-15.04-9.09-6.3-15.04-6.3ZM144.45,650c-2.45-2.45-5.6-3.85-9.44-3.85s-6.99,1.4-9.44,3.85-3.85,5.6-3.85,9.44,1.4,6.99,3.85,9.44c2.45,2.45,5.6,3.85,9.44,3.85s6.99-1.4,9.44-3.85c2.45-2.45,3.85-5.6,3.85-9.44s-1.4-6.99-3.85-9.44ZM366.88,620.62H109.12c-4.55,0-8.39,1.75-11.54,4.9-3.15,3.15-4.9,6.99-4.9,11.54v45.12c0,4.55,1.75,8.39,4.9,11.54,3.15,3.15,6.99,4.9,11.54,4.9h257.76c4.55,0,8.39-1.75,11.54-4.9,3.15-3.15,4.9-6.99,4.9-11.54v-45.12c0-4.55-1.75-8.39-4.9-11.54-3.15-3.15-6.99-4.9-11.54-4.9h0ZM366.88,382.44H109.12c-4.55,0-8.39,1.75-11.54,4.9-3.15,3.15-4.9,6.99-4.9,11.54v45.12c0,4.55,1.75,8.39,4.9,11.54,3.15,3.15,6.99,4.9,11.54,4.9h257.76c4.55,0,8.39-1.75,11.54-4.9,3.15-3.15,4.9-6.99,4.9-11.54v-45.12c0-4.55-1.75-8.39-4.9-11.54-3.15-3.15-6.99-4.9-11.54-4.9h0ZM188.51,519.19c-5.95,0-11.19,2.45-15.04,6.3-3.85,3.85-6.3,9.09-6.3,15.04s2.45,11.19,6.3,15.04c3.85,3.85,9.09,6.3,15.04,6.3s11.19-2.45,15.04-6.3c3.85-3.85,6.3-9.09,6.3-15.04s-2.45-11.19-6.3-15.04c-3.85-3.85-9.09-6.3-15.04-6.3ZM197.96,530.73c-2.45-2.45-5.6-3.85-9.44-3.85s-6.99,1.4-9.44,3.85c-2.45,2.45-3.85,5.6-3.85,9.44s1.4,6.99,3.85,9.44c2.45,2.45,5.6,3.85,9.44,3.85s6.99-1.4,9.44-3.85c2.45-2.45,3.85-5.6,3.85-9.44s-1.4-6.99-3.85-9.44ZM135.35,519.19c-5.95,0-11.19,2.45-15.04,6.3-3.85,3.85-6.3,9.09-6.3,15.04s2.45,11.19,6.3,15.04c3.85,3.85,9.09,6.3,15.04,6.3s11.19-2.45,15.04-6.3c3.85-3.85,6.3-9.09,6.3-15.04s-2.45-11.19-6.3-15.04c-3.85-3.85-9.09-6.3-15.04-6.3ZM144.45,530.73c-2.45-2.45-5.6-3.85-9.44-3.85s-6.99,1.4-9.44,3.85c-2.45,2.45-3.85,5.6-3.85,9.44s1.4,6.99,3.85,9.44,5.6,3.85,9.44,3.85,6.99-1.4,9.44-3.85c2.45-2.45,3.85-5.6,3.85-9.44s-1.4-6.99-3.85-9.44ZM366.88,501.35H109.12c-4.55,0-8.39,1.75-11.54,4.9-3.15,3.15-4.9,6.99-4.9,11.54v45.12c0,4.55,1.75,8.39,4.9,11.54,3.15,3.15,6.99,4.9,11.54,4.9h257.76c4.55,0,8.39-1.75,11.54-4.9,3.15-3.15,4.9-6.99,4.9-11.54v-45.12c0-4.55-1.75-8.39-4.9-11.54-3.15-3.15-6.99-4.9-11.54-4.9h0Z"/></g><line class="cls-6" x1="399.71" y1="540.52" x2="899.22" y2="144.79"/><line class="cls-6" x1="1301.56" y1="773.06" x2="399.71" y2="540.52"/><line class="cls-6" x1="1474.61" y1="574.39" x2="1091.4" y2="225.22"/><line class="cls-7" x1="1419.61" y1="482.47" x2="1205.71" y2="287.58"/><polygon class="cls-9" points="1421.09 472.03 1439.26 500.37 1409.34 484.91 1421.09 472.03"/><line class="cls-7" x1="1438.82" y1="463.26" x2="1224.92" y2="268.37"/><polygon class="cls-9" points="1440.29 452.82 1458.46 481.17 1428.55 465.7 1440.29 452.82"/><line class="cls-7" x1="1457.37" y1="444.71" x2="1243.48" y2="249.81"/><polygon class="cls-9" points="1458.85 434.26 1477.02 462.61 1447.11 447.15 1458.85 434.26"/><text class="cls-10" transform="translate(1391.19 264.48)"><tspan class="cls-13" x="0" y="0">F</tspan><tspan x="23.27" y="0">requent polling</tspan><tspan x="0" y="49.91">for updated </tspan><tspan class="cls-5" x="216.93" y="49.91">v</tspan><tspan x="236.49" y="49.91">alues</tspan></text></svg>