<?xml version="1.0" encoding="UTF-8"?><svg id="Layer_1" xmlns="http://www.w3.org/2000/svg" viewBox="0 0 1920 1080"><defs><style>.cls-1{letter-spacing:0em;}.cls-2,.cls-3,.cls-4,.cls-5{fill:none;stroke:#283429;}.cls-6{fill:rgba(55,72,56,.15);}.cls-6,.cls-7,.cls-8{stroke-width:0px;}.cls-9,.cls-10{font-family:RobotoMono-Light, 'Roboto Mono';}.cls-9,.cls-10,.cls-11{font-size:25.53px;}.cls-9,.cls-10,.cls-11,.cls-12{isolation:isolate;}.cls-9,.cls-10,.cls-11,.cls-8{fill:#283429;}.cls-9,.cls-10,.cls-12{font-weight:300;}.cls-9,.cls-11{letter-spacing:-.08em;}.cls-10{letter-spacing:-.08em;}.cls-11{font-family:RobotoMono-Medium, 'Roboto Mono';font-weight:500;}.cls-13{letter-spacing:-.01em;}.cls-3{stroke-miterlimit:10;}.cls-3,.cls-4,.cls-5{stroke-width:2px;}.cls-4{stroke-miterlimit:10;}.cls-12{fill:#2d2d2d;font-family:Roboto-Light, Roboto;font-size:34.04px;}.cls-7{fill:#fff;}.cls-5{stroke-miterlimit:10;}</style></defs><rect class="cls-7" x="-8.66" y="-11.55" width="1943.67" height="1101.38"/><rect class="cls-6" x="80.36" y="258.64" width="915.62" height="57.41"/><rect class="cls-6" x="1136.37" y="258.28" width="709.83" height="57.78"/><text class="cls-11" transform="translate(112 298.38)"><tspan x="0" y="0">id</tspan></text><path class="cls-2" d="M81.47,316.05h913.39"/><text class="cls-11" transform="translate(206.58 298.38)"><tspan x="0" y="0">first_name</tspan></text><text class="cls-11" transform="translate(388.34 298.38)"><tspan x="0" y="0">last_name</tspan></text><text class="cls-11" transform="translate(619.75 298.38)"><tspan x="0" y="0">email</tspan></text><text class="cls-11" transform="translate(841.39 298.38)"><tspan x="0" y="0">salary</tspan></text><path class="cls-2" d="M178.57,258.28l.34,330.98"/><path class="cls-2" d="M370.77,258.28l.34,330.98"/><path class="cls-2" d="M523.68,258.28l.34,330.98"/><path class="cls-2" d="M778.39,258.28l.34,330.98"/><text class="cls-10" transform="translate(121.09 362.33)"><tspan x="0" y="0">1</tspan></text><text class="cls-9" transform="translate(243.79 362.34)"><tspan x="0" y="0">john</tspan></text><text class="cls-9" transform="translate(429.78 362.34)"><tspan x="0" y="0">doe</tspan></text><text class="cls-9" transform="translate(543.79 362.34)"><tspan x="0" y="0">johndoe@mail.com</tspan></text><text class="cls-9" transform="translate(849.9 362.34)"><tspan x="0" y="0">50000</tspan></text><text class="cls-12" transform="translate(81.47 246.35)"><tspan x="0" y="0">Employees</tspan></text><path class="cls-2" d="M80.36,398.19h913.39"/><path class="cls-2" d="M82.6,498.2h913.39"/><text class="cls-10" transform="translate(121.09 455.72)"><tspan x="0" y="0">2</tspan></text><text class="cls-10" transform="translate(121.09 552.55)"><tspan x="0" y="0">3</tspan></text><text class="cls-9" transform="translate(235.28 455.73)"><tspan x="0" y="0">chris</tspan></text><text class="cls-9" transform="translate(414.95 455.73)"><tspan x="0" y="0">smith</tspan></text><text class="cls-9" transform="translate(551.23 455.73)"><tspan x="0" y="0">csmith@mail.com</tspan></text><text class="cls-9" transform="translate(849.9 455.73)"><tspan x="0" y="0">35000</tspan></text><text class="cls-9" transform="translate(849.9 552.55)"><tspan x="0" y="0">60000</tspan></text><rect class="cls-2" x="80.36" y="258.28" width="915.62" height="330.98"/><text class="cls-9" transform="translate(235.28 552.55)"><tspan x="0" y="0">anne</tspan></text><text class="cls-9" transform="translate(401.54 552.55)"><tspan x="0" y="0">williams</tspan></text><text class="cls-9" transform="translate(567.54 552.55)"><tspan x="0" y="0">anne@mail.net</tspan></text><text class="cls-11" transform="translate(1168.01 298.38)"><tspan x="0" y="0">id</tspan></text><path class="cls-2" d="M1137.48,316.06h708.72"/><text class="cls-11" transform="translate(1262.59 298.38)"><tspan x="0" y="0">timestamp</tspan></text><text class="cls-11" transform="translate(1444.35 298.38)"><tspan x="0" y="0">operation</tspan></text><text class="cls-11" transform="translate(1633.2 298.38)"><tspan x="0" y="0">data_changed</tspan></text><path class="cls-2" d="M1234.58,258.28l.63,604.5"/><path class="cls-2" d="M1426.79,258.28l.63,604.5"/><path class="cls-2" d="M1579.68,258.28l.61,604.5"/><text class="cls-10" transform="translate(1177.1 362.34)"><tspan x="0" y="0">1</tspan></text><text class="cls-9" transform="translate(1262.59 362.34)"><tspan x="0" y="0">2022-10-10</tspan></text><text class="cls-9" transform="translate(1464.51 362.33)"><tspan x="0" y="0">create</tspan></text><text class="cls-9" transform="translate(1686.54 362.33)"><tspan x="0" y="0">...</tspan></text><text class="cls-12" transform="translate(1137.48 246.35)"><tspan class="cls-13" x="0" y="0">E</tspan><tspan class="cls-1" x="18.93" y="0">vent table</tspan></text><path class="cls-2" d="M1136.37,398.19h709.83"/><path class="cls-2" d="M1138.61,498.2h707.59"/><text class="cls-10" transform="translate(1177.1 455.72)"><tspan x="0" y="0">2</tspan></text><text class="cls-10" transform="translate(1177.1 552.55)"><tspan x="0" y="0">3</tspan></text><text class="cls-9" transform="translate(1464.51 455.73)"><tspan x="0" y="0">create</tspan></text><text class="cls-9" transform="translate(1686.54 455.73)"><tspan x="0" y="0">...</tspan></text><rect class="cls-2" x="1136.37" y="258.28" width="709.83" height="604.5"/><text class="cls-9" transform="translate(1464.51 552.55)"><tspan x="0" y="0">create</tspan></text><text class="cls-9" transform="translate(1262.59 455.72)"><tspan x="0" y="0">2022-10-10</tspan></text><text class="cls-9" transform="translate(1262.59 552.55)"><tspan x="0" y="0">2022-10-10</tspan></text><text class="cls-9" transform="translate(1686.54 561.07)"><tspan x="0" y="0">...</tspan></text><path class="cls-2" d="M1136.37,589.26h707.59"/><path class="cls-2" d="M1136.37,676.46h707.59"/><path class="cls-2" d="M1138.61,768.87h707.59"/><text class="cls-10" transform="translate(1177.1 643.04)"><tspan x="0" y="0">4</tspan></text><text class="cls-9" transform="translate(1464.51 643.04)"><tspan x="0" y="0">update</tspan></text><text class="cls-9" transform="translate(1262.59 643.04)"><tspan x="0" y="0">2022-10-11</tspan></text><text class="cls-9" transform="translate(1686.54 643.04)"><tspan x="0" y="0">...</tspan></text><text class="cls-9" transform="translate(1686.54 740.8)"><tspan x="0" y="0">...</tspan></text><text class="cls-9" transform="translate(1464.51 729.16)"><tspan x="0" y="0">update</tspan></text><text class="cls-9" transform="translate(1464.51 826.59)"><tspan x="0" y="0">delete</tspan></text><text class="cls-9" transform="translate(1686.54 826.59)"><tspan x="0" y="0">...</tspan></text><text class="cls-9" transform="translate(1263.16 729.16)"><tspan x="0" y="0">2022-10-12</tspan></text><text class="cls-9" transform="translate(1263.16 826.59)"><tspan x="0" y="0">2022-10-12</tspan></text><text class="cls-10" transform="translate(1176.13 729.16)"><tspan x="0" y="0">5</tspan></text><text class="cls-10" transform="translate(1177.6 826.59)"><tspan x="0" y="0">6</tspan></text><line class="cls-5" x1="1025.62" y1="543.59" x2="1085.2" y2="543.03"/><polygon class="cls-8" points="1061.05 554.93 1107.19 542.19 1061.05 530.26 1061.05 554.93"/><line class="cls-5" x1="1025.48" y1="447.9" x2="1085.05" y2="447.34"/><polygon class="cls-8" points="1060.9 459.24 1107.05 446.49 1060.9 434.57 1060.9 459.24"/><line class="cls-5" x1="1025.16" y1="354.21" x2="1084.73" y2="353.65"/><polygon class="cls-8" points="1060.58 365.55 1106.73 352.81 1060.59 340.88 1060.58 365.55"/><line class="cls-4" x1="1025.62" y1="572.86" x2="1104.77" y2="615.77"/><polygon class="cls-8" points="1077.88 614.47 1124.42 625.7 1089.84 592.89 1077.88 614.47"/><line class="cls-3" x1="1025.62" y1="596.79" x2="1106.91" y2="688.55"/><polygon class="cls-8" points="1082.08 678.13 1121.97 704.6 1100.7 661.95 1082.08 678.13"/></svg>