<?xml version="1.0" encoding="utf-8"?>
<svg viewBox="74.736 149.2467 194.692 132.7383" xmlns="http://www.w3.org/2000/svg" xmlns:bx="https://boxy-svg.com">
  <defs>
    <style bx:fonts="Roboto">@import url(https://fonts.googleapis.com/css2?family=Roboto%3Aital%2Cwght%400%2C100%3B0%2C300%3B0%2C400%3B0%2C500%3B0%2C700%3B0%2C900%3B1%2C100%3B1%2C300%3B1%2C400%3B1%2C500%3B1%2C700%3B1%2C900&amp;display=swap);</style>
  </defs>
  <g transform="matrix(0.9999999999999999, 0, 0, 0.9999999999999999, 0, 0)">
    <title>Batch</title>
    <text style="fill: rgb(45, 60, 45); font-family: Roboto; font-size: 12px; font-weight: 300; white-space: pre;" x="77.24" y="160.247">Batch</text>
    <rect style="paint-order: fill; fill: none; stroke: rgb(45, 60, 45); stroke-linejoin: round;" x="74.736" y="162.125" width="194.692" height="47.89" rx="5" ry="5"/>
    <text style="fill: rgb(45, 60, 45); font-family: Roboto; font-size: 8.8px; font-weight: 300; white-space: pre;" x="89.465" y="189.2">Source</text>
    <text style="fill: rgb(45, 60, 45); font-family: Roboto; font-size: 8.8px; font-weight: 300; white-space: pre;" x="225.125" y="189.2">Sink</text>
    <path d="M 169.735 172.917 C 173.28 172.917 176.49 174.354 178.814 176.678 C 181.137 179.001 182.575 182.211 182.575 185.757 C 182.575 189.303 181.138 192.513 178.814 194.837 C 176.491 197.16 173.28 198.598 169.735 198.598 C 166.188 198.598 162.978 197.16 160.655 194.837 C 158.331 192.513 156.894 189.303 156.894 185.757 C 156.894 182.211 158.331 179.001 160.655 176.678 C 162.978 174.354 166.188 172.917 169.735 172.917 Z M 174.603 188.129 C 174.884 188.305 174.968 188.676 174.792 188.955 C 174.616 189.236 174.244 189.32 173.965 189.144 L 169.415 186.265 C 169.234 186.151 169.135 185.956 169.135 185.757 L 169.132 185.757 L 169.132 181.606 C 169.132 181.275 169.401 181.005 169.735 181.005 C 170.067 181.005 170.336 181.274 170.336 181.606 L 170.336 185.429 L 174.603 188.129 Z M 159.648 186.36 C 159.316 186.36 159.046 186.091 159.046 185.758 C 159.046 185.425 159.316 185.156 159.648 185.156 L 161.38 185.156 C 161.713 185.156 161.982 185.425 161.982 185.758 C 161.982 186.091 161.713 186.36 161.38 186.36 L 159.648 186.36 Z M 170.336 195.844 C 170.336 196.177 170.067 196.446 169.735 196.446 C 169.401 196.446 169.132 196.177 169.132 195.844 L 169.132 194.113 C 169.132 193.781 169.401 193.512 169.735 193.512 C 170.067 193.512 170.336 193.781 170.336 194.113 L 170.336 195.844 Z M 179.821 185.157 C 180.154 185.157 180.423 185.426 180.423 185.758 C 180.423 186.091 180.154 186.36 179.821 186.36 L 178.089 186.36 C 177.757 186.36 177.488 186.091 177.488 185.758 C 177.488 185.426 177.757 185.157 178.089 185.157 L 179.821 185.157 Z M 169.132 175.672 C 169.132 175.339 169.401 175.07 169.735 175.07 C 170.067 175.07 170.337 175.339 170.337 175.672 L 170.337 177.403 C 170.337 177.736 170.067 178.005 169.735 178.005 C 169.401 178.005 169.132 177.736 169.132 177.403 L 169.132 175.672 Z M 177.963 177.53 C 175.857 175.424 172.948 174.122 169.735 174.122 C 166.521 174.122 163.612 175.425 161.506 177.53 C 159.401 179.636 158.098 182.544 158.098 185.758 C 158.098 188.972 159.401 191.88 161.506 193.986 C 163.612 196.093 166.521 197.394 169.735 197.394 C 172.948 197.394 175.857 196.092 177.963 193.986 C 180.069 191.881 181.371 188.972 181.371 185.758 C 181.371 182.544 180.067 179.636 177.963 177.53 Z" style="fill: rgb(45, 60, 45);"/>
    <g style="transform-origin: 246.408px 268.026px;" transform="matrix(0.963631, 0.267239, -0.267239, 0.963631, -41.250767, -24.854639)">
      <title>Arrow</title>
      <line class="cls-1" x1="148.867" y1="236.505" x2="180.66" y2="227.662" style="fill: none; stroke-miterlimit: 10; stroke: rgb(45, 60, 45); transform-box: fill-box; transform-origin: 50% 50%;"/>
      <polygon class="cls-2" points="173.021 232.653 182.721 226.953 171.521 227.053 173.021 232.653" style="stroke-width: 0px; fill: rgb(45, 60, 45); transform-box: fill-box; transform-origin: 50% 50%;"/>
    </g>
    <g style="transform-origin: 246.408px 268.026px;" transform="matrix(0.963631, 0.267239, -0.267239, 0.963631, 25.646927, -24.854631)">
      <title>Arrow</title>
      <line class="cls-1" x1="148.867" y1="236.505" x2="180.66" y2="227.662" style="fill: none; stroke-miterlimit: 10; stroke: rgb(45, 60, 45); transform-box: fill-box; transform-origin: 50% 50%;"/>
      <polygon class="cls-2" points="173.021 232.653 182.721 226.953 171.521 227.053 173.021 232.653" style="stroke-width: 0px; fill: rgb(45, 60, 45); transform-box: fill-box; transform-origin: 50% 50%;"/>
    </g>
    <text style="fill: rgb(51, 51, 51); font-family: Roboto; font-size: 5px; font-weight: 300; white-space: pre;" x="157.057" y="169.895">40 minutes</text>
  </g>
  <g transform="matrix(0.9999999999999999, 0, 0, 0.9999999999999999, 0, 0)">
    <title>CDC</title>
    <text style="fill: rgb(45, 60, 45); font-family: Roboto; font-size: 12px; font-weight: 300; white-space: pre;" x="77.24" y="232.217">CDC</text>
    <rect style="paint-order: fill; fill: none; stroke: rgb(45, 60, 45); stroke-linejoin: round;" x="74.736" y="234.095" width="194.692" height="47.89" rx="5" ry="5"/>
    <text style="fill: rgb(45, 60, 45); font-family: Roboto; font-size: 8.8px; font-weight: 300; white-space: pre;" x="89.465" y="261.17">Source</text>
    <path d="M 181.669 256.227 L 179.289 255.552 L 179.235 255.373 C 179.065 254.821 178.839 254.279 178.565 253.764 L 178.476 253.599 L 179.676 251.43 C 179.816 251.177 179.771 250.859 179.567 250.656 L 177.866 248.955 C 177.662 248.751 177.345 248.707 177.093 248.848 L 174.918 250.056 L 174.753 249.968 C 174.265 249.707 173.743 249.492 173.157 249.311 L 172.981 249.256 L 172.292 246.861 C 172.213 246.584 171.957 246.391 171.669 246.391 L 169.257 246.391 C 168.969 246.391 168.713 246.585 168.634 246.861 L 167.946 249.257 L 167.768 249.312 C 167.182 249.493 166.66 249.708 166.173 249.969 L 166.007 250.057 L 163.833 248.849 C 163.581 248.709 163.263 248.753 163.059 248.957 L 161.359 250.657 C 161.156 250.861 161.111 251.178 161.25 251.43 L 162.45 253.6 L 162.362 253.765 C 162.086 254.282 161.861 254.824 161.692 255.374 L 161.636 255.554 L 159.256 256.229 C 158.979 256.306 158.785 256.562 158.785 256.851 L 158.785 259.274 C 158.785 259.562 158.979 259.819 159.258 259.899 L 161.638 260.573 L 161.693 260.751 C 161.852 261.271 162.076 261.797 162.377 262.36 L 162.465 262.525 L 161.249 264.703 C 161.108 264.955 161.151 265.273 161.356 265.478 L 163.051 267.173 C 163.255 267.375 163.573 267.419 163.825 267.281 L 166.008 266.067 L 166.174 266.155 C 166.696 266.434 167.233 266.66 167.769 266.826 L 167.947 266.881 L 168.639 269.278 C 168.719 269.553 168.976 269.746 169.262 269.746 L 171.668 269.746 C 171.956 269.746 172.212 269.553 172.291 269.277 L 172.983 266.88 L 173.16 266.825 C 173.695 266.659 174.233 266.433 174.756 266.154 L 174.921 266.066 L 177.105 267.278 C 177.357 267.42 177.674 267.374 177.878 267.171 L 179.573 265.476 C 179.778 265.271 179.822 264.953 179.68 264.701 L 178.463 262.523 L 178.552 262.358 C 178.853 261.794 179.076 261.267 179.236 260.749 L 179.29 260.571 L 181.67 259.895 C 181.948 259.819 182.142 259.563 182.142 259.274 L 182.142 256.851 C 182.142 256.562 181.947 256.306 181.67 256.227 L 181.669 256.227 Z M 181.493 259.274 L 178.774 260.044 L 178.615 260.56 C 178.468 261.039 178.259 261.528 177.978 262.055 L 177.724 262.533 L 179.114 265.02 L 177.419 266.714 L 174.926 265.329 L 174.45 265.584 C 173.962 265.844 173.463 266.054 172.967 266.208 L 172.457 266.366 L 171.667 269.099 L 169.261 269.099 L 168.472 266.366 L 167.961 266.208 C 167.464 266.054 166.965 265.844 166.478 265.584 L 166.002 265.329 L 163.509 266.714 L 161.815 265.019 L 163.205 262.532 L 162.95 262.054 C 162.668 261.528 162.46 261.039 162.313 260.559 L 162.154 260.043 L 159.434 259.274 L 159.434 256.851 L 162.153 256.08 L 162.312 255.565 C 162.469 255.054 162.678 254.551 162.935 254.071 L 163.188 253.595 L 161.818 251.116 L 163.518 249.416 L 166.001 250.796 L 166.478 250.542 C 166.929 250.3 167.414 250.102 167.96 249.932 L 168.472 249.773 L 169.257 247.04 L 171.669 247.04 L 172.454 249.773 L 172.966 249.932 C 173.512 250.102 173.998 250.301 174.449 250.542 L 174.925 250.796 L 177.409 249.416 L 179.109 251.116 L 177.74 253.596 L 177.992 254.071 C 178.247 254.55 178.457 255.053 178.614 255.566 L 178.773 256.081 L 181.492 256.851 L 181.492 259.274 L 181.493 259.274 Z M 170.464 253.528 C 167.96 253.528 165.922 255.566 165.922 258.069 C 165.922 260.574 167.96 262.611 170.464 262.611 C 172.967 262.611 175.005 260.574 175.005 258.069 C 175.005 255.566 172.967 253.528 170.464 253.528 Z M 170.464 261.962 C 168.317 261.962 166.571 260.217 166.571 258.069 C 166.571 255.922 168.316 254.177 170.464 254.177 C 172.611 254.177 174.356 255.924 174.356 258.069 C 174.356 260.216 172.611 261.962 170.464 261.962 Z" style="fill: rgb(45, 60, 45);"/>
    <text style="fill: rgb(45, 60, 45); font-family: Roboto; font-size: 8.8px; font-weight: 300; white-space: pre;" x="225.125" y="261.17">Sink</text>
    <g style="transform-origin: 246.408px 268.026px;" transform="matrix(0.963631, 0.267239, -0.267239, 0.963631, -41.250389, 47.114639)">
      <title>Arrow</title>
      <line class="cls-1" x1="148.867" y1="236.505" x2="180.66" y2="227.662" style="fill: none; stroke-miterlimit: 10; stroke: rgb(45, 60, 45); transform-box: fill-box; transform-origin: 50% 50%;"/>
      <polygon class="cls-2" points="173.021 232.653 182.721 226.953 171.521 227.053 173.021 232.653" style="stroke-width: 0px; fill: rgb(45, 60, 45); transform-box: fill-box; transform-origin: 50% 50%;"/>
    </g>
    <g style="transform-origin: 246.408px 268.026px;" transform="matrix(0.963631, 0.267239, -0.267239, 0.963631, 25.647308, 47.114647)">
      <title>Arrow</title>
      <line class="cls-1" x1="148.867" y1="236.505" x2="180.66" y2="227.662" style="fill: none; stroke-miterlimit: 10; stroke: rgb(45, 60, 45); transform-box: fill-box; transform-origin: 50% 50%;"/>
      <polygon class="cls-2" points="173.021 232.653 182.721 226.953 171.521 227.053 173.021 232.653" style="stroke-width: 0px; fill: rgb(45, 60, 45); transform-box: fill-box; transform-origin: 50% 50%;"/>
    </g>
    <text style="fill: rgb(51, 51, 51); font-family: Roboto; font-size: 5px; font-weight: 300; white-space: pre;" x="157.057" y="241.865">Continuous</text>
  </g>
  <path style="fill: none; stroke: rgb(45, 60, 45); stroke-width: 0.5px; stroke-linecap: round;" d="M 156.846 244.251 L 157.84 245.81300000000002 C 158.834 247.375 160.822 250.499 162.95633333333333 252.11316666666664 C 165.09066666666666 253.72733333333335 167.37133333333333 253.83166666666668 168.51166666666666 253.8838333333333 L 169.652 253.936" transform="matrix(0.9999999999999999, 0, 0, 0.9999999999999999, 0, 0)" bx:d="M 156.846 244.251 U 162.81 253.623 U 169.652 253.936 1@51fb1ada"/>
  <path style="fill: none; stroke: rgb(45, 60, 45); stroke-width: 0.5px; stroke-linecap: round;" d="M 156.846 248.714 L 157.84 250.27599999999998 C 158.834 251.838 160.822 254.962 162.95633333333333 256.57616666666667 C 165.09066666666666 258.19033333333334 167.37133333333333 258.29466666666667 168.51166666666666 258.34683333333334 L 169.652 258.399" transform="matrix(0.9999999999999999, 0, 0, 0.9999999999999999, 0, 0)" bx:d="M 156.846 248.714 U 162.81 258.086 U 169.652 258.399 1@76b49044"/>
  <path style="fill: none; stroke: rgb(45, 60, 45); stroke-width: 0.5px; stroke-linecap: round;" d="M 156.846 252.514 L 157.84 254.07600000000002 C 158.834 255.638 160.822 258.762 162.95633333333333 260.3761666666667 C 165.09066666666666 261.99033333333335 167.37133333333333 262.0946666666667 168.51166666666666 262.14683333333335 L 169.652 262.199" transform="matrix(0.9999999999999999, 0, 0, 0.9999999999999999, 0, 0)" bx:d="M 156.846 252.514 U 162.81 261.886 U 169.652 262.199 1@70a77772"/>
</svg>