<?xml version="1.0" encoding="UTF-8"?><svg id="Layer_1" xmlns="http://www.w3.org/2000/svg" viewBox="0 0 1920 1080"><defs><style>.cls-1{stroke-linejoin:round;}.cls-1,.cls-2,.cls-3{fill:none;stroke:#283429;}.cls-4{fill:rgba(55,72,56,.15);}.cls-4,.cls-5,.cls-6{stroke-width:0px;}.cls-7{font-family:RobotoMono-Medium, 'Roboto Mono';font-weight:500;}.cls-7,.cls-8,.cls-9{font-size:49.06px;isolation:isolate;}.cls-7,.cls-8,.cls-9,.cls-6{fill:#283429;}.cls-7,.cls-9{letter-spacing:-.08em;}.cls-3{stroke-miterlimit:10;stroke-width:3px;}.cls-8{letter-spacing:-.08em;}.cls-8,.cls-9{font-family:RobotoMono-Light, 'Roboto Mono';font-weight:300;}.cls-5{fill:#fff;}</style></defs><rect class="cls-5" x="-8.66" y="-11.55" width="1943.67" height="1101.38"/><rect class="cls-4" x="81.78" y="193.68" width="1756.45" height="113.7"/><rect class="cls-2" x="81.78" y="194.23" width="1756.45" height="252.06"/><text class="cls-7" transform="translate(141.88 274.26)"><tspan x="0" y="0">id</tspan></text><path class="cls-2" d="M83.21,308.23h1755.02"/><text class="cls-7" transform="translate(323.61 274.26)"><tspan x="0" y="0">first_name</tspan></text><text class="cls-7" transform="translate(672.85 274.26)"><tspan x="0" y="0">last_name</tspan></text><text class="cls-7" transform="translate(1117.48 274.26)"><tspan x="0" y="0">email</tspan></text><text class="cls-7" transform="translate(1484.35 274.26)"><tspan x="0" y="0">updated_at</tspan></text><path class="cls-2" d="M269.79,194.23l.26,252.06"/><path class="cls-2" d="M639.09,194.23l.26,252.06"/><path class="cls-2" d="M932.88,194.23l.26,252.06"/><path class="cls-2" d="M1422.3,194.23l.26,252.06"/><text class="cls-8" transform="translate(159.33 397.15)"><tspan x="0" y="0">1</tspan></text><text class="cls-9" transform="translate(395.09 397.15)"><tspan x="0" y="0">john</tspan></text><text class="cls-9" transform="translate(752.47 397.15)"><tspan x="0" y="0">doe</tspan></text><text class="cls-9" transform="translate(971.53 397.15)"><tspan x="0" y="0">johndoe@mail.com</tspan></text><text class="cls-9" transform="translate(1479.9 397.15)"><tspan x="0" y="0">2022-10-10</tspan></text><rect class="cls-4" x="81.78" y="637.09" width="1756.45" height="113.7"/><rect class="cls-1" x="81.78" y="637.26" width="1756.45" height="252.06"/><text class="cls-7" transform="translate(141.88 717.29)"><tspan x="0" y="0">id</tspan></text><path class="cls-2" d="M83.21,751.26h1755.02"/><text class="cls-7" transform="translate(323.61 717.29)"><tspan x="0" y="0">first_name</tspan></text><text class="cls-7" transform="translate(672.85 717.29)"><tspan x="0" y="0">last_name</tspan></text><text class="cls-7" transform="translate(1117.48 717.29)"><tspan x="0" y="0">email</tspan></text><text class="cls-7" transform="translate(1484.35 717.29)"><tspan x="0" y="0">updated_at</tspan></text><path class="cls-2" d="M269.79,637.26l.26,252.06"/><path class="cls-2" d="M639.09,637.26l.26,252.06"/><path class="cls-2" d="M932.88,637.26l.26,252.06"/><path class="cls-2" d="M1422.3,637.09l.26,252.24"/><text class="cls-8" transform="translate(159.33 840.18)"><tspan x="0" y="0">1</tspan></text><text class="cls-9" transform="translate(395.09 840.18)"><tspan x="0" y="0">john</tspan></text><text class="cls-9" transform="translate(752.47 840.18)"><tspan x="0" y="0">doe</tspan></text><text class="cls-9" transform="translate(971.53 840.18)"><tspan x="0" y="0">johndoe@mail.net</tspan></text><text class="cls-9" transform="translate(1479.9 840.18)"><tspan x="0" y="0">2023-05-03</tspan></text><line class="cls-3" x1="1623.92" y1="461.63" x2="1624" y2="576.1"/><polygon class="cls-6" points="1601.53 529.49 1625.25 618.37 1648.93 529.91 1601.53 529.49"/><line class="cls-3" x1="1170.89" y1="461.31" x2="1170.97" y2="575.78"/><polygon class="cls-6" points="1148.5 529.18 1172.22 618.06 1195.9 529.6 1148.5 529.18"/></svg>