<?xml version="1.0" encoding="UTF-8"?><svg id="Layer_1" xmlns="http://www.w3.org/2000/svg" viewBox="0 0 1920 1080"><defs><style>.cls-1{fill-rule:evenodd;}.cls-1,.cls-2,.cls-3{stroke-width:.5px;}.cls-1,.cls-2,.cls-3,.cls-4,.cls-5,.cls-6{stroke-miterlimit:10;}.cls-1,.cls-2,.cls-3,.cls-7,.cls-8{fill:#2d3c2d;}.cls-1,.cls-2,.cls-3,.cls-5{stroke:#2d3c2d;}.cls-9{letter-spacing:.02em;}.cls-2,.cls-10,.cls-11,.cls-8{font-family:Roboto-Light, Roboto;font-weight:300;}.cls-2,.cls-8{font-size:41.59px;}.cls-12,.cls-4,.cls-5,.cls-6{fill:none;}.cls-12,.cls-6{stroke:#283429;}.cls-4{stroke:#bdbdbd;}.cls-7,.cls-13{stroke-width:0px;}.cls-10{font-size:45.05px;}.cls-10,.cls-11{fill:#2d2d2d;isolation:isolate;}.cls-5{stroke-width:3px;}.cls-11{font-size:65.53px;}.cls-6{stroke-width:9px;}.cls-14{letter-spacing:0em;}.cls-13{fill:#fff;}</style></defs><rect class="cls-13" x="-8.66" y="-11.55" width="1943.67" height="1101.38"/><text class="cls-8" transform="translate(269.48 670.89)"><tspan x="0" y="0">Database</tspan></text><g id="database"><path class="cls-1" d="M356.01,231.94c-47.22,0-89.9,7.96-121.33,21.27-15.72,6.65-28.66,14.64-37.98,23.99-9.32,9.35-15.06,20.44-15.06,32.36v226.45c0,4.23.75,8.35,2.09,12.32.07.22.13.44.21.66,0,0,0,.02.01.02,6.71,19.18,27.43,34.22,55.44,45.23,2.37.93,4.82,1.83,7.31,2.7.09.03.18.07.27.1,4.17,1.46,8.5,2.82,12.97,4.1.29.08.58.17.87.26,2,.57,4.03,1.11,6.08,1.65.27.07.54.14.81.21,2.12.54,4.27,1.07,6.45,1.57.18.04.37.09.55.13,4.78,1.09,9.69,2.09,14.72,2.98.12.02.25.04.37.06,2.04.36,4.09.7,6.17,1.03.69.11,1.38.22,2.08.32,1.81.27,3.63.54,5.46.78.8.11,1.6.22,2.4.32,1.96.25,3.95.48,5.94.71.67.07,1.34.15,2.02.22,1.53.16,3.07.32,4.61.46,1.44.13,2.87.27,4.32.39.89.07,1.78.14,2.67.21,1.71.13,3.42.26,5.15.37,1.97.12,3.97.21,5.96.31.72.03,1.43.08,2.16.12,5.68.24,11.43.36,17.26.36,8.63,0,17.1-.27,25.38-.78,4.07-.25,8.07-.59,12.04-.96,1.61-.15,3.22-.29,4.82-.46.55-.06,1.1-.13,1.65-.19,2.15-.24,4.29-.49,6.4-.76.59-.08,1.18-.15,1.77-.23,2.03-.27,4.05-.56,6.04-.86.57-.09,1.14-.18,1.71-.27,2.28-.36,4.53-.73,6.76-1.13,0,0,.02,0,.02,0,18.48-3.29,35.37-7.93,50.03-13.69,30.92-12.15,52.96-29.22,57.07-51.34h-.02c.42-2.26.66-4.56.66-6.89v-226.45c0-2.19-.19-4.35-.57-6.48-.05-.37-.12-.74-.23-1.11-1.86-9.04-6.96-17.44-14.27-24.78-9.32-9.35-22.26-17.34-37.98-23.99-31.44-13.31-74.07-21.27-121.29-21.27ZM356.01,245.1c45.72,0,86.93,7.89,116.14,20.25,14.61,6.18,26.19,13.48,33.81,21.13,5.75,5.78,9.21,11.56,10.56,17.39-3.45,14.18-20.64,29.26-48.7,40.28-28.89,11.35-68.33,18.46-111.82,18.46s-82.92-7.11-111.81-18.46c-28.13-11.05-45.34-26.18-48.72-40.39h0c1.37-5.79,4.83-11.54,10.54-17.27,7.62-7.65,19.21-14.94,33.81-21.13,29.21-12.37,70.45-20.25,116.18-20.25ZM194.8,328.63c10.2,11.1,25.74,20.34,44.6,27.75,30.92,12.15,71.7,19.33,116.62,19.33s85.71-7.18,116.63-19.33c18.82-7.39,34.34-16.61,44.54-27.68v52.13c-.16.36-.29.73-.39,1.11-2.7,14.54-20.07,30.14-48.96,41.49-28.89,11.35-68.33,18.46-111.82,18.46s-82.92-7.11-111.81-18.46c-28.89-11.35-46.26-26.95-48.96-41.49-.1-.43-.25-.86-.44-1.26v-52.04ZM232.26,377.56c-4.3.02-7.79,3.5-7.8,7.79-.01,4.31,3.48,7.82,7.8,7.84,4.33.02,7.85-3.47,7.87-7.79,0-.02,0-.04,0-.05-.02-4.32-3.54-7.8-7.86-7.79,0,0,0,0,0,0ZM194.8,407.9c10.2,11.1,25.74,20.34,44.6,27.75,30.92,12.15,71.7,19.38,116.62,19.38s85.71-7.23,116.63-19.38c18.82-7.39,34.34-16.61,44.54-27.68v51.07c-.42.66-.71,1.39-.87,2.16-2.7,14.54-20.02,30.14-48.91,41.49-28.89,11.35-68.33,18.46-111.82,18.46s-80.85-6.74-109.52-17.58c-28.67-10.84-46.73-25.92-50.71-40.07-.14-.4-.32-.79-.54-1.16v-54.43ZM232.26,455.89c-4.3.02-7.79,3.5-7.8,7.79-.01,4.31,3.48,7.82,7.8,7.84,4.33.02,7.85-3.47,7.87-7.79,0-.02,0-.04,0-.05-.02-4.32-3.54-7.8-7.86-7.79h0ZM517.18,486.8v49.21c0,2.22-.3,4.42-.9,6.62-2.76,9.77-11.99,19.9-26.74,28.81-.19.11-.38.23-.58.35-.75.44-1.5.89-2.27,1.32-4.43,2.49-9.28,4.87-14.54,7.09-10.95,4.64-23.59,8.65-37.53,11.85-.21.05-.42.09-.63.14-2.12.48-4.26.94-6.44,1.39-.11.02-.22.04-.33.06-2.29.46-4.59.9-6.94,1.32-.09.02-.18.03-.27.05-2.37.42-4.78.82-7.21,1.2-.15.02-.31.04-.46.06-1.98.3-3.98.59-6,.86-.6.08-1.2.17-1.81.24-2.17.28-4.37.54-6.58.78-.27.03-.53.06-.8.09-2.28.25-4.59.47-6.91.68-.4.03-.79.08-1.18.12-1.96.17-3.94.31-5.92.45-.82.06-1.62.11-2.44.17-1.99.13-4,.24-6.01.33-.58.03-1.15.06-1.73.09-5.56.24-11.21.36-16.93.36s-11.23-.12-16.73-.36c-.06,0-.12,0-.18,0-2.62-.11-5.22-.26-7.8-.42-.74-.05-1.46-.1-2.2-.15-10.07-.7-19.82-1.78-29.16-3.2-.66-.1-1.31-.2-1.97-.31-1.89-.3-3.76-.61-5.62-.94-.46-.08-.92-.16-1.38-.24-1.99-.36-3.95-.74-5.9-1.13-.49-.1-.99-.19-1.48-.3-1.74-.36-3.46-.73-5.17-1.12-.67-.15-1.33-.3-1.99-.45-13.57-3.16-25.91-7.1-36.61-11.63-1.63-.69-3.21-1.39-4.77-2.11-.38-.18-.78-.36-1.16-.54-1.15-.54-2.27-1.11-3.38-1.67-20.67-10.51-33.05-23.35-35.29-35.42h-.03c-.27-1.48-.41-2.97-.41-4.46v-48.3c10.63,11.36,26.85,20.72,46.59,28.18,30.61,11.57,70.45,18.4,114.19,18.4s85.71-7.23,116.63-19.38c19.09-7.5,34.79-16.85,44.98-28.12ZM232.26,538.3c-4.3.02-7.79,3.5-7.8,7.79-.01,4.31,3.48,7.82,7.8,7.84,4.33.02,7.85-3.47,7.87-7.79,0-.02,0-.04,0-.05-.01-4.32-3.54-7.8-7.86-7.79h0Z"/></g><text class="cls-2" transform="translate(886.19 346.16)"><tspan x="0" y="0">Log</tspan></text><path class="cls-3" d="M961.02,373.9h-81.4c-8.74,0-15.82,7.08-15.82,15.82v99.64c0,1.22.48,2.39,1.32,3.27l33.81,34.44c.87.9,2.07,1.4,3.32,1.4h58.76c8.74,0,15.82-7.08,15.82-15.82v-122.93c0-4.2-1.67-8.22-4.63-11.19-2.97-2.97-6.99-4.63-11.19-4.63ZM898.25,513.08l-18.68-18.98h12.18c1.72,0,3.37.68,4.6,1.9,1.22,1.22,1.9,2.87,1.9,4.59v12.48ZM967.52,512.65c0,3.59-2.9,6.5-6.49,6.5h-53.44v-18.66c-.06-8.69-7.13-15.71-15.83-15.71h-18.66v-95.05c0-3.59,2.91-6.5,6.5-6.5h81.43c1.72,0,3.37.69,4.59,1.9,1.22,1.22,1.9,2.87,1.9,4.59v122.93ZM886.15,456.45h12.39v9.33h-12.39v-9.33ZM906.67,456.45h47.84v9.33h-47.84v-9.33ZM886.15,437.78h12.39v9.33h-12.39s0-9.33,0-9.33ZM906.67,437.78h47.84v9.33h-47.84s0-9.33,0-9.33ZM886.15,419.12h12.39v9.33h-12.39s0-9.33,0-9.33ZM906.67,419.12h47.84v9.33h-47.84v-9.33ZM886.15,400.46h12.39v9.33h-12.39s0-9.33,0-9.33ZM906.67,400.46h47.84v9.33h-47.84v-9.33Z"/><path class="cls-12" d="M788.3,559.29h264.06c10.38,0,18.8,9.17,18.8,20.48v276.76c0,11.31-8.42,20.48-18.8,20.48h-264.06c-10.38,0-18.8-9.17-18.8-20.48v-276.76c0-11.31,8.42-20.48,18.8-20.48Z"/><text class="cls-10" transform="translate(816.71 631.25) scale(.92 1)"><tspan x="0" y="0">Inse</tspan><tspan class="cls-9" x="82.83" y="0">r</tspan><tspan x="99.08" y="0">t</tspan></text><text class="cls-10" transform="translate(791.06 716.66) scale(.92 1)"><tspan x="0" y="0">Update</tspan></text><text class="cls-10" transform="translate(807.22 802.33) scale(.92 1)"><tspan x="0" y="0">Delete</tspan></text><text class="cls-10" transform="translate(979.28 631.25) scale(.92 1)"><tspan x="0" y="0">...</tspan></text><text class="cls-10" transform="translate(979.28 711.23) scale(.92 1)"><tspan x="0" y="0">...</tspan></text><text class="cls-10" transform="translate(979.28 802.33) scale(.92 1)"><tspan x="0" y="0">...</tspan></text><rect class="cls-6" x="1365.03" y="298.94" width="384.51" height="169.33" rx="20.48" ry="20.48"/><text class="cls-11" transform="translate(1486.38 372.87)"><tspan x="0" y="0">CDC</tspan></text><text class="cls-11" transform="translate(1401.38 438.41)"><tspan x="0" y="0">Connec</tspan><tspan class="cls-14" x="218.87" y="0">t</tspan><tspan x="239.28" y="0">or</tspan></text><polyline class="cls-4" points="355.99 687.17 355.99 802.33 769.53 802.33"/><line class="cls-5" x1="1359.38" y1="471.71" x2="1110.18" y2="621.91"/><polygon class="cls-7" points="1110.77 611.38 1087.41 635.63 1119.77 626.31 1110.77 611.38"/></svg>