<?xml version="1.0" encoding="UTF-8"?><svg id="Layer_1" xmlns="http://www.w3.org/2000/svg" viewBox="0 0 1920 1080"><defs><style>.cls-1{fill:#832524;}.cls-1,.cls-2,.cls-3,.cls-4,.cls-5,.cls-6{stroke-width:0px;}.cls-7{fill:#283429;font-family:Roboto-Light, Roboto;font-size:65px;font-weight:300;}.cls-7,.cls-8{isolation:isolate;}.cls-2{fill:#561b1b;}.cls-3{fill:#8c2726;}.cls-9{letter-spacing:-.02em;}.cls-4{fill:#ba2f2b;}.cls-5{fill:#fff;}.cls-6{fill:#172d54;fill-rule:evenodd;}</style></defs><rect class="cls-5" x="-8.66" y="-11.55" width="1943.67" height="1101.38"/><path class="cls-1" d="M1558.73,571.79c-29.7,15.48-183.55,78.74-216.31,95.82-32.75,17.08-50.95,16.91-76.83,4.54-25.87-12.37-189.6-78.5-219.09-92.6-14.74-7.04-22.49-12.99-22.49-18.61v-56.25s213.15-46.4,247.56-58.75c34.41-12.35,46.35-12.79,75.63-2.07,29.29,10.73,204.39,42.32,233.33,52.92v55.46c0,5.56-6.69,11.66-21.8,19.54"/><path class="cls-4" d="M1558.72,515.87c-29.7,15.47-183.55,78.74-216.3,95.81-32.75,17.08-50.95,16.91-76.82,4.54-25.88-12.36-189.6-78.51-219.09-92.6-29.49-14.1-30.11-23.8-1.14-35.14,28.97-11.35,191.79-75.23,226.21-87.57,34.41-12.34,46.35-12.79,75.63-2.06,29.28,10.73,182.22,71.6,211.15,82.2,28.95,10.61,30.06,19.35.36,34.83"/><path class="cls-1" d="M1558.73,480.77c-29.7,15.48-183.55,78.74-216.31,95.82-32.75,17.07-50.95,16.91-76.83,4.54-25.88-12.36-189.6-78.5-219.09-92.6-14.74-7.04-22.49-12.98-22.49-18.6v-56.26s213.15-46.4,247.56-58.75c34.41-12.35,46.35-12.79,75.63-2.07,29.29,10.73,204.39,42.31,233.33,52.92v55.46c0,5.56-6.69,11.66-21.8,19.54"/><path class="cls-4" d="M1558.72,424.85c-29.7,15.48-183.55,78.74-216.3,95.82-32.75,17.07-50.95,16.91-76.82,4.54-25.88-12.36-189.6-78.5-219.09-92.6-29.49-14.09-30.11-23.8-1.14-35.15,28.97-11.34,191.79-75.23,226.21-87.57,34.41-12.34,46.35-12.79,75.63-2.06,29.28,10.73,182.22,71.59,211.15,82.2,28.95,10.61,30.06,19.35.36,34.83"/><path class="cls-1" d="M1558.73,386.38c-29.7,15.48-183.55,78.74-216.31,95.82-32.75,17.07-50.95,16.91-76.83,4.54-25.88-12.36-189.6-78.51-219.09-92.6-14.74-7.05-22.49-12.99-22.49-18.6v-56.26s213.15-46.4,247.56-58.74c34.41-12.35,46.35-12.79,75.63-2.07,29.29,10.73,204.39,42.31,233.33,52.92v55.46c0,5.55-6.69,11.65-21.8,19.53"/><path class="cls-4" d="M1558.72,330.46c-29.7,15.48-183.55,78.74-216.3,95.81-32.75,17.07-50.95,16.91-76.82,4.54-25.87-12.37-189.6-78.51-219.09-92.6-29.49-14.09-30.11-23.8-1.14-35.14,28.97-11.34,191.79-75.22,226.21-87.57,34.41-12.35,46.35-12.79,75.63-2.06,29.28,10.73,182.22,71.6,211.15,82.2,28.95,10.6,30.06,19.34.36,34.82"/><path class="cls-5" d="M1370.28,275.73l-47.85,4.97-10.71,25.77-17.3-28.76-55.25-4.97,41.23-14.87-12.37-22.82,38.6,15.1,36.39-11.91-9.83,23.6,37.1,13.89M1308.87,400.77l-89.3-37.04,127.96-19.64-38.66,56.68M1185.06,290.06c37.77,0,68.39,11.87,68.39,26.51s-30.62,26.51-68.39,26.51-68.39-11.87-68.39-26.51,30.62-26.51,68.39-26.51"/><path class="cls-2" d="M1426.83,282.78l75.73,29.93-75.67,29.9-.07-59.83"/><path class="cls-3" d="M1343.05,315.92l83.78-33.14.07,59.82-8.22,3.21-75.63-29.9"/><path class="cls-6" d="M646.21,454.97c12.07-1.1,24.15-1.1,36.22-2.2v-8.78c-12.07-1.1-24.15-1.1-36.22-2.2l-36.22-1.1c-20.86-1.1-42.81-1.1-63.67-1.1,0-20.86,0-42.81-1.1-63.67l-1.1-36.22c-1.1-12.07-1.1-24.15-2.2-36.22h-9.88c-1.1,12.07-1.1,24.15-2.2,36.22l-1.1,36.22v29.64c-4.39-8.78-7.68-18.66-12.07-27.44l-15.37-32.93c-5.49-10.98-9.88-21.95-15.37-32.93l-8.78,3.29c4.39,12.07,7.68,23.05,12.07,34.03l13.17,34.03c3.29,9.88,7.68,18.66,10.98,28.54-7.68-6.59-14.27-14.27-21.95-20.86l-26.35-25.25c-8.78-7.68-17.56-16.47-27.44-24.15l-7.68,7.68c7.68,8.78,16.47,17.56,24.15,27.44l25.25,26.35c6.59,7.68,14.27,14.27,20.86,21.95-8.78-3.29-18.66-7.68-28.54-10.98l-34.03-13.17c-10.98-4.39-23.05-8.78-34.03-12.07l-4.39,9.88c10.98,5.49,21.95,9.88,32.93,15.37l32.93,15.37c8.78,4.39,18.66,7.68,27.44,12.07h-29.64l-36.22,1.1c-12.07,1.1-24.15,1.1-36.22,2.2v9.88c12.07,1.1,24.15,1.1,36.22,2.2l36.22,1.1c21.95,1.1,42.81,1.1,63.67,1.1,0,20.86,0,42.81,1.1,63.67l1.1,36.22c1.1,12.07,1.1,24.15,2.2,36.22h8.78c1.1-12.07,1.1-24.15,2.2-36.22l1.1-36.22c0-9.88,0-20.86,1.1-30.74,4.39,9.88,7.68,18.66,12.07,28.54l15.37,32.93c5.49,10.98,9.88,21.95,15.37,32.93l8.78-3.29c-3.29-12.07-7.68-23.05-12.07-34.03l-10.98-36.22c-3.29-9.88-7.68-18.66-10.98-28.54,7.68,7.68,14.27,14.27,21.95,20.86l26.35,25.25c8.78,7.68,17.56,16.47,27.44,24.15l6.59-6.59c-7.68-8.78-16.47-17.56-24.15-27.44l-25.25-26.35c-6.59-7.68-14.27-15.37-20.86-21.95,9.88,3.29,18.66,7.68,28.54,10.98l34.03,13.17c10.98,4.39,23.05,8.78,34.03,12.07l3.29-8.78c-10.98-5.49-21.95-10.98-32.93-15.37l-32.93-15.37c-9.88-4.39-18.66-8.78-28.54-12.07,9.88,0,20.86,0,30.74-1.1,0,0,36.22-1.1,36.22-1.1Z"/><path class="cls-6" d="M544.12,677.81c-130.63,0-236.01-105.38-236.01-236.01s105.38-236.01,236.01-236.01,236.01,105.38,236.01,236.01-105.38,236.01-236.01,236.01M544.12,227.75c-117.46,0-214.05,96.6-214.05,214.05s96.6,214.05,214.05,214.05,214.05-96.6,214.05-214.05-96.6-214.05-214.05-214.05"/><text class="cls-7" transform="translate(405.98 848.09)"><tspan x="0" y="0">Confluent</tspan></text><g class="cls-8"><text class="cls-7" transform="translate(1140.71 806.45)"><tspan x="0" y="0">Redis Data </tspan></text><text class="cls-7" transform="translate(1140.71 889.72)"><tspan x="0" y="0">Integ</tspan><tspan class="cls-9" x="143.52" y="0">r</tspan><tspan x="164.12" y="0">ation</tspan></text></g></svg>