<?xml version="1.0" encoding="UTF-8"?><svg id="Layer_1" xmlns="http://www.w3.org/2000/svg" xmlns:xlink="http://www.w3.org/1999/xlink" viewBox="0 0 1920 1080"><defs><style>.cls-1{fill:url(#linear-gradient);}.cls-1,.cls-2,.cls-3,.cls-4,.cls-5,.cls-6,.cls-7{stroke-width:0px;}.cls-8{fill:#283429;font-family:Roboto-Light, Roboto;font-size:65px;font-weight:300;}.cls-8,.cls-9{isolation:isolate;}.cls-2{fill:#000;}.cls-3{fill:url(#linear-gradient-4);}.cls-4{fill:url(#linear-gradient-2);}.cls-5{fill:url(#linear-gradient-3);}.cls-6{fill:url(#linear-gradient-5);}.cls-7{fill:#fff;}</style><linearGradient id="linear-gradient" x1="342.37" y1="1221.69" x2="642.59" y2="1521.91" gradientTransform="translate(-4.82 -1096.75) scale(1.12)" gradientUnits="userSpaceOnUse"><stop offset="0" stop-color="#88cc4d"/><stop offset="1" stop-color="#46b5d7"/></linearGradient><linearGradient id="linear-gradient-2" x1="417.23" y1="1146.83" x2="717.45" y2="1447.05" xlink:href="#linear-gradient"/><linearGradient id="linear-gradient-3" x1="491.54" y1="1072.52" x2="791.76" y2="1372.74" xlink:href="#linear-gradient"/><linearGradient id="linear-gradient-4" x1="267.44" y1="1296.6" x2="567.66" y2="1596.81" xlink:href="#linear-gradient"/><linearGradient id="linear-gradient-5" x1="193.19" y1="1370.85" x2="493.41" y2="1671.06" xlink:href="#linear-gradient"/></defs><rect class="cls-7" x="-8.66" y="-11.55" width="1943.67" height="1101.38"/><text class="cls-8" transform="translate(405.98 848.09)"><tspan x="0" y="0">Debezium</tspan></text><g class="cls-9"><text class="cls-8" transform="translate(1105.29 848.09)"><tspan x="0" y="0">Apache Kafka</tspan></text></g><path class="cls-1" d="M645.25,616.44c0,32.98,26.38,59.36,59.36,59.36h73.28v-73.28c0-32.98-26.38-59.36-59.36-59.36h-13.19c-52.03,0-94.53-42.5-94.53-94.53v-14.66c0-32.98-26.38-59.36-59.36-59.36h-14.66c-52.03,0-94.53-42.5-94.53-94.53h0v-13.92c.73-32.98-26.38-59.36-59.36-59.36h-73.28v73.28c0,32.98,26.38,59.36,59.36,59.36h13.92c52.03,0,94.53,42.5,94.53,94.53v13.92c0,32.98,26.38,59.36,59.36,59.36h14.66c52.03,0,94.53,42.5,94.53,94.53h0v14.66h-.73Z"/><path class="cls-4" d="M778.62,433.97c0-32.98-26.38-59.36-59.36-59.36h-13.92c-52.03,0-94.53-42.5-94.53-94.53v-13.92c-.73-32.98-27.11-59.36-60.09-59.36h-73.28v74.01c.73,32.24,27.11,58.62,59.36,58.62h14.66c52.03,0,94.53,42.5,94.53,94.53h0v13.92c0,32.98,26.38,59.36,59.36,59.36h73.28v-73.28Z"/><path class="cls-5" d="M778.62,266.15c0-31.51-25.65-57.89-57.16-59.36h-76.95v74.01c.73,32.24,27.11,58.62,59.36,58.62h74.75v-73.28Z"/><path class="cls-3" d="M309.62,448.62c0,32.98,26.38,59.36,59.36,59.36h13.92c52.03,0,94.53,42.5,94.53,94.53v13.92c0,32.98,26.38,59.36,59.36,59.36h73.28v-74.01c-.73-32.24-27.11-58.62-59.36-58.62h-13.92c-52.03,0-94.53-42.5-94.53-94.53h0v-13.92c0-32.98-26.38-59.36-59.36-59.36h-73.28v73.28Z"/><path class="cls-6" d="M309.62,616.44c0,31.51,25.65,57.89,57.16,59.36h76.95v-74.01c-.73-32.24-27.11-58.62-59.36-58.62h-74.75v73.28Z"/><path class="cls-2" d="M1256.92,248.08c-11.11-11.38-29.42-11.38-40.54,0h-.13c-5.39,5.51-8.38,12.93-8.33,20.63,0,8.11,3.19,15.38,8.35,20.57l.14.14c5.09,5.23,12.2,8.43,20.18,8.43s15.16-3.21,20.33-8.43l.06-.14c5.17-5.18,8.33-12.45,8.33-20.57s-3.15-15.38-8.33-20.63h-.06ZM1236.58,647.22c8,0,15.16-3.3,20.33-8.49l.06-.15c5.17-5.17,8.33-12.5,8.33-20.51s-3.15-15.41-8.33-20.67h-.06c-5.33-5.51-12.67-8.6-20.33-8.56-7.62-.06-14.93,3.05-20.2,8.56h-.13c-5.15,5.26-8.36,12.55-8.36,20.67s3.19,15.34,8.36,20.51l.13.15c5.11,5.19,12.22,8.49,20.2,8.49ZM1392.8,558.88c7.11-1.9,13.52-6.53,17.46-13.54l.53-1.03c3.38-6.51,4.2-14.06,2.26-21.12-1.9-7.47-6.71-13.86-13.36-17.74l-.42-.28c-6.47-3.66-14.15-4.59-21.34-2.61-7.13,1.81-13.54,6.63-17.44,13.59-3.96,6.91-4.77,14.85-2.89,22.16,1.96,7.18,6.54,13.68,13.36,17.74h.04c6.85,4.01,14.59,4.73,21.8,2.85ZM1265.98,413.51c-7.72-7.92-18.33-12.39-29.4-12.42-11.49,0-21.84,4.79-29.34,12.42-7.48,7.62-12.12,18.14-12.12,29.84s4.61,22.26,12.12,29.98c16.14,16.41,42.61,16.41,58.74,0,7.51-7.72,12.12-18.28,12.12-29.98s-4.61-22.21-12.12-29.84ZM1249.45,363.81c16.69,2.79,31.68,10.93,43.12,22.65h.08c1.82,1.84,3.6,3.89,5.24,5.92l28.63-16.85c-3.76-11.6-4.1-24.04-.93-35.79,4.16-16.04,14.53-29.76,28.83-38.14l.5-.32c14.04-8.16,30.77-10.34,46.43-6.06,15.24,4.16,29.01,14.28,37.58,29.34v.04c8.53,14.99,10.26,32.19,6.2,47.68-4.14,16.06-14.52,29.8-28.83,38.17l-3.92,2.34h-.4c-13.26,6.41-28.41,7.82-42.65,3.98-11.58-3.19-22-9.68-29.98-18.69l-28.59,16.79c6.79,18.4,6.79,38.61,0,57.01l28.59,16.75c8.18-9.31,18.6-15.62,29.98-18.69,15.86-4.39,32.83-2.12,46.94,6.32l.95.45v.04c13.82,8.49,23.82,22.02,27.87,37.74,4.24,16.08,2.02,33.17-6.19,47.62l-.51,1.05-.06-.1c-8.18,13.9-21.42,24.1-36.97,28.43-15.86,4.28-32.77,2-46.94-6.29v-.12c-14.28-8.4-24.66-22.12-28.83-38.15-3.15-11.76-2.83-24.17.93-35.74l-28.63-16.79c-1.64,2.02-3.38,3.96-5.24,5.83l-.08.1c-11.6,11.92-26.71,19.82-43.12,22.53v33.64c11.76,2.53,22.49,8.46,30.88,17.07l.04.08c11.19,11.33,18.1,27.08,18.1,44.41s-6.93,32.95-18.1,44.34l-.04.18c-11.52,11.76-27.28,18.41-43.75,18.43-16.44-.04-32.18-6.67-43.68-18.41h-.04v-.18c-11.63-11.82-18.16-27.74-18.14-44.33,0-17.33,6.93-33.11,18.14-44.41v-.08h.04c8.4-8.59,19.13-14.51,30.85-17.07v-33.64c-16.39-2.71-31.5-10.61-43.08-22.53l-.12-.1c-14.89-15.19-23.24-35.62-23.22-56.9,0-22.21,8.95-42.29,23.22-56.87h.12c11.58-11.94,26.69-19.88,43.08-22.65v-33.5c-11.72-2.61-22.43-8.55-30.85-17.1h-.04v-.08c-11.65-11.84-18.16-27.8-18.14-44.41,0-17.25,6.93-33.04,18.14-44.41l.04-.04c11.49-11.8,27.23-18.46,43.68-18.47,17.04,0,32.49,7.03,43.75,18.46v.04h.04c11.19,11.36,18.1,27.16,18.1,44.41s-6.93,33.01-18.1,44.41l-.04.1c-8.41,8.56-19.15,14.52-30.88,17.1v33.5ZM1410.25,341.46l-.24-.37c-3.78-6.5-9.96-11.25-17.23-13.23-7.37-2.02-15.24-.99-21.84,2.89h.04c-6.87,3.96-11.49,10.47-13.41,17.74-1.88,7.23-1.07,15.21,2.89,22.15l.14.18c3.96,6.87,10.27,11.47,17.31,13.33,7.07,2.04,14.95,1.17,21.74-2.85l.37-.18c6.46-3.94,11.11-10.22,13.01-17.53,2-7.46,1.01-15.4-2.79-22.13"/></svg>