<?xml version="1.0" encoding="UTF-8"?><svg id="Layer_1" xmlns="http://www.w3.org/2000/svg" xmlns:xlink="http://www.w3.org/1999/xlink" viewBox="0 0 1920 1609.64"><defs><style>.cls-1{fill:#1c7ba3;}.cls-1,.cls-2,.cls-3,.cls-4,.cls-5,.cls-6,.cls-7,.cls-8,.cls-9,.cls-10,.cls-11,.cls-12,.cls-13,.cls-14,.cls-15,.cls-16,.cls-17{stroke-width:0px;}.cls-18{letter-spacing:-.04em;}.cls-19{stroke:#000;stroke-width:2.54px;}.cls-19,.cls-20,.cls-21{stroke-miterlimit:4.72;}.cls-19,.cls-22{fill:#000;}.cls-2{fill:#2ae868;}.cls-3,.cls-23,.cls-24,.cls-25,.cls-26,.cls-27,.cls-28,.cls-29{fill:none;}.cls-30{letter-spacing:-.01em;}.cls-23,.cls-24,.cls-25,.cls-26{stroke-linecap:round;}.cls-23,.cls-24,.cls-25,.cls-26,.cls-28,.cls-29,.cls-20,.cls-21{stroke:#fff;}.cls-23,.cls-24,.cls-29{stroke-width:.85px;}.cls-23,.cls-25{stroke-linejoin:bevel;}.cls-24,.cls-26,.cls-28,.cls-29{stroke-linejoin:round;}.cls-4{fill:url(#linear-gradient);}.cls-5{fill:url(#radial-gradient);}.cls-6{fill:rgba(48,47,47,.35);}.cls-25,.cls-26,.cls-28{stroke-width:.85px;}.cls-31{fill:#2d2d2d;font-family:Roboto-Light, Roboto;font-size:53.08px;font-weight:300;isolation:isolate;}.cls-7{fill:#f38e31;}.cls-8{fill:#201d1d;}.cls-9{fill:rgba(55,72,56,.15);}.cls-10{fill:rgba(61,141,57,.3);}.cls-11{fill:#2f5c82;}.cls-27{stroke:#bdbdbd;}.cls-12{fill:#3373a1;}.cls-32{letter-spacing:0em;}.cls-13{fill:url(#linear-gradient-2);}.cls-33{letter-spacing:-.02em;}.cls-14,.cls-20,.cls-21{fill:#fff;}.cls-15{fill:#302f2f;}.cls-20{stroke-width:.14px;}.cls-16{fill:#b3e1f7;}.cls-17{fill:#547b94;}.cls-21{stroke-width:.28px;}.cls-22{font-family:Roboto-Medium, Roboto;font-size:60px;font-weight:500;}</style><linearGradient id="linear-gradient" x1="-30762.83" y1="16941.02" x2="-26300.01" y2="14304.01" gradientTransform="matrix(0,0,0,0,1051.71,1142.11)" gradientUnits="userSpaceOnUse"><stop offset="0" stop-color="#84909d"/><stop offset="1" stop-color="#e9e9ea"/></linearGradient><linearGradient id="linear-gradient-2" x1="-15569.16" y1="1263.19" x2="-11978.27" y2="1263.19" gradientTransform="matrix(0,0,0,0,1051.71,1142.11)" gradientUnits="userSpaceOnUse"><stop offset="0" stop-color="#87939f"/><stop offset="1" stop-color="#d6d8db"/></linearGradient><radialGradient id="radial-gradient" cx="-75738.98" cy="-35555.73" fx="-75738.98" fy="-35555.73" r="4767.61" gradientTransform="translate(1031.03 1101.67) rotate(171.36) scale(0) skewY(-.05)" gradientUnits="userSpaceOnUse"><stop offset="0" stop-color="#e7342e"/><stop offset="1" stop-color="#9c2022"/></radialGradient></defs><rect class="cls-14" x="-8.66" y="-3.48" width="1943.67" height="1613.12"/><path class="cls-9" d="M290.86,181.52h1338.28c14.66,0,26.54,11.88,26.54,26.54v181.55H264.32v-181.55c0-14.66,11.88-26.54,26.54-26.54Z"/><rect class="cls-10" x="264.32" y="597.71" width="1391.36" height="208.09"/><rect class="cls-27" x="264.32" y="181.52" width="1391.36" height="1248.54" rx="26.54" ry="26.54"/><line class="cls-27" x1="264.32" y1="389.61" x2="1655.68" y2="389.61"/><line class="cls-27" x1="991.03" y1="181.52" x2="991.03" y2="1430.07"/><line class="cls-27" x1="264.32" y1="597.71" x2="1655.68" y2="597.71"/><line class="cls-27" x1="264.32" y1="805.8" x2="1655.68" y2="805.8"/><line class="cls-27" x1="264.32" y1="1221.98" x2="1655.68" y2="1221.98"/><path class="cls-3" d="M434.66,389.61h377.73v261.81h-377.73v-261.81Z"/><path class="cls-17" d="M616.49,535.08h-10.22c-.37-17.26-1.36-33.49-2.99-48.69h-.09l-15.57,48.69h-7.79l-15.47-48.69h-.09c-1.15,14.6-1.87,30.83-2.17,48.69h-9.32c.6-21.72,2.11-42.09,4.52-61.09h12.68l14.75,44.89h.09l14.84-44.89h12.12c2.66,22.26,4.23,42.63,4.71,61.09M660.83,490c-4.16,22.59-9.66,39.01-16.47,49.26-5.31,7.89-11.13,11.84-17.47,11.84-1.69,0-3.77-.51-6.24-1.52v-5.45c1.2.18,2.62.27,4.25.27,2.96,0,5.34-.81,7.16-2.45,2.17-1.99,3.25-4.22,3.25-6.69,0-1.69-.85-5.16-2.54-10.41l-11.22-34.85h10.05l8.05,26.06c1.81,5.92,2.56,10.05,2.26,12.41,4.41-11.76,7.48-24.59,9.24-38.47h9.68Z"/><path class="cls-7" d="M796.96,535.08h-29.05v-61.09h9.77v53.58h19.28v7.52ZM760.3,536.56l-11.23-5.55c.99-.82,1.95-1.7,2.8-2.73,4.78-5.61,7.16-13.9,7.16-24.89,0-20.21-7.93-30.32-23.8-30.32-7.78,0-13.85,2.56-18.19,7.69-4.77,5.62-7.15,13.88-7.15,24.81s2.11,18.62,6.33,23.61c3.86,4.53,9.69,6.79,17.48,6.79,2.9,0,5.57-.36,8-1.07l14.62,8.51,3.99-6.86ZM723.92,522.85c-2.47-3.98-3.71-10.37-3.71-19.18,0-15.38,4.67-23.09,14.03-23.09,4.89,0,8.48,1.84,10.77,5.52,2.47,3.98,3.72,10.31,3.72,19,0,15.51-4.68,23.27-14.03,23.27-4.89,0-8.48-1.83-10.77-5.53M705.63,518.14c0,5.18-1.91,9.43-5.7,12.76-3.8,3.32-8.9,4.98-15.29,4.98-5.98,0-11.77-1.91-17.38-5.71l2.63-5.24c4.83,2.42,9.19,3.62,13.12,3.62,3.68,0,6.56-.82,8.65-2.43,2.08-1.62,3.33-3.91,3.33-6.78,0-3.63-2.53-6.74-7.18-9.33-4.28-2.35-12.85-7.27-12.85-7.27-4.64-3.39-6.96-7.02-6.96-13,0-4.95,1.73-8.95,5.2-11.99,3.48-3.05,7.95-4.58,13.45-4.58s10.82,1.52,15.47,4.53l-2.35,5.25c-3.98-1.69-7.89-2.53-11.76-2.53-3.13,0-5.55.75-7.23,2.27-1.7,1.5-2.74,3.43-2.74,5.8,0,3.61,2.58,6.75,7.35,9.4,4.34,2.36,13.12,7.36,13.12,7.36,4.76,3.38,7.14,6.98,7.14,12.91"/><path class="cls-17" d="M521.86,520.52c-6.4-.17-11.36.48-15.52,2.24-1.2.48-3.11.48-3.28,2,.65.64.72,1.68,1.28,2.56.96,1.6,2.63,3.75,4.16,4.87,1.67,1.28,3.35,2.55,5.12,3.67,3.11,1.93,6.64,3.05,9.66,4.96,1.77,1.11,3.53,2.56,5.29,3.76.87.64,1.43,1.68,2.55,2.08v-.24c-.56-.72-.72-1.76-1.27-2.56l-2.4-2.31c-2.32-3.12-5.21-5.84-8.32-8.07-2.56-1.76-8.16-4.16-9.19-7.11l-.16-.16c1.76-.17,3.85-.81,5.52-1.3,2.72-.71,5.2-.55,7.99-1.27,1.28-.32,2.56-.73,3.85-1.12v-.72c-1.45-1.44-2.48-3.35-4-4.71-4.07-3.52-8.56-6.96-13.19-9.84-2.48-1.6-5.68-2.64-8.32-4-.96-.48-2.56-.72-3.12-1.52-1.43-1.76-2.24-4.08-3.28-6.16-2.31-4.4-4.56-9.27-6.55-13.92-1.44-3.12-2.32-6.23-4.08-9.11-8.24-13.59-17.19-21.82-30.95-29.9-2.96-1.69-6.48-2.4-10.23-3.29l-6-.31c-1.28-.56-2.56-2.09-3.68-2.8-4.57-2.88-16.31-9.11-19.67-.88-2.16,5.21,3.2,10.32,5.04,12.96,1.36,1.83,3.12,3.91,4.07,6,.56,1.35.72,2.8,1.28,4.24,1.28,3.52,2.48,7.44,4.16,10.72.88,1.67,1.83,3.43,2.95,4.95.65.88,1.76,1.27,2.01,2.72-1.11,1.59-1.2,4-1.84,5.99-2.88,9.04-1.76,20.23,2.32,26.87,1.28,2,4.33,6.4,8.4,4.71,3.6-1.44,2.8-6,3.84-10,.24-.97.08-1.6.56-2.23v.15c1.12,2.23,2.25,4.4,3.28,6.64,2.48,3.92,6.8,7.99,10.39,10.71,1.92,1.44,3.43,3.92,5.84,4.81v-.24h-.16c-.48-.72-1.19-1.04-1.83-1.59-1.44-1.44-3.04-3.2-4.16-4.8-3.35-4.48-6.32-9.44-8.96-14.56-1.28-2.48-2.4-5.2-3.44-7.68-.48-.96-.48-2.4-1.28-2.88-1.2,1.76-2.96,3.28-3.83,5.43-1.52,3.45-1.68,7.68-2.25,12.09l-.31.15c-2.55-.64-3.43-3.28-4.4-5.52-2.39-5.68-2.8-14.79-.72-21.35.56-1.68,2.97-6.95,2.01-8.55-.48-1.53-2.09-2.4-2.96-3.61-1.04-1.51-2.16-3.43-2.88-5.11-1.92-4.48-2.89-9.43-4.95-13.91-.97-2.09-2.64-4.24-4-6.16-1.52-2.16-3.2-3.67-4.41-6.23-.4-.88-.96-2.32-.32-3.28.16-.64.48-.88,1.12-1.04,1.04-.88,4,.24,5.04.72,2.96,1.21,5.44,2.32,7.92,4,1.11.81,2.31,2.33,3.75,2.73h1.68c2.55.55,5.43.15,7.84.87,4.24,1.36,8.07,3.36,11.51,5.52,10.48,6.64,19.12,16.08,24.94,27.35.96,1.84,1.36,3.52,2.24,5.44,1.68,3.92,3.76,7.91,5.43,11.76,1.69,3.75,3.29,7.59,5.68,10.71,1.2,1.68,6.01,2.56,8.16,3.44,1.6.71,4.09,1.35,5.52,2.23,2.72,1.68,5.43,3.6,7.99,5.45,1.27.96,5.28,2.95,5.52,4.56M440.29,451.03c-1.1-.01-2.21.13-3.27.4v.16h.15c.65,1.28,1.76,2.17,2.56,3.28.65,1.28,1.21,2.55,1.84,3.83l.15-.16c1.13-.8,1.69-2.08,1.69-4-.49-.56-.57-1.11-.97-1.68-.47-.8-1.51-1.2-2.16-1.84"/><path class="cls-7" d="M816.26,535.07h1.53v-7.49h-2.29l-1.87,5.11-2.03-5.11h-2.21v7.49h1.44v-5.7h.08l2.13,5.7h1.1l2.12-5.7v5.7ZM803.93,535.07h1.62v-6.22h2.12v-1.27h-5.94v1.27h2.2v6.22Z"/><text class="cls-31" transform="translate(1238.05 507.78)"><tspan x="0" y="0">Bin Log</tspan></text><line class="cls-27" x1="264.32" y1="1013.89" x2="1655.68" y2="1013.89"/><path class="cls-8" d="M559.61,698.7h-17.44v-20.42h18.43c6.75,0,10.12,3.45,10.12,10.36s-3.69,10.06-11.07,10.06M572.21,678.08c-2.39-2.49-5.75-3.74-10.05-3.74l-25.03.16v48.87h5.04l-.05-20.79h18.63c4.68,0,8.36-1.24,11.03-3.73,2.68-2.49,4.02-5.94,4.02-10.37s-1.19-7.87-3.59-10.37v-.04ZM604.86,713.04c-.49,1.63-1.33,3.06-2.39,4.16-2.26,2.57-5.7,3.85-10.34,3.85-4.18,0-7.41-1.26-9.64-3.75-2.25-2.49-3.37-5.82-3.37-9.99,0-2.18.29-4.11.88-5.79.59-1.66,1.45-3.13,2.55-4.27,2.33-2.46,5.49-3.68,9.58-3.68,9,0,13.5,4.58,13.5,13.72,0,2.18-.25,4.1-.76,5.75M605.78,695c-3.07-3.25-7.63-4.88-13.65-4.88-5.69,0-10.1,1.67-13.19,4.97-2.81,3.02-4.2,7.08-4.2,12.18s1.44,9.16,4.34,12.28c1.65,1.7,3.54,2.96,5.58,3.64,2.13.75,4.61,1.13,7.48,1.13,5.99,0,10.56-1.61,13.7-4.83,2.8-2.93,4.2-7.02,4.2-12.22s-1.42-9.36-4.26-12.29v.02ZM643.93,714.46c0,6.57-5.07,9.84-15.21,9.84-3.11,0-5.72-.22-7.83-.68-2.14-.45-3.85-1.22-5.18-2.28-1.02-.79-1.87-1.84-2.43-3.14-.64-1.49-1.04-3.17-1.18-4.86l4.72-.07c0,2.59.83,4.49,2.48,5.73,1.78,1.47,4.92,2.21,9.42,2.21,7.09,0,10.63-2.08,10.63-6.24,0-2.4-1.17-4.07-3.56-4.99-.48-.16-3.35-.63-8.6-1.43l-9.83-2.01c-2.78-1.3-4.19-3.6-4.19-6.98s1.25-5.72,3.76-7.34c1.24-.66,2.77-1.17,4.63-1.54,1.85-.37,4-.55,6.44-.55,9.76,0,14.62,3.55,14.62,10.66h-4.51c0-5-3.42-7.49-10.3-7.49-3.49,0-6.1.49-7.82,1.51-1.71,1-2.56,2.57-2.56,4.67,0,1.92,1.12,3.38,3.48,4.25,1.34.45,4.46.98,9.34,1.57,4.37.45,7.35,1.1,8.99,1.92,3.1,1.41,4.64,3.78,4.64,7.14l.04.1ZM662.48,723.35l-1.93.32-1.18.11c-3.09,0-5.31-.53-6.67-1.56-1.36-1.05-2.03-2.86-2.03-5.45v-22.28h-5.61v-3.28h5.55l.05-10.53h4.31v10.53h7.48v3.33l-7.48-.06v21.71c0,1.59.37,2.71,1.09,3.33.75.61,2.07.92,3.96.92.27.03.58.01.9-.04.32-.05.82-.19,1.49-.4l.04,3.37.02-.02ZM692.24,715.96c-1.22,1.15-2.57,2.01-4.02,2.57-1.51.59-3.24.89-5.2.89-9,0-13.5-4.31-13.5-12.93,0-4.02,1.15-7.17,3.45-9.42,2.32-2.28,5.54-3.37,9.73-3.37s7.42,1.15,9.6,3.43c2.18,2.28,3.27,5.35,3.27,9.2,0,4.18-1.11,7.42-3.34,9.68M699.86,691.31h-4.28l-.04,5.52c-1.9-2.26-3.26-3.67-4.07-4.25-2.41-1.54-5.53-2.31-9.34-2.31-5.61,0-9.89,1.43-12.84,4.45-2.8,2.73-4.21,6.68-4.21,11.84,0,2.55.36,4.84,1.08,6.85.7,2,1.76,3.75,3.09,5.11,2.99,2.87,7.13,4.29,12.53,4.29,6.47,0,11.07-2.05,13.79-6.23v5.76c0,3.64-.98,6.44-2.99,8.44-2.01,2-5.21,3.02-9.74,3.02-4.25,0-7.28-.71-9.09-2.07-1.35-1.04-2.24-2.86-2.8-5.42h-4.42c.48,3.59,1.79,6.21,3.92,7.8,2.47,1.86,6.65,2.79,12.52,2.79,11.23,0,16.86-4.86,16.86-14.56v-31.14l.02.12ZM723.15,694.54c-1.19-.23-2.4-.36-3.6-.37-7.08,0-10.61,4.5-10.61,13.5v15.65h-4.25l-.05-32.03,4.29.04v5.72h.23c.66-2.16,1.87-3.98,3.43-5.13,1.71-1.12,4.26-1.68,7.68-1.68h2.88v4.28h-.01ZM727.15,705.24c.54-3.65,1.76-6.46,3.66-8.45,1.23-1.15,2.63-2.03,4.19-2.6,1.56-.59,3.32-.88,5.24-.88,3.82,0,6.95,1.23,9.36,3.66,2.42,2.44,3.63,5.21,3.63,8.28h-26.14M753.67,695.35c-1.51-1.76-3.38-3.05-5.61-3.89-2.23-.82-4.87-1.26-7.82-1.26-5.61,0-9.9,1.52-12.97,4.52-3.07,3.01-4.6,7.11-4.6,12.28s1.48,9.27,4.43,12.33c3.2,3.36,7.7,5.04,13.52,5.04,2.31,0,4.45-.31,6.44-.97,1.98-.66,3.69-1.48,5.17-2.59,2.59-2.17,4.23-4.83,4.93-7.99h-4.66c-1.59,5.49-5.57,8.22-11.92,8.22-4.48,0-7.94-1.34-10.34-4.03-2.08-2.29-3.1-5.26-3.1-8.92h30.71c0-5.45-1.37-9.7-4.12-12.79l-.03.05Z"/><path class="cls-12" d="M803.29,710.21c0,9.5-6.61,14.26-19.83,14.26-7.93,0-13.7-1.65-17.35-4.9-2.98-2.71-4.46-6.82-4.46-12.35h5.31c0,8.9,5.49,13.34,16.48,13.34,5.29,0,9.09-.97,11.46-2.73,1.98-1.6,2.98-4.14,2.98-7.56s-1.37-5.76-4.07-7.12c-1.5-.74-5.29-1.66-11.25-2.78-7.5-1.34-12.37-2.66-14.6-3.98-3.21-1.97-4.87-5.28-4.87-9.97,0-4.3,1.37-7.66,4.11-9.74,2.95-2.34,8.02-3.51,15.18-3.51,12.96,0,19.43,5,19.43,14.99h-5.37c0-7.48-4.81-11.23-14.43-11.23-4.82,0-8.35.77-10.59,2.25-2.12,1.62-3.16,3.98-3.16,7.1s1.36,5.54,4.06,6.87c1.44.76,5.7,1.82,12.75,3.2,6.62,1.16,11.1,2.49,13.42,4.03,3.17,1.89,4.75,5.16,4.75,9.83h.04ZM846.51,715.05c-2.03,1.88-4.31,3.3-6.73,4.17-2.5.92-5.31,1.42-8.42,1.42-6.36,0-11.45-1.98-15.35-5.92-3.89-3.97-5.81-9.31-5.81-15.91s1.93-12.23,5.8-16.07c3.86-3.85,9-5.77,15.4-5.77s11.58,2.03,15.28,6.03c1.86,1.81,3.35,4.17,4.34,6.85.98,2.62,1.41,5.61,1.41,8.97,0,6.85-1.95,12.26-5.88,16.22M849.39,718.31c2.77-2.29,4.81-5.04,6.15-8.25,1.33-3.24,1.99-6.96,1.99-11.2,0-7.58-2.17-13.66-6.51-18.23-2.33-2.53-5.13-4.38-8.41-5.61-3.28-1.23-7.04-1.84-11.25-1.84-8.2,0-14.63,2.3-19.3,6.91-4.68,4.63-7.01,10.89-7.01,18.77-.14,7.3,2.49,14.24,7.07,18.6,4.71,4.73,11.16,7.08,19.32,7.08,2.81.03,5.59-.21,8.36-.75,2.37-.5,4.41-1.26,6.06-2.3l7.87,6.32,3.27-3.5-7.61-5.98ZM897.34,723.29h-36.35v-48.89l4.99-.1v44.89h31.41l-.05,4.09Z"/><path class="cls-24" d="M429.92,722.92c-.5,17.86.13,35.81,1.87,40.21,1.75,4.4,5.49,12.87,18.36,10.12,10.75-2.3,14.66-6.76,16.36-16.61,1.25-7.22,3.66-27.36,3.97-31.48M414.53,633.39s-58.25-23.78-55.54,30.33c.58,11.49,16.51,87.16,35.54,64.31,6.95-8.35,13.23-14.91,13.23-14.91M445.96,629.05c-2.02.63,32.4-12.58,51.96,12.41,6.91,8.83-1.07,44.91-20.25,73.33"/><path class="cls-23" d="M477.68,714.79s1.25,6.15,19.39,2.4c7.95-1.64,3.16,4.61-4.9,8.35-6.62,3.07-21.45,3.86-21.69-.38-.63-10.95,7.8-7.62,7.2-10.36-.55-2.47-4.32-4.9-6.81-10.94-2.18-5.28-29.86-45.75,7.68-39.74,1.38-.28-9.79-35.7-44.92-36.28-35.13-.57-33.94,43.19-33.94,43.19"/><path class="cls-29" d="M420.09,718.54c-4.9,5.47-3.46,6.43-13.24,8.44-9.9,2.04-4.08,5.67-.29,6.62,4.6,1.15,15.26,2.78,22.45-7.3,2.19-3.07-.01-7.96-3.02-9.21-1.45-.6-3.4-1.36-5.9,1.44Z"/><path class="cls-24" d="M419.77,718.44c-.49-3.21,1.06-7.04,2.72-11.52,2.5-6.72,8.26-13.44,3.65-34.74-3.43-15.88-26.47-3.31-26.48-1.15-.02,2.16,1.07,10.91-.38,21.11-1.86,13.31,8.47,24.57,20.37,23.42"/><path class="cls-19" d="M468.49,736.64c1.02-8.5.71-9.74,7.04-8.37l1.61.14c4.87.22,11.23-.78,15.04-2.52,8.05-3.73,12.82-9.97,4.89-8.33-18.11,3.73-19.42-2.4-19.42-2.4,19.13-28.38,27.13-64.41,20.22-73.22-18.82-24.06-51.41-12.68-51.95-12.38l-.18.03c-3.57-.75-7.52-1.19-12.09-1.25-8.19-.13-14.41,2.15-19.13,5.73,0,0-58.12-23.95-55.42,30.12.58,11.5,16.48,87.09,35.46,64.22,6.95-8.36,13.65-15.42,13.65-15.42,3.32,2.21,7.31,3.34,11.49,2.93l.33-.28c-.1,1.08-.05,2.17.13,3.25-4.89,5.46-3.45,6.42-13.22,8.43-9.89,2.04-4.07,5.66-.29,6.62,4.6,1.15,15.24,2.78,22.43-7.28l-.29,1.15c1.92,1.53,1.79,11.03,2.07,17.81s.73,13.11,2.11,16.84c1.38,3.73,3.01,13.34,15.85,10.65,10.73-2.3,18.94-5.61,19.69-36.4"/><path class="cls-11" d="M497.01,717.62c-18.11,3.73-19.42-2.4-19.42-2.4,19.13-28.38,27.13-64.41,20.22-73.22-18.82-24.06-51.41-12.67-51.95-12.38l-.18.03c-3.98-.8-8.03-1.22-12.09-1.26-8.19-.13-14.41,2.15-19.13,5.73,0,0-58.13-23.95-55.42,30.12.58,11.5,16.48,87.09,35.46,64.22,6.99-8.41,13.7-15.47,13.7-15.47,3.32,2.21,7.31,3.34,11.49,2.93l.33-.28c-.1,1.08-.05,2.17.13,3.25-4.89,5.46-3.45,6.42-13.22,8.43-9.89,2.04-4.07,5.66-.29,6.62,4.6,1.15,15.24,2.78,22.43-7.28l-.29,1.15c1.92,1.53,3.26,9.98,3.03,17.64s-.38,12.91,1.13,17.02,3.01,13.34,15.85,10.65c10.73-2.3,16.29-8.27,17.07-18.21.55-7.07,1.79-6.03,1.88-12.34l1-2.99c1.15-9.59.19-12.67,6.8-11.23l1.61.14c4.87.22,11.24-.78,14.97-2.52,8.05-3.73,12.82-9.97,4.89-8.33h0Z"/><path class="cls-26" d="M429.84,723.05c-.5,17.83.13,35.79,1.87,40.1s5.48,12.84,18.33,10.1c10.73-2.3,14.64-6.75,16.33-16.58l3.97-31.43M414.44,633.67s-58.17-23.78-55.46,30.28c.58,11.5,16.48,87.09,35.46,64.22,6.93-8.35,13.19-14.89,13.19-14.89M445.86,629.33c-2,.63,32.35-12.56,51.89,12.39,6.89,8.82-1.1,44.84-20.22,73.22"/><path class="cls-25" d="M477.53,714.93s1.25,6.14,19.42,2.39c7.94-1.64,3.16,4.6-4.89,8.33-6.6,3.07-21.41,3.85-21.66-.38-.63-10.93,7.79-7.61,7.19-10.35-.55-2.47-4.32-4.89-6.8-10.93-2.17-5.26-29.82-45.67,7.67-39.68,1.38-.28-9.77-35.71-44.86-36.23s-33.98,43.14-33.98,43.14"/><path class="cls-28" d="M420.03,718.67c-4.89,5.46-3.45,6.42-13.22,8.43-9.89,2.04-4.07,5.66-.29,6.62,4.6,1.15,15.24,2.78,22.43-7.29,2.19-3.07-.01-7.96-3.02-9.2-1.45-.6-3.4-1.35-5.89,1.44h-.01Z"/><path class="cls-26" d="M419.71,718.58c-.5-3.21,1.05-7.03,2.71-11.5,2.49-6.7,8.24-13.41,3.65-34.69-3.43-15.85-26.44-3.3-26.44-1.15s1.04,10.9-.38,21.08c-1.86,13.29,8.46,24.53,20.34,23.39"/><path class="cls-21" d="M414.23,670.92c-.11.73,1.35,2.69,3.23,2.96s3.5-1.27,3.6-2-1.35-1.54-3.23-1.8-3.51.13-3.6.85Z"/><path class="cls-20" d="M471.64,669.42c.1.73-1.35,2.69-3.23,2.96s-3.51-1.27-3.6-2,1.35-1.54,3.23-1.8,3.51.13,3.6.85Z"/><path class="cls-26" d="M478.39,664.34c.31,5.76-1.24,9.68-1.44,15.81-.29,8.91,4.25,19.11-2.59,29.32"/><path class="cls-2" d="M430.52,853c-4.79-5.68-8.92-11.45-9.72-12.65-.09-.09-.22-.09-.31,0-.84,1.2-4.97,6.97-9.77,12.65-41.11,52.43,6.48,87.81,6.48,87.81l.4.27c.36,5.46,1.24,13.32,1.24,13.32h3.55s.89-7.81,1.24-13.32l.4-.31s47.59-35.34,6.48-87.77ZM420.62,940.01s-2.13-1.82-2.71-2.75v-.09l2.57-57.09c0-.18.27-.18.27,0l2.53,57.09v.09c-.58.93-2.66,2.75-2.66,2.75Z"/><path class="cls-2" d="M509.63,928.38l-19.84-48.43-.04-.13h-15.4v3.24h2.49c.75,0,1.47.31,2,.84.53.53.8,1.24.8,2l-.44,48.75c0,1.51-1.24,2.75-2.75,2.8l-2.53.09v3.2h15.01v-3.2l-1.55-.04c-1.51-.04-2.75-1.29-2.75-2.8v-45.95l21.62,51.99c.31.75,1.02,1.24,1.82,1.24s1.51-.49,1.82-1.24l21.13-50.83.31,44.75c0,1.55-1.24,2.8-2.8,2.84h-1.6v3.2h17.58v-3.15h-2.4c-1.51,0-2.75-1.29-2.8-2.8l-.13-48.75c0-1.55,1.24-2.8,2.75-2.84l2.57-.04v-3.29h-15.01l-19.84,48.57Z"/><path class="cls-2" d="M647.88,936.64c-.49-.49-.75-1.15-.75-1.95v-23.93c0-4.57-1.33-8.12-4-10.65-2.62-2.53-6.3-3.86-10.83-3.86-6.39,0-11.41,2.57-14.92,7.68-.04.09-.18.13-.31.13s-.22-.09-.22-.22l-1.64-6.39h-2.8l-7.1,4.08v2.22h1.82c.84,0,1.55.22,2.04.67s.75,1.11.75,2.04v28.19c0,.8-.27,1.47-.75,1.95-.49.49-1.15.75-1.95.75h-1.78v3.24h16.29v-3.24h-1.78c-.8,0-1.47-.27-1.95-.75-.49-.49-.75-1.15-.75-1.95v-18.69c0-2.35.53-4.75,1.51-7.06,1.02-2.26,2.53-4.22,4.53-5.68,2-1.47,4.4-2.18,7.19-2.18,3.11,0,5.46.98,6.97,2.93,1.47,1.95,2.22,4.53,2.22,7.55v23.04c0,.8-.27,1.47-.75,1.95s-1.15.75-1.95.75h-1.78v3.24h16.29v-3.24h-1.78c-.67.18-1.29-.09-1.82-.62Z"/><path class="cls-2" d="M796.86,883.46c-4.48-2.4-9.54-3.64-14.96-3.64h-21.22v3.24h2.09c.8,0,1.51.31,2.22,1.02.67.67,1.02,1.42,1.02,2.22v47.86c0,.8-.36,1.55-1.02,2.22s-1.42,1.02-2.22,1.02h-2.09v3.24h21.22c5.42,0,10.48-1.24,15.01-3.64,4.53-2.4,8.17-5.95,10.83-10.48,2.66-4.53,4.04-9.99,4.04-16.25s-1.38-11.63-4.04-16.25c-2.71-4.62-6.35-8.12-10.88-10.57ZM803.21,910.18c0,5.68-1.02,10.48-3.02,14.34-2,3.86-4.66,6.75-7.9,8.61-3.29,1.86-6.88,2.8-10.79,2.8h-4.31c-.8,0-1.51-.31-2.22-1.02-.67-.67-1.02-1.42-1.02-2.22v-45.1c0-.8.31-1.51,1.02-2.22.67-.67,1.42-1.02,2.22-1.02h4.31c3.91,0,7.5.93,10.79,2.8,3.29,1.86,5.9,4.75,7.9,8.61,2,3.95,3.02,8.79,3.02,14.43Z"/><path class="cls-2" d="M861.9,913.42c-1.95-2.26-5.73-4.17-10.21-5.19,6.13-3.06,9.32-7.37,9.32-12.92,0-3.02-.8-5.73-2.4-8.04s-3.86-4.17-6.75-5.46-6.3-1.95-10.12-1.95h-24.02v3.24h1.91c.8,0,1.51.31,2.22,1.02.67.67,1.02,1.42,1.02,2.22v47.86c0,.8-.36,1.55-1.02,2.22s-1.42,1.02-2.22,1.02h-2.13v3.24h26.06c3.95,0,7.68-.67,11.01-2s6.04-3.29,7.95-5.86c1.95-2.57,2.93-5.73,2.93-9.37-.04-4-1.2-7.33-3.55-10.03ZM831.98,935c-.67-.67-1.02-1.42-1.02-2.22v-21.49h12.39c4.35,0,7.72,1.11,10.03,3.33,2.31,2.22,3.46,5.11,3.46,8.66,0,2.13-.53,4.22-1.51,6.13-1.02,1.95-2.53,3.51-4.57,4.71-2,1.2-4.48,1.82-7.41,1.82h-9.15c-.8.04-1.51-.27-2.22-.93ZM831,906.72v-19.09c0-.8.31-1.51,1.02-2.22.67-.67,1.42-1.02,2.22-1.02h5.86c4.22,0,7.37,1.07,9.32,3.11,1.95,2.09,2.93,4.75,2.93,8.04s-.93,6.08-2.75,8.12c-1.82,2-4.57,3.02-8.26,3.02h-10.34v.04Z"/><path class="cls-2" d="M585.77,899.08c-3.42-1.86-7.19-2.84-11.32-2.84s-7.95.93-11.32,2.84c-3.42,1.86-6.08,4.57-8.08,7.99-2,3.37-3.02,7.37-3.02,11.81s1.02,8.43,3.02,11.81c2,3.42,4.71,6.13,8.08,7.99,3.42,1.86,7.19,2.84,11.32,2.84s7.95-.93,11.32-2.84c3.42-1.86,6.08-4.57,8.08-7.99,2-3.42,3.02-7.41,3.02-11.81s-1.02-8.43-3.02-11.81c-2-3.42-4.66-6.13-8.08-7.99ZM589.05,918.88c0,5.46-1.33,9.9-4,13.05-2.62,3.2-6.17,4.84-10.61,4.84s-7.99-1.64-10.61-4.84c-2.66-3.2-4-7.64-4-13.05s1.33-9.9,4-13.05c2.62-3.2,6.17-4.84,10.61-4.84s7.99,1.64,10.61,4.84c2.66,3.15,4,7.59,4,13.05Z"/><path class="cls-2" d="M742.48,899.08c-3.42-1.86-7.19-2.84-11.32-2.84s-7.95.93-11.32,2.84c-3.42,1.86-6.08,4.57-8.08,7.99-2,3.42-3.02,7.37-3.02,11.81s1.02,8.43,3.02,11.81c2,3.37,4.71,6.13,8.08,7.99,3.42,1.86,7.19,2.84,11.32,2.84s7.95-.93,11.32-2.84c3.42-1.86,6.08-4.57,8.08-7.99,2-3.42,3.02-7.37,3.02-11.81s-1.02-8.43-3.02-11.81c-2-3.37-4.71-6.13-8.08-7.99ZM745.77,918.88c0,5.46-1.33,9.9-4,13.05-2.62,3.2-6.17,4.84-10.61,4.84s-7.99-1.64-10.61-4.84c-2.66-3.2-4-7.64-4-13.05s1.33-9.9,4-13.05c2.62-3.2,6.17-4.84,10.61-4.84s7.99,1.64,10.61,4.84c2.62,3.15,4,7.59,4,13.05Z"/><path class="cls-2" d="M679.26,896.24c-3.55,0-6.79.75-9.77,2.26-2.93,1.51-5.24,3.55-6.88,6.17-1.64,2.57-2.49,5.46-2.49,8.57,0,2.75.62,5.28,1.91,7.55,1.24,2.18,2.93,4,5.06,5.5l-6.35,8.66c-.8,1.07-.89,2.49-.31,3.64.62,1.2,1.78,1.91,3.11,1.91h1.82c-1.78,1.2-3.2,2.62-4.17,4.31-1.15,1.91-1.73,3.91-1.73,5.95,0,3.82,1.69,6.97,5.02,9.37,3.29,2.35,7.95,3.55,13.76,3.55,4.04,0,7.95-.67,11.45-1.95,3.55-1.29,6.44-3.2,8.61-5.68,2.18-2.49,3.29-5.5,3.29-9.01s-1.33-6.22-4.44-8.75c-2.66-2.09-6.84-3.2-12.08-3.2h-17.8s-.09-.04-.09-.04c0,0-.04-.09,0-.13l4.62-6.22c1.24.58,2.4.93,3.42,1.15,1.07.22,2.26.31,3.6.31,3.73,0,7.15-.75,10.08-2.26,2.93-1.51,5.28-3.55,7.01-6.17,1.69-2.57,2.53-5.46,2.53-8.52,0-3.29-1.6-9.32-5.95-12.39,0-.04.04-.04.04-.04l9.59,1.07v-4.4h-15.32c-2.44-.75-4.93-1.2-7.55-1.2ZM684.63,924.12c-1.69.89-3.51,1.38-5.33,1.38-2.97,0-5.59-1.07-7.86-3.15-2.22-2.09-3.33-5.15-3.33-9.1s1.11-6.97,3.33-9.1c2.22-2.09,4.84-3.15,7.86-3.15,1.86,0,3.64.44,5.33,1.38,1.69.89,3.06,2.26,4.17,4.08,1.07,1.82,1.64,4.08,1.64,6.75s-.53,4.97-1.64,6.75c-1.07,1.91-2.49,3.29-4.17,4.17ZM672.56,940.5h12.08c3.33,0,5.46.67,6.88,2.09,1.42,1.42,2.13,3.33,2.13,5.55,0,3.24-1.29,5.9-3.86,7.9s-6.04,3.02-10.34,3.02c-3.73,0-6.84-.84-9.15-2.44-2.26-1.6-3.42-4.04-3.42-7.15,0-1.95.53-3.77,1.6-5.37,1.11-1.6,2.4-2.75,4.08-3.6Z"/><path class="cls-2" d="M874.47,939.88c-.89-.49-1.55-1.2-2.09-2-.49-.89-.75-1.78-.75-2.8s.27-1.95.75-2.8c.49-.89,1.2-1.51,2.09-2,.89-.49,1.86-.75,2.97-.75s2.09.27,2.97.75c.89.49,1.55,1.2,2.09,2,.49.89.75,1.78.75,2.8s-.27,1.95-.75,2.8c-.49.89-1.2,1.51-2.09,2-.89.49-1.86.75-2.97.75s-2.09-.22-2.97-.75ZM879.93,939.26c.75-.4,1.29-1.02,1.73-1.69.4-.75.62-1.55.62-2.49s-.22-1.73-.62-2.49c-.4-.75-.98-1.33-1.73-1.69-.75-.4-1.55-.62-2.49-.62s-1.73.22-2.49.62-1.29,1.02-1.73,1.69c-.4.75-.62,1.55-.62,2.49s.22,1.73.62,2.49c.4.75.98,1.33,1.73,1.69.75.4,1.55.62,2.49.62s1.78-.22,2.49-.62ZM875.04,937.75v-.4l.09-.04h.27c.09,0,.18-.04.22-.09.09-.09.09-.13.09-.22v-4.08c0-.09-.04-.18-.09-.22-.09-.09-.13-.09-.22-.09h-.27l-.09-.04v-.36l.09-.04h2.31c.67,0,1.15.13,1.55.44s.58.71.58,1.24c0,.4-.13.8-.44,1.07-.31.31-.67.49-1.11.53l.53.18,1.02,1.6c.09.13.18.18.31.18h.27l.04.04v.4l-.04.04h-1.38l-.09-.04-1.42-2.35h-.36v1.55c0,.09.04.18.09.22.09.09.13.09.22.09h.27l.09.04v.4l-.09.04h-2.35l-.09-.09ZM877.31,934.86c.36,0,.67-.09.84-.31.18-.18.31-.49.31-.84s-.09-.62-.27-.84-.44-.31-.75-.31h-.18c-.09,0-.18.04-.22.09-.09.09-.09.13-.09.22v1.95h.36v.04Z"/><path class="cls-15" d="M606.27,1104.59c2.74,0,5.24.62,6.61,1.87.25,2-1.62,5.24-2.74,5.24-1.37-.5-2.62-.75-4.24-.75-6.49,0-9.73,6.74-9.73,13.35,0,4.12,1.37,6.61,4.74,6.61s6.99-2.37,8.98-4.12c.5.37,1.12,1.5,1.12,2.74,0,1.37-.37,2.74-1.75,4.12-2.25,2.25-6.11,4.24-11.73,4.24-6.36,0-10.85-3.62-10.85-12.1.25-11.23,7.49-21.21,19.59-21.21h0Z"/><path class="cls-15" d="M627.23,1130.54c3.49,0,9.86-6.11,11.6-17.84.12-.75.12-.87.25-1.62-.75-.25-1.87-.5-2.87-.5-2.62,0-5.36.75-7.74,4.12-2.5,3.49-3.62,7.86-3.62,11.35,0,2.87.87,4.49,2.37,4.49h0ZM615.76,1127.3c0-4.24,1.37-11.48,6.74-16.84,4.62-4.74,10.11-5.86,15.22-5.86,3.37,0,7.86,1.12,10.73,1.62-.75,3.12-2.37,14.97-3.24,21.83-.37,2.87-.5,6.99-.37,8.48-2.37,1-6.74,1.25-7.99,1.25-.62,0-.75-2.87-.62-5.74.12-.87.25-2.25.25-2.87-2.74,4.62-8.23,8.48-13.97,8.48-4.12.12-6.74-3.37-6.74-10.36h0Z"/><path class="cls-15" d="M666.16,1104.59c2.87,0,5.74,1.12,6.99,2.37-.12,2-1.62,5.36-4.12,4.37-1.12-.37-2.12-.62-3.62-.62-1.87,0-3.62.87-3.62,2.62,0,1.37,1,2.37,5.74,5.74,3.37,2.5,4.74,4.74,4.74,7.86,0,5.24-4.87,10.85-13.47,10.85-3.49,0-6.61-1.37-7.49-2.74-1.25-2.12-.25-6.36,1.12-5.61,1.87.87,4.87,1.87,7.36,1.87s3.87-1.12,3.87-2.5c0-1.25-1.12-2.25-5.36-5.36-3.62-2.74-4.74-5.24-4.74-7.99,0-5.99,5.12-10.85,12.6-10.85h0Z"/><path class="cls-15" d="M690.74,1104.59c2.87,0,5.74,1.12,6.99,2.37-.12,2-1.62,5.36-4.12,4.37-1.12-.37-2.12-.62-3.62-.62-1.87,0-3.62.87-3.62,2.62,0,1.37,1,2.37,5.74,5.74,3.37,2.5,4.74,4.74,4.74,7.86,0,5.24-4.87,10.85-13.47,10.85-3.49,0-6.49-1.37-7.49-2.74-1.25-2.12-.25-6.36,1.12-5.61,1.87.87,4.87,1.87,7.36,1.87s3.87-1.12,3.87-2.5c0-1.25-1.12-2.25-5.36-5.36-3.62-2.74-4.74-5.24-4.74-7.99,0-5.99,5.12-10.85,12.6-10.85h0Z"/><path class="cls-15" d="M713.07,1130.54c3.49,0,9.86-6.11,11.6-17.84.12-.75.12-.87.25-1.62-.75-.25-1.87-.5-2.87-.5-2.62,0-5.36.75-7.74,4.12-2.5,3.49-3.62,7.86-3.62,11.35.12,2.87.87,4.49,2.37,4.49h0ZM701.6,1127.3c0-4.24,1.37-11.48,6.74-16.84,4.62-4.74,10.11-5.86,15.22-5.86,3.37,0,7.86,1.12,10.73,1.62-.75,3.12-2.37,14.97-3.24,21.83-.37,2.87-.5,6.99-.37,8.48-2.37,1-6.74,1.25-7.99,1.25-.62,0-.75-2.87-.62-5.74.12-.87.25-2.25.25-2.87-2.74,4.62-8.23,8.48-13.97,8.48-3.99.12-6.74-3.37-6.74-10.36h0Z"/><path class="cls-15" d="M750.38,1113.82c3.24-5.24,7.49-9.23,13.47-9.23,5.12,0,6.74,4.74,5.74,11.35-.5,3.12-1.37,7.61-1.87,11.73-.5,3.49-.87,6.61-.75,8.73-1.87.87-7.24,1.25-8.48,1.25-.5,0-.62-3.87.12-7.99.62-3.37,1.75-9.61,2.37-13.23.37-2.12.25-4.62-1.75-4.62-2.62,0-8.86,4.24-11.98,21.46-.25,1.37-.75,2.25-1.62,2.74-1.12.62-3.37,1.25-7.99,1.25.87-4.37,2.25-13.23,3.24-19.84.87-5.99,1.25-9.86,1.12-11.35,1.25-.37,7.61-1.75,8.23-1.75.75,0,.87,2.25.25,7.49-.12.5-.12,1.25-.25,1.75h.12v.25h0Z"/><path class="cls-15" d="M786.56,1130.42c3.12,0,9.48-5.86,11.23-16.22.12-.62.25-1.62.37-2.25-.87-.87-2.12-1.37-4.12-1.37-7.24,0-10.36,8.61-10.36,14.85.12,3.24,1.25,4.99,2.87,4.99h0ZM781.94,1137.78c-4.62,0-7.36-4.12-7.36-10.98,0-11.48,7.24-22.08,19.34-22.08,2.12,0,4.12.62,5.24,1.25.62-3.24,2.12-13.35,2.25-16.34,2-.37,6.24-1,8.23-1,.75,0,1,.75.75,2.62-1.75,10.73-4.74,31.19-5.36,35.68-.37,3.87-.5,7.61-.37,9.73-2.25,1-6.86,1.25-8.11,1.25-.5,0-.75-3.24-.62-6.24.12-.87.25-2.25.25-2.5-3.87,5.74-8.73,8.61-14.22,8.61h0Z"/><path class="cls-15" d="M823.62,1114.82c3.74-8.36,8.23-10.23,11.23-10.23.87,0,2.37.62,2.99,1.25.25,2.37-1.62,6.99-3.24,8.86-.87-.37-1.87-.87-3.12-.87-2.37,0-7.24,3.74-10.23,19.96-.25,1.37-.62,1.87-1.37,2.25-1.25.75-5.99,1.25-8.23,1.37,1.12-5.86,2.87-17.72,3.62-24.7.25-1.75.25-5.12.12-6.36,1.37-.62,6.74-1.87,7.86-1.87.62,0,1.12,3.87.12,10.23h.25v.12h0Z"/><path class="cls-15" d="M848.69,1130.54c3.49,0,9.86-6.11,11.6-17.84.12-.75.12-.87.25-1.62-.75-.25-1.87-.5-2.87-.5-2.62,0-5.36.75-7.74,4.12-2.5,3.49-3.62,7.86-3.62,11.35.12,2.87.87,4.49,2.37,4.49h0ZM837.22,1127.3c0-4.24,1.37-11.48,6.74-16.84,4.62-4.74,10.11-5.86,15.22-5.86,3.37,0,7.86,1.12,10.73,1.62-.75,3.12-2.37,14.97-3.24,21.83-.37,2.87-.5,6.99-.37,8.48-2.37,1-6.74,1.25-7.99,1.25-.62,0-.75-2.87-.62-5.74.12-.87.25-2.25.25-2.87-2.74,4.62-8.23,8.48-13.97,8.48-3.99.12-6.74-3.37-6.74-10.36h0Z"/><path class="cls-16" d="M508.93,1102.98c1.77,20.42-30.39,39.9-71.87,43.44-41.48,3.54-76.44-10.16-78.21-30.58-1.77-20.42,30.39-39.9,71.87-43.44,41.39-3.54,76.44,10.07,78.21,30.58"/><path class="cls-14" d="M431.84,1074.74c-15.85-.28-34.31,6.06-48.1,11.93-1.4,4.1-2.24,8.48-2.24,13.05,0,24.24,21.91,43.91,48.94,43.91s49.04-19.58,49.04-43.91c0-7.64-2.24-14.92-6.06-21.16-11-1.68-26.2-3.54-41.58-3.82"/><path class="cls-14" d="M430.53,1074.74c-8.76-.56-23.87,4.01-36.45,8.58-1.96,4.47-2.98,9.42-2.98,14.64,0,21.25,19.3,38.5,39.62,38.5s38.13-17.25,39.62-38.5c.47-6.9-1.86-13.42-5.22-19.02-12.96-2.24-26.76-3.64-34.59-4.2"/><path class="cls-15" d="M408.07,1095.25c1.12-2.42,2.7-3.54,4.29-5.5-.19-.47-.56-2.05-.56-2.52,0-2.42,1.96-4.29,4.29-4.29.56,0,1.12.09,1.58.28,7.18-5.5,16.59-7.83,26.1-5.69.84.19,1.68.47,2.52.65-9.32-1.31-19.95,2.05-27.13,7.83.19.56.84,1.96.84,2.61,0,2.42-1.58,2.98-3.92,2.98-.56,0-1.03-.09-1.58-.28-1.58,2.14-3.64,6.34-4.57,8.95,4.01,3.54,7.55,4.85,12.21,6.62,0-.19.19-.47.19-.65,0-7.18,6.34-13.05,13.52-13.05,6.43,0,11.84,4.66,12.86,10.81,3.26-2.05,6.34-3.64,8.67-6.62-.56-.65-1.12-2.61-1.12-3.54,0-2.14,1.77-3.92,3.92-3.92.28,0,.56,0,.93.09,1.21-2.52,2.14-5.13,2.7-7.83-11.28-8.39-33.09-7.18-33.09-7.18,0,0-17.34-.93-29.09,4.85.84,5.41,3.08,10.81,6.43,15.38"/><path class="cls-15" d="M461.95,1091.98c.84.75,1.21,1.31,1.58,1.96,1.03,1.86-1.03,3.64-3.26,3.64-.19,0-.47,0-.65-.09-2.42,3.82-6.71,8.67-10.53,11.19,5.87.93,11.37,3.26,15.66,6.9,3.17-5.69,5.59-13.98,5.59-20.98,0-5.31-2.33-9.23-5.87-12.12-.09,2.89-1.68,6.9-2.52,9.51"/><path class="cls-15" d="M414.59,1128.16c1.96-5.41,6.71-9.51,11.28-13.14-.65-.93-1.68-3.17-2.05-4.2-5.5-1.68-10.35-4.85-14.17-8.95,0,.09-.09.28-.09.37-.75,3.17-.84,6.43-.47,9.51,2.61.47,4.66,2.8,4.66,5.59,0,1.68-1.49,4.01-2.61,5.13,1.12,2.42,1.96,3.73,3.45,5.69"/><path class="cls-15" d="M414.22,1132.63c-2.33-2.33-3.92-6.9-5.41-9.79-.28,0-.56.09-.84.09-3.17,0-6.43-2.61-5.69-5.69.37-1.68,1.58-2.8,3.45-3.73-.47-3.54-.56-8.48.28-12.12.19-1.03.75-1.49,1.03-2.52-3.45-5.03-5.69-11.75-5.69-18.36v-.75c-5.87,2.98-10.25,7.55-10.25,14.82,0,16.13,9.32,31.98,23.12,38.13v-.09"/><path class="cls-15" d="M448.25,1110.35c-1.77,5.03-6.62,8.76-12.31,8.76-3.08,0-5.87-1.03-8.02-2.8-4.57,3.54-8.76,9.79-10.81,15.29.93,1.03,1.58,1.86,2.7,2.8,3.17.84,7.64,0,11.09,0,13.89,0,26.29-6.15,33.37-17.06-4.85-3.36-10.44-6.53-16.03-6.99"/><path class="cls-1" d="M407.69,1097.11c1.12-2.42,2.42-4.57,4.01-6.62-.19-.47-.28-1.03-.28-1.49,0-2.42,1.96-4.29,4.29-4.29.56,0,1.12.09,1.58.28,7.18-5.5,16.59-7.83,26.1-5.69.84.19,1.68.47,2.52.65-9.32-1.31-19.02,1.58-26.2,7.36.19.56.37,1.12.37,1.68,0,2.42-1.96,4.29-4.29,4.29-.56,0-1.03-.09-1.58-.28-1.58,2.14-2.98,4.57-3.92,7.18,3.45,3.64,7.64,6.62,12.31,8.3v-.65c0-7.18,5.87-13.05,13.05-13.05,6.43,0,11.84,4.66,12.86,10.81,3.26-2.05,6.06-4.66,8.48-7.74-.56-.65-.93-1.49-.93-2.42,0-2.14,1.77-3.92,3.92-3.92.28,0,.56,0,.93.09,1.21-2.52,2.14-5.13,2.7-7.83-11.28-8.39-33.09-7.18-33.09-7.18,0,0-17.34-.93-29.09,4.85.65,5.69,2.89,11.09,6.25,15.66"/><path class="cls-1" d="M462.51,1092.64c.84.75,1.31,1.77,1.31,2.89,0,2.14-1.77,3.92-3.92,3.92-.19,0-.47,0-.65-.09-2.42,3.82-5.69,7.08-9.51,9.51,5.59.84,10.91,3.26,15.29,6.9,3.17-5.69,5.03-12.31,5.03-19.3,0-5.31-2.33-9.23-5.87-12.12-.19,2.89-.75,5.69-1.68,8.3"/><path class="cls-1" d="M415.15,1129.37c1.96-5.41,5.31-10.16,9.88-13.8-.65-.93-1.21-1.86-1.58-2.98-5.5-1.68-10.35-4.85-14.17-8.95,0,.09-.09.28-.09.37-.75,3.17-.84,6.43-.47,9.51,2.61.47,4.66,2.8,4.66,5.59,0,1.68-.75,3.17-1.86,4.2.93,2.14,2.24,4.2,3.64,6.06"/><path class="cls-1" d="M414.22,1132.54c-2.33-2.33-4.29-4.94-5.78-7.83-.28,0-.56.09-.84.09-3.17,0-5.69-2.52-5.69-5.69,0-2.24,1.31-4.2,3.17-5.13-.47-3.54-.28-7.08.56-10.72.19-1.03.56-2.05.84-3.08-3.45-5.03-5.5-11.19-5.5-17.81v-.75c-5.87,2.98-10.25,7.55-10.25,14.82,0,16.13,9.6,30.02,23.4,36.17q.09,0,.09-.09"/><path class="cls-1" d="M447.87,1112.21c-1.77,5.03-6.62,8.76-12.31,8.76-3.08,0-5.87-1.03-8.02-2.8-4.57,3.54-8.02,8.39-10.16,13.89.93,1.03,1.96,1.96,2.98,2.89,3.17.84,6.53,1.31,9.97,1.31,13.89,0,26.2-7.18,33.28-18.09-4.66-3.36-10.16-5.5-15.75-5.97"/><path class="cls-14" d="M448.34,1108.86l12.03-2.89-12.12-.65,9.88-7.46-11.19,4.01,7.55-10.53-10.53,6.99,3.64-12.31-7.18,10.16-.19-12.86-4.75,11.47-3.92-11.56.19,13.61-6.81-12.21,3.73,12.96-11.09-8.02,8.67,10.91-13.8-5.03,10.81,8.02-13.89.47,14.26,3.64-14.26,3.08,14.08,1.03-11.84,7.55,12.21-4.38-8.48,10.72,10.72-8.67-3.82,14.36,8.3-11.75-1.12,13.8,4.66-12.59,4.01,13.14.93-13.24,5.97,11.28-3.54-12.86,10.81,8.39-6.99-10.72,11.93,4.66-9.14-8.95,12.21.93-11.93-4.47h0Z"/><path class="cls-6" d="M319.97,1131.88c37.38-37.38,67.21-48.94,94.34-54.16,3.54-.65,4.29-8.58,4.29-8.58,0,0,.47,5.78,2.98,6.53,2.52.75,5.78-9.04,5.78-9.04,0,0-2.98,8.76,0,9.32,2.98.47,8.58-8.58,8.58-8.58,0,0-2.24,7.74-.75,8.3,1.49.47,9.04-11.28,9.04-11.28,0,0-4.47,7.74-.28,8.58,4.29.75,10.53-5.31,10.53-5.31,0,0-4.85,5.5-2.7,6.34,9.32,3.26,16.78-8.76,16.78-8.76,0,0-1.77,5.31-6.25,11.09,9.79,2.52,17.06-12.21,17.06-12.21l-7.27,14.73c3.73,1.86,18.74-15.48,18.74-15.48,0,0-7.74,13.52-12.31,16.31,2.52,2.05,11.56-6.06,11.56-6.06,0,0-7.27,9.04-4.47,9.51,4.01,3.26,18.83-16.78,18.83-16.78,0,0-5.78,11.84-14.26,21.07,7.08,3.64,24.8-19.2,24.8-19.2,0,0-.47,7.27-13.33,18.83,9.51-1.21,21.81-19.3,21.81-19.3,0,0-4.47,13.52-15.29,23.12,9.32-.93,24.33-24.05,24.33-24.05,0,0-5.78,16.03-17.53,25.36,13.05,2.89,31.88-16.59,31.88-16.59,0,0-7.36,13.8-17.06,19.48,10.81,4.1,25.64-12.96,25.64-12.96,0,0-14.82,22.84-38.41,21.81-7.74-.37-31.14-23.49-81.29-21.63-66.37,2.42-80.36,30.58-115.78,49.59"/><path class="cls-15" d="M321.46,1129.09c37.38-37.38,67.21-48.94,94.34-54.16,3.54-.65,4.29-8.58,4.29-8.58,0,0,.47,5.78,2.98,6.53,2.52.75,5.78-9.04,5.78-9.04,0,0-2.98,8.76,0,9.32,2.98.47,8.58-8.58,8.58-8.58,0,0-2.24,7.74-.75,8.3,1.49.47,9.04-11.28,9.04-11.28,0,0-4.47,7.74-.28,8.58,4.29.75,10.53-5.31,10.53-5.31,0,0-4.85,5.5-2.7,6.34,9.32,3.26,16.78-8.76,16.78-8.76,0,0-1.77,5.31-6.25,11.09,9.79,2.52,17.06-12.21,17.06-12.21l-7.27,14.73c3.73,2.05,18.83-15.29,18.83-15.29,0,0-7.74,13.52-12.31,16.31,2.52,1.77,11.56-6.25,11.56-6.25,0,0-7.27,9.04-4.47,9.51,4.01,3.26,18.83-16.78,18.83-16.78,0,0-5.87,11.84-14.36,21.07,7.08,3.54,24.89-19.3,24.89-19.3,0,0-.47,7.27-13.33,18.83,9.51-1.21,21.81-19.3,21.81-19.3,0,0-4.47,13.52-15.29,23.12,9.32-.93,24.33-24.05,24.33-24.05,0,0-5.78,16.03-17.53,25.36,13.05,2.89,31.88-16.59,31.88-16.59,0,0-7.36,13.8-17.06,19.48,10.81,4.1,25.64-12.96,25.64-12.96,0,0-14.82,22.84-38.41,21.81-7.74-.37-31.14-23.49-81.29-21.63-66.37,2.52-80.45,30.58-115.88,49.69"/><path class="cls-6" d="M319.04,1135.99c19.76,9.88,37.85-1.49,60.59,4.94,17.34,4.85,38.41,10.91,67.03,6.71,28.62-4.1,53.04-16.59,64.79-38.78,3.64-9.88,18.46,2.24,18.46,2.24,0,0-10.81-4.47-10.53-2.42.28,2.14,16.22,9.51,16.22,9.51,0,0-14.45-4.47-13.52-1.12.84,3.36,18.09,16.97,18.09,16.97,0,0-19.67-14.73-21.25-12.68-1.68,2.05,8.3,10.16,8.3,10.16,0,0-16.41-10.16-22.19-7.18-4.2,2.14,17.06,16.03,17.06,16.03,0,0-13.8-10.53-17.06-7.74-3.26,2.8,15.57,25.36,15.57,25.36,0,0-21.44-23.12-23.59-22-2.14,1.12,5.87,12.21,5.87,12.21,0,0-10.44-11.56-13.33-9.6-2.89,2.05,15.1,31.98,15.1,31.98,0,0-19.48-30.67-27.59-25.54,12.59,27.69,7.92,31.6,7.92,31.6,0,0-1.58-28.25-17.34-27.5-7.92.37,3.73,21.07,3.73,21.07,0,0-10.72-18.92-17.9-18.55,13.14,24.98,8.48,35.05,8.48,35.05,0,0,2.14-21.35-15.66-33.19,6.81,6.06-4.29,33.19-4.29,33.19,0,0,9.7-39.99-7.18-32.35-2.7,1.21-.19,19.95-.19,19.95,0,0-3.36-21.44-8.48-20.32-2.98.65-18.83,29.74-18.83,29.74,0,0,12.96-31.42,9.04-30.11-2.89.93-8.3,13.89-8.3,13.89,0,0,2.61-12.77,0-13.52-2.61-.75-17.34,13.52-17.34,13.52,0,0,10.91-12.77,9.04-15.48-2.89-4.01-6.15-4.2-10.16-2.61-5.78,2.24-13.52,12.77-13.52,12.77,0,0,7.74-10.72,6.43-14.64-2.14-6.43-24.42,12.4-24.42,12.4,0,0,13.14-12.4,10.16-15.1-2.98-2.61-19.39-1.86-24.42-1.86-15.01.19-20.23-3.36-24.8-6.99"/><path class="cls-15" d="M318.2,1133.75c19.76,9.88,37.85-1.49,60.59,4.94,17.34,4.85,38.41,10.91,67.03,6.71,28.62-4.1,53.04-16.59,64.79-38.78,3.64-9.88,18.46,2.24,18.46,2.24,0,0-10.81-4.47-10.53-2.42.28,2.14,16.22,9.51,16.22,9.51,0,0-14.45-4.47-13.52-1.12.84,3.36,18.09,16.97,18.09,16.97,0,0-19.48-14.82-21.07-12.77s8.3,10.16,8.3,10.16c0,0-16.41-10.16-22.19-7.18-4.2,2.14,17.06,16.03,17.06,16.03,0,0-13.8-10.53-17.06-7.74-3.26,2.8,15.57,25.36,15.57,25.36,0,0-21.35-23.12-23.49-22-2.14,1.12,5.87,12.21,5.87,12.21,0,0-10.63-11.47-13.52-9.51-2.89,2.05,15.01,31.98,15.01,31.98,0,0-19.48-30.76-27.5-25.64,12.68,27.78,7.92,31.7,7.92,31.7,0,0-1.58-28.25-17.34-27.5-7.92.37,3.73,21.07,3.73,21.07,0,0-10.63-18.83-17.81-18.46,13.14,24.98,8.48,35.05,8.48,35.05,0,0,2.14-21.35-15.66-33.19,6.81,6.06-4.29,33.19-4.29,33.19,0,0,9.7-39.99-7.18-32.35-2.7,1.21-.19,19.95-.19,19.95,0,0-3.36-21.44-8.48-20.32-2.98.65-18.83,29.74-18.83,29.74,0,0,12.96-31.42,9.04-30.11-2.89.93-8.3,13.89-8.3,13.89,0,0,2.61-12.77,0-13.52-2.61-.75-17.34,13.52-17.34,13.52,0,0,10.91-12.77,9.04-15.48-2.89-4.01-6.15-4.2-10.16-2.61-5.78,2.24-13.52,12.77-13.52,12.77,0,0,7.74-10.72,6.43-14.64-2.14-6.43-24.42,12.4-24.42,12.4,0,0,13.14-12.4,10.16-15.1-2.98-2.61-19.39-1.86-24.42-1.86-15.2.09-20.42-3.45-24.98-7.08"/><path class="cls-4" d="M439.11,1312.53l-26.55,8.67-23.1,10.19-6.46,1.71c-1.65,1.57-3.37,3.15-5.24,4.76-2.05,1.77-3.95,3.37-5.42,4.54-1.63,1.28-4.03,3.69-5.26,5.22-1.83,2.29-3.27,4.72-3.89,6.58-1.1,3.37-.56,6.78,1.57,9.93,2.73,4.01,8.17,8.11,14.51,10.9,3.23,1.43,8.67,3.25,12.76,4.27,6.8,1.73,19.97,3.59,27.21,3.87,1.46.06,3.43.06,3.51,0,.16-.1,1.28-2.25,2.59-4.92,4.45-9.09,7.67-17.62,9.41-24.9,1.04-4.41,1.87-10.29,2.41-17.26.14-1.95.2-8.47.08-10.68-.18-3.61-.5-6.54-1-9.41-.08-.42-.1-.8-.06-.82.08-.06.32-.14,3.59-1.08l-.66-1.56h0s0,0,0,0h0ZM433.05,1316.08c.24,0,.88,6.16,1.04,10.05.04.82.02,1.36-.02,1.36-.16,0-3.39-1.91-5.7-3.35-2.01-1.26-5.82-3.79-6.42-4.27-.2-.14-.18-.16,1.46-.72,2.79-.94,9.41-3.07,9.63-3.07ZM419.53,1320.54c.18,0,.64.26,1.75.94,4.13,2.59,9.75,5.72,12.16,6.76.74.32.82.2-.88,1.36-3.65,2.49-8.21,4.94-13.79,7.4-.98.44-1.81.78-1.83.78-.04,0,.08-.5.24-1.1,1.34-5,2.11-10.05,2.15-14.11q.02-2.01.2-2.07s-.02.02,0,.02ZM416.74,1321.6c.12.12.04,4.62-.12,5.84-.36,2.93-.92,5.66-1.85,8.73-.22.74-.42,1.36-.46,1.4-.08.1-2.83-2.59-3.73-3.63-1.57-1.81-2.79-3.61-3.69-5.38-.46-.9-1.18-2.67-1.12-2.73.32-.22,10.9-4.31,10.98-4.23ZM403.62,1326.76s.04,0,.06.02c.04.04.18.36.3.72.64,1.75,2.09,4.31,3.33,5.96,1.36,1.81,3.15,3.73,4.64,5,.48.4.92.78.98.84.12.12.16.1-3.11,1.34-3.79,1.44-7.93,2.89-12.66,4.41-1.13.36-2.26.73-3.39,1.1-.18.06-.12-.04.4-.86,2.35-3.67,5.92-10.88,7.93-15.97.34-.88.68-1.77.74-1.97.08-.28.18-.38.44-.52.14-.04.28-.08.34-.08ZM399.6,1328.42c.06.04-.96,2.19-1.97,4.15-1.95,3.79-4.07,7.53-6.92,12.06-.48.78-.94,1.51-1,1.59-.1.14-.14.1-.46-.52-.68-1.34-1.24-3.07-1.55-4.66-.3-1.57-.24-4.29.1-5.98.26-1.24.24-1.22.84-1.53,2.57-1.3,10.88-5.2,10.96-5.12ZM434.22,1329.83v.84c0,4.47-.48,10.62-1.18,15.09-.12.78-.22,1.42-.24,1.44,0,0-.58-.16-1.26-.36-3.01-.94-6.28-2.33-9.23-3.95-1.95-1.06-4.78-2.81-4.7-2.89.02-.02.86-.46,1.85-.98,3.93-2.05,7.71-4.25,10.98-6.44,1.22-.82,3.07-2.15,3.47-2.51,0,0,.32-.24.32-.24ZM384.45,1335.77c.08,0,.06.16-.06.88-.08.52-.18,1.49-.22,2.15-.16,2.93.32,5.1,1.77,8.07.4.82.72,1.51.7,1.53-.14.12-13.42,4.01-17.6,5.16-1.24.34-2.33.64-2.41.66-.14.04-.16.02-.1-.32.46-2.95,2.71-6.8,5.84-10.05,2.09-2.17,3.75-3.43,6.6-5.06,2.05-1.16,5.2-2.91,5.44-2.99,0-.02.02-.02.04-.02ZM415.76,1341.37s.5.24,1.08.58c4.29,2.49,10.27,4.8,15.37,5.98l.46.1-.64.36c-2.67,1.49-11.44,5.14-20.41,8.49-1.3.48-2.59.96-2.83,1.06-.24.1-.46.16-.46.14s.36-.72.82-1.59c2.51-4.7,5.04-10.41,6.32-14.39.16-.38.26-.72.28-.74ZM412.57,1342.41s-.14.44-.34.92c-1.75,4.23-4.03,8.85-6.96,14.03-.74,1.32-1.36,2.39-1.38,2.39s-.62-.36-1.34-.8c-4.25-2.61-8.03-5.82-10.49-8.93l-.36-.44,1.83-.5c6.54-1.79,12.1-3.71,17.62-6.08.78-.32,1.43-.58,1.45-.58ZM432.39,1349.33s.02.02,0,0c.02.46-1,4.6-1.85,7.59-.7,2.51-1.3,4.48-2.41,7.95-.48,1.53-.9,2.79-.92,2.79s-.14-.02-.26-.06c-5.96-1.08-11.3-2.59-16.31-4.6-1.4-.56-3.41-1.47-3.53-1.57-.04-.04,1.16-.6,2.69-1.26,9.13-3.99,18.6-8.53,21.85-10.47.38-.24.68-.36.74-.36ZM386.62,1350.9s-2.51,3.71-6.08,8.71c-1.24,1.75-2.69,3.79-3.23,4.56-.54.76-1.36,1.97-1.83,2.69l-.84,1.3-.9-.76c-1.06-.88-2.91-2.77-3.73-3.81-1.73-2.15-2.89-4.41-3.35-6.48-.22-.96-.22-1.45-.02-1.51.3-.08,5.66-1.34,10.68-2.51,2.79-.64,6.02-1.4,7.18-1.69,1.16-.28,2.11-.5,2.13-.5ZM389.19,1351.88l.64.72c2.89,3.23,5.84,5.62,9.41,7.71.64.36,1.12.68,1.08.7-.14.1-12.4,4.45-18.08,6.42-3.19,1.12-5.82,2.03-5.84,2.03s-.2-.12-.4-.26l-.36-.26.58-.84c1.89-2.73,4.25-5.72,9.41-11.94,0,0,3.55-4.27,3.55-4.27ZM405.2,1363.34s.9.3,1.99.7c2.61.98,4.68,1.61,7.45,2.31,3.41.86,8.35,1.71,11.26,1.95.44.04.68.08.6.14-.14.08-3.09,1.06-5.26,1.75-3.45,1.08-13.99,4.19-22.58,6.66-1.59.46-2.95.84-3.03.86-.2.04-.86-.14-.86-.22,0-.04.48-.66,1.06-1.34,2.89-3.45,5.76-7.3,8.15-10.96.66-1,1.22-1.83,1.22-1.85ZM401.67,1363.44s-1.4,2.31-3.89,6.24c-1.06,1.67-2.25,3.55-2.67,4.21-.4.64-1,1.65-1.34,2.21l-.58,1.02-.3-.08c-.72-.2-5.8-1.99-7.14-2.53-1.67-.66-3.39-1.46-4.68-2.15-1.61-.86-3.61-2.15-3.45-2.19.04-.02,2.79-.76,6.1-1.67,8.79-2.39,13.67-3.77,16.86-4.78.58-.18,1.08-.32,1.1-.3ZM426.65,1369.3h.02c.08.2-3.17,9.23-4.35,12.08-.26.64-.36.8-.5.78-.34-.02-5.06-.68-7.93-1.1-5-.76-13.38-2.23-15.49-2.71l-.48-.1,2.99-.68c6.42-1.44,9.51-2.23,12.64-3.19,3.95-1.2,7.87-2.71,11.82-4.56.62-.28,1.14-.5,1.28-.52Z"/><path class="cls-13" d="M411.74,1250.64c-.44-.06-7.57,2.51-12.16,4.37-6.2,2.53-11.02,4.94-13.99,7.02-1.1.78-2.49,2.17-2.71,2.71-.08.2-.12.44-.12.68l2.69,2.55,6.4,2.05,15.23,2.73,17.42,2.99.18-1.51c-.06,0-.1-.02-.16-.02l-2.29-.36-.46-.82c-2.37-4.17-4.98-9.35-6.5-12.84-1.18-2.71-2.31-5.84-2.93-8.09-.34-1.36-.38-1.44-.6-1.46h0s0,0,0,0h0ZM411.42,1251.67h.02s.1.58.18,1.24c.34,2.81.96,5.52,1.95,8.45.74,2.21.74,2.09-.12,1.83-2.05-.56-11.22-2.15-17.86-3.07-1.06-.14-1.97-.28-1.97-.3-.08-.08,4.8-2.63,6.94-3.63,2.75-1.26,10.29-4.42,10.86-4.52ZM392.08,1260.66l.78.26c4.25,1.45,14.95,3.49,20.85,3.97.66.06,1.22.12,1.24.12.02.02-.54.32-1.26.66-2.85,1.42-5.98,3.17-8.15,4.52-.64.4-1.22.72-1.3.72s-.5-.08-.94-.14l-.8-.12-2.01-1.97c-3.53-3.43-6.3-6.08-7.36-7.08l-1.04-.94ZM391.27,1261.28l2.83,3.53c1.54,1.95,3.11,3.85,3.45,4.27.34.42.62.76.6.78-.08.06-4.09-.72-6.22-1.2-2.19-.5-3.09-.74-4.43-1.16l-1.1-.36v-.28c.02-1.34,1.73-3.35,4.62-5.4,0,0,.26-.18.26-.18ZM415.31,1266.09c.08,0,.18.18.42.72.68,1.5,2.81,5.56,3.33,6.34.16.26.44.28-2.39-.18-6.8-1.1-8.99-1.46-8.99-1.5,0-.02.2-.16.46-.3,2.11-1.16,4.23-2.65,6.12-4.23.46-.38.88-.74.96-.8.02-.04.06-.06.08-.04Z"/><path class="cls-5" d="M383.03,1264.47s-.44.7-.02,1.75c.26.64,1.02,1.42,1.89,2.23,0,0,8.93,8.71,10.01,9.95,4.94,5.7,7.08,11.32,7.28,19.06.12,4.98-.82,9.35-3.17,14.43-4.17,9.11-12.98,19.16-26.57,30.32l1.99-.66c1.28-.96,3.03-1.99,7.12-4.23,9.45-5.18,20.09-9.93,33.13-14.83,18.78-7.06,49.67-15.33,67.24-18.02l1.83-.28-.28-.44c-1.61-2.49-2.71-4.03-4.03-5.68-3.85-4.78-8.53-8.65-14.25-11.86-7.87-4.39-18.04-7.83-30.92-10.37-2.43-.48-7.77-1.4-12.1-2.07-9.19-1.42-15.13-2.41-21.67-3.53-2.35-.4-5.86-1-8.19-1.5-1.2-.26-3.51-.8-5.32-1.42-1.44-.56-3.53-1.12-3.97-2.83ZM388.2,1269.49s.34.1.76.24c.76.26,1.75.56,2.91.88.88.24,1.76.48,2.65.7,1.2.3,2.21.58,2.23.58.14.14,2.17,6.62,2.85,9.11.26.94.46,1.75.44,1.75-.02.02-.24-.32-.5-.78-2.35-4.13-6.06-8.33-10.35-11.7-.56-.4-.98-.76-.98-.78ZM398.08,1272.22c.1,0,.54.06,1.08.18,3.41.76,9.53,1.93,13.44,2.59.66.1,1.18.22,1.18.26s-.24.18-.54.34c-.66.34-3.33,1.93-4.21,2.53-2.23,1.48-4.23,3.09-5.68,4.54-.58.58-1.08,1.06-1.08,1.06,0,0-.12-.34-.22-.76-.72-2.79-2.23-6.92-3.59-9.83-.22-.46-.4-.88-.4-.92,0,.04,0,.02.02.02ZM415.45,1275.53c.12.04.32.72.72,2.23.74,2.91,1.08,6.16.96,9.19-.04.84-.08,1.63-.12,1.73l-.06.2-1.04-.34c-2.15-.68-5.64-1.71-8.63-2.55-1.71-.46-3.09-.88-3.09-.92,0-.12,2.49-2.61,3.55-3.55,2.03-1.79,7.52-6.04,7.71-5.98ZM416.84,1275.73c.06-.06,8.31,1.36,12.06,2.09,2.79.54,6.84,1.38,7.08,1.49.12.04-.3.28-1.65.88-5.3,2.39-9.23,4.54-13.14,7.14-1.02.68-1.89,1.24-1.91,1.24s-.04-.58-.04-1.28c0-3.81-.76-7.67-2.17-10.92-.14-.32-.26-.62-.24-.64ZM438.17,1279.94c.06.06-.2,1.69-.44,2.65-.72,2.99-2.67,7.43-5.06,11.6-.42.74-.8,1.34-.84,1.36-.04.02-.58-.28-1.2-.64-2.33-1.36-4.98-2.65-7.87-3.85-.8-.34-1.5-.62-1.53-.66-.14-.12,6.32-4.39,9.73-6.44,2.71-1.65,7.12-4.09,7.2-4.01ZM439.7,1280.18c.18,0,3.83,1,5.74,1.57,4.72,1.4,10.13,3.39,13.67,5l1.46.66-1.02.24c-8.63,1.99-16.01,4.27-23.14,7.16-.58.24-1.1.44-1.14.44s.16-.46.42-1.02c2.15-4.56,3.53-9.31,3.87-13.36.02-.38.08-.68.14-.68ZM403.33,1288.53c.06-.06,2.85.6,4.35,1.02,2.29.64,7.14,2.27,7.14,2.39,0,.02-.54.48-1.18,1.04-2.63,2.19-5.16,4.49-8.19,7.42-.9.86-1.67,1.57-1.71,1.57s-.06-.12-.04-.28c.46-3.37.36-7.71-.28-12.1-.06-.56-.12-1.04-.1-1.06ZM461.95,1288.59s-1.28,2.13-2.13,3.31c-1.2,1.73-2.97,4.01-6.96,9.03-2.11,2.65-4.47,5.64-5.26,6.64-.8,1-1.46,1.85-1.49,1.85s-.28-.36-.56-.8c-2.25-3.37-4.94-6.32-8.13-8.97-.6-.5-1.26-1.04-1.48-1.2-.22-.16-.4-.32-.4-.34,0-.06,3.41-1.53,6-2.57,4.54-1.85,10.72-4.05,15.35-5.48,2.43-.76,5.02-1.5,5.06-1.46ZM463.5,1288.99c.08-.02.56.22,1.14.56,4.88,2.79,9.65,6.38,13.42,10.07,1.06,1.04,3.69,3.77,3.65,3.79,0,0-.92.08-2.01.16-8.45.64-19.26,2.43-29.66,4.94-.7.16-1.32.3-1.36.3s.74-.78,1.73-1.73c6.1-5.88,8.89-9.59,12.18-16.21.46-.98.86-1.83.9-1.89t0,0ZM418.81,1293.57c.28.06,2.89,1.28,4.86,2.27,1.81.9,4.52,2.35,4.66,2.47.02.02-.94.52-2.13,1.1-3.77,1.89-7,3.67-10.38,5.72-.96.58-1.77,1.06-1.79,1.06-.08,0-.06-.08.48-1.06,1.81-3.29,3.25-7.22,4.07-11.06.08-.3.16-.5.22-.5ZM416.2,1294.05c.06.06-.62,2.53-1.04,3.87-.82,2.55-2.21,5.74-3.55,8.15-.32.56-.8,1.38-1.06,1.85l-.5.8-1.12-1.08c-1.3-1.26-2.37-2.05-3.73-2.75-.54-.28-.96-.52-.96-.56,0-.16,3.43-3.27,6.06-5.52,1.89-1.63,5.86-4.82,5.92-4.76ZM432.15,1300.61l.98.64c2.25,1.47,4.9,3.41,6.92,5.12,1.14.94,3.35,2.93,3.79,3.41l.24.26-1.63.46c-9.19,2.55-16.29,4.82-24.58,7.87-.92.34-1.71.62-1.77.62-.12,0-.22.1,1.85-1.81,5.3-4.88,9.99-10.25,13.48-15.49,0,0,.7-1.08.7-1.08ZM427.96,1301.65s-2.71,3.91-4.35,6.1c-1.97,2.61-5.46,6.98-7.87,9.83-1,1.18-1.87,2.17-1.91,2.19-.06.02-.08-.28-.08-.74,0-2.43-.62-5.02-1.71-7.22-.46-.92-.54-1.14-.44-1.24.38-.34,6.22-3.67,9.91-5.66,2.49-1.32,6.38-3.29,6.44-3.25ZM402.59,1307.87c.06,0,.52.24,1.04.52,1.28.7,2.43,1.48,3.45,2.33.04.04-.48.46-1.16.96-1.91,1.36-4.8,3.55-6.48,4.9-1.77,1.4-1.83,1.44-1.63,1.14,1.32-2.03,1.99-3.17,2.69-4.64.62-1.3,1.24-2.85,1.69-4.19.16-.58.36-1.02.4-1.02ZM409.35,1313.17c.1-.02.22.16.76.96,1.14,1.71,2.03,3.99,2.25,5.84l.04.4-2.75,1.06c-4.92,1.91-9.45,3.79-12.52,5.2-.86.4-2.37,1.12-3.35,1.61-.98.5-1.79.88-1.79.86s.62-.48,1.38-1.04c6-4.35,11.2-9.13,15.09-13.91.42-.5.8-.96.84-.98,0,0,.04,0,.04,0ZM406.24,1313.93c.08.08-2.21,2.67-3.77,4.25-3.87,3.95-7.71,7.04-12.46,10.05-.6.38-1.14.72-1.2.76-.14.08.04-.12,2.13-2.39,1.32-1.42,2.33-2.63,3.47-4.11.76-.98.9-1.12,2.01-1.91,2.95-2.13,9.75-6.74,9.83-6.66Z"/><path class="cls-8" d="M592.77,1312.53c-.55,0-1.09.05-1.63.05-11.02.59-18.45,5.44-22.79,14.9-3.72,8.56-3.31,19.75.04,28.37,3.89,8.41,10.19,12.86,20.7,14.53,2.22.37,3.72,1.59,8.02,6.61l5.3,6.21h9.61l-6.39-6.44c-3.54-3.53-6.39-6.61-6.39-6.88s1.35-.86,2.99-1.36c5.39-1.64,9.87-5.8,13-12.18,2.54-5.13,2.9-6.72,3.26-13.1.95-18.99-9.06-30.86-25.73-30.73h0ZM601.19,1362.19c-4.68,2.27-11.47,2.72-15.9,1.09-4.58-1.68-9.02-6.44-11.01-11.83-2.22-5.89-1.91-16.76.63-21.66,4.08-7.79,9.47-11.38,17.35-11.38,11.69,0,18.34,7.16,19.21,20.62.68,11.23-3.07,19.66-10.28,23.15h0ZM767.23,1328.75c-4.03,0-7.12,1.64-9.19,4.85l-1.63,2.54v-6.62h-6.98v39.7h6.98v-12.69c0-11.6.14-12.96,1.76-16.13,2.23-4.35,6.08-6.52,9.79-5.48l2.49.73v-6.88h-3.22v-.02ZM726.24,1328.39c-1.37,0-2.81.19-4.26.5-9.33,2.44-14.6,11.38-14.27,20.57,0,7.7,1.5,11.55,5.21,15.59,7.62,6.24,14.5,6.74,23.79,3.39,1.59-.67,3.31-1.45,3.31-1.45v-6.24l-3.31,1.71c-7.52,3.27-13.18,3.27-17.71-.58-2.89-2.95-4.17-6.48-4.76-10.51h28.13v-5.35c0-10.91-6.57-17.8-16.13-17.62h0ZM714.86,1345.79s1.04-6.81,4.89-9.48c1.85-1.31,3.98-1.94,6.07-1.94s4.17.67,5.89,1.99c3.53,2.72,4.12,9.38,4.12,9.38h-20.98v.05ZM546.65,1338.64c-7.56-4.58-10.92-7.89-10.51-11.78,1.17-10.78,14.5-9.3,21.87-5.21l.05-7.25s-4.08-1.77-9.92-1.86c-8.97-.14-14.77,2.8-17.49,8.79-3.99,8.83-.46,15.5,12.32,22.92,7.17,4.17,10.34,7.8,10.34,11.74,0,8.16-9.84,11-19.98,5.89-2.09-1.04-3.85-1.91-3.94-1.91-.37,2.31-.18,7.85-.18,7.85,0,0,3.12,1.31,7.79,2.21,11.6,2.31,22.15-3.13,23.14-11.96.87-8.29-2.13-12.64-13.49-19.43h0ZM828.99,1328.3c-1.36,0-2.8.19-4.31.5-9.33,2.44-14.58,11.38-14.22,20.57,0,7.69,1.49,11.5,5.21,15.54,7.61,6.25,14.5,6.75,23.83,3.4,1.58-.68,3.3-1.44,3.3-1.44v-6.25l-3.3,1.72c-7.53,3.26-13.2,3.26-17.71-.59-2.91-2.94-4.17-6.43-4.76-10.51h28.09v-5.35c0-10.86-6.57-17.76-16.13-17.57h.02ZM817.61,1345.7s1.05-6.79,4.9-9.52c1.85-1.31,3.98-1.95,6.06-1.95s4.17.68,5.89,2c3.53,2.72,4.12,9.43,4.12,9.43h-20.97v.04ZM689.72,1338.72c-7.56-4.57-10.91-7.89-10.51-11.78,1.17-10.79,14.5-9.29,21.87-5.21l.05-7.26s-4.08-1.76-9.93-1.85c-8.97-.13-14.76,2.8-17.49,8.79-3.99,8.83-.4,15.5,12.33,22.92,7.16,4.17,10.33,7.74,10.33,11.69,0,8.16-9.83,11.05-19.98,5.89-2.08-1.04-3.84-1.9-3.94-1.9-.37,2.31-.18,7.85-.18,7.85,0,0,3.08,1.26,7.75,2.21,11.6,2.32,22.16-3.12,23.16-11.95.86-8.25-2.13-12.6-13.46-19.39h0ZM869.98,1328.66c-4.03,0-7.15,1.64-9.19,4.85l-1.63,2.54v-6.61h-6.98v39.68h6.98v-12.69c0-11.59.14-12.95,1.77-16.13,2.23-4.35,6.07-6.52,9.79-5.48l2.49.73v-6.9h-3.22ZM634.23,1338.49v-25.28h-7.03v56h29.58v-6.61h-22.55v-24.11ZM796.91,1346.37l-5.8,15.09-5.57-15.17-5.66-16.81h-7.2c4.67,13.23,9.74,26.69,14.86,39.73,2.22.05,4.44,0,6.66,0l7.84-19.66,7.97-20.07h-6.89s-3.04,7.97-6.21,16.89h0ZM650.44,1297.95c1.14,0,2.08-.36,2.86-1.14.76-.77,1.17-1.68,1.17-2.81s-.41-2.08-1.17-2.8c-.78-.73-1.68-1.09-2.81-1.09s-2.09.37-2.86,1.14c-.78.77-1.14,1.71-1.14,2.8s.37,2.09,1.14,2.8c.73.73,1.67,1.09,2.8,1.09h0ZM647.95,1291.51c.67-.67,1.49-.99,2.54-.99.99,0,1.81.31,2.49.99.67.67,1.04,1.5,1.04,2.49s-.37,1.86-1.04,2.54c-.68.67-1.51.99-2.49.99s-1.82-.31-2.49-.99c-.68-.68-1.04-1.54-1.04-2.54s.31-1.82.99-2.49ZM649.62,1294.37h.46c.32,0,.64.31.91.9l.55,1.23h.85l-.67-1.36c-.28-.54-.55-.86-.86-.95.4-.09.72-.23.94-.5.23-.23.31-.55.31-.91,0-.41-.13-.73-.4-.96-.31-.26-.81-.4-1.45-.4h-1.44v5.07h.73v-2.13h.09ZM649.62,1292.01h.63c.46,0,.78.09.96.22.18.14.22.31.22.64,0,.59-.36.87-1.04.87h-.78v-1.73h.01ZM533.42,1293.91c0-1.77-.05-3.08-.1-3.85h.04c.18.92.4,1.59.59,2.05l6.75,15.09h1.13l6.76-15.22c.18-.41.36-1.04.58-1.91h.05c-.13,1.51-.18,2.82-.18,3.86v13.31h2.31v-19.8h-2.9l-6.21,13.77c-.23.54-.54,1.36-.95,2.44h-.09c-.14-.54-.45-1.35-.91-2.35l-6.07-13.91h-3.08v19.8h2.22v-13.27h.04ZM556.43,1293.95h2v12.33h-2v-12.33ZM557.43,1289.43c.41,0,.76-.14,1.04-.42.28-.27.46-.62.46-1.04s-.13-.77-.45-1.04c-.28-.28-.64-.42-1.05-.42s-.77.14-1.04.42c-.28.27-.46.64-.46,1.04,0,.45.14.77.46,1.04.31.28.63.42,1.04.42h0ZM572.65,1306.55v-2.17c-1.09.81-2.27,1.22-3.48,1.22-1.45,0-2.63-.5-3.49-1.46-.86-.94-1.32-2.26-1.32-3.9s.46-3.07,1.4-4.11c.91-1,2.09-1.5,3.54-1.5,1.18,0,2.31.36,3.35,1.09v-2.31c-.95-.49-2.04-.72-3.26-.72-2.27,0-4.03.72-5.35,2.13-1.31,1.4-1.99,3.31-1.99,5.61,0,2.05.59,3.77,1.81,5.08,1.27,1.35,2.9,2.04,4.89,2.04,1.54-.04,2.8-.37,3.9-1ZM578.36,1299.98c0-1.62.37-2.94,1.04-3.85.64-.82,1.41-1.23,2.31-1.23.77,0,1.32.14,1.72.46v-2.36c-.31-.13-.76-.18-1.35-.18-.81,0-1.54.28-2.18.78-.67.54-1.21,1.35-1.53,2.39h-.05v-2.89h-2.26v14.13h2.27v-7.25h.04ZM591.36,1307.51c2.13,0,3.85-.68,5.12-2.05,1.27-1.35,1.9-3.17,1.9-5.43s-.58-4.08-1.76-5.4c-1.17-1.31-2.81-1.94-4.94-1.94s-3.85.63-5.12,1.86c-1.36,1.35-2.08,3.26-2.08,5.71,0,2.12.58,3.9,1.81,5.21,1.27,1.36,2.95,2.04,5.07,2.04h0ZM588.15,1296c.86-.91,1.99-1.36,3.4-1.36s2.54.45,3.35,1.36c.81.95,1.22,2.3,1.22,4.12s-.36,3.08-1.13,3.99c-.77.95-1.9,1.45-3.4,1.45s-2.58-.5-3.44-1.45c-.86-.96-1.27-2.27-1.27-3.99-.09-1.71.36-3.12,1.27-4.12ZM608.3,1306.28c.86-.77,1.32-1.71,1.32-2.9,0-1.04-.37-1.91-1.04-2.59-.55-.54-1.41-1.04-2.63-1.53-1.09-.46-1.77-.87-2.13-1.18-.36-.36-.58-.81-.58-1.45,0-.59.23-1.05.67-1.41.46-.36,1.04-.54,1.82-.54,1.23,0,2.27.32,3.23,1v-2.26c-.92-.46-1.91-.68-3.04-.68-1.45,0-2.68.4-3.58,1.18-.95.76-1.41,1.77-1.41,2.94,0,1.04.31,1.91.9,2.54.5.54,1.35,1.09,2.54,1.58,1.14.5,1.91.95,2.31,1.32.4.36.58.82.58,1.35,0,1.32-.9,2-2.67,2-1.36,0-2.58-.45-3.67-1.35v2.44c.99.59,2.17.86,3.48.86,1.68-.09,2.99-.5,3.9-1.31h.01ZM619.09,1292.69c-2.13,0-3.84.63-5.12,1.86-1.35,1.35-2.08,3.26-2.08,5.71,0,2.13.59,3.9,1.81,5.21,1.27,1.36,2.95,2.04,5.07,2.04s3.85-.68,5.12-2.05c1.27-1.35,1.91-3.17,1.91-5.44s-.59-4.08-1.77-5.39c-1.22-1.31-2.86-1.95-4.93-1.95h-.01ZM623.48,1300.12c0,1.73-.36,3.08-1.13,3.99-.77.95-1.91,1.45-3.4,1.45s-2.58-.5-3.45-1.45c-.85-.96-1.27-2.27-1.27-3.99,0-1.82.46-3.22,1.36-4.17.85-.9,1.99-1.36,3.4-1.36s2.53.46,3.35,1.36c.72,1,1.13,2.35,1.13,4.17h0ZM629.61,1307.19h2.26v-12.24h3.31v-1.9h-3.31v-2.18c0-1.99.76-2.98,2.36-2.98.53,0,1.08.14,1.49.37v-2.04c-.4-.18-.96-.22-1.63-.22-1.22,0-2.21.36-3.03,1.13-.95.91-1.45,2.08-1.45,3.67v2.32h-2.39v1.9h2.39v12.19h.02ZM638.89,1303.34c0,2.77,1.22,4.17,3.72,4.17.9,0,1.58-.15,2.13-.47v-1.94c-.41.31-.91.46-1.45.46-.77,0-1.31-.19-1.63-.59-.32-.4-.5-1.09-.5-2.03v-7.98h3.59v-1.9h-3.59v-4.17c-.78.27-1.54.5-2.27.73v3.44h-2.44v1.9h2.44v8.38h.01ZM882.04,1329.38c-.77-.73-1.68-1.09-2.8-1.09s-2.09.36-2.86,1.14c-.77.76-1.13,1.71-1.13,2.81s.36,2.08,1.13,2.8c.77.73,1.71,1.09,2.86,1.09s2.08-.37,2.86-1.14c.76-.78,1.17-1.68,1.17-2.8-.04-1.15-.45-2.09-1.22-2.82h0ZM881.68,1334.74c-.68.67-1.5.98-2.49.98s-1.81-.31-2.49-.98c-.67-.68-1.04-1.54-1.04-2.55s.31-1.8,1-2.49c.67-.67,1.49-.99,2.54-.99.99,0,1.8.31,2.49.99.67.68,1.04,1.51,1.04,2.49,0,1.05-.31,1.87-1.04,2.55ZM879.64,1332.43c.4-.1.73-.28.95-.5.23-.23.31-.55.31-.91,0-.41-.13-.73-.4-.95-.31-.27-.82-.4-1.46-.4h-1.44v5.07h.73v-2.13h.45c.31,0,.63.31.91.9l.54,1.22h.86l-.67-1.36c-.23-.59-.5-.87-.78-.95h.01ZM879.14,1331.97h-.78v-1.71h.64c.46,0,.77.09.96.22.18.14.22.31.22.63,0,.59-.37.86-1.04.86h0Z"/><text class="cls-31" transform="translate(1135.15 716)"><tspan class="cls-30" x="0" y="0">W</tspan><tspan x="47.04" y="0">rite-ahead Log</tspan></text><text class="cls-31" transform="translate(1161.91 925.61)"><tspan x="0" y="0">Ope</tspan><tspan class="cls-33" x="92.77" y="0">r</tspan><tspan class="cls-32" x="109.59" y="0">ation Log</tspan></text><text class="cls-31" transform="translate(1181.22 1139.24)"><tspan x="0" y="0">Commit Log</tspan></text><text class="cls-31" transform="translate(1137.5 1350.11)"><tspan class="cls-18" x="0" y="0">T</tspan><tspan class="cls-33" x="29.76" y="0">r</tspan><tspan class="cls-32" x="46.58" y="0">ansaction Log</tspan></text><text class="cls-22" transform="translate(317.94 277.28)"><tspan x="0" y="0">Database Management </tspan><tspan x="211.22" y="72">System</tspan></text><text class="cls-22" transform="translate(1187.35 313.28)"><tspan x="0" y="0">Log Name</tspan></text></svg>