<?xml version="1.0" encoding="utf-8"?>
<svg viewBox="76.528 105.903 585.0135 232.205" xmlns="http://www.w3.org/2000/svg" xmlns:bx="https://boxy-svg.com">
  <defs>
    <style bx:fonts="Roboto">@import url(https://fonts.googleapis.com/css2?family=Roboto%3Aital%2Cwght%400%2C100%3B0%2C300%3B0%2C400%3B0%2C500%3B0%2C700%3B0%2C900%3B1%2C100%3B1%2C300%3B1%2C400%3B1%2C500%3B1%2C700%3B1%2C900&amp;display=swap);</style>
  </defs>
  <g transform="matrix(1, 0, 0, 1, 247.63250732421875, 87.60478210449219)">
    <title>Kafka</title>
    <path d="M 77.603 22.86 C 76.423 21.651 74.481 21.651 73.298 22.86 L 73.284 22.86 C 72.713 23.444 72.395 24.23 72.399 25.05 C 72.399 25.913 72.737 26.685 73.286 27.235 L 73.301 27.25 C 73.841 27.806 74.596 28.146 75.443 28.146 C 76.293 28.146 77.054 27.806 77.603 27.25 L 77.61 27.235 C 78.158 26.685 78.495 25.913 78.495 25.05 C 78.495 24.194 78.161 23.417 77.61 22.86 L 77.603 22.86 Z M 75.443 65.25 C 76.293 65.25 77.054 64.899 77.603 64.349 L 77.61 64.332 C 78.158 63.782 78.495 63.004 78.495 62.153 C 78.495 61.29 78.161 60.517 77.61 59.958 L 77.603 59.958 C 77.037 59.374 76.257 59.045 75.443 59.05 C 74.634 59.043 73.86 59.374 73.298 59.958 L 73.284 59.958 C 72.737 60.517 72.395 61.29 72.395 62.153 C 72.395 63.008 72.736 63.782 73.284 64.332 L 73.298 64.349 C 73.841 64.899 74.596 65.25 75.443 65.25 Z M 92.035 55.868 C 92.79 55.667 93.471 55.174 93.889 54.429 L 93.945 54.321 C 94.308 53.628 94.391 52.827 94.186 52.076 C 93.983 51.283 93.473 50.604 92.766 50.191 L 92.723 50.162 C 92.035 49.774 91.219 49.676 90.455 49.885 C 89.699 50.076 89.016 50.59 88.604 51.328 C 88.183 52.062 88.095 52.906 88.296 53.681 C 88.504 54.443 88.989 55.134 89.714 55.566 L 89.72 55.566 C 90.447 55.992 91.27 56.068 92.035 55.868 Z M 78.565 40.43 C 77.745 39.587 76.621 39.113 75.443 39.111 C 74.223 39.111 73.124 39.618 72.328 40.43 C 71.532 41.238 71.04 42.355 71.04 43.598 C 71.04 44.839 71.53 45.962 72.328 46.782 C 74.042 48.525 76.851 48.525 78.565 46.782 C 79.363 45.962 79.853 44.839 79.853 43.598 C 79.853 42.355 79.363 41.238 78.565 40.43 Z M 76.81 35.15 C 78.583 35.448 80.175 36.312 81.39 37.557 L 81.399 37.557 C 81.593 37.753 81.78 37.97 81.956 38.184 L 84.997 36.395 C 84.596 35.164 84.564 33.844 84.897 32.594 C 85.341 30.89 86.441 29.434 87.959 28.543 L 88.011 28.509 C 89.505 27.644 91.279 27.412 92.943 27.868 C 94.561 28.308 96.024 29.384 96.935 30.983 L 96.935 30.988 C 97.841 32.58 98.023 34.407 97.592 36.051 C 97.153 37.756 96.051 39.214 94.532 40.105 L 94.114 40.352 L 94.073 40.352 C 92.663 41.035 91.055 41.184 89.542 40.775 C 88.313 40.438 87.206 39.747 86.359 38.79 L 83.322 40.574 C 84.044 42.527 84.044 44.674 83.322 46.627 L 86.359 48.407 C 87.227 47.418 88.334 46.748 89.542 46.421 C 91.227 45.955 93.029 46.198 94.528 47.093 L 94.63 47.14 L 94.63 47.147 C 96.096 48.048 97.158 49.483 97.59 51.152 C 98.039 52.858 97.803 54.677 96.932 56.21 L 96.877 56.322 L 96.871 56.312 C 96.001 57.787 94.595 58.87 92.945 59.331 C 91.26 59.784 89.465 59.544 87.959 58.662 L 87.959 58.65 C 86.443 57.759 85.341 56.3 84.897 54.598 C 84.564 53.349 84.596 52.031 84.997 50.802 L 81.956 49.019 C 81.78 49.234 81.596 49.44 81.399 49.638 L 81.39 49.648 C 80.157 50.913 78.553 51.751 76.81 52.041 L 76.81 55.614 C 78.06 55.882 79.198 56.511 80.09 57.426 L 80.094 57.434 C 81.282 58.638 82.018 60.311 82.018 62.152 C 82.018 63.986 81.282 65.65 80.094 66.859 L 80.09 66.878 C 78.866 68.128 77.192 68.831 75.443 68.836 C 73.698 68.831 72.029 68.128 70.805 66.88 L 70.8 66.88 L 70.8 66.861 C 69.565 65.606 68.874 63.914 68.874 62.153 C 68.874 60.314 69.61 58.638 70.8 57.436 L 70.8 57.429 L 70.805 57.429 C 71.696 56.515 72.835 55.884 74.082 55.615 L 74.082 52.043 C 72.34 51.756 70.734 50.915 69.505 49.65 L 69.493 49.639 C 67.912 48.027 67.024 45.854 67.026 43.595 C 67.026 41.236 67.975 39.104 69.493 37.557 L 69.505 37.557 C 70.734 36.286 72.34 35.446 74.082 35.15 L 74.082 31.593 C 72.839 31.315 71.699 30.684 70.805 29.776 L 70.8 29.776 L 70.8 29.767 C 69.564 28.509 68.873 26.815 68.874 25.05 C 68.874 23.221 69.61 21.543 70.8 20.334 L 70.805 20.331 C 72.024 19.077 73.695 18.371 75.443 18.367 C 77.254 18.367 78.894 19.113 80.09 20.327 L 80.09 20.332 L 80.094 20.332 C 81.282 21.539 82.018 23.219 82.018 25.048 C 82.018 26.891 81.282 28.555 80.094 29.766 L 80.09 29.776 C 79.196 30.684 78.057 31.315 76.81 31.593 L 76.81 35.15 Z M 93.887 32.776 L 93.861 32.736 C 93.461 32.047 92.804 31.542 92.032 31.332 C 91.25 31.115 90.412 31.227 89.714 31.64 L 89.716 31.64 C 88.987 32.059 88.497 32.752 88.294 33.522 C 88.093 34.291 88.179 35.138 88.6 35.876 L 88.616 35.896 C 89.035 36.625 89.708 37.113 90.454 37.309 C 91.203 37.526 92.04 37.435 92.763 37.009 L 92.802 36.988 C 93.488 36.57 93.981 35.903 94.184 35.128 C 94.396 34.335 94.291 33.493 93.887 32.776" style="fill-opacity: 0.79;"/>
    <text style="fill: rgb(45, 60, 45); font-family: Roboto; font-size: 46px; font-weight: 300; text-anchor: middle; white-space: pre;" x="170.691" y="62.301">Kafka</text>
  </g>
  <g transform="matrix(1, 0, 0, 1, 188.18450927734375, 89.76678466796875)">
    <title>Cluster</title>
    <rect style="stroke: rgb(45, 60, 45); fill: rgb(225, 233, 225); transform-box: fill-box; transform-origin: 50% 50%;" transform="matrix(0.000001, -1, 1, 0.000001, 96.027513, -40.528512)" x="36.468" y="72.731" width="145.376" height="286.901" rx="5" ry="5"/>
    <rect style="stroke: rgb(45, 60, 45); fill: rgb(255, 255, 255);" x="170.249" y="90.059" width="68.448" height="25.769" rx="3" ry="3"/>
    <text style="fill: rgb(45, 60, 45); font-family: Roboto; font-size: 16px; font-weight: 300; white-space: pre;" x="180.876" y="107.751">Cluster</text>
    <g transform="matrix(1, 0, 0, 1, -77.904465, 41.441158)">
      <title>Broker</title>
      <rect style="stroke: rgb(45, 60, 45); transform-origin: 70.048px 76.185px; fill: rgba(158, 182, 158, 0.796);" transform="matrix(0.000001, -1, 1, 0.000001, 284.936769, 61.247276)" x="23.403" y="25.631" width="93.291" height="101.108" rx="5" ry="5"/>
      <rect style="stroke: rgb(45, 60, 45); fill: rgb(255, 255, 255);" x="320.83" y="76.387" width="68.448" height="25.769" rx="3" ry="3"/>
      <text style="fill: rgb(45, 60, 45); font-family: Roboto; font-size: 16px; font-weight: 300; white-space: pre;" x="331.457" y="94.079">Broker</text>
      <g transform="matrix(1, 0, 0, 1, -17.313, -119.612999)">
        <title>Topic</title>
        <rect style="fill: rgb(20, 26, 20);" x="337.205" y="229.031" width="68.448" height="25.769" rx="3" ry="3"/>
        <text style="fill: rgb(225, 233, 225); font-family: Roboto; font-size: 16px; font-weight: 300; white-space: pre;" x="351.613" y="247.031">Topic</text>
      </g>
      <g transform="matrix(1, 0, 0, 1, -17.313, -85.634003)">
        <title>Topic</title>
        <rect style="fill: rgb(20, 26, 20);" x="337.205" y="229.031" width="68.448" height="25.769" rx="3" ry="3"/>
        <text style="fill: rgb(225, 233, 225); font-family: Roboto; font-size: 16px; font-weight: 300; white-space: pre;" x="351.613" y="247.031">Topic</text>
      </g>
    </g>
    <g transform="matrix(1, 0, 0, 1, -222.28952, 41.441154)">
      <title>Broker</title>
      <rect style="stroke: rgb(45, 60, 45); transform-origin: 70.048px 76.185px; fill: rgba(158, 182, 158, 0.796);" transform="matrix(0.000001, -1, 1, 0.000001, 284.936769, 61.247276)" x="23.403" y="25.631" width="93.291" height="101.108" rx="5" ry="5"/>
      <rect style="stroke: rgb(45, 60, 45); fill: rgb(255, 255, 255);" x="320.83" y="76.387" width="68.448" height="25.769" rx="3" ry="3"/>
      <text style="fill: rgb(45, 60, 45); font-family: Roboto; font-size: 16px; font-weight: 300; white-space: pre;" x="331.457" y="94.079">Broker</text>
      <g transform="matrix(1, 0, 0, 1, -17.313, -119.612999)">
        <title>Topic</title>
        <rect style="fill: rgb(20, 26, 20);" x="337.205" y="229.031" width="68.448" height="25.769" rx="3" ry="3"/>
        <text style="fill: rgb(225, 233, 225); font-family: Roboto; font-size: 16px; font-weight: 300; white-space: pre;" x="351.613" y="247.031">Topic</text>
      </g>
      <g transform="matrix(1, 0, 0, 1, -17.313, -85.634003)">
        <title>Topic</title>
        <rect style="fill: rgb(20, 26, 20);" x="337.205" y="229.031" width="68.448" height="25.769" rx="3" ry="3"/>
        <text style="fill: rgb(225, 233, 225); font-family: Roboto; font-size: 16px; font-weight: 300; white-space: pre;" x="351.613" y="247.031">Topic</text>
      </g>
    </g>
  </g>
  <g style="transform-origin: 246.408px 268.026px;" transform="matrix(0.963631093502, 0.267239004374, -0.267239004374, 0.963631093502, 396.218385540619, 17.408505067465)">
    <title>Arrow</title>
    <line class="cls-1" x1="148.867" y1="236.505" x2="180.66" y2="227.662" style="fill: none; stroke-miterlimit: 10; stroke: rgb(45, 60, 45); transform-box: fill-box; transform-origin: 50% 50%;"/>
    <polygon class="cls-2" points="173.021 232.653 182.721 226.953 171.521 227.053 173.021 232.653" style="stroke-width: 0px; fill: rgb(45, 60, 45); transform-box: fill-box; transform-origin: 50% 50%;"/>
  </g>
  <g style="transform-origin: 246.408px 268.026px;" transform="matrix(0.963631093502, 0.267239004374, -0.267239004374, 0.963631093502, 396.218393696103, 49.691037915632)">
    <title>Arrow</title>
    <line class="cls-1" x1="148.867" y1="236.505" x2="180.66" y2="227.662" style="fill: none; stroke-miterlimit: 10; stroke: rgb(45, 60, 45); transform-box: fill-box; transform-origin: 50% 50%;"/>
    <polygon class="cls-2" points="173.021 232.653 182.721 226.953 171.521 227.053 173.021 232.653" style="stroke-width: 0px; fill: rgb(45, 60, 45); transform-box: fill-box; transform-origin: 50% 50%;"/>
  </g>
  <g style="transform-origin: 246.408px 268.026px;" transform="matrix(0.963631093502, 0.267239004374, -0.267239004374, 0.963631093502, 396.218393696103, 87.542745374128)">
    <title>Arrow</title>
    <line class="cls-1" x1="148.867" y1="236.505" x2="180.66" y2="227.662" style="fill: none; stroke-miterlimit: 10; stroke: rgb(45, 60, 45); transform-box: fill-box; transform-origin: 50% 50%;"/>
    <polygon class="cls-2" points="173.021 232.653 182.721 226.953 171.521 227.053 173.021 232.653" style="stroke-width: 0px; fill: rgb(45, 60, 45); transform-box: fill-box; transform-origin: 50% 50%;"/>
  </g>
  <g transform="matrix(1, 0, 0, 1, 192.00051879882812, 22.439783096313477)">
    <title>Consumer</title>
    <rect style="stroke: rgb(45, 60, 45); fill: rgb(255, 255, 255);" x="410.688" y="196" width="58.853" height="19.6" rx="3" ry="3"/>
    <text style="fill: rgb(45, 60, 45); font-family: Roboto; font-size: 11px; font-weight: 300; white-space: pre;" x="415.347" y="209.764">Consumer</text>
  </g>
  <g transform="matrix(1, 0, 0, 1, 192.00051879882812, 56.07078552246094)">
    <title>Consumer</title>
    <rect style="stroke: rgb(45, 60, 45); fill: rgb(255, 255, 255);" x="410.688" y="196" width="58.853" height="19.6" rx="3" ry="3"/>
    <text style="fill: rgb(45, 60, 45); font-family: Roboto; font-size: 11px; font-weight: 300; white-space: pre;" x="415.347" y="209.764">Consumer</text>
  </g>
  <g transform="matrix(1, 0, 0, 1, 192.00051879882812, 93.92278289794922)">
    <title>Consumer</title>
    <rect style="stroke: rgb(45, 60, 45); fill: rgb(255, 255, 255);" x="410.688" y="196" width="58.853" height="19.6" rx="3" ry="3"/>
    <text style="fill: rgb(45, 60, 45); font-family: Roboto; font-size: 11px; font-weight: 300; white-space: pre;" x="415.347" y="209.764">Consumer</text>
  </g>
  <g transform="matrix(1.2697999477386475, 0, 0, 1.2697999477386475, 78.61557006835938, 219.78855895996094)" style="">
    <linearGradient id="SVGID_1_" gradientUnits="userSpaceOnUse" x1="9.6501" y1="55.4537" x2="55.733" y2="9.3708" gradientTransform="matrix(1 0 0 -1 0 65.094)">
      <stop offset="0" style="stop-color:#91D443"/>
      <stop offset="1" style="stop-color:#48BFE0"/>
    </linearGradient>
    <path class="st0" d="M45.8,55.9c0,4.5,3.6,8.1,8.1,8.1h10V54c0-4.5-3.6-8.1-8.1-8.1H54c-7.1,0-12.9-5.8-12.9-12.9V31 c0-4.5-3.6-8.1-8.1-8.1H31c-7.1,0-12.9-5.8-12.9-12.9l0,0V8.1C18.2,3.6,14.5,0,10,0H0v10c0,4.5,3.6,8.1,8.1,8.1H10 c7.1,0,12.9,5.8,12.9,12.9v1.9c0,4.5,3.6,8.1,8.1,8.1H33c7.1,0,12.9,5.8,12.9,12.9l0,0V55.9z" style="fill: url('#SVGID_1_');"/>
    <linearGradient id="SVGID_2_" gradientUnits="userSpaceOnUse" x1="21.1064" y1="66.91" x2="67.1893" y2="20.827" gradientTransform="matrix(1 0 0 -1 0 65.094)">
      <stop offset="0" style="stop-color:#91D443"/>
      <stop offset="1" style="stop-color:#48BFE0"/>
    </linearGradient>
    <path class="st1" d="M64,31c0-4.5-3.6-8.1-8.1-8.1H54c-7.1,0-12.9-5.8-12.9-12.9V8.1C41,3.6,37.4,0,32.9,0h-10v10.1 c0.1,4.4,3.7,8,8.1,8H33c7.1,0,12.9,5.8,12.9,12.9l0,0v1.9c0,4.5,3.6,8.1,8.1,8.1H64V31z" style="fill: url('#SVGID_2_');"/>
    <linearGradient id="SVGID_3_" gradientUnits="userSpaceOnUse" x1="32.529" y1="78.3326" x2="78.6119" y2="32.2497" gradientTransform="matrix(1 0 0 -1 0 65.094)">
      <stop offset="0" style="stop-color:#91D443"/>
      <stop offset="1" style="stop-color:#48BFE0"/>
    </linearGradient>
    <path class="st2" d="M64,8.1c0-4.3-3.5-7.9-7.8-8.1H45.7v10.1c0.1,4.4,3.7,8,8.1,8H64V8.1z" style="fill: url('#SVGID_3_');"/>
    <linearGradient id="SVGID_4_" gradientUnits="userSpaceOnUse" x1="-1.8193" y1="43.9892" x2="44.2636" y2="-2.0937" gradientTransform="matrix(1 0 0 -1 0 65.094)">
      <stop offset="0" style="stop-color:#91D443"/>
      <stop offset="1" style="stop-color:#48BFE0"/>
    </linearGradient>
    <path class="st3" d="M0,33c0,4.5,3.6,8.1,8.1,8.1H10c7.1,0,12.9,5.8,12.9,12.9v1.9c0,4.5,3.6,8.1,8.1,8.1h10V53.9 c-0.1-4.4-3.7-8-8.1-8H31c-7.1,0-12.9-5.8-12.9-12.9l0,0v-1.9c0-4.5-3.6-8.1-8.1-8.1H0V33z" style="fill: url('#SVGID_4_');"/>
    <linearGradient id="SVGID_5_" gradientUnits="userSpaceOnUse" x1="-13.2407" y1="32.5678" x2="32.8422" y2="-13.5152" gradientTransform="matrix(1 0 0 -1 0 65.094)">
      <stop offset="0" style="stop-color:#91D443"/>
      <stop offset="1" style="stop-color:#48BFE0"/>
    </linearGradient>
    <path class="st4" d="M0,55.9c0,4.3,3.5,7.9,7.8,8.1h10.5V53.9c-0.1-4.4-3.7-8-8.1-8H0V55.9z" style="fill: url('#SVGID_5_');"/>
  </g>
  <text style="fill: rgb(45, 60, 45); font-family: Roboto; font-size: 19px; font-weight: 300; text-anchor: middle; white-space: pre;" transform="matrix(1, 0, 0, 1, 277.29351806640625, 45.202781677246094)"><tspan x="-159.091" y="134.383">Debezium</tspan><tspan x="-159.091" dy="1em">​</tspan><tspan>Producer</tspan></text>
  <g style="transform-origin: 246.408px 268.026px;" transform="matrix(1.544947862625, 0.428453058004, -0.428453058004, 1.544947862625, 66.943315052383, 79.630300404899)">
    <title>Arrow</title>
    <line class="cls-1" x1="148.867" y1="236.505" x2="180.66" y2="227.662" style="fill: none; stroke-miterlimit: 10; stroke: rgb(45, 60, 45); transform-box: fill-box; transform-origin: 50% 50%;"/>
    <polygon class="cls-2" points="173.021 232.653 182.721 226.953 171.521 227.053 173.021 232.653" style="stroke-width: 0px; fill: rgb(45, 60, 45); transform-box: fill-box; transform-origin: 50% 50%;"/>
  </g>
</svg>