<?xml version="1.0" encoding="utf-8"?>
<svg viewBox="740.5375 168.6222 320.6424 330.3284" xmlns="http://www.w3.org/2000/svg" xmlns:bx="https://boxy-svg.com">
  <defs>
    <style bx:fonts="Roboto">@import url(https://fonts.googleapis.com/css2?family=Roboto%3Aital%2Cwght%400%2C100%3B0%2C300%3B0%2C400%3B0%2C500%3B0%2C700%3B0%2C900%3B1%2C100%3B1%2C300%3B1%2C400%3B1%2C500%3B1%2C700%3B1%2C900&amp;display=swap);</style>
  </defs>
  <g style="" transform="matrix(0.8852429389953613, 0, 0, 0.9078000783920288, 612.6211547851562, 456.7233581542969)">
    <title>Node App</title>
    <text style="fill: rgb(45, 60, 45); font-family: Roboto; font-size: 36px; font-weight: 300; text-anchor: middle; white-space: pre;" transform="matrix(1.129633, 0, 0, 1.129633, 479.375824, -213.973343)"><tspan x="-181.21" y="155.758">Node <tspan x="-181.2100067138672" dy="1em">​</tspan>Application</tspan><tspan x="-181.2100067138672" dy="1em">​</tspan></text>
    <rect style="fill: none; stroke: rgb(45, 60, 45);" x="157.543" y="-102.041" width="321.314" height="148.557" rx="5" ry="5"/>
    <g transform="matrix(0.307364, 0, 0, 0.307364, 383.073486, -76.83139)" style="">
      <path d="M127.999999,288.463771 C124.024844,288.463771 120.314699,287.403728 116.869564,285.548656 L81.6231884,264.612838 C76.32298,261.697724 78.9730854,260.637682 80.5631458,260.107661 C87.7184259,257.72257 89.0434775,257.192547 96.4637688,252.952381 C97.2587979,252.422361 98.3188405,252.687372 99.1138718,253.217392 L126.144927,269.383024 C127.20497,269.913045 128.530021,269.913045 129.325053,269.383024 L235.064182,208.165634 C236.124225,207.635611 236.654245,206.575571 236.654245,205.250519 L236.654245,83.0807467 C236.654245,81.7556929 236.124225,80.6956526 235.064182,80.1656324 L129.325053,19.2132506 C128.26501,18.6832305 126.939959,18.6832305 126.144927,19.2132506 L20.4057954,80.1656324 C19.3457551,80.6956526 18.8157349,82.0207041 18.8157349,83.0807467 L18.8157349,205.250519 C18.8157349,206.31056 19.3457551,207.635611 20.4057954,208.165634 L49.2919247,224.861286 C64.9275364,232.811595 74.7329196,223.536234 74.7329196,214.260871 L74.7329196,93.681159 C74.7329196,92.0910985 76.0579711,90.5010358 77.9130428,90.5010358 L91.4285716,90.5010358 C93.0186343,90.5010358 94.6086948,91.8260873 94.6086948,93.681159 L94.6086948,214.260871 C94.6086948,235.196689 83.2132512,247.387164 63.3374737,247.387164 C57.2422362,247.387164 52.4720502,247.387164 38.9565214,240.761906 L11.1304347,224.861286 C4.24016581,220.886129 5.68434189e-14,213.46584 5.68434189e-14,205.515528 L5.68434189e-14,83.3457557 C5.68434189e-14,75.3954465 4.24016581,67.9751552 11.1304347,64.0000006 L116.869564,2.78260752 C123.494824,-0.927535841 132.505176,-0.927535841 139.130436,2.78260752 L244.869565,64.0000006 C251.759834,67.9751552 256,75.3954465 256,83.3457557 L256,205.515528 C256,213.46584 251.759834,220.886129 244.869565,224.861286 L139.130436,286.078676 C135.685299,287.668739 131.710145,288.463771 127.999999,288.463771 L127.999999,288.463771 Z M160.596274,204.455488 C114.219461,204.455488 104.679089,183.254659 104.679089,165.233955 C104.679089,163.643893 106.004141,162.053832 107.859212,162.053832 L121.639752,162.053832 C123.229813,162.053832 124.554864,163.113872 124.554864,164.703935 C126.674947,178.749484 132.770187,185.639753 160.861283,185.639753 C183.122154,185.639753 192.662526,180.604556 192.662526,168.67909 C192.662526,161.788821 190.012423,156.753624 155.296065,153.308489 C126.409938,150.393375 108.389235,144.033126 108.389235,120.977226 C108.389235,99.5113875 126.409938,86.7908901 156.621119,86.7908901 C190.542443,86.7908901 207.238095,98.4513472 209.358178,123.89234 C209.358178,124.687371 209.093167,125.482403 208.563147,126.277434 C208.033127,126.807454 207.238095,127.337474 206.443064,127.337474 L192.662526,127.337474 C191.337475,127.337474 190.012423,126.277434 189.747412,124.952382 C186.567289,110.376813 178.351966,105.606625 156.621119,105.606625 C132.240165,105.606625 129.325053,114.086957 129.325053,120.447205 C129.325053,128.132506 132.770187,130.5176 165.631471,134.757766 C198.227744,138.997931 213.598344,145.093169 213.598344,167.884058 C213.333333,191.20497 194.252589,204.455488 160.596274,204.455488 L160.596274,204.455488 Z" fill="#539E43"/>
    </g>
  </g>
  <g id="g-1" transform="matrix(0.9144700169563293, 0, 0, 0.9144700169563293, 944.9448242187499, 144.71463012695312)" style="">
    <title>Willow DB</title>
    <path style="fill: none; stroke-dasharray: 8; stroke: rgb(45, 60, 45);" d="M 40.845 187.284 L 19.258 239.894"/>
    <text style="fill: rgb(45, 60, 45); font-family: Roboto; font-size: 27.4px; font-weight: 300; text-anchor: middle; white-space: pre;" x="48.752" y="-15.427" transform="matrix(1, 0, 0, 1, 3.914237, 67.81649)">PostgreSQL <tspan x="48.75199890136719" dy="1em">​</tspan>Database</text>
    <path class="cls-1" d="M 50.314 86.313 C 37.814 86.313 26.514 88.513 18.214 92.013 C 14.014 93.813 10.614 95.913 8.214 98.313 C 5.714 100.813 4.114 103.713 4.114 106.913 L 4.114 166.813 C 4.114 167.913 4.314 169.013 4.714 170.113 C 4.714 170.113 4.714 170.213 4.714 170.313 C 4.714 170.313 4.714 170.313 4.714 170.313 C 6.514 175.413 12.014 179.413 19.414 182.313 C 20.014 182.513 20.714 182.813 21.314 183.013 C 21.314 183.013 21.314 183.013 21.314 183.013 C 22.414 183.413 23.514 183.713 24.714 184.113 C 24.714 184.113 24.914 184.113 24.914 184.113 C 25.414 184.213 26.014 184.413 26.514 184.513 C 26.514 184.513 26.614 184.513 26.714 184.513 C 27.314 184.613 27.814 184.813 28.414 184.913 C 28.414 184.913 28.414 184.913 28.514 184.913 C 29.814 185.213 31.114 185.513 32.414 185.713 C 32.414 185.713 32.414 185.713 32.414 185.713 C 32.914 185.713 33.514 185.913 34.014 186.013 C 34.214 186.013 34.414 186.013 34.614 186.013 C 35.114 186.013 35.614 186.113 36.014 186.213 C 36.214 186.213 36.414 186.213 36.614 186.213 C 37.114 186.213 37.614 186.313 38.214 186.413 C 38.414 186.413 38.614 186.413 38.714 186.413 C 39.114 186.413 39.514 186.413 39.914 186.513 C 40.314 186.513 40.714 186.513 41.014 186.613 C 41.214 186.613 41.514 186.613 41.714 186.613 C 42.214 186.613 42.614 186.613 43.114 186.613 C 43.614 186.613 44.114 186.613 44.714 186.613 C 44.914 186.613 45.114 186.613 45.314 186.613 C 46.814 186.613 48.314 186.613 49.914 186.613 C 52.214 186.613 54.414 186.613 56.614 186.413 C 57.714 186.413 58.714 186.213 59.814 186.113 C 60.214 186.113 60.714 186.113 61.114 186.013 C 61.214 186.013 61.414 186.013 61.514 186.013 C 62.114 186.013 62.614 185.913 63.214 185.813 C 63.414 185.813 63.514 185.813 63.714 185.813 C 64.214 185.813 64.814 185.713 65.314 185.613 C 65.514 185.613 65.614 185.613 65.814 185.613 C 66.414 185.613 67.014 185.413 67.614 185.313 C 67.614 185.313 67.614 185.313 67.614 185.313 C 72.514 184.413 77.014 183.213 80.814 181.713 C 89.014 178.513 94.814 174.013 95.914 168.113 C 96.014 167.513 96.114 166.913 96.114 166.313 L 96.114 106.913 C 96.114 106.313 96.114 105.713 96.014 105.213 C 96.014 105.213 96.014 105.013 96.014 104.913 C 95.514 102.513 94.214 100.313 92.214 98.313 C 89.714 95.813 86.314 93.713 82.214 92.013 C 74.014 88.513 62.814 86.413 50.314 86.313 Z M 50.314 89.813 C 62.414 89.813 73.314 91.913 81.014 95.213 C 84.914 96.813 87.914 98.813 89.914 100.813 C 91.414 102.313 92.314 103.913 92.714 105.413 C 91.814 109.113 87.214 113.113 79.814 116.113 C 72.214 119.113 61.714 121.013 50.214 121.013 C 38.714 121.013 28.314 119.113 20.614 116.113 C 13.214 113.213 8.614 109.213 7.714 105.413 C 8.114 103.913 9.014 102.313 10.514 100.813 C 12.514 98.813 15.614 96.813 19.414 95.213 C 27.114 91.913 38.014 89.813 50.114 89.813 L 50.314 89.813 Z M 7.614 111.913 C 10.314 114.813 14.414 117.313 19.414 119.213 C 27.614 122.413 38.414 124.313 50.214 124.313 C 62.014 124.313 72.914 122.413 81.014 119.213 C 86.014 117.213 90.114 114.813 92.814 111.913 L 92.814 125.713 C 92.814 125.713 92.814 125.913 92.714 126.013 C 92.014 129.813 87.414 134.013 79.714 137.013 C 72.114 140.013 61.614 141.913 50.114 141.913 C 38.614 141.913 28.214 140.013 20.514 137.013 C 12.914 134.013 8.314 129.913 7.514 126.013 C 7.514 125.913 7.514 125.813 7.414 125.713 L 7.414 111.913 L 7.614 111.913 Z M 17.514 124.913 C 16.414 124.913 15.414 125.813 15.414 127.013 C 15.414 128.113 16.314 129.113 17.514 129.113 C 18.614 129.113 19.614 128.213 19.614 127.013 C 19.614 127.013 19.614 127.013 19.614 127.013 C 19.614 125.913 18.714 124.913 17.514 124.913 C 17.514 124.913 17.514 124.913 17.514 124.913 Z M 7.614 132.913 C 10.314 135.813 14.414 138.313 19.414 140.213 C 27.614 143.413 38.414 145.313 50.214 145.313 C 62.014 145.313 72.914 143.413 81.014 140.213 C 86.014 138.213 90.114 135.813 92.814 132.913 L 92.814 146.413 C 92.714 146.613 92.614 146.813 92.614 147.013 C 91.914 150.813 87.314 155.013 79.714 158.013 C 72.114 161.013 61.614 162.913 50.114 162.913 C 38.614 162.913 28.714 161.113 21.114 158.313 C 13.514 155.413 8.714 151.413 7.714 147.713 C 7.714 147.613 7.714 147.513 7.614 147.413 L 7.614 133.013 L 7.614 132.913 Z M 17.514 145.613 C 16.414 145.613 15.414 146.513 15.414 147.713 C 15.414 148.813 16.314 149.813 17.514 149.813 C 18.614 149.813 19.614 148.913 19.614 147.713 C 19.614 147.713 19.614 147.713 19.614 147.713 C 19.614 146.613 18.714 145.613 17.514 145.613 Z M 92.914 153.813 L 92.914 166.813 C 92.914 167.413 92.914 168.013 92.714 168.613 C 92.014 171.213 89.514 173.913 85.614 176.213 C 85.614 176.213 85.514 176.213 85.414 176.213 C 85.214 176.313 85.014 176.413 84.814 176.613 C 83.614 177.313 82.314 177.913 81.014 178.513 C 78.114 179.713 74.814 180.813 71.114 181.613 C 71.114 181.613 71.014 181.613 70.914 181.613 C 70.314 181.713 69.814 181.813 69.214 182.013 C 69.214 182.013 69.214 182.013 69.214 182.013 C 68.614 182.113 68.014 182.213 67.414 182.413 C 67.414 182.413 67.414 182.413 67.414 182.413 C 66.814 182.513 66.114 182.613 65.514 182.713 C 65.514 182.713 65.514 182.713 65.414 182.713 C 64.914 182.713 64.314 182.913 63.814 182.913 C 63.614 182.913 63.514 182.913 63.314 182.913 C 62.714 182.913 62.114 183.013 61.614 183.113 C 61.614 183.113 61.514 183.113 61.414 183.113 C 60.814 183.113 60.214 183.213 59.614 183.313 C 59.514 183.313 59.414 183.313 59.314 183.313 C 58.814 183.313 58.314 183.313 57.714 183.413 C 57.514 183.413 57.314 183.413 57.114 183.413 C 56.614 183.413 56.014 183.413 55.514 183.413 C 55.314 183.413 55.214 183.413 55.014 183.413 C 53.514 183.413 52.014 183.413 50.514 183.413 C 49.014 183.413 47.514 183.413 46.114 183.413 C 46.114 183.413 46.114 183.413 46.114 183.413 C 45.414 183.413 44.714 183.413 44.014 183.313 C 43.814 183.313 43.614 183.313 43.414 183.313 C 40.714 183.113 38.214 182.813 35.714 182.513 C 35.514 182.513 35.414 182.513 35.214 182.513 C 34.714 182.513 34.214 182.313 33.714 182.313 C 33.614 182.313 33.514 182.313 33.314 182.313 C 32.814 182.313 32.314 182.113 31.714 182.013 C 31.614 182.013 31.414 182.013 31.314 182.013 C 30.814 182.013 30.414 181.813 29.914 181.713 C 29.714 181.713 29.514 181.713 29.414 181.613 C 25.814 180.813 22.514 179.713 19.714 178.513 C 19.314 178.313 18.914 178.113 18.414 177.913 C 18.314 177.913 18.214 177.913 18.114 177.813 C 17.814 177.713 17.514 177.513 17.214 177.413 C 11.714 174.613 8.514 171.213 7.914 168.013 C 7.914 167.613 7.814 167.213 7.814 166.813 L 7.814 154.013 C 10.614 157.013 14.914 159.513 20.114 161.513 C 28.214 164.613 38.714 166.413 50.314 166.413 C 61.914 166.413 73.014 164.513 81.114 161.313 C 86.114 159.313 90.314 156.813 93.014 153.913 L 92.914 153.813 Z M 17.514 167.413 C 16.414 167.413 15.414 168.313 15.414 169.513 C 15.414 170.613 16.314 171.613 17.514 171.613 C 18.614 171.613 19.614 170.713 19.614 169.513 C 19.614 169.513 19.614 169.513 19.614 169.513 C 19.614 168.413 18.714 167.413 17.514 167.413 Z" style="fill: rgb(45, 60, 45); fill-rule: evenodd; stroke: rgb(45, 60, 45); stroke-miterlimit: 10; stroke-width: 0.5px;"/>
    <g transform="matrix(1.09353, 0, 0, 1.09353, -2483.61792, -295.684204)" style="">
      <title>Postgres Logo</title>
      <path d="M 2362.592 426.052 C 2363.002 422.625 2362.88 422.123 2365.432 422.678 L 2366.079 422.735 C 2368.042 422.824 2370.598 422.42 2372.117 421.718 C 2375.364 420.212 2377.288 417.697 2374.088 418.358 C 2366.786 419.864 2366.284 417.391 2366.284 417.391 C 2373.994 405.951 2377.217 391.428 2374.435 387.871 C 2366.846 378.174 2353.712 382.761 2353.491 382.879 L 2353.421 382.892 C 2351.977 382.593 2350.364 382.414 2348.55 382.384 C 2345.247 382.33 2342.738 383.25 2340.836 384.693 C 2340.836 384.693 2317.405 375.038 2318.493 396.835 C 2318.726 401.461 2325.14 431.919 2332.789 422.722 C 2335.586 419.359 2338.286 416.515 2338.286 416.515 C 2339.628 417.408 2341.234 417.859 2342.919 417.698 L 2343.048 417.587 C 2343.007 418.005 2343.027 418.414 2343.1 418.897 C 2341.129 421.099 2341.709 421.485 2337.768 422.296 C 2333.782 423.118 2336.124 424.58 2337.653 424.962 C 2339.506 425.425 2343.796 426.081 2346.692 422.025 L 2346.577 422.488 C 2347.351 423.106 2347.298 426.933 2347.407 429.667 C 2347.517 432.4 2347.7 434.952 2348.268 436.457 C 2348.836 437.962 2349.484 441.836 2354.662 440.726 C 2358.99 439.799 2362.298 438.464 2362.601 426.048" fill="#231f20" stroke="#231f20" stroke-width="5.046" style=""/>
      <path d="M 2374.089 418.358 C 2366.786 419.864 2366.284 417.391 2366.284 417.391 C 2373.994 405.95 2377.217 391.426 2374.436 387.871 C 2366.847 378.175 2353.712 382.761 2353.492 382.879 L 2353.421 382.892 C 2351.977 382.593 2350.364 382.414 2348.548 382.384 C 2345.245 382.33 2342.738 383.25 2340.834 384.693 C 2340.834 384.693 2317.4 375.039 2318.489 396.835 C 2318.72 401.461 2325.135 431.919 2332.785 422.723 C 2335.582 419.36 2338.271 416.516 2338.271 416.516 C 2339.613 417.409 2341.219 417.861 2342.904 417.699 L 2343.035 417.588 C 2342.994 418.006 2343.014 418.415 2343.089 418.898 C 2341.118 421.1 2341.697 421.486 2337.757 422.297 C 2333.77 423.119 2336.111 424.581 2337.641 424.963 C 2339.495 425.426 2343.784 426.082 2346.68 422.026 L 2346.565 422.489 C 2347.337 423.107 2347.88 426.512 2347.788 429.598 C 2347.697 432.683 2347.638 434.803 2348.245 436.458 C 2348.853 438.114 2349.461 441.837 2354.64 440.727 C 2358.968 439.8 2361.21 437.396 2361.522 433.388 C 2361.744 430.537 2362.243 430.959 2362.275 428.411 L 2362.678 427.206 C 2363.14 423.344 2362.751 422.096 2365.418 422.677 L 2366.065 422.734 C 2368.028 422.823 2370.595 422.419 2372.104 421.717 C 2375.35 420.211 2377.275 417.696 2374.075 418.356 L 2374.089 418.358 Z" fill="#417ba2" style=""/>
      <g fill="none" class="C B" style="stroke: rgb(255, 255, 255); stroke-width: 1.682px;" transform="matrix(1.075825, 0, 0, 1.075825, 2289.924316, 372.629089)">
        <g class="D" style="stroke-linecap: round;">
          <path d="M53.06 44.562c-.187 6.682.047 13.4.7 15.046s2.054 4.816 6.87 3.785c4.022-.862 5.486-2.53 6.12-6.214.468-2.7 1.37-10.236 1.485-11.778M47.3 11.063s-21.797-8.9-20.783 11.35c.216 4.3 6.178 32.613 13.3 24.064 2.6-3.126 4.95-5.578 4.95-5.578M59.064 9.437c-.755.237 12.125-4.708 19.444 4.644 2.585 3.304-.4 16.804-7.578 27.44" class="E" style="stroke-linejoin: round;"/>
          <path d="M70.93 41.52s.467 2.3 7.255.898c2.974-.614 1.184 1.724-1.832 3.125-2.476 1.15-8.026 1.443-8.117-.144-.234-4.096 2.92-2.852 2.694-3.878-.206-.924-1.617-1.832-2.55-4.094-.815-1.975-11.173-17.12 2.873-14.87.515-.106-3.663-13.36-16.808-13.575s-12.7 16.162-12.7 16.162" stroke-linejoin="bevel"/>
        </g>
        <g class="E" style="stroke-linejoin: round;">
          <path d="M49.383 42.922c-1.832 2.047-1.293 2.406-4.956 3.16-3.705.764-1.528 2.123-.108 2.478 1.723.43 5.71 1.042 8.402-2.73.82-1.148-.005-2.98-1.13-3.448-.544-.225-1.272-.508-2.208.54z"/>
          <path d="M49.262 42.886c-.184-1.203.396-2.635 1.017-4.31.934-2.513 3.09-5.028 1.365-13-1.285-5.942-9.904-1.237-9.91-.43s.4 4.084-.144 7.9c-.697 4.98 3.17 9.194 7.622 8.763" class="D" style="stroke-linecap: round; stroke-linejoin: round;"/>
        </g>
      </g>
      <g fill="#fff" class="C" style="stroke: rgb(255, 255, 255);" transform="matrix(1.075825, 0, 0, 1.075825, 2289.924316, 372.629089)">
        <path d="M47.212 25.023c-.04.275.504 1.01 1.21 1.108s1.31-.475 1.35-.75-.504-.578-1.21-.677-1.312.045-1.35.32z" stroke-width=".561"/>
        <path d="M68.725 24.462c.038.275-.504 1-1.21 1.108s-1.31-.475-1.35-.75.505-.578 1.212-.677 1.31.045 1.35.32z" stroke-width=".28"/>
      </g>
      <path d="M 2366.58 396.899 C 2366.704 399.221 2366.079 400.804 2366.001 403.276 C 2365.882 406.869 2367.714 410.981 2364.957 415.099" fill="none" class="B C D E" style="stroke: rgb(255, 255, 255); stroke-linecap: round; stroke-linejoin: round; stroke-width: 1.682px;"/>
    </g>
  </g>
  <g transform="matrix(0.6382220387458801, 0, 0, 0.6382220387458801, 740.5375366210938, 206.70193481445312)" style="">
    <title>Web UI</title>
    <text style="fill: rgb(45, 60, 45); font-family: Roboto; font-size: 39.3px; font-weight: 300; text-anchor: middle; white-space: pre;" x="86.45" y="-7.528">Web UI</text>
    <g transform="matrix(0.418337, 0, 0, 0.418337, -29.942993, -2.700165)" style="">
      <title>Willow Logo</title>
      <svg id="Layer_1" dataname="Layer 1" xmlns="http://www.w3.org/2000/svg" viewBox="427.14453125 344.65234375 798.27734375 876.7677001953125" height="230" width="209.4166717529297" y="127.7099380493164" x="182.99502087402342" preserveAspectRatio="xMinYMin" style="overflow: visible;" transform="matrix(0.262327164412, 0, 0, 0.262327164412, 70.943405151367, 37.298259735107)">
        <path d="M1015.17,915.62A252.7,252.7,0,0,0,850.71,493.37,254.52,254.52,0,0,0,695.94,530l20.5,33.18c80.81-49.92,186.26-40,256.44,24.21a213.76,213.76,0,0,1-94,365.46V992.8A250.79,250.79,0,0,0,1015.17,915.62Z" style="fill: #409935; fill-opacity: 1;"/>
        <path d="M588.18,667.41A252.95,252.95,0,0,0,773.8,991.86V951.73A214,214,0,0,1,625.3,679.37Z" style="fill: #409935; fill-opacity: 1;"/>
        <path d="M794,422.83a322.5,322.5,0,0,0-62.79,629.11A324.71,324.71,0,0,0,773.8,1062v-39.63a286.67,286.67,0,0,1-31-7.71,283.49,283.49,0,1,1,266.09-487.95L1034,496.88A323.5,323.5,0,0,0,794,422.83Z" style="fill: #409935; fill-opacity: 1;"/>
        <path d="M1224.21,713.25A399.11,399.11,0,1,0,773.8,1139.41V1100a359.88,359.88,0,1,1,394-241.93l37,12.4A396.65,396.65,0,0,0,1224.21,713.25Z" style="fill: #409935; fill-opacity: 1;"/>
        <path d="M878.92,1100v39.39a395.56,395.56,0,0,0,130.45-40.87l-17.9-34.65A356.33,356.33,0,0,1,878.92,1100Z" style="fill: #409935; fill-opacity: 1;"/>
        <path d="M1108.51,715.39a283.81,283.81,0,0,1-229.59,307V1062a322.81,322.81,0,0,0,268.39-350.55Z" style="fill: #409935; fill-opacity: 1;"/>
        <polygon points="972.78 768.21 945.25 740.58 845.86 839.62 845.86 588.52 806.86 588.52 806.86 703.54 699.98 619.15 675.81 649.76 806.86 753.24 806.86 1221.42 845.86 1221.42 845.86 894.68 972.78 768.21" style="fill: #7c7955; fill-opacity: 1;"/>
      </svg>
    </g>
    <path d="M 175.299 6.668 L 9.226 6.668 C 4.13 6.668 0 10.798 0 15.894 L 0 157.358 C 0 162.454 4.13 166.585 9.226 166.585 L 175.299 166.585 C 180.395 166.585 184.525 162.454 184.525 157.358 L 184.525 15.894 C 184.525 10.798 180.395 6.668 175.299 6.668 L 175.299 6.668 Z M 9.226 12.816 L 175.299 12.816 C 176.113 12.816 176.899 13.141 177.475 13.717 C 178.052 14.294 178.376 15.08 178.376 15.894 L 178.376 37.425 L 6.148 37.417 L 6.148 15.894 C 6.148 14.193 7.525 12.816 9.226 12.816 L 9.226 12.816 Z M 175.299 160.436 L 9.226 160.436 C 7.525 160.436 6.148 159.059 6.148 157.358 L 6.148 43.573 L 178.376 43.573 L 178.376 157.358 C 178.376 158.173 178.052 158.958 177.475 159.535 C 176.899 160.112 176.113 160.436 175.299 160.436 L 175.299 160.436 Z" style="fill: rgb(45, 60, 45);"/>
    <path d="M 15.375 28.191 L 49.209 28.191 C 50.903 28.191 52.28 26.814 52.28 25.12 C 52.28 23.419 50.903 22.042 49.209 22.042 L 15.375 22.042 C 13.681 22.042 12.304 23.419 12.304 25.12 C 12.304 26.814 13.681 28.191 15.375 28.191 Z" style="fill: rgb(45, 60, 45);"/>
    <path d="M 61.506 28.191 L 64.584 28.191 C 66.285 28.191 67.662 26.814 67.662 25.12 C 67.662 23.419 66.285 22.042 64.584 22.042 L 61.506 22.042 C 59.812 22.042 58.435 23.419 58.435 25.12 C 58.435 26.814 59.812 28.191 61.506 28.191 Z" style="fill: rgb(45, 60, 45);"/>
    <path d="M 76.888 28.191 L 79.966 28.191 L 79.958 28.191 C 81.66 28.191 83.036 26.814 83.036 25.12 C 83.036 23.419 81.66 22.042 79.958 22.042 L 76.888 22.042 C 75.187 22.042 73.81 23.419 73.81 25.12 C 73.81 26.814 75.187 28.191 76.888 28.191 L 76.888 28.191 Z" style="fill: rgb(45, 60, 45);"/>
    <path style="fill: none; stroke-dasharray: 8; stroke: rgb(45, 60, 45);" d="M 158.209 166.585 L 208.738 246.605"/>
  </g>
</svg>