<?xml version="1.0" encoding="utf-8"?>
<svg viewBox="-271.3381 -46.2783 1563.7276 592.7203" xmlns="http://www.w3.org/2000/svg" xmlns:bx="https://boxy-svg.com">
  <defs>
    <style bx:fonts="Roboto">@import url(https://fonts.googleapis.com/css2?family=Roboto%3Aital%2Cwght%400%2C100%3B0%2C300%3B0%2C400%3B0%2C500%3B0%2C700%3B0%2C900%3B1%2C100%3B1%2C300%3B1%2C400%3B1%2C500%3B1%2C700%3B1%2C900&amp;display=swap);</style>
  </defs>
  <g transform="matrix(1, 0, 0, 1, 350.2527770996094, 386.12026977539057)">
    <title>Willow Box</title>
    <rect x="-373.943" y="-262.632" width="1118.98" height="422.79" style="fill: none; stroke: rgb(64, 153, 53); stroke-width: 4px; stroke-dashoffset: 44px; stroke-dasharray: 30;"/>
  </g>
  <g transform="matrix(1, 0, 0, 1, 350.2527770996094, 386.12026977539057)">
    <title>Database WAL</title>
    <g id="database" transform="matrix(1.31225, 0, 0, 1.31225, -610.784058, -3.103293)" style="">
      <title>Database</title>
      <text style="fill: rgb(45, 60, 45); font-family: Roboto; font-size: 27.4px; font-weight: 300; text-anchor: middle; white-space: pre;" x="48.752" y="-15.427" transform="matrix(1, 0, 0, 1, 0, -18.2892)">Source<tspan x="48.75199890136719" dy="1em">​</tspan>Database</text>
      <path class="cls-1" d="M46.4.2C33.9.2,22.6,2.4,14.3,5.9c-4.2,1.8-7.6,3.9-10,6.3C1.8,14.7.2,17.6.2,20.8v59.9c0,1.1.2,2.2.6,3.3,0,0,0,.1,0,.2,0,0,0,0,0,0,1.8,5.1,7.3,9.1,14.7,12,.6.2,1.3.5,1.9.7,0,0,0,0,0,0,1.1.4,2.2.7,3.4,1.1,0,0,.2,0,.2,0,.5.1,1.1.3,1.6.4,0,0,.1,0,.2,0,.6.1,1.1.3,1.7.4,0,0,0,0,.1,0,1.3.3,2.6.6,3.9.8,0,0,0,0,0,0,.5,0,1.1.2,1.6.3.2,0,.4,0,.6,0,.5,0,1,.1,1.4.2.2,0,.4,0,.6,0,.5,0,1,.1,1.6.2.2,0,.4,0,.5,0,.4,0,.8,0,1.2.1.4,0,.8,0,1.1.1.2,0,.5,0,.7,0,.5,0,.9,0,1.4,0,.5,0,1,0,1.6,0,.2,0,.4,0,.6,0,1.5,0,3,0,4.6,0,2.3,0,4.5,0,6.7-.2,1.1,0,2.1-.2,3.2-.3.4,0,.9,0,1.3-.1.1,0,.3,0,.4,0,.6,0,1.1-.1,1.7-.2.2,0,.3,0,.5,0,.5,0,1.1-.1,1.6-.2.2,0,.3,0,.5,0,.6,0,1.2-.2,1.8-.3,0,0,0,0,0,0,4.9-.9,9.4-2.1,13.2-3.6,8.2-3.2,14-7.7,15.1-13.6h0c.1-.6.2-1.2.2-1.8V20.8c0-.6,0-1.2-.1-1.7,0,0,0-.2,0-.3-.5-2.4-1.8-4.6-3.8-6.6-2.5-2.5-5.9-4.6-10-6.3C70.1,2.4,58.9.3,46.4.2ZM46.4,3.7c12.1,0,23,2.1,30.7,5.4,3.9,1.6,6.9,3.6,8.9,5.6,1.5,1.5,2.4,3.1,2.8,4.6-.9,3.7-5.5,7.7-12.9,10.7-7.6,3-18.1,4.9-29.6,4.9s-21.9-1.9-29.6-4.9c-7.4-2.9-12-6.9-12.9-10.7h0c.4-1.5,1.3-3.1,2.8-4.6,2-2,5.1-4,8.9-5.6,7.7-3.3,18.6-5.4,30.7-5.4ZM3.7,25.8c2.7,2.9,6.8,5.4,11.8,7.3,8.2,3.2,19,5.1,30.8,5.1s22.7-1.9,30.8-5.1c5-2,9.1-4.4,11.8-7.3v13.8c0,0,0,.2-.1.3-.7,3.8-5.3,8-13,11-7.6,3-18.1,4.9-29.6,4.9s-21.9-1.9-29.6-4.9c-7.6-3-12.2-7.1-13-11,0-.1,0-.2-.1-.3v-13.8ZM13.6,38.8c-1.1,0-2.1.9-2.1,2.1,0,1.1.9,2.1,2.1,2.1,1.1,0,2.1-.9,2.1-2.1,0,0,0,0,0,0,0-1.1-.9-2.1-2.1-2.1,0,0,0,0,0,0ZM3.7,46.8c2.7,2.9,6.8,5.4,11.8,7.3,8.2,3.2,19,5.1,30.8,5.1s22.7-1.9,30.8-5.1c5-2,9.1-4.4,11.8-7.3v13.5c-.1.2-.2.4-.2.6-.7,3.8-5.3,8-12.9,11-7.6,3-18.1,4.9-29.6,4.9s-21.4-1.8-29-4.6c-7.6-2.9-12.4-6.9-13.4-10.6,0-.1,0-.2-.1-.3v-14.4ZM13.6,59.5c-1.1,0-2.1.9-2.1,2.1,0,1.1.9,2.1,2.1,2.1,1.1,0,2.1-.9,2.1-2.1,0,0,0,0,0,0,0-1.1-.9-2.1-2.1-2.1h0ZM89,67.7v13c0,.6,0,1.2-.2,1.8-.7,2.6-3.2,5.3-7.1,7.6,0,0-.1,0-.2,0-.2.1-.4.2-.6.4-1.2.7-2.5,1.3-3.8,1.9-2.9,1.2-6.2,2.3-9.9,3.1,0,0-.1,0-.2,0-.6.1-1.1.2-1.7.4,0,0,0,0,0,0-.6.1-1.2.2-1.8.4,0,0,0,0,0,0-.6.1-1.3.2-1.9.3,0,0,0,0-.1,0-.5,0-1.1.2-1.6.2-.2,0-.3,0-.5,0-.6,0-1.2.1-1.7.2,0,0-.1,0-.2,0-.6,0-1.2.1-1.8.2-.1,0-.2,0-.3,0-.5,0-1,0-1.6.1-.2,0-.4,0-.6,0-.5,0-1.1,0-1.6,0-.2,0-.3,0-.5,0-1.5,0-3,0-4.5,0s-3,0-4.4,0c0,0,0,0,0,0-.7,0-1.4,0-2.1-.1-.2,0-.4,0-.6,0-2.7-.2-5.2-.5-7.7-.8-.2,0-.3,0-.5,0-.5,0-1-.2-1.5-.2-.1,0-.2,0-.4,0-.5,0-1-.2-1.6-.3-.1,0-.3,0-.4,0-.5,0-.9-.2-1.4-.3-.2,0-.4,0-.5-.1-3.6-.8-6.9-1.9-9.7-3.1-.4-.2-.8-.4-1.3-.6-.1,0-.2,0-.3-.1-.3-.1-.6-.3-.9-.4-5.5-2.8-8.7-6.2-9.3-9.4h0c0-.4-.1-.8-.1-1.2v-12.8c2.8,3,7.1,5.5,12.3,7.5,8.1,3.1,18.6,4.9,30.2,4.9s22.7-1.9,30.8-5.1c5-2,9.2-4.5,11.9-7.4ZM13.6,81.3c-1.1,0-2.1.9-2.1,2.1,0,1.1.9,2.1,2.1,2.1,1.1,0,2.1-.9,2.1-2.1,0,0,0,0,0,0,0-1.1-.9-2.1-2.1-2.1h0Z" style="fill: rgb(45, 60, 45); fill-rule: evenodd; stroke: rgb(45, 60, 45); stroke-miterlimit: 10; stroke-width: 0.5px;"/>
    </g>
    <g transform="matrix(1, 0, 0, 1, -40.143269, -181.26149)">
      <title>WAL</title>
      <text style="fill: rgb(51, 51, 51); font-family: Roboto; font-size: 16px; font-weight: 300; text-anchor: middle; white-space: pre;" transform="matrix(1, 0, 0, 1, -179.027649, 37.874241)" y="283.7090148925781" x="-241.36399841308594">Write-ahead<tspan x="-241.36399841308594" dy="1em">​</tspan>Log</text>
      <path style="fill: rgb(255, 255, 255);" d="M -458.897 231.463 L -459.305 286.055 L -443.284 303.301 L -409.406 302.892 L -407.876 231.463 L -458.897 231.463 Z"/>
      <path d="M -412.496 226.886 L -454.353 226.886 C -458.847 226.886 -462.49 230.529 -462.49 235.023 L -462.49 286.267 C -462.49 286.895 -462.247 287.492 -461.811 287.945 L -444.422 305.658 C -443.972 306.12 -443.356 306.379 -442.712 306.379 L -412.496 306.379 C -407.999 306.379 -404.359 302.738 -404.359 298.242 L -404.359 235.023 C -404.359 232.864 -405.215 230.793 -406.74 229.267 C -408.266 227.74 -410.335 226.886 -412.496 226.886 Z M -444.777 298.463 L -454.383 288.702 L -448.116 288.702 C -447.231 288.702 -446.383 289.055 -445.753 289.682 C -445.125 290.307 -444.777 291.157 -444.777 292.041 L -444.777 298.463 Z M -409.156 298.242 C -409.156 300.089 -410.647 301.58 -412.496 301.58 L -439.977 301.58 L -439.977 291.985 C -440.009 287.516 -443.644 283.904 -448.116 283.904 L -457.715 283.904 L -457.712 235.023 C -457.712 233.177 -456.216 231.682 -454.371 231.682 L -412.496 231.682 C -411.609 231.682 -410.76 232.036 -410.134 232.662 C -409.506 233.287 -409.156 234.136 -409.156 235.023 L -409.156 298.242 Z M -451.003 269.339 L -444.631 269.339 L -444.631 274.135 L -451.003 274.135 L -451.003 269.339 Z M -440.449 269.339 L -415.844 269.339 L -415.844 274.135 L -440.449 274.135 L -440.449 269.339 Z M -451.003 259.741 L -444.631 259.741 L -444.631 264.538 L -451.003 264.544 L -451.003 259.741 Z M -440.449 259.741 L -415.844 259.741 L -415.844 264.538 L -440.449 264.544 L -440.449 259.741 Z M -451.003 250.145 L -444.631 250.145 L -444.631 254.941 L -451.003 254.943 L -451.003 250.145 Z M -440.449 250.145 L -415.844 250.146 L -415.844 254.943 L -440.449 254.943 L -440.449 250.145 Z M -451.003 240.545 L -444.631 240.545 L -444.631 245.343 L -451.003 245.346 L -451.003 240.545 Z M -440.449 240.545 L -415.844 240.551 L -415.844 245.346 L -440.449 245.346 L -440.449 240.545 Z" style="fill: rgb(45, 60, 45);"/>
    </g>
  </g>
  <g transform="matrix(1, 0, 0, 1, 373.4078063964844, 176.3652954101562)">
    <title>Kafka Connect</title>
    <rect style="fill: none; stroke: rgb(45, 60, 45);" x="-353.276" y="186.912" width="318.117" height="135.673" rx="5" ry="5"/>
    <g transform="matrix(0.813278, 0, 0, 0.813278, -126.743248, 200.799667)" style="">
      <linearGradient id="SVGID_1_" gradientUnits="userSpaceOnUse" x1="9.6501" y1="55.4537" x2="55.733" y2="9.3708" gradientTransform="matrix(1 0 0 -1 0 65.094)">
        <stop offset="0" style="stop-color:#91D443"/>
        <stop offset="1" style="stop-color:#48BFE0"/>
      </linearGradient>
      <path class="st0" d="M45.8,55.9c0,4.5,3.6,8.1,8.1,8.1h10V54c0-4.5-3.6-8.1-8.1-8.1H54c-7.1,0-12.9-5.8-12.9-12.9V31 c0-4.5-3.6-8.1-8.1-8.1H31c-7.1,0-12.9-5.8-12.9-12.9l0,0V8.1C18.2,3.6,14.5,0,10,0H0v10c0,4.5,3.6,8.1,8.1,8.1H10 c7.1,0,12.9,5.8,12.9,12.9v1.9c0,4.5,3.6,8.1,8.1,8.1H33c7.1,0,12.9,5.8,12.9,12.9l0,0V55.9z" style="fill: url('#SVGID_1_');"/>
      <linearGradient id="SVGID_2_" gradientUnits="userSpaceOnUse" x1="21.1064" y1="66.91" x2="67.1893" y2="20.827" gradientTransform="matrix(1 0 0 -1 0 65.094)">
        <stop offset="0" style="stop-color:#91D443"/>
        <stop offset="1" style="stop-color:#48BFE0"/>
      </linearGradient>
      <path class="st1" d="M64,31c0-4.5-3.6-8.1-8.1-8.1H54c-7.1,0-12.9-5.8-12.9-12.9V8.1C41,3.6,37.4,0,32.9,0h-10v10.1 c0.1,4.4,3.7,8,8.1,8H33c7.1,0,12.9,5.8,12.9,12.9l0,0v1.9c0,4.5,3.6,8.1,8.1,8.1H64V31z" style="fill: url('#SVGID_2_');"/>
      <linearGradient id="SVGID_3_" gradientUnits="userSpaceOnUse" x1="32.529" y1="78.3326" x2="78.6119" y2="32.2497" gradientTransform="matrix(1 0 0 -1 0 65.094)">
        <stop offset="0" style="stop-color:#91D443"/>
        <stop offset="1" style="stop-color:#48BFE0"/>
      </linearGradient>
      <path class="st2" d="M64,8.1c0-4.3-3.5-7.9-7.8-8.1H45.7v10.1c0.1,4.4,3.7,8,8.1,8H64V8.1z" style="fill: url('#SVGID_3_');"/>
      <linearGradient id="SVGID_4_" gradientUnits="userSpaceOnUse" x1="-1.8193" y1="43.9892" x2="44.2636" y2="-2.0937" gradientTransform="matrix(1 0 0 -1 0 65.094)">
        <stop offset="0" style="stop-color:#91D443"/>
        <stop offset="1" style="stop-color:#48BFE0"/>
      </linearGradient>
      <path class="st3" d="M0,33c0,4.5,3.6,8.1,8.1,8.1H10c7.1,0,12.9,5.8,12.9,12.9v1.9c0,4.5,3.6,8.1,8.1,8.1h10V53.9 c-0.1-4.4-3.7-8-8.1-8H31c-7.1,0-12.9-5.8-12.9-12.9l0,0v-1.9c0-4.5-3.6-8.1-8.1-8.1H0V33z" style="fill: url('#SVGID_4_');"/>
      <linearGradient id="SVGID_5_" gradientUnits="userSpaceOnUse" x1="-13.2407" y1="32.5678" x2="32.8422" y2="-13.5152" gradientTransform="matrix(1 0 0 -1 0 65.094)">
        <stop offset="0" style="stop-color:#91D443"/>
        <stop offset="1" style="stop-color:#48BFE0"/>
      </linearGradient>
      <path class="st4" d="M0,55.9c0,4.3,3.5,7.9,7.8,8.1h10.5V53.9c-0.1-4.4-3.7-8-8.1-8H0V55.9z" style="fill: url('#SVGID_5_');"/>
    </g>
    <text style="fill: rgb(45, 60, 45); font-family: Roboto; font-size: 36px; font-weight: 300; text-anchor: middle; white-space: pre;" transform="matrix(1, 0, 0, 1, -69.154808, 90.486954)"><tspan x="-181.21" y="155.758">Kafka</tspan><tspan x="-181.21" dy="1em">​</tspan><tspan>Connect</tspan></text>
    <text style="fill: rgb(51, 51, 51); font-family: Roboto; font-weight: 300; text-anchor: middle; white-space: pre;" transform="matrix(1, 0, 0, 1, 138.994171, -7.935044)"><tspan x="-241.364" y="283.709">Debezium</tspan><tspan x="-241.364" dy="1em">​</tspan><tspan>PostgreSQL</tspan><tspan x="-241.364" dy="1em">​</tspan><tspan>Connector</tspan></text>
  </g>
  <g style="" transform="matrix(0.8852429389953613, 0, 0, 0.9078000783920288, 299.9419860839844, 456.7233581542968)">
    <title>Kafka</title>
    <text style="fill: rgb(45, 60, 45); font-family: Roboto; font-size: 36px; font-weight: 300; text-anchor: middle; white-space: pre;" transform="matrix(1.129633, 0, 0, 1.129633, 438.216431, -197.509583)"><tspan x="-181.21" y="155.758">Kafka</tspan><tspan x="-181.2100067138672" dy="1em">​</tspan></text>
    <rect style="fill: none; stroke: rgb(45, 60, 45);" x="157.543" y="-102.041" width="227.235" height="148.557" rx="5" ry="5"/>
    <g fill="#1A1919" transform="matrix(0.549876, 0, 0, 0.549876, 358.882019, -89.094444)" style="">
      <path d="M -63.507 33.54 C -65.376 31.664 -67.969 30.508 -70.859 30.508 C -73.741 30.508 -76.314 31.664 -78.16 33.54 L -78.207 33.54 C -80.07 35.403 -81.225 38.003 -81.225 40.875 C -81.225 43.763 -80.07 46.347 -78.207 48.192 L -78.16 48.243 C -76.314 50.102 -73.741 51.242 -70.859 51.242 C -67.969 51.242 -65.376 50.102 -63.507 48.243 L -63.485 48.192 C -61.615 46.347 -60.474 43.763 -60.474 40.875 C -60.474 38.003 -61.615 35.403 -63.485 33.54 L -63.507 33.54 Z M -70.859 175.454 C -67.969 175.454 -65.376 174.277 -63.507 172.436 L -63.485 172.381 C -61.615 170.543 -60.474 167.944 -60.474 165.086 C -60.474 162.198 -61.615 159.61 -63.485 157.738 L -63.507 157.738 C -65.376 155.844 -67.969 154.699 -70.859 154.699 C -73.741 154.699 -76.314 155.844 -78.16 157.738 L -78.207 157.738 C -80.07 159.61 -81.225 162.198 -81.225 165.086 C -81.225 167.944 -80.07 170.543 -78.207 172.381 L -78.16 172.436 C -76.314 174.277 -73.741 175.454 -70.859 175.454 Z M -14.374 144.043 C -11.807 143.368 -9.483 141.721 -8.062 139.229 L -7.871 138.864 C -6.609 136.503 -6.378 133.775 -7.053 131.352 C -7.734 128.767 -9.399 126.474 -11.886 125.046 L -12.033 124.948 C -14.457 123.616 -17.215 123.326 -19.751 124.017 C -22.329 124.661 -24.646 126.378 -26.058 128.849 C -27.488 131.305 -27.785 134.129 -27.101 136.726 C -26.395 139.283 -24.743 141.593 -22.27 143.037 L -22.256 143.037 C -19.777 144.461 -16.976 144.716 -14.374 144.043 Z M -60.225 92.358 C -62.947 89.644 -66.702 87.942 -70.859 87.942 C -75.01 87.942 -78.754 89.644 -81.471 92.358 C -84.178 95.068 -85.846 98.807 -85.846 102.964 C -85.846 107.121 -84.178 110.876 -81.471 113.618 C -78.754 116.315 -75.01 118.001 -70.859 118.001 C -66.702 118.001 -62.947 116.315 -60.225 113.618 C -57.51 110.876 -55.842 107.121 -55.842 102.964 C -55.842 98.807 -57.51 95.068 -60.225 92.358 Z M -66.205 74.688 C -60.17 75.683 -54.753 78.573 -50.611 82.743 L -50.58 82.743 C -49.921 83.4 -49.281 84.124 -48.684 84.846 L -38.334 78.859 C -39.725 74.654 -39.79 70.258 -38.671 66.133 C -37.196 60.612 -33.617 55.67 -28.25 52.573 L -28.075 52.463 C -22.767 49.46 -16.735 48.834 -11.29 50.309 C -5.774 51.788 -0.8 55.384 2.297 60.742 L 2.297 60.758 C 5.38 66.086 6.004 72.201 4.535 77.705 C 3.067 83.225 -0.525 88.201 -5.886 91.28 L -7.3 92.115 L -7.444 92.115 C -12.402 94.475 -17.854 94.845 -22.861 93.526 C -26.973 92.437 -30.743 90.141 -33.696 86.884 L -44.032 92.855 C -42.844 95.997 -42.187 99.385 -42.187 102.964 C -42.187 106.526 -42.844 109.962 -44.032 113.121 L -33.696 119.075 C -30.743 115.767 -26.973 113.523 -22.861 112.431 C -17.344 110.923 -11.229 111.564 -5.886 114.679 L -5.543 114.838 L -5.543 114.855 C -0.382 117.985 3.083 122.815 4.535 128.27 C 6.004 133.742 5.38 139.86 2.297 145.199 L 2.111 145.571 L 2.089 145.54 C -1.006 150.687 -5.886 154.174 -11.274 155.65 C -16.798 157.106 -22.914 156.484 -28.25 153.415 L -28.25 153.373 C -33.617 150.27 -37.196 145.317 -38.671 139.807 C -39.79 135.701 -39.725 131.305 -38.334 127.102 L -48.684 121.129 C -49.281 121.851 -49.921 122.542 -50.58 123.199 L -50.611 123.231 C -54.753 127.388 -60.17 130.276 -66.205 131.238 L -66.205 143.198 C -61.905 144.096 -58.055 146.246 -55.039 149.263 L -55.023 149.294 C -50.981 153.318 -48.477 158.925 -48.477 165.086 C -48.477 171.229 -50.981 176.803 -55.023 180.847 L -55.039 180.91 C -59.111 184.952 -64.696 187.456 -70.859 187.456 C -76.989 187.456 -82.588 184.952 -86.65 180.91 L -86.667 180.91 L -86.667 180.847 C -90.713 176.803 -93.222 171.229 -93.222 165.086 C -93.222 158.925 -90.713 153.318 -86.667 149.294 L -86.667 149.263 L -86.65 149.263 C -83.637 146.246 -79.78 144.096 -75.496 143.198 L -75.496 131.238 C -81.529 130.276 -86.937 127.388 -91.072 123.231 L -91.116 123.199 C -96.279 118.017 -99.512 110.876 -99.512 102.964 C -99.512 95.068 -96.279 87.927 -91.116 82.743 L -91.072 82.743 C -86.937 78.573 -81.529 75.683 -75.496 74.688 L -75.496 62.779 C -79.78 61.85 -83.637 59.7 -86.65 56.699 L -86.667 56.699 L -86.667 56.667 C -90.713 52.607 -93.222 47.038 -93.222 40.875 C -93.222 34.745 -90.713 29.127 -86.667 25.083 L -86.65 25.067 C -82.588 21.008 -76.989 18.506 -70.859 18.506 C -64.696 18.506 -59.111 21.008 -55.039 25.067 L -55.039 25.083 L -55.023 25.083 C -50.981 29.127 -48.477 34.745 -48.477 40.875 C -48.477 47.038 -50.981 52.607 -55.023 56.667 L -55.039 56.699 C -58.055 59.7 -61.905 61.85 -66.205 62.779 L -66.205 74.688 Z M -8.062 66.745 L -8.151 66.615 C -9.577 64.209 -11.855 62.605 -14.374 61.913 C -16.976 61.222 -19.777 61.512 -22.27 62.942 L -22.256 62.942 C -24.743 64.354 -26.406 66.662 -27.101 69.248 C -27.785 71.816 -27.488 74.654 -26.058 77.126 L -26.009 77.19 C -24.578 79.631 -22.297 81.267 -19.751 81.925 C -17.193 82.649 -14.343 82.343 -11.886 80.913 L -11.754 80.85 C -9.336 79.406 -7.724 77.126 -7.053 74.623 C -6.368 72.039 -6.641 69.216 -8.062 66.745 Z" style=""/>
    </g>
  </g>
  <g transform="matrix(1, 0, 0, 1, 390.6067810058594, 455.1053161621093)">
    <title>Zookeeper</title>
    <ellipse style="fill: none; stroke: rgb(45, 60, 45);" cx="-2.346" cy="-152.522" rx="66.955" ry="24.36"/>
    <text style="fill: rgb(45, 60, 45); font-family: Roboto; font-size: 19px; font-weight: 300; text-anchor: middle; white-space: pre;" transform="matrix(1, 0, 0, 1, 180.902023, -301.416107)"><tspan x="-181.21" y="155.758">Zookeeper</tspan><tspan x="-181.21" dy="1em">​</tspan></text>
    <path style="fill: none; stroke-dasharray: 8; stroke: rgb(45, 60, 45);" d="M -38.486 -131.982 L -55.296 -91.015"/>
    <path style="fill: none; stroke-dasharray: 8; stroke: rgb(45, 60, 45);" d="M 32.556 -131.982 L 50.197 -91.015"/>
  </g>
  <g style="transform-origin: 246.408px 268.026px;" transform="matrix(1.544947862625, 0.428453058004, -0.428453058004, 1.544947862625, 247.41937401235, 257.771893384328)">
    <title>Arrow</title>
    <line class="cls-1" x1="148.867" y1="236.505" x2="180.66" y2="227.662" style="fill: none; stroke-miterlimit: 10; stroke: rgb(45, 60, 45); transform-box: fill-box; transform-origin: 50% 50%;"/>
    <polygon class="cls-2" points="173.021 232.653 182.721 226.953 171.521 227.053 173.021 232.653" style="stroke-width: 0px; fill: rgb(45, 60, 45); transform-box: fill-box; transform-origin: 50% 50%;"/>
  </g>
  <g style="transform-origin: 246.408px 268.026px;" transform="matrix(2.354012012482, 0.65282702446, -0.65282702446, 2.354012012482, -115.566083756226, 307.895352699664)">
    <title>Arrow</title>
    <line class="cls-1" x1="148.867" y1="236.505" x2="180.66" y2="227.662" style="fill: none; stroke-miterlimit: 10; stroke: rgb(45, 60, 45); transform-box: fill-box; transform-origin: 50% 50%;"/>
    <polygon class="cls-2" points="173.021 232.653 182.721 226.953 171.521 227.053 173.021 232.653" style="stroke-width: 0px; fill: rgb(45, 60, 45); transform-box: fill-box; transform-origin: 50% 50%;"/>
  </g>
  <g style="" transform="matrix(0.8852429389953613, 0, 0, 0.9078000783920288, 612.6211547851562, 456.7233581542968)">
    <title>Node App</title>
    <text style="fill: rgb(45, 60, 45); font-family: Roboto; font-size: 36px; font-weight: 300; text-anchor: middle; white-space: pre;" transform="matrix(1.129633, 0, 0, 1.129633, 479.375824, -213.973343)"><tspan x="-181.21" y="155.758">Node <tspan x="-181.2100067138672" dy="1em">​</tspan>Application</tspan><tspan x="-181.2100067138672" dy="1em">​</tspan></text>
    <rect style="fill: none; stroke: rgb(45, 60, 45);" x="157.543" y="-102.041" width="321.314" height="148.557" rx="5" ry="5"/>
    <g transform="matrix(0.307364, 0, 0, 0.307364, 383.073486, -76.83139)" style="">
      <path d="M127.999999,288.463771 C124.024844,288.463771 120.314699,287.403728 116.869564,285.548656 L81.6231884,264.612838 C76.32298,261.697724 78.9730854,260.637682 80.5631458,260.107661 C87.7184259,257.72257 89.0434775,257.192547 96.4637688,252.952381 C97.2587979,252.422361 98.3188405,252.687372 99.1138718,253.217392 L126.144927,269.383024 C127.20497,269.913045 128.530021,269.913045 129.325053,269.383024 L235.064182,208.165634 C236.124225,207.635611 236.654245,206.575571 236.654245,205.250519 L236.654245,83.0807467 C236.654245,81.7556929 236.124225,80.6956526 235.064182,80.1656324 L129.325053,19.2132506 C128.26501,18.6832305 126.939959,18.6832305 126.144927,19.2132506 L20.4057954,80.1656324 C19.3457551,80.6956526 18.8157349,82.0207041 18.8157349,83.0807467 L18.8157349,205.250519 C18.8157349,206.31056 19.3457551,207.635611 20.4057954,208.165634 L49.2919247,224.861286 C64.9275364,232.811595 74.7329196,223.536234 74.7329196,214.260871 L74.7329196,93.681159 C74.7329196,92.0910985 76.0579711,90.5010358 77.9130428,90.5010358 L91.4285716,90.5010358 C93.0186343,90.5010358 94.6086948,91.8260873 94.6086948,93.681159 L94.6086948,214.260871 C94.6086948,235.196689 83.2132512,247.387164 63.3374737,247.387164 C57.2422362,247.387164 52.4720502,247.387164 38.9565214,240.761906 L11.1304347,224.861286 C4.24016581,220.886129 5.68434189e-14,213.46584 5.68434189e-14,205.515528 L5.68434189e-14,83.3457557 C5.68434189e-14,75.3954465 4.24016581,67.9751552 11.1304347,64.0000006 L116.869564,2.78260752 C123.494824,-0.927535841 132.505176,-0.927535841 139.130436,2.78260752 L244.869565,64.0000006 C251.759834,67.9751552 256,75.3954465 256,83.3457557 L256,205.515528 C256,213.46584 251.759834,220.886129 244.869565,224.861286 L139.130436,286.078676 C135.685299,287.668739 131.710145,288.463771 127.999999,288.463771 L127.999999,288.463771 Z M160.596274,204.455488 C114.219461,204.455488 104.679089,183.254659 104.679089,165.233955 C104.679089,163.643893 106.004141,162.053832 107.859212,162.053832 L121.639752,162.053832 C123.229813,162.053832 124.554864,163.113872 124.554864,164.703935 C126.674947,178.749484 132.770187,185.639753 160.861283,185.639753 C183.122154,185.639753 192.662526,180.604556 192.662526,168.67909 C192.662526,161.788821 190.012423,156.753624 155.296065,153.308489 C126.409938,150.393375 108.389235,144.033126 108.389235,120.977226 C108.389235,99.5113875 126.409938,86.7908901 156.621119,86.7908901 C190.542443,86.7908901 207.238095,98.4513472 209.358178,123.89234 C209.358178,124.687371 209.093167,125.482403 208.563147,126.277434 C208.033127,126.807454 207.238095,127.337474 206.443064,127.337474 L192.662526,127.337474 C191.337475,127.337474 190.012423,126.277434 189.747412,124.952382 C186.567289,110.376813 178.351966,105.606625 156.621119,105.606625 C132.240165,105.606625 129.325053,114.086957 129.325053,120.447205 C129.325053,128.132506 132.770187,130.5176 165.631471,134.757766 C198.227744,138.997931 213.598344,145.093169 213.598344,167.884058 C213.333333,191.20497 194.252589,204.455488 160.596274,204.455488 L160.596274,204.455488 Z" fill="#539E43"/>
    </g>
  </g>
  <g style="transform-origin: 246.408px 268.026px;" transform="matrix(1.544947862625, 0.428453058004, -0.428453058004, 1.544947862625, 572.766328358056, 257.771893384316)">
    <title>Arrow</title>
    <line class="cls-1" x1="140.453" y1="238.843" x2="172.246" y2="230" style="fill: none; stroke-miterlimit: 10; stroke: rgb(45, 60, 45); transform-box: fill-box; transform-origin: 50% 50%;"/>
    <polygon class="cls-2" points="164.607 234.991 174.307 229.291 163.107 229.391 164.607 234.991" style="stroke-width: 0px; fill: rgb(45, 60, 45); transform-box: fill-box; transform-origin: 50% 50%;"/>
  </g>
  <g id="g-1" transform="matrix(0.9144700169563293, 0, 0, 0.9144700169563293, 944.94482421875, 144.71463012695307)" style="">
    <title>Willow DB</title>
    <path style="fill: none; stroke-dasharray: 8; stroke: rgb(45, 60, 45);" d="M 40.845 187.284 L 19.258 239.894"/>
    <text style="fill: rgb(45, 60, 45); font-family: Roboto; font-size: 27.4px; font-weight: 300; text-anchor: middle; white-space: pre;" x="48.752" y="-15.427" transform="matrix(1, 0, 0, 1, 3.914237, 67.81649)">PostgreSQL <tspan x="48.75199890136719" dy="1em">​</tspan>Database</text>
    <path class="cls-1" d="M 50.314 86.313 C 37.814 86.313 26.514 88.513 18.214 92.013 C 14.014 93.813 10.614 95.913 8.214 98.313 C 5.714 100.813 4.114 103.713 4.114 106.913 L 4.114 166.813 C 4.114 167.913 4.314 169.013 4.714 170.113 C 4.714 170.113 4.714 170.213 4.714 170.313 C 4.714 170.313 4.714 170.313 4.714 170.313 C 6.514 175.413 12.014 179.413 19.414 182.313 C 20.014 182.513 20.714 182.813 21.314 183.013 C 21.314 183.013 21.314 183.013 21.314 183.013 C 22.414 183.413 23.514 183.713 24.714 184.113 C 24.714 184.113 24.914 184.113 24.914 184.113 C 25.414 184.213 26.014 184.413 26.514 184.513 C 26.514 184.513 26.614 184.513 26.714 184.513 C 27.314 184.613 27.814 184.813 28.414 184.913 C 28.414 184.913 28.414 184.913 28.514 184.913 C 29.814 185.213 31.114 185.513 32.414 185.713 C 32.414 185.713 32.414 185.713 32.414 185.713 C 32.914 185.713 33.514 185.913 34.014 186.013 C 34.214 186.013 34.414 186.013 34.614 186.013 C 35.114 186.013 35.614 186.113 36.014 186.213 C 36.214 186.213 36.414 186.213 36.614 186.213 C 37.114 186.213 37.614 186.313 38.214 186.413 C 38.414 186.413 38.614 186.413 38.714 186.413 C 39.114 186.413 39.514 186.413 39.914 186.513 C 40.314 186.513 40.714 186.513 41.014 186.613 C 41.214 186.613 41.514 186.613 41.714 186.613 C 42.214 186.613 42.614 186.613 43.114 186.613 C 43.614 186.613 44.114 186.613 44.714 186.613 C 44.914 186.613 45.114 186.613 45.314 186.613 C 46.814 186.613 48.314 186.613 49.914 186.613 C 52.214 186.613 54.414 186.613 56.614 186.413 C 57.714 186.413 58.714 186.213 59.814 186.113 C 60.214 186.113 60.714 186.113 61.114 186.013 C 61.214 186.013 61.414 186.013 61.514 186.013 C 62.114 186.013 62.614 185.913 63.214 185.813 C 63.414 185.813 63.514 185.813 63.714 185.813 C 64.214 185.813 64.814 185.713 65.314 185.613 C 65.514 185.613 65.614 185.613 65.814 185.613 C 66.414 185.613 67.014 185.413 67.614 185.313 C 67.614 185.313 67.614 185.313 67.614 185.313 C 72.514 184.413 77.014 183.213 80.814 181.713 C 89.014 178.513 94.814 174.013 95.914 168.113 C 96.014 167.513 96.114 166.913 96.114 166.313 L 96.114 106.913 C 96.114 106.313 96.114 105.713 96.014 105.213 C 96.014 105.213 96.014 105.013 96.014 104.913 C 95.514 102.513 94.214 100.313 92.214 98.313 C 89.714 95.813 86.314 93.713 82.214 92.013 C 74.014 88.513 62.814 86.413 50.314 86.313 Z M 50.314 89.813 C 62.414 89.813 73.314 91.913 81.014 95.213 C 84.914 96.813 87.914 98.813 89.914 100.813 C 91.414 102.313 92.314 103.913 92.714 105.413 C 91.814 109.113 87.214 113.113 79.814 116.113 C 72.214 119.113 61.714 121.013 50.214 121.013 C 38.714 121.013 28.314 119.113 20.614 116.113 C 13.214 113.213 8.614 109.213 7.714 105.413 C 8.114 103.913 9.014 102.313 10.514 100.813 C 12.514 98.813 15.614 96.813 19.414 95.213 C 27.114 91.913 38.014 89.813 50.114 89.813 L 50.314 89.813 Z M 7.614 111.913 C 10.314 114.813 14.414 117.313 19.414 119.213 C 27.614 122.413 38.414 124.313 50.214 124.313 C 62.014 124.313 72.914 122.413 81.014 119.213 C 86.014 117.213 90.114 114.813 92.814 111.913 L 92.814 125.713 C 92.814 125.713 92.814 125.913 92.714 126.013 C 92.014 129.813 87.414 134.013 79.714 137.013 C 72.114 140.013 61.614 141.913 50.114 141.913 C 38.614 141.913 28.214 140.013 20.514 137.013 C 12.914 134.013 8.314 129.913 7.514 126.013 C 7.514 125.913 7.514 125.813 7.414 125.713 L 7.414 111.913 L 7.614 111.913 Z M 17.514 124.913 C 16.414 124.913 15.414 125.813 15.414 127.013 C 15.414 128.113 16.314 129.113 17.514 129.113 C 18.614 129.113 19.614 128.213 19.614 127.013 C 19.614 127.013 19.614 127.013 19.614 127.013 C 19.614 125.913 18.714 124.913 17.514 124.913 C 17.514 124.913 17.514 124.913 17.514 124.913 Z M 7.614 132.913 C 10.314 135.813 14.414 138.313 19.414 140.213 C 27.614 143.413 38.414 145.313 50.214 145.313 C 62.014 145.313 72.914 143.413 81.014 140.213 C 86.014 138.213 90.114 135.813 92.814 132.913 L 92.814 146.413 C 92.714 146.613 92.614 146.813 92.614 147.013 C 91.914 150.813 87.314 155.013 79.714 158.013 C 72.114 161.013 61.614 162.913 50.114 162.913 C 38.614 162.913 28.714 161.113 21.114 158.313 C 13.514 155.413 8.714 151.413 7.714 147.713 C 7.714 147.613 7.714 147.513 7.614 147.413 L 7.614 133.013 L 7.614 132.913 Z M 17.514 145.613 C 16.414 145.613 15.414 146.513 15.414 147.713 C 15.414 148.813 16.314 149.813 17.514 149.813 C 18.614 149.813 19.614 148.913 19.614 147.713 C 19.614 147.713 19.614 147.713 19.614 147.713 C 19.614 146.613 18.714 145.613 17.514 145.613 Z M 92.914 153.813 L 92.914 166.813 C 92.914 167.413 92.914 168.013 92.714 168.613 C 92.014 171.213 89.514 173.913 85.614 176.213 C 85.614 176.213 85.514 176.213 85.414 176.213 C 85.214 176.313 85.014 176.413 84.814 176.613 C 83.614 177.313 82.314 177.913 81.014 178.513 C 78.114 179.713 74.814 180.813 71.114 181.613 C 71.114 181.613 71.014 181.613 70.914 181.613 C 70.314 181.713 69.814 181.813 69.214 182.013 C 69.214 182.013 69.214 182.013 69.214 182.013 C 68.614 182.113 68.014 182.213 67.414 182.413 C 67.414 182.413 67.414 182.413 67.414 182.413 C 66.814 182.513 66.114 182.613 65.514 182.713 C 65.514 182.713 65.514 182.713 65.414 182.713 C 64.914 182.713 64.314 182.913 63.814 182.913 C 63.614 182.913 63.514 182.913 63.314 182.913 C 62.714 182.913 62.114 183.013 61.614 183.113 C 61.614 183.113 61.514 183.113 61.414 183.113 C 60.814 183.113 60.214 183.213 59.614 183.313 C 59.514 183.313 59.414 183.313 59.314 183.313 C 58.814 183.313 58.314 183.313 57.714 183.413 C 57.514 183.413 57.314 183.413 57.114 183.413 C 56.614 183.413 56.014 183.413 55.514 183.413 C 55.314 183.413 55.214 183.413 55.014 183.413 C 53.514 183.413 52.014 183.413 50.514 183.413 C 49.014 183.413 47.514 183.413 46.114 183.413 C 46.114 183.413 46.114 183.413 46.114 183.413 C 45.414 183.413 44.714 183.413 44.014 183.313 C 43.814 183.313 43.614 183.313 43.414 183.313 C 40.714 183.113 38.214 182.813 35.714 182.513 C 35.514 182.513 35.414 182.513 35.214 182.513 C 34.714 182.513 34.214 182.313 33.714 182.313 C 33.614 182.313 33.514 182.313 33.314 182.313 C 32.814 182.313 32.314 182.113 31.714 182.013 C 31.614 182.013 31.414 182.013 31.314 182.013 C 30.814 182.013 30.414 181.813 29.914 181.713 C 29.714 181.713 29.514 181.713 29.414 181.613 C 25.814 180.813 22.514 179.713 19.714 178.513 C 19.314 178.313 18.914 178.113 18.414 177.913 C 18.314 177.913 18.214 177.913 18.114 177.813 C 17.814 177.713 17.514 177.513 17.214 177.413 C 11.714 174.613 8.514 171.213 7.914 168.013 C 7.914 167.613 7.814 167.213 7.814 166.813 L 7.814 154.013 C 10.614 157.013 14.914 159.513 20.114 161.513 C 28.214 164.613 38.714 166.413 50.314 166.413 C 61.914 166.413 73.014 164.513 81.114 161.313 C 86.114 159.313 90.314 156.813 93.014 153.913 L 92.914 153.813 Z M 17.514 167.413 C 16.414 167.413 15.414 168.313 15.414 169.513 C 15.414 170.613 16.314 171.613 17.514 171.613 C 18.614 171.613 19.614 170.713 19.614 169.513 C 19.614 169.513 19.614 169.513 19.614 169.513 C 19.614 168.413 18.714 167.413 17.514 167.413 Z" style="fill: rgb(45, 60, 45); fill-rule: evenodd; stroke: rgb(45, 60, 45); stroke-miterlimit: 10; stroke-width: 0.5px;"/>
    <g transform="matrix(1.09353, 0, 0, 1.09353, -2483.61792, -295.684204)" style="">
      <title>Postgres Logo</title>
      <path d="M 2362.592 426.052 C 2363.002 422.625 2362.88 422.123 2365.432 422.678 L 2366.079 422.735 C 2368.042 422.824 2370.598 422.42 2372.117 421.718 C 2375.364 420.212 2377.288 417.697 2374.088 418.358 C 2366.786 419.864 2366.284 417.391 2366.284 417.391 C 2373.994 405.951 2377.217 391.428 2374.435 387.871 C 2366.846 378.174 2353.712 382.761 2353.491 382.879 L 2353.421 382.892 C 2351.977 382.593 2350.364 382.414 2348.55 382.384 C 2345.247 382.33 2342.738 383.25 2340.836 384.693 C 2340.836 384.693 2317.405 375.038 2318.493 396.835 C 2318.726 401.461 2325.14 431.919 2332.789 422.722 C 2335.586 419.359 2338.286 416.515 2338.286 416.515 C 2339.628 417.408 2341.234 417.859 2342.919 417.698 L 2343.048 417.587 C 2343.007 418.005 2343.027 418.414 2343.1 418.897 C 2341.129 421.099 2341.709 421.485 2337.768 422.296 C 2333.782 423.118 2336.124 424.58 2337.653 424.962 C 2339.506 425.425 2343.796 426.081 2346.692 422.025 L 2346.577 422.488 C 2347.351 423.106 2347.298 426.933 2347.407 429.667 C 2347.517 432.4 2347.7 434.952 2348.268 436.457 C 2348.836 437.962 2349.484 441.836 2354.662 440.726 C 2358.99 439.799 2362.298 438.464 2362.601 426.048" fill="#231f20" stroke="#231f20" stroke-width="5.046" style=""/>
      <path d="M 2374.089 418.358 C 2366.786 419.864 2366.284 417.391 2366.284 417.391 C 2373.994 405.95 2377.217 391.426 2374.436 387.871 C 2366.847 378.175 2353.712 382.761 2353.492 382.879 L 2353.421 382.892 C 2351.977 382.593 2350.364 382.414 2348.548 382.384 C 2345.245 382.33 2342.738 383.25 2340.834 384.693 C 2340.834 384.693 2317.4 375.039 2318.489 396.835 C 2318.72 401.461 2325.135 431.919 2332.785 422.723 C 2335.582 419.36 2338.271 416.516 2338.271 416.516 C 2339.613 417.409 2341.219 417.861 2342.904 417.699 L 2343.035 417.588 C 2342.994 418.006 2343.014 418.415 2343.089 418.898 C 2341.118 421.1 2341.697 421.486 2337.757 422.297 C 2333.77 423.119 2336.111 424.581 2337.641 424.963 C 2339.495 425.426 2343.784 426.082 2346.68 422.026 L 2346.565 422.489 C 2347.337 423.107 2347.88 426.512 2347.788 429.598 C 2347.697 432.683 2347.638 434.803 2348.245 436.458 C 2348.853 438.114 2349.461 441.837 2354.64 440.727 C 2358.968 439.8 2361.21 437.396 2361.522 433.388 C 2361.744 430.537 2362.243 430.959 2362.275 428.411 L 2362.678 427.206 C 2363.14 423.344 2362.751 422.096 2365.418 422.677 L 2366.065 422.734 C 2368.028 422.823 2370.595 422.419 2372.104 421.717 C 2375.35 420.211 2377.275 417.696 2374.075 418.356 L 2374.089 418.358 Z" fill="#417ba2" style=""/>
      <g fill="none" class="C B" style="stroke: rgb(255, 255, 255); stroke-width: 1.682px;" transform="matrix(1.075825, 0, 0, 1.075825, 2289.924316, 372.629089)">
        <g class="D" style="stroke-linecap: round;">
          <path d="M53.06 44.562c-.187 6.682.047 13.4.7 15.046s2.054 4.816 6.87 3.785c4.022-.862 5.486-2.53 6.12-6.214.468-2.7 1.37-10.236 1.485-11.778M47.3 11.063s-21.797-8.9-20.783 11.35c.216 4.3 6.178 32.613 13.3 24.064 2.6-3.126 4.95-5.578 4.95-5.578M59.064 9.437c-.755.237 12.125-4.708 19.444 4.644 2.585 3.304-.4 16.804-7.578 27.44" class="E" style="stroke-linejoin: round;"/>
          <path d="M70.93 41.52s.467 2.3 7.255.898c2.974-.614 1.184 1.724-1.832 3.125-2.476 1.15-8.026 1.443-8.117-.144-.234-4.096 2.92-2.852 2.694-3.878-.206-.924-1.617-1.832-2.55-4.094-.815-1.975-11.173-17.12 2.873-14.87.515-.106-3.663-13.36-16.808-13.575s-12.7 16.162-12.7 16.162" stroke-linejoin="bevel"/>
        </g>
        <g class="E" style="stroke-linejoin: round;">
          <path d="M49.383 42.922c-1.832 2.047-1.293 2.406-4.956 3.16-3.705.764-1.528 2.123-.108 2.478 1.723.43 5.71 1.042 8.402-2.73.82-1.148-.005-2.98-1.13-3.448-.544-.225-1.272-.508-2.208.54z"/>
          <path d="M49.262 42.886c-.184-1.203.396-2.635 1.017-4.31.934-2.513 3.09-5.028 1.365-13-1.285-5.942-9.904-1.237-9.91-.43s.4 4.084-.144 7.9c-.697 4.98 3.17 9.194 7.622 8.763" class="D" style="stroke-linecap: round; stroke-linejoin: round;"/>
        </g>
      </g>
      <g fill="#fff" class="C" style="stroke: rgb(255, 255, 255);" transform="matrix(1.075825, 0, 0, 1.075825, 2289.924316, 372.629089)">
        <path d="M47.212 25.023c-.04.275.504 1.01 1.21 1.108s1.31-.475 1.35-.75-.504-.578-1.21-.677-1.312.045-1.35.32z" stroke-width=".561"/>
        <path d="M68.725 24.462c.038.275-.504 1-1.21 1.108s-1.31-.475-1.35-.75.505-.578 1.212-.677 1.31.045 1.35.32z" stroke-width=".28"/>
      </g>
      <path d="M 2366.58 396.899 C 2366.704 399.221 2366.079 400.804 2366.001 403.276 C 2365.882 406.869 2367.714 410.981 2364.957 415.099" fill="none" class="B C D E" style="stroke: rgb(255, 255, 255); stroke-linecap: round; stroke-linejoin: round; stroke-width: 1.682px;"/>
    </g>
  </g>
  <g transform="matrix(0.6382220387458801, 0, 0, 0.6382220387458801, 740.5375366210938, 206.70193481445307)" style="">
    <title>Web UI</title>
    <text style="fill: rgb(45, 60, 45); font-family: Roboto; font-size: 39.3px; font-weight: 300; text-anchor: middle; white-space: pre;" x="86.45" y="-7.528">Web UI</text>
    <g transform="matrix(0.418337, 0, 0, 0.418337, -29.942993, -2.700165)" style="">
      <title>Willow Logo</title>
      <svg id="Layer_1" dataname="Layer 1" xmlns="http://www.w3.org/2000/svg" viewBox="427.14453125 344.65234375 798.27734375 876.7677001953125" height="230" width="209.4166717529297" y="127.7099380493164" x="182.99502087402342" preserveAspectRatio="xMinYMin" style="overflow: visible;" transform="matrix(0.262327164412, 0, 0, 0.262327164412, 70.943405151367, 37.298259735107)">
        <path d="M1015.17,915.62A252.7,252.7,0,0,0,850.71,493.37,254.52,254.52,0,0,0,695.94,530l20.5,33.18c80.81-49.92,186.26-40,256.44,24.21a213.76,213.76,0,0,1-94,365.46V992.8A250.79,250.79,0,0,0,1015.17,915.62Z" style="fill: #409935; fill-opacity: 1;"/>
        <path d="M588.18,667.41A252.95,252.95,0,0,0,773.8,991.86V951.73A214,214,0,0,1,625.3,679.37Z" style="fill: #409935; fill-opacity: 1;"/>
        <path d="M794,422.83a322.5,322.5,0,0,0-62.79,629.11A324.71,324.71,0,0,0,773.8,1062v-39.63a286.67,286.67,0,0,1-31-7.71,283.49,283.49,0,1,1,266.09-487.95L1034,496.88A323.5,323.5,0,0,0,794,422.83Z" style="fill: #409935; fill-opacity: 1;"/>
        <path d="M1224.21,713.25A399.11,399.11,0,1,0,773.8,1139.41V1100a359.88,359.88,0,1,1,394-241.93l37,12.4A396.65,396.65,0,0,0,1224.21,713.25Z" style="fill: #409935; fill-opacity: 1;"/>
        <path d="M878.92,1100v39.39a395.56,395.56,0,0,0,130.45-40.87l-17.9-34.65A356.33,356.33,0,0,1,878.92,1100Z" style="fill: #409935; fill-opacity: 1;"/>
        <path d="M1108.51,715.39a283.81,283.81,0,0,1-229.59,307V1062a322.81,322.81,0,0,0,268.39-350.55Z" style="fill: #409935; fill-opacity: 1;"/>
        <polygon points="972.78 768.21 945.25 740.58 845.86 839.62 845.86 588.52 806.86 588.52 806.86 703.54 699.98 619.15 675.81 649.76 806.86 753.24 806.86 1221.42 845.86 1221.42 845.86 894.68 972.78 768.21" style="fill: #7c7955; fill-opacity: 1;"/>
      </svg>
    </g>
    <path d="M 175.299 6.668 L 9.226 6.668 C 4.13 6.668 0 10.798 0 15.894 L 0 157.358 C 0 162.454 4.13 166.585 9.226 166.585 L 175.299 166.585 C 180.395 166.585 184.525 162.454 184.525 157.358 L 184.525 15.894 C 184.525 10.798 180.395 6.668 175.299 6.668 L 175.299 6.668 Z M 9.226 12.816 L 175.299 12.816 C 176.113 12.816 176.899 13.141 177.475 13.717 C 178.052 14.294 178.376 15.08 178.376 15.894 L 178.376 37.425 L 6.148 37.417 L 6.148 15.894 C 6.148 14.193 7.525 12.816 9.226 12.816 L 9.226 12.816 Z M 175.299 160.436 L 9.226 160.436 C 7.525 160.436 6.148 159.059 6.148 157.358 L 6.148 43.573 L 178.376 43.573 L 178.376 157.358 C 178.376 158.173 178.052 158.958 177.475 159.535 C 176.899 160.112 176.113 160.436 175.299 160.436 L 175.299 160.436 Z" style="fill: rgb(45, 60, 45);"/>
    <path d="M 15.375 28.191 L 49.209 28.191 C 50.903 28.191 52.28 26.814 52.28 25.12 C 52.28 23.419 50.903 22.042 49.209 22.042 L 15.375 22.042 C 13.681 22.042 12.304 23.419 12.304 25.12 C 12.304 26.814 13.681 28.191 15.375 28.191 Z" style="fill: rgb(45, 60, 45);"/>
    <path d="M 61.506 28.191 L 64.584 28.191 C 66.285 28.191 67.662 26.814 67.662 25.12 C 67.662 23.419 66.285 22.042 64.584 22.042 L 61.506 22.042 C 59.812 22.042 58.435 23.419 58.435 25.12 C 58.435 26.814 59.812 28.191 61.506 28.191 Z" style="fill: rgb(45, 60, 45);"/>
    <path d="M 76.888 28.191 L 79.966 28.191 L 79.958 28.191 C 81.66 28.191 83.036 26.814 83.036 25.12 C 83.036 23.419 81.66 22.042 79.958 22.042 L 76.888 22.042 C 75.187 22.042 73.81 23.419 73.81 25.12 C 73.81 26.814 75.187 28.191 76.888 28.191 L 76.888 28.191 Z" style="fill: rgb(45, 60, 45);"/>
    <path style="fill: none; stroke-dasharray: 8; stroke: rgb(45, 60, 45);" d="M 158.209 166.585 L 208.738 246.605"/>
  </g>
  <g transform="matrix(1, 0, 0, 1, 245.44979858398438, 412.17227172851557)">
    <title>Sink Cache</title>
    <text style="fill: rgb(45, 60, 45); font-family: Roboto; font-size: 27.4px; font-weight: 300; text-anchor: middle; white-space: pre;" x="48.752" y="-15.427" transform="matrix(1.31225, 0, 0, 1.31225, 915.404297, -33.674923)">Sink<tspan x="48.75199890136719" dy="1em">​</tspan>Cache</text>
    <g id="cache_not_filled_in" transform="matrix(2.04998, 0, 0, 2.04998, 916.939636, -3.141056)">
      <g>
        <path class="cls-1" d="M1.1,18.3l29.7,14.5c.3.1.6.2.9.2s.6,0,.9-.2l29.7-14.5c.7-.3,1.1-1,1.1-1.8s-.4-1.4-1.1-1.8L32.6.2c-.6-.3-1.2-.3-1.7,0L1.1,14.7C.4,15.1,0,15.8,0,16.5s.4,1.4,1.1,1.8ZM31.7,4.2l25.2,12.3-25.2,12.3L6.5,16.5,31.7,4.2Z" style="fill: rgb(45, 60, 45); stroke-width: 0px;"/>
        <path class="cls-1" d="M60.6,25.9l-28.9,14.1L2.9,25.9c-1-.5-2.2,0-2.7.9-.5,1,0,2.2.9,2.7l29.7,14.5c.3.1.6.2.9.2s.6,0,.9-.2l29.7-14.5c1-.5,1.4-1.7.9-2.7-.5-1-1.7-1.4-2.7-.9Z" style="fill: rgb(45, 60, 45); stroke-width: 0px;"/>
        <path class="cls-1" d="M60.6,37l-28.9,14.1L2.9,37c-1-.5-2.2,0-2.7.9-.5,1,0,2.2.9,2.7l29.7,14.5c.3.1.6.2.9.2s.6,0,.9-.2l29.7-14.5c1-.5,1.4-1.7.9-2.7-.5-1-1.7-1.4-2.7-.9Z" style="fill: rgb(45, 60, 45); stroke-width: 0px;"/>
      </g>
    </g>
  </g>
  <g style="transform-origin: 246.408px 268.026px;" transform="matrix(2.354012012482, 0.65282702446, -0.65282702446, 2.354012012482, 1016.791978987926, 308.895352699664)">
    <title>Arrow</title>
    <line class="cls-1" x1="148.867" y1="236.505" x2="180.66" y2="227.662" style="fill: none; stroke-miterlimit: 10; stroke: rgb(45, 60, 45); transform-box: fill-box; transform-origin: 50% 50%;"/>
    <polygon class="cls-2" points="173.021 232.653 182.721 226.953 171.521 227.053 173.021 232.653" style="stroke-width: 0px; fill: rgb(45, 60, 45); transform-box: fill-box; transform-origin: 50% 50%;"/>
  </g>
  <g transform="matrix(0.6811879873275757, 0, 0, 0.6811879873275757, 187.91390991210938, -133.27301025390628)" style="">
    <title>Willow Logo</title>
    <svg id="svg-1" dataname="Layer 1" xmlns="http://www.w3.org/2000/svg" viewBox="427.14453125 344.65234375 798.27734375 876.7677001953125" height="230" width="209.4166717529297" y="127.7099380493164" x="182.99502087402342" preserveAspectRatio="xMinYMin" style="overflow: visible;" transform="matrix(0.262327164412, 0, 0, 0.262327164412, 70.943405151367, 37.298259735107)">
      <path d="M1015.17,915.62A252.7,252.7,0,0,0,850.71,493.37,254.52,254.52,0,0,0,695.94,530l20.5,33.18c80.81-49.92,186.26-40,256.44,24.21a213.76,213.76,0,0,1-94,365.46V992.8A250.79,250.79,0,0,0,1015.17,915.62Z" style="fill: #409935; fill-opacity: 1;"/>
      <path d="M588.18,667.41A252.95,252.95,0,0,0,773.8,991.86V951.73A214,214,0,0,1,625.3,679.37Z" style="fill: #409935; fill-opacity: 1;"/>
      <path d="M794,422.83a322.5,322.5,0,0,0-62.79,629.11A324.71,324.71,0,0,0,773.8,1062v-39.63a286.67,286.67,0,0,1-31-7.71,283.49,283.49,0,1,1,266.09-487.95L1034,496.88A323.5,323.5,0,0,0,794,422.83Z" style="fill: #409935; fill-opacity: 1;"/>
      <path d="M1224.21,713.25A399.11,399.11,0,1,0,773.8,1139.41V1100a359.88,359.88,0,1,1,394-241.93l37,12.4A396.65,396.65,0,0,0,1224.21,713.25Z" style="fill: #409935; fill-opacity: 1;"/>
      <path d="M878.92,1100v39.39a395.56,395.56,0,0,0,130.45-40.87l-17.9-34.65A356.33,356.33,0,0,1,878.92,1100Z" style="fill: #409935; fill-opacity: 1;"/>
      <path d="M1108.51,715.39a283.81,283.81,0,0,1-229.59,307V1062a322.81,322.81,0,0,0,268.39-350.55Z" style="fill: #409935; fill-opacity: 1;"/>
      <polygon points="972.78 768.21 945.25 740.58 845.86 839.62 845.86 588.52 806.86 588.52 806.86 703.54 699.98 619.15 675.81 649.76 806.86 753.24 806.86 1221.42 845.86 1221.42 845.86 894.68 972.78 768.21" style="fill: #7c7955; fill-opacity: 1;"/>
    </svg>
  </g>
  <g transform="matrix(1, 0, 0, 1, 298.4067077636719, -321.16571044921875)">
    <title>Willow Name</title>
    <svg xmlns="http://www.w3.org/2000/svg" y="387" viewBox="1.4300000667572021 12.630000114440918 261.7900085449219 44.55999755859375" x="156.80851660156247" height="44.55999755859375" width="261.7900085449219" style="overflow: visible;" transform="matrix(1, 0, 0, 1, 155.378524780273, 374.369995117188)">
      <g fill="#409935" fill-opacity="1" style="">
        <path d="M30.23 13.22L38.42 45.87L45.09 13.22L52.57 13.22L42.56 56.59L35.35 56.59L27.10 24.93L18.68 56.59L11.44 56.59L1.43 13.22L8.91 13.22L15.64 45.81L23.92 13.22L30.23 13.22ZM72.74 13.22L72.74 56.59L65.24 56.59L65.24 13.22L72.74 13.22ZM96.25 13.22L96.25 50.58L115.94 50.58L115.94 56.59L88.72 56.59L88.72 13.22L96.25 13.22ZM135.96 13.22L135.96 50.58L155.65 50.58L155.65 56.59L128.43 56.59L128.43 13.22L135.96 13.22ZM200.84 33.63L200.84 36.04Q200.84 42.41 198.64 47.22Q196.44 52.03 192.34 54.61Q188.25 57.19 182.91 57.19L182.91 57.19Q177.64 57.19 173.52 54.61Q169.39 52.03 167.14 47.27Q164.89 42.50 164.86 36.28L164.86 36.28L164.86 33.84Q164.86 27.49 167.11 22.64Q169.36 17.78 173.46 15.21Q177.55 12.63 182.85 12.63Q188.16 12.63 192.25 15.18Q196.35 17.72 198.58 22.50Q200.82 27.28 200.84 33.63L200.84 33.63ZM193.31 36.04L193.31 33.78Q193.31 26.57 190.58 22.73Q187.86 18.88 182.85 18.88L182.85 18.88Q177.97 18.88 175.21 22.71Q172.46 26.54 172.40 33.54L172.40 33.54L172.40 36.04Q172.40 43.19 175.18 47.09Q177.97 50.99 182.91 50.99L182.91 50.99Q187.92 50.99 190.61 47.18Q193.31 43.37 193.31 36.04L193.31 36.04ZM240.88 13.22L249.08 45.87L255.75 13.22L263.22 13.22L253.22 56.59L246.01 56.59L237.76 24.93L229.33 56.59L222.09 56.59L212.08 13.22L219.56 13.22L226.29 45.81L234.57 13.22L240.88 13.22Z" transform="translate(0, 0)"/>
      </g>
    </svg>
  </g>
</svg>