<?xml version="1.0" encoding="utf-8"?>
<svg viewBox="-271.338 -78.6304 1563.455 657.4247" xmlns="http://www.w3.org/2000/svg" xmlns:bx="https://boxy-svg.com">
  <defs>
    <style bx:fonts="Roboto">@import url(https://fonts.googleapis.com/css2?family=Roboto%3Aital%2Cwght%400%2C100%3B0%2C300%3B0%2C400%3B0%2C500%3B0%2C700%3B0%2C900%3B1%2C100%3B1%2C300%3B1%2C400%3B1%2C500%3B1%2C700%3B1%2C900&amp;display=swap);</style>
  </defs>
  <g transform="matrix(1, 0, 0, 1, 357.6257629394531, 353.76855468749994)">
    <title>Willow Header</title>
    <g transform="matrix(0.681188, 0, 0, 0.681188, -162.338562, -519.393677)" style="">
      <title>Willow Logo</title>
      <svg id="svg-1" dataname="Layer 1" xmlns="http://www.w3.org/2000/svg" viewBox="427.14453125 344.65234375 798.27734375 876.7677001953125" height="230" width="209.4166717529297" y="127.7099380493164" x="182.99502087402342" preserveAspectRatio="xMinYMin" style="overflow: visible;" transform="matrix(0.262327164412, 0, 0, 0.262327164412, 70.943405151367, 37.298259735107)">
        <path d="M1015.17,915.62A252.7,252.7,0,0,0,850.71,493.37,254.52,254.52,0,0,0,695.94,530l20.5,33.18c80.81-49.92,186.26-40,256.44,24.21a213.76,213.76,0,0,1-94,365.46V992.8A250.79,250.79,0,0,0,1015.17,915.62Z" style="fill: #409935; fill-opacity: 1;"/>
        <path d="M588.18,667.41A252.95,252.95,0,0,0,773.8,991.86V951.73A214,214,0,0,1,625.3,679.37Z" style="fill: #409935; fill-opacity: 1;"/>
        <path d="M794,422.83a322.5,322.5,0,0,0-62.79,629.11A324.71,324.71,0,0,0,773.8,1062v-39.63a286.67,286.67,0,0,1-31-7.71,283.49,283.49,0,1,1,266.09-487.95L1034,496.88A323.5,323.5,0,0,0,794,422.83Z" style="fill: #409935; fill-opacity: 1;"/>
        <path d="M1224.21,713.25A399.11,399.11,0,1,0,773.8,1139.41V1100a359.88,359.88,0,1,1,394-241.93l37,12.4A396.65,396.65,0,0,0,1224.21,713.25Z" style="fill: #409935; fill-opacity: 1;"/>
        <path d="M878.92,1100v39.39a395.56,395.56,0,0,0,130.45-40.87l-17.9-34.65A356.33,356.33,0,0,1,878.92,1100Z" style="fill: #409935; fill-opacity: 1;"/>
        <path d="M1108.51,715.39a283.81,283.81,0,0,1-229.59,307V1062a322.81,322.81,0,0,0,268.39-350.55Z" style="fill: #409935; fill-opacity: 1;"/>
        <polygon points="972.78 768.21 945.25 740.58 845.86 839.62 845.86 588.52 806.86 588.52 806.86 703.54 699.98 619.15 675.81 649.76 806.86 753.24 806.86 1221.42 845.86 1221.42 845.86 894.68 972.78 768.21" style="fill: #7c7955; fill-opacity: 1;"/>
      </svg>
    </g>
    <g transform="matrix(1, 0, 0, 1, -51.845535, -707.28595)">
      <title>Willow Name</title>
      <svg xmlns="http://www.w3.org/2000/svg" y="387" viewBox="1.4300000667572021 12.630000114440918 261.7900085449219 44.55999755859375" x="156.80851660156247" height="44.55999755859375" width="261.7900085449219" style="overflow: visible;" transform="matrix(1, 0, 0, 1, 155.378524780273, 374.369995117188)">
        <g fill="#409935" fill-opacity="1" style="">
          <path d="M30.23 13.22L38.42 45.87L45.09 13.22L52.57 13.22L42.56 56.59L35.35 56.59L27.10 24.93L18.68 56.59L11.44 56.59L1.43 13.22L8.91 13.22L15.64 45.81L23.92 13.22L30.23 13.22ZM72.74 13.22L72.74 56.59L65.24 56.59L65.24 13.22L72.74 13.22ZM96.25 13.22L96.25 50.58L115.94 50.58L115.94 56.59L88.72 56.59L88.72 13.22L96.25 13.22ZM135.96 13.22L135.96 50.58L155.65 50.58L155.65 56.59L128.43 56.59L128.43 13.22L135.96 13.22ZM200.84 33.63L200.84 36.04Q200.84 42.41 198.64 47.22Q196.44 52.03 192.34 54.61Q188.25 57.19 182.91 57.19L182.91 57.19Q177.64 57.19 173.52 54.61Q169.39 52.03 167.14 47.27Q164.89 42.50 164.86 36.28L164.86 36.28L164.86 33.84Q164.86 27.49 167.11 22.64Q169.36 17.78 173.46 15.21Q177.55 12.63 182.85 12.63Q188.16 12.63 192.25 15.18Q196.35 17.72 198.58 22.50Q200.82 27.28 200.84 33.63L200.84 33.63ZM193.31 36.04L193.31 33.78Q193.31 26.57 190.58 22.73Q187.86 18.88 182.85 18.88L182.85 18.88Q177.97 18.88 175.21 22.71Q172.46 26.54 172.40 33.54L172.40 33.54L172.40 36.04Q172.40 43.19 175.18 47.09Q177.97 50.99 182.91 50.99L182.91 50.99Q187.92 50.99 190.61 47.18Q193.31 43.37 193.31 36.04L193.31 36.04ZM240.88 13.22L249.08 45.87L255.75 13.22L263.22 13.22L253.22 56.59L246.01 56.59L237.76 24.93L229.33 56.59L222.09 56.59L212.08 13.22L219.56 13.22L226.29 45.81L234.57 13.22L240.88 13.22Z" transform="translate(0, 0)"/>
        </g>
      </svg>
    </g>
  </g>
  <g style="" transform="matrix(1, 0, 0, 1.1486480236053467, 350.2528991699219, 394.66519165039057)">
    <title>Willow Box</title>
    <rect x="-373.943" y="-262.632" width="1118.98" height="422.79" style="fill: none; stroke: rgb(64, 153, 53); stroke-width: 4px; stroke-dashoffset: 44px; stroke-dasharray: 30;"/>
  </g>
  <g style="" transform="matrix(0.9516469836235046, 0, 0, 0.8316320180892944, 363.1330871582031, 421.36953735351557)">
    <title>Docker Box</title>
    <text style="fill: rgb(35, 150, 237); font-family: Roboto; font-size: 28px; font-weight: 300; white-space: pre;" transform="matrix(1.05081, 0, 0, 1.202455, -52.221943, 71.543633)" x="-107.795" y="-263.427">Docker Environment</text>
    <rect x="-373.943" y="-218.243" width="1118.98" height="378.401" style="fill: none; stroke-width: 4px; stroke-dashoffset: 44px; stroke-dasharray: 30; stroke: rgb(35, 150, 237);"/>
    <path fill="#2396ED" d="M -184.304 -292.495 L -183.531 -293.831 L -182.186 -292.897 L -181.589 -292.408 C -180.15 -291.135 -177.121 -287.886 -176.465 -282.498 C -175.32 -282.733 -174.16 -282.85 -173.006 -282.85 C -170.26 -282.85 -168.415 -282.122 -167.364 -281.514 L -166.825 -281.182 L -166.473 -280.918 L -165.494 -279.998 L -165.832 -278.818 C -166.36 -277.209 -167.182 -275.741 -168.249 -274.526 C -169.742 -272.765 -172.364 -270.691 -176.524 -270.416 L -177.439 -270.387 L -178.197 -270.387 C -180.101 -264.642 -182.655 -258.163 -186.951 -252.35 C -189.496 -248.895 -192.52 -245.935 -195.896 -243.591 C -199.948 -240.845 -204.382 -238.918 -209.006 -237.895 C -212.314 -237.161 -215.68 -236.794 -219.047 -236.809 C -226.505 -236.809 -233.087 -238.501 -237.133 -241.467 C -240.745 -244.109 -243.525 -248.426 -245.388 -254.278 C -247.024 -259.626 -247.826 -265.264 -247.762 -270.931 C -247.777 -272.432 -246.832 -273.719 -245.54 -273.964 L -245.188 -273.993 L -190.993 -273.993 L -190.519 -274.038 L -189.75 -274.13 C -188.435 -274.332 -186.433 -274.777 -185.023 -275.721 C -186.707 -278.917 -187.187 -282.649 -186.399 -286.628 C -186.07 -288.287 -185.552 -289.892 -184.858 -291.395 L -184.304 -292.495 Z M -232.906 -285.151 L -232.7 -285.112 C -232.509 -285.028 -232.363 -284.852 -232.304 -284.626 L -232.274 -284.393 L -232.274 -276.655 L -232.304 -276.416 C -232.363 -276.191 -232.514 -276.01 -232.705 -275.932 L -232.906 -275.897 L -240.167 -275.897 C -240.441 -275.902 -240.686 -276.107 -240.769 -276.416 L -240.804 -276.651 L -240.804 -284.397 L -240.769 -284.632 C -240.71 -284.862 -240.559 -285.043 -240.368 -285.121 L -240.167 -285.155 L -232.906 -285.155 L -232.906 -285.151 Z M -222.894 -285.151 L -222.693 -285.112 C -222.502 -285.033 -222.351 -284.852 -222.292 -284.626 L -222.263 -284.393 L -222.263 -276.655 L -222.297 -276.416 C -222.355 -276.191 -222.507 -276.01 -222.698 -275.932 L -222.898 -275.897 L -230.16 -275.897 C -230.434 -275.902 -230.679 -276.112 -230.763 -276.416 L -230.796 -276.646 L -230.796 -284.393 C -230.796 -284.715 -230.626 -285.004 -230.362 -285.116 L -230.16 -285.155 L -222.894 -285.155 L -222.894 -285.151 Z M -212.735 -285.151 L -212.534 -285.112 C -212.343 -285.028 -212.197 -284.852 -212.138 -284.626 L -212.099 -284.393 L -212.099 -276.655 L -212.138 -276.416 C -212.197 -276.191 -212.343 -276.01 -212.539 -275.932 L -212.74 -275.897 L -219.997 -275.897 C -220.275 -275.902 -220.52 -276.107 -220.599 -276.416 L -220.633 -276.651 L -220.633 -284.397 L -220.599 -284.632 C -220.54 -284.862 -220.393 -285.043 -220.198 -285.121 L -219.997 -285.155 L -212.735 -285.155 L -212.735 -285.151 Z M -202.693 -285.151 L -202.492 -285.112 C -202.302 -285.033 -202.156 -284.852 -202.091 -284.626 L -202.058 -284.393 L -202.058 -276.655 C -202.058 -276.333 -202.228 -276.044 -202.492 -275.932 L -202.699 -275.897 L -209.956 -275.897 C -210.235 -275.902 -210.479 -276.107 -210.557 -276.416 L -210.587 -276.651 L -210.587 -284.397 L -210.557 -284.632 C -210.499 -284.862 -210.352 -285.043 -210.156 -285.121 L -209.951 -285.155 L -202.689 -285.155 L -202.693 -285.151 Z M -192.565 -285.151 L -192.364 -285.112 C -192.173 -285.033 -192.026 -284.852 -191.962 -284.626 L -191.933 -284.393 L -191.933 -276.655 C -191.933 -276.333 -192.104 -276.044 -192.368 -275.932 L -192.569 -275.897 L -199.832 -275.897 C -200.11 -275.902 -200.354 -276.107 -200.433 -276.416 L -200.462 -276.651 L -200.462 -284.397 L -200.433 -284.632 C -200.374 -284.862 -200.227 -285.043 -200.032 -285.121 L -199.826 -285.155 L -192.569 -285.155 L -192.565 -285.151 Z M -222.904 -296.283 L -222.698 -296.244 C -222.507 -296.16 -222.36 -295.989 -222.302 -295.77 L -222.267 -295.524 L -222.267 -287.788 C -222.263 -287.466 -222.439 -287.177 -222.703 -287.064 L -222.904 -287.025 L -230.16 -287.025 C -230.439 -287.029 -230.684 -287.244 -230.763 -287.553 L -230.796 -287.788 L -230.796 -295.524 C -230.796 -295.848 -230.62 -296.131 -230.362 -296.244 L -230.16 -296.283 L -222.898 -296.283 L -222.904 -296.283 Z M -212.744 -296.283 L -212.539 -296.244 C -212.348 -296.16 -212.202 -295.989 -212.143 -295.77 L -212.103 -295.524 L -212.103 -287.788 C -212.103 -287.466 -212.28 -287.177 -212.544 -287.064 L -212.744 -287.025 L -219.997 -287.025 C -220.28 -287.029 -220.52 -287.244 -220.599 -287.553 L -220.633 -287.788 L -220.633 -295.524 L -220.599 -295.759 C -220.54 -295.985 -220.393 -296.165 -220.198 -296.244 L -219.997 -296.283 L -212.74 -296.283 L -212.744 -296.283 Z M -202.699 -296.283 C -202.425 -296.283 -202.185 -296.068 -202.097 -295.77 L -202.062 -295.524 L -202.062 -287.788 C -202.062 -287.466 -202.234 -287.177 -202.498 -287.064 L -202.704 -287.025 L -209.956 -287.025 C -210.235 -287.029 -210.479 -287.244 -210.557 -287.553 L -210.587 -287.788 L -210.587 -295.524 L -210.557 -295.759 C -210.499 -295.985 -210.347 -296.165 -210.156 -296.244 L -209.951 -296.283 L -202.689 -296.283 L -202.699 -296.283 Z M -202.699 -307.416 C -202.425 -307.416 -202.185 -307.201 -202.097 -306.902 L -202.062 -306.662 L -202.062 -298.921 C -202.062 -298.598 -202.234 -298.309 -202.498 -298.196 L -202.704 -298.162 L -209.956 -298.162 C -210.235 -298.166 -210.479 -298.377 -210.557 -298.681 L -210.587 -298.916 L -210.587 -306.662 L -210.557 -306.902 C -210.499 -307.122 -210.347 -307.303 -210.156 -307.381 L -209.956 -307.416 L -202.693 -307.416 L -202.699 -307.416 Z" style=""/>
  </g>
  <g transform="matrix(1, 0, 0, 1, 350.2527770996094, 418.47256469726557)">
    <title>Database WAL</title>
    <g id="database" transform="matrix(1.31225, 0, 0, 1.31225, -610.784058, -3.103293)" style="">
      <title>Database</title>
      <text style="fill: rgb(45, 60, 45); font-family: Roboto; font-size: 27.4px; font-weight: 300; text-anchor: middle; white-space: pre;" x="48.752" y="-15.427" transform="matrix(1, 0, 0, 1, 0, -18.2892)">Source<tspan x="48.75199890136719" dy="1em">​</tspan>Database</text>
      <path class="cls-1" d="M46.4.2C33.9.2,22.6,2.4,14.3,5.9c-4.2,1.8-7.6,3.9-10,6.3C1.8,14.7.2,17.6.2,20.8v59.9c0,1.1.2,2.2.6,3.3,0,0,0,.1,0,.2,0,0,0,0,0,0,1.8,5.1,7.3,9.1,14.7,12,.6.2,1.3.5,1.9.7,0,0,0,0,0,0,1.1.4,2.2.7,3.4,1.1,0,0,.2,0,.2,0,.5.1,1.1.3,1.6.4,0,0,.1,0,.2,0,.6.1,1.1.3,1.7.4,0,0,0,0,.1,0,1.3.3,2.6.6,3.9.8,0,0,0,0,0,0,.5,0,1.1.2,1.6.3.2,0,.4,0,.6,0,.5,0,1,.1,1.4.2.2,0,.4,0,.6,0,.5,0,1,.1,1.6.2.2,0,.4,0,.5,0,.4,0,.8,0,1.2.1.4,0,.8,0,1.1.1.2,0,.5,0,.7,0,.5,0,.9,0,1.4,0,.5,0,1,0,1.6,0,.2,0,.4,0,.6,0,1.5,0,3,0,4.6,0,2.3,0,4.5,0,6.7-.2,1.1,0,2.1-.2,3.2-.3.4,0,.9,0,1.3-.1.1,0,.3,0,.4,0,.6,0,1.1-.1,1.7-.2.2,0,.3,0,.5,0,.5,0,1.1-.1,1.6-.2.2,0,.3,0,.5,0,.6,0,1.2-.2,1.8-.3,0,0,0,0,0,0,4.9-.9,9.4-2.1,13.2-3.6,8.2-3.2,14-7.7,15.1-13.6h0c.1-.6.2-1.2.2-1.8V20.8c0-.6,0-1.2-.1-1.7,0,0,0-.2,0-.3-.5-2.4-1.8-4.6-3.8-6.6-2.5-2.5-5.9-4.6-10-6.3C70.1,2.4,58.9.3,46.4.2ZM46.4,3.7c12.1,0,23,2.1,30.7,5.4,3.9,1.6,6.9,3.6,8.9,5.6,1.5,1.5,2.4,3.1,2.8,4.6-.9,3.7-5.5,7.7-12.9,10.7-7.6,3-18.1,4.9-29.6,4.9s-21.9-1.9-29.6-4.9c-7.4-2.9-12-6.9-12.9-10.7h0c.4-1.5,1.3-3.1,2.8-4.6,2-2,5.1-4,8.9-5.6,7.7-3.3,18.6-5.4,30.7-5.4ZM3.7,25.8c2.7,2.9,6.8,5.4,11.8,7.3,8.2,3.2,19,5.1,30.8,5.1s22.7-1.9,30.8-5.1c5-2,9.1-4.4,11.8-7.3v13.8c0,0,0,.2-.1.3-.7,3.8-5.3,8-13,11-7.6,3-18.1,4.9-29.6,4.9s-21.9-1.9-29.6-4.9c-7.6-3-12.2-7.1-13-11,0-.1,0-.2-.1-.3v-13.8ZM13.6,38.8c-1.1,0-2.1.9-2.1,2.1,0,1.1.9,2.1,2.1,2.1,1.1,0,2.1-.9,2.1-2.1,0,0,0,0,0,0,0-1.1-.9-2.1-2.1-2.1,0,0,0,0,0,0ZM3.7,46.8c2.7,2.9,6.8,5.4,11.8,7.3,8.2,3.2,19,5.1,30.8,5.1s22.7-1.9,30.8-5.1c5-2,9.1-4.4,11.8-7.3v13.5c-.1.2-.2.4-.2.6-.7,3.8-5.3,8-12.9,11-7.6,3-18.1,4.9-29.6,4.9s-21.4-1.8-29-4.6c-7.6-2.9-12.4-6.9-13.4-10.6,0-.1,0-.2-.1-.3v-14.4ZM13.6,59.5c-1.1,0-2.1.9-2.1,2.1,0,1.1.9,2.1,2.1,2.1,1.1,0,2.1-.9,2.1-2.1,0,0,0,0,0,0,0-1.1-.9-2.1-2.1-2.1h0ZM89,67.7v13c0,.6,0,1.2-.2,1.8-.7,2.6-3.2,5.3-7.1,7.6,0,0-.1,0-.2,0-.2.1-.4.2-.6.4-1.2.7-2.5,1.3-3.8,1.9-2.9,1.2-6.2,2.3-9.9,3.1,0,0-.1,0-.2,0-.6.1-1.1.2-1.7.4,0,0,0,0,0,0-.6.1-1.2.2-1.8.4,0,0,0,0,0,0-.6.1-1.3.2-1.9.3,0,0,0,0-.1,0-.5,0-1.1.2-1.6.2-.2,0-.3,0-.5,0-.6,0-1.2.1-1.7.2,0,0-.1,0-.2,0-.6,0-1.2.1-1.8.2-.1,0-.2,0-.3,0-.5,0-1,0-1.6.1-.2,0-.4,0-.6,0-.5,0-1.1,0-1.6,0-.2,0-.3,0-.5,0-1.5,0-3,0-4.5,0s-3,0-4.4,0c0,0,0,0,0,0-.7,0-1.4,0-2.1-.1-.2,0-.4,0-.6,0-2.7-.2-5.2-.5-7.7-.8-.2,0-.3,0-.5,0-.5,0-1-.2-1.5-.2-.1,0-.2,0-.4,0-.5,0-1-.2-1.6-.3-.1,0-.3,0-.4,0-.5,0-.9-.2-1.4-.3-.2,0-.4,0-.5-.1-3.6-.8-6.9-1.9-9.7-3.1-.4-.2-.8-.4-1.3-.6-.1,0-.2,0-.3-.1-.3-.1-.6-.3-.9-.4-5.5-2.8-8.7-6.2-9.3-9.4h0c0-.4-.1-.8-.1-1.2v-12.8c2.8,3,7.1,5.5,12.3,7.5,8.1,3.1,18.6,4.9,30.2,4.9s22.7-1.9,30.8-5.1c5-2,9.2-4.5,11.9-7.4ZM13.6,81.3c-1.1,0-2.1.9-2.1,2.1,0,1.1.9,2.1,2.1,2.1,1.1,0,2.1-.9,2.1-2.1,0,0,0,0,0,0,0-1.1-.9-2.1-2.1-2.1h0Z" style="fill: rgb(45, 60, 45); fill-rule: evenodd; stroke: rgb(45, 60, 45); stroke-miterlimit: 10; stroke-width: 0.5px;"/>
    </g>
    <g transform="matrix(1, 0, 0, 1, -40.143269, -181.26149)">
      <title>WAL</title>
      <text style="fill: rgb(51, 51, 51); font-family: Roboto; font-size: 16px; font-weight: 300; text-anchor: middle; white-space: pre;" transform="matrix(1, 0, 0, 1, -179.027649, 37.874241)" y="283.7090148925781" x="-241.36399841308594">Write-ahead<tspan x="-241.36399841308594" dy="1em">​</tspan>Log</text>
      <path style="fill: rgb(255, 255, 255);" d="M -458.897 231.463 L -459.305 286.055 L -443.284 303.301 L -409.406 302.892 L -407.876 231.463 L -458.897 231.463 Z"/>
      <path d="M -412.496 226.886 L -454.353 226.886 C -458.847 226.886 -462.49 230.529 -462.49 235.023 L -462.49 286.267 C -462.49 286.895 -462.247 287.492 -461.811 287.945 L -444.422 305.658 C -443.972 306.12 -443.356 306.379 -442.712 306.379 L -412.496 306.379 C -407.999 306.379 -404.359 302.738 -404.359 298.242 L -404.359 235.023 C -404.359 232.864 -405.215 230.793 -406.74 229.267 C -408.266 227.74 -410.335 226.886 -412.496 226.886 Z M -444.777 298.463 L -454.383 288.702 L -448.116 288.702 C -447.231 288.702 -446.383 289.055 -445.753 289.682 C -445.125 290.307 -444.777 291.157 -444.777 292.041 L -444.777 298.463 Z M -409.156 298.242 C -409.156 300.089 -410.647 301.58 -412.496 301.58 L -439.977 301.58 L -439.977 291.985 C -440.009 287.516 -443.644 283.904 -448.116 283.904 L -457.715 283.904 L -457.712 235.023 C -457.712 233.177 -456.216 231.682 -454.371 231.682 L -412.496 231.682 C -411.609 231.682 -410.76 232.036 -410.134 232.662 C -409.506 233.287 -409.156 234.136 -409.156 235.023 L -409.156 298.242 Z M -451.003 269.339 L -444.631 269.339 L -444.631 274.135 L -451.003 274.135 L -451.003 269.339 Z M -440.449 269.339 L -415.844 269.339 L -415.844 274.135 L -440.449 274.135 L -440.449 269.339 Z M -451.003 259.741 L -444.631 259.741 L -444.631 264.538 L -451.003 264.544 L -451.003 259.741 Z M -440.449 259.741 L -415.844 259.741 L -415.844 264.538 L -440.449 264.544 L -440.449 259.741 Z M -451.003 250.145 L -444.631 250.145 L -444.631 254.941 L -451.003 254.943 L -451.003 250.145 Z M -440.449 250.145 L -415.844 250.146 L -415.844 254.943 L -440.449 254.943 L -440.449 250.145 Z M -451.003 240.545 L -444.631 240.545 L -444.631 245.343 L -451.003 245.346 L -451.003 240.545 Z M -440.449 240.545 L -415.844 240.551 L -415.844 245.346 L -440.449 245.346 L -440.449 240.545 Z" style="fill: rgb(45, 60, 45);"/>
    </g>
  </g>
  <g transform="matrix(1, 0, 0, 1, 373.40777587890636, 208.71757507324213)">
    <title>Kafka Connect</title>
    <rect style="fill: none; stroke: rgb(45, 60, 45);" x="-353.276" y="186.912" width="318.117" height="135.673" rx="5" ry="5"/>
    <g transform="matrix(0.813278, 0, 0, 0.813278, -126.743248, 200.799667)" style="">
      <linearGradient id="SVGID_1_" gradientUnits="userSpaceOnUse" x1="9.6501" y1="55.4537" x2="55.733" y2="9.3708" gradientTransform="matrix(1 0 0 -1 0 65.094)">
        <stop offset="0" style="stop-color:#91D443"/>
        <stop offset="1" style="stop-color:#48BFE0"/>
      </linearGradient>
      <path class="st0" d="M45.8,55.9c0,4.5,3.6,8.1,8.1,8.1h10V54c0-4.5-3.6-8.1-8.1-8.1H54c-7.1,0-12.9-5.8-12.9-12.9V31 c0-4.5-3.6-8.1-8.1-8.1H31c-7.1,0-12.9-5.8-12.9-12.9l0,0V8.1C18.2,3.6,14.5,0,10,0H0v10c0,4.5,3.6,8.1,8.1,8.1H10 c7.1,0,12.9,5.8,12.9,12.9v1.9c0,4.5,3.6,8.1,8.1,8.1H33c7.1,0,12.9,5.8,12.9,12.9l0,0V55.9z" style="fill: url('#SVGID_1_');"/>
      <linearGradient id="SVGID_2_" gradientUnits="userSpaceOnUse" x1="21.1064" y1="66.91" x2="67.1893" y2="20.827" gradientTransform="matrix(1 0 0 -1 0 65.094)">
        <stop offset="0" style="stop-color:#91D443"/>
        <stop offset="1" style="stop-color:#48BFE0"/>
      </linearGradient>
      <path class="st1" d="M64,31c0-4.5-3.6-8.1-8.1-8.1H54c-7.1,0-12.9-5.8-12.9-12.9V8.1C41,3.6,37.4,0,32.9,0h-10v10.1 c0.1,4.4,3.7,8,8.1,8H33c7.1,0,12.9,5.8,12.9,12.9l0,0v1.9c0,4.5,3.6,8.1,8.1,8.1H64V31z" style="fill: url('#SVGID_2_');"/>
      <linearGradient id="SVGID_3_" gradientUnits="userSpaceOnUse" x1="32.529" y1="78.3326" x2="78.6119" y2="32.2497" gradientTransform="matrix(1 0 0 -1 0 65.094)">
        <stop offset="0" style="stop-color:#91D443"/>
        <stop offset="1" style="stop-color:#48BFE0"/>
      </linearGradient>
      <path class="st2" d="M64,8.1c0-4.3-3.5-7.9-7.8-8.1H45.7v10.1c0.1,4.4,3.7,8,8.1,8H64V8.1z" style="fill: url('#SVGID_3_');"/>
      <linearGradient id="SVGID_4_" gradientUnits="userSpaceOnUse" x1="-1.8193" y1="43.9892" x2="44.2636" y2="-2.0937" gradientTransform="matrix(1 0 0 -1 0 65.094)">
        <stop offset="0" style="stop-color:#91D443"/>
        <stop offset="1" style="stop-color:#48BFE0"/>
      </linearGradient>
      <path class="st3" d="M0,33c0,4.5,3.6,8.1,8.1,8.1H10c7.1,0,12.9,5.8,12.9,12.9v1.9c0,4.5,3.6,8.1,8.1,8.1h10V53.9 c-0.1-4.4-3.7-8-8.1-8H31c-7.1,0-12.9-5.8-12.9-12.9l0,0v-1.9c0-4.5-3.6-8.1-8.1-8.1H0V33z" style="fill: url('#SVGID_4_');"/>
      <linearGradient id="SVGID_5_" gradientUnits="userSpaceOnUse" x1="-13.2407" y1="32.5678" x2="32.8422" y2="-13.5152" gradientTransform="matrix(1 0 0 -1 0 65.094)">
        <stop offset="0" style="stop-color:#91D443"/>
        <stop offset="1" style="stop-color:#48BFE0"/>
      </linearGradient>
      <path class="st4" d="M0,55.9c0,4.3,3.5,7.9,7.8,8.1h10.5V53.9c-0.1-4.4-3.7-8-8.1-8H0V55.9z" style="fill: url('#SVGID_5_');"/>
    </g>
    <text style="fill: rgb(45, 60, 45); font-family: Roboto; font-size: 36px; font-weight: 300; text-anchor: middle; white-space: pre;" transform="matrix(1, 0, 0, 1, -69.154808, 90.486954)"><tspan x="-181.21" y="155.758">Kafka</tspan><tspan x="-181.21" dy="1em">​</tspan><tspan>Connect</tspan></text>
    <text style="fill: rgb(51, 51, 51); font-family: Roboto; font-weight: 300; text-anchor: middle; white-space: pre;" transform="matrix(1, 0, 0, 1, 138.994171, -7.935044)"><tspan x="-241.364" y="283.709">Debezium</tspan><tspan x="-241.364" dy="1em">​</tspan><tspan>PostgreSQL</tspan><tspan x="-241.364" dy="1em">​</tspan><tspan>Connector</tspan></text>
  </g>
  <g style="" transform="matrix(0.8852429389953613, 0, 0, 0.9078000783920288, 299.9425048828125, 489.07495117187494)">
    <title>Kafka</title>
    <text style="fill: rgb(45, 60, 45); font-family: Roboto; font-size: 36px; font-weight: 300; text-anchor: middle; white-space: pre;" transform="matrix(1.129633, 0, 0, 1.129633, 438.216431, -197.509583)"><tspan x="-181.21" y="155.758">Kafka</tspan><tspan x="-181.2100067138672" dy="1em">​</tspan></text>
    <rect style="fill: none; stroke: rgb(45, 60, 45);" x="157.543" y="-102.041" width="227.235" height="148.557" rx="5" ry="5"/>
    <g fill="#1A1919" transform="matrix(0.549876, 0, 0, 0.549876, 358.882019, -89.094444)" style="">
      <path d="M -63.507 33.54 C -65.376 31.664 -67.969 30.508 -70.859 30.508 C -73.741 30.508 -76.314 31.664 -78.16 33.54 L -78.207 33.54 C -80.07 35.403 -81.225 38.003 -81.225 40.875 C -81.225 43.763 -80.07 46.347 -78.207 48.192 L -78.16 48.243 C -76.314 50.102 -73.741 51.242 -70.859 51.242 C -67.969 51.242 -65.376 50.102 -63.507 48.243 L -63.485 48.192 C -61.615 46.347 -60.474 43.763 -60.474 40.875 C -60.474 38.003 -61.615 35.403 -63.485 33.54 L -63.507 33.54 Z M -70.859 175.454 C -67.969 175.454 -65.376 174.277 -63.507 172.436 L -63.485 172.381 C -61.615 170.543 -60.474 167.944 -60.474 165.086 C -60.474 162.198 -61.615 159.61 -63.485 157.738 L -63.507 157.738 C -65.376 155.844 -67.969 154.699 -70.859 154.699 C -73.741 154.699 -76.314 155.844 -78.16 157.738 L -78.207 157.738 C -80.07 159.61 -81.225 162.198 -81.225 165.086 C -81.225 167.944 -80.07 170.543 -78.207 172.381 L -78.16 172.436 C -76.314 174.277 -73.741 175.454 -70.859 175.454 Z M -14.374 144.043 C -11.807 143.368 -9.483 141.721 -8.062 139.229 L -7.871 138.864 C -6.609 136.503 -6.378 133.775 -7.053 131.352 C -7.734 128.767 -9.399 126.474 -11.886 125.046 L -12.033 124.948 C -14.457 123.616 -17.215 123.326 -19.751 124.017 C -22.329 124.661 -24.646 126.378 -26.058 128.849 C -27.488 131.305 -27.785 134.129 -27.101 136.726 C -26.395 139.283 -24.743 141.593 -22.27 143.037 L -22.256 143.037 C -19.777 144.461 -16.976 144.716 -14.374 144.043 Z M -60.225 92.358 C -62.947 89.644 -66.702 87.942 -70.859 87.942 C -75.01 87.942 -78.754 89.644 -81.471 92.358 C -84.178 95.068 -85.846 98.807 -85.846 102.964 C -85.846 107.121 -84.178 110.876 -81.471 113.618 C -78.754 116.315 -75.01 118.001 -70.859 118.001 C -66.702 118.001 -62.947 116.315 -60.225 113.618 C -57.51 110.876 -55.842 107.121 -55.842 102.964 C -55.842 98.807 -57.51 95.068 -60.225 92.358 Z M -66.205 74.688 C -60.17 75.683 -54.753 78.573 -50.611 82.743 L -50.58 82.743 C -49.921 83.4 -49.281 84.124 -48.684 84.846 L -38.334 78.859 C -39.725 74.654 -39.79 70.258 -38.671 66.133 C -37.196 60.612 -33.617 55.67 -28.25 52.573 L -28.075 52.463 C -22.767 49.46 -16.735 48.834 -11.29 50.309 C -5.774 51.788 -0.8 55.384 2.297 60.742 L 2.297 60.758 C 5.38 66.086 6.004 72.201 4.535 77.705 C 3.067 83.225 -0.525 88.201 -5.886 91.28 L -7.3 92.115 L -7.444 92.115 C -12.402 94.475 -17.854 94.845 -22.861 93.526 C -26.973 92.437 -30.743 90.141 -33.696 86.884 L -44.032 92.855 C -42.844 95.997 -42.187 99.385 -42.187 102.964 C -42.187 106.526 -42.844 109.962 -44.032 113.121 L -33.696 119.075 C -30.743 115.767 -26.973 113.523 -22.861 112.431 C -17.344 110.923 -11.229 111.564 -5.886 114.679 L -5.543 114.838 L -5.543 114.855 C -0.382 117.985 3.083 122.815 4.535 128.27 C 6.004 133.742 5.38 139.86 2.297 145.199 L 2.111 145.571 L 2.089 145.54 C -1.006 150.687 -5.886 154.174 -11.274 155.65 C -16.798 157.106 -22.914 156.484 -28.25 153.415 L -28.25 153.373 C -33.617 150.27 -37.196 145.317 -38.671 139.807 C -39.79 135.701 -39.725 131.305 -38.334 127.102 L -48.684 121.129 C -49.281 121.851 -49.921 122.542 -50.58 123.199 L -50.611 123.231 C -54.753 127.388 -60.17 130.276 -66.205 131.238 L -66.205 143.198 C -61.905 144.096 -58.055 146.246 -55.039 149.263 L -55.023 149.294 C -50.981 153.318 -48.477 158.925 -48.477 165.086 C -48.477 171.229 -50.981 176.803 -55.023 180.847 L -55.039 180.91 C -59.111 184.952 -64.696 187.456 -70.859 187.456 C -76.989 187.456 -82.588 184.952 -86.65 180.91 L -86.667 180.91 L -86.667 180.847 C -90.713 176.803 -93.222 171.229 -93.222 165.086 C -93.222 158.925 -90.713 153.318 -86.667 149.294 L -86.667 149.263 L -86.65 149.263 C -83.637 146.246 -79.78 144.096 -75.496 143.198 L -75.496 131.238 C -81.529 130.276 -86.937 127.388 -91.072 123.231 L -91.116 123.199 C -96.279 118.017 -99.512 110.876 -99.512 102.964 C -99.512 95.068 -96.279 87.927 -91.116 82.743 L -91.072 82.743 C -86.937 78.573 -81.529 75.683 -75.496 74.688 L -75.496 62.779 C -79.78 61.85 -83.637 59.7 -86.65 56.699 L -86.667 56.699 L -86.667 56.667 C -90.713 52.607 -93.222 47.038 -93.222 40.875 C -93.222 34.745 -90.713 29.127 -86.667 25.083 L -86.65 25.067 C -82.588 21.008 -76.989 18.506 -70.859 18.506 C -64.696 18.506 -59.111 21.008 -55.039 25.067 L -55.039 25.083 L -55.023 25.083 C -50.981 29.127 -48.477 34.745 -48.477 40.875 C -48.477 47.038 -50.981 52.607 -55.023 56.667 L -55.039 56.699 C -58.055 59.7 -61.905 61.85 -66.205 62.779 L -66.205 74.688 Z M -8.062 66.745 L -8.151 66.615 C -9.577 64.209 -11.855 62.605 -14.374 61.913 C -16.976 61.222 -19.777 61.512 -22.27 62.942 L -22.256 62.942 C -24.743 64.354 -26.406 66.662 -27.101 69.248 C -27.785 71.816 -27.488 74.654 -26.058 77.126 L -26.009 77.19 C -24.578 79.631 -22.297 81.267 -19.751 81.925 C -17.193 82.649 -14.343 82.343 -11.886 80.913 L -11.754 80.85 C -9.336 79.406 -7.724 77.126 -7.053 74.623 C -6.368 72.039 -6.641 69.216 -8.062 66.745 Z" style=""/>
    </g>
  </g>
  <g transform="matrix(1, 0, 0, 1, 390.60675048828136, 487.45755004882807)">
    <title>Zookeeper</title>
    <ellipse style="fill: none; stroke: rgb(45, 60, 45);" cx="-2.346" cy="-152.522" rx="66.955" ry="24.36"/>
    <text style="fill: rgb(45, 60, 45); font-family: Roboto; font-size: 19px; font-weight: 300; text-anchor: middle; white-space: pre;" transform="matrix(1, 0, 0, 1, 180.902023, -301.416107)"><tspan x="-181.21" y="155.758">Zookeeper</tspan><tspan x="-181.21" dy="1em">​</tspan></text>
    <path style="fill: none; stroke-dasharray: 8; stroke: rgb(45, 60, 45);" d="M -38.486 -131.982 L -55.296 -91.015"/>
    <path style="fill: none; stroke-dasharray: 8; stroke: rgb(45, 60, 45);" d="M 32.556 -131.982 L 50.197 -91.015"/>
  </g>
  <g style="transform-origin: 246.408px 268.026px;" transform="matrix(1.544947862625, 0.428453058004, -0.428453058004, 1.544947862625, 247.419892811179, 290.123517873148)">
    <title>Arrow</title>
    <line class="cls-1" x1="148.867" y1="236.505" x2="180.66" y2="227.662" style="fill: none; stroke-miterlimit: 10; stroke: rgb(45, 60, 45); transform-box: fill-box; transform-origin: 50% 50%;"/>
    <polygon class="cls-2" points="173.021 232.653 182.721 226.953 171.521 227.053 173.021 232.653" style="stroke-width: 0px; fill: rgb(45, 60, 45); transform-box: fill-box; transform-origin: 50% 50%;"/>
  </g>
  <g style="transform-origin: 246.408px 268.026px;" transform="matrix(2.354012012482, 0.65282702446, -0.65282702446, 2.354012012482, -115.565656510132, 340.246976234819)">
    <title>Arrow</title>
    <line class="cls-1" x1="148.867" y1="236.505" x2="180.66" y2="227.662" style="fill: none; stroke-miterlimit: 10; stroke: rgb(45, 60, 45); transform-box: fill-box; transform-origin: 50% 50%;"/>
    <polygon class="cls-2" points="173.021 232.653 182.721 226.953 171.521 227.053 173.021 232.653" style="stroke-width: 0px; fill: rgb(45, 60, 45); transform-box: fill-box; transform-origin: 50% 50%;"/>
  </g>
  <g style="" transform="matrix(0.8852429389953613, 0, 0, 0.9078000783920288, 612.6216430664064, 489.07498168945307)">
    <title>Node App</title>
    <text style="fill: rgb(45, 60, 45); font-family: Roboto; font-size: 36px; font-weight: 300; text-anchor: middle; white-space: pre;" transform="matrix(1.129633, 0, 0, 1.129633, 479.375824, -213.973343)"><tspan x="-181.21" y="155.758">Node <tspan x="-181.2100067138672" dy="1em">​</tspan>Application</tspan><tspan x="-181.2100067138672" dy="1em">​</tspan></text>
    <rect style="fill: none; stroke: rgb(45, 60, 45);" x="157.543" y="-102.041" width="321.314" height="148.557" rx="5" ry="5"/>
    <g transform="matrix(0.307364, 0, 0, 0.307364, 383.073486, -76.83139)" style="">
      <path d="M127.999999,288.463771 C124.024844,288.463771 120.314699,287.403728 116.869564,285.548656 L81.6231884,264.612838 C76.32298,261.697724 78.9730854,260.637682 80.5631458,260.107661 C87.7184259,257.72257 89.0434775,257.192547 96.4637688,252.952381 C97.2587979,252.422361 98.3188405,252.687372 99.1138718,253.217392 L126.144927,269.383024 C127.20497,269.913045 128.530021,269.913045 129.325053,269.383024 L235.064182,208.165634 C236.124225,207.635611 236.654245,206.575571 236.654245,205.250519 L236.654245,83.0807467 C236.654245,81.7556929 236.124225,80.6956526 235.064182,80.1656324 L129.325053,19.2132506 C128.26501,18.6832305 126.939959,18.6832305 126.144927,19.2132506 L20.4057954,80.1656324 C19.3457551,80.6956526 18.8157349,82.0207041 18.8157349,83.0807467 L18.8157349,205.250519 C18.8157349,206.31056 19.3457551,207.635611 20.4057954,208.165634 L49.2919247,224.861286 C64.9275364,232.811595 74.7329196,223.536234 74.7329196,214.260871 L74.7329196,93.681159 C74.7329196,92.0910985 76.0579711,90.5010358 77.9130428,90.5010358 L91.4285716,90.5010358 C93.0186343,90.5010358 94.6086948,91.8260873 94.6086948,93.681159 L94.6086948,214.260871 C94.6086948,235.196689 83.2132512,247.387164 63.3374737,247.387164 C57.2422362,247.387164 52.4720502,247.387164 38.9565214,240.761906 L11.1304347,224.861286 C4.24016581,220.886129 5.68434189e-14,213.46584 5.68434189e-14,205.515528 L5.68434189e-14,83.3457557 C5.68434189e-14,75.3954465 4.24016581,67.9751552 11.1304347,64.0000006 L116.869564,2.78260752 C123.494824,-0.927535841 132.505176,-0.927535841 139.130436,2.78260752 L244.869565,64.0000006 C251.759834,67.9751552 256,75.3954465 256,83.3457557 L256,205.515528 C256,213.46584 251.759834,220.886129 244.869565,224.861286 L139.130436,286.078676 C135.685299,287.668739 131.710145,288.463771 127.999999,288.463771 L127.999999,288.463771 Z M160.596274,204.455488 C114.219461,204.455488 104.679089,183.254659 104.679089,165.233955 C104.679089,163.643893 106.004141,162.053832 107.859212,162.053832 L121.639752,162.053832 C123.229813,162.053832 124.554864,163.113872 124.554864,164.703935 C126.674947,178.749484 132.770187,185.639753 160.861283,185.639753 C183.122154,185.639753 192.662526,180.604556 192.662526,168.67909 C192.662526,161.788821 190.012423,156.753624 155.296065,153.308489 C126.409938,150.393375 108.389235,144.033126 108.389235,120.977226 C108.389235,99.5113875 126.409938,86.7908901 156.621119,86.7908901 C190.542443,86.7908901 207.238095,98.4513472 209.358178,123.89234 C209.358178,124.687371 209.093167,125.482403 208.563147,126.277434 C208.033127,126.807454 207.238095,127.337474 206.443064,127.337474 L192.662526,127.337474 C191.337475,127.337474 190.012423,126.277434 189.747412,124.952382 C186.567289,110.376813 178.351966,105.606625 156.621119,105.606625 C132.240165,105.606625 129.325053,114.086957 129.325053,120.447205 C129.325053,128.132506 132.770187,130.5176 165.631471,134.757766 C198.227744,138.997931 213.598344,145.093169 213.598344,167.884058 C213.333333,191.20497 194.252589,204.455488 160.596274,204.455488 L160.596274,204.455488 Z" fill="#539E43"/>
    </g>
  </g>
  <g style="transform-origin: 246.408px 268.026px;" transform="matrix(1.544947862625, 0.428453058004, -0.428453058004, 1.544947862625, 572.766816639305, 290.123517873158)">
    <title>Arrow</title>
    <line class="cls-1" x1="140.453" y1="238.843" x2="172.246" y2="230" style="fill: none; stroke-miterlimit: 10; stroke: rgb(45, 60, 45); transform-box: fill-box; transform-origin: 50% 50%;"/>
    <polygon class="cls-2" points="164.607 234.991 174.307 229.291 163.107 229.391 164.607 234.991" style="stroke-width: 0px; fill: rgb(45, 60, 45); transform-box: fill-box; transform-origin: 50% 50%;"/>
  </g>
  <g id="g-1" transform="matrix(0.9144700169563293, 0, 0, 0.9144700169563293, 920.2962036132814, 176.25328063964838)" style="">
    <title>Willow DB</title>
    <path style="fill: none; stroke-dasharray: 8; stroke: rgb(45, 60, 45);" d="M -37.017 187.284 L -8.413 239.894"/>
    <text style="fill: rgb(45, 60, 45); font-family: Roboto; font-size: 27.4px; font-weight: 300; text-anchor: middle; white-space: pre;" x="48.752" y="-15.427" transform="matrix(1, 0, 0, 1, 26.350975, 149.850052)">PostgreSQL <tspan x="48.75199890136719" dy="1em">​</tspan>Database</text>
    <path class="cls-1" d="M -54.213 86.984 C -66.713 86.984 -78.013 89.184 -86.313 92.684 C -90.513 94.484 -93.913 96.584 -96.313 98.984 C -98.813 101.484 -100.413 104.384 -100.413 107.584 L -100.413 167.484 C -100.413 168.584 -100.213 169.684 -99.813 170.784 C -99.813 170.784 -99.813 170.884 -99.813 170.984 C -99.813 170.984 -99.813 170.984 -99.813 170.984 C -98.013 176.084 -92.513 180.084 -85.113 182.984 C -84.513 183.184 -83.813 183.484 -83.213 183.684 C -83.213 183.684 -83.213 183.684 -83.213 183.684 C -82.113 184.084 -81.013 184.384 -79.813 184.784 C -79.813 184.784 -79.613 184.784 -79.613 184.784 C -79.113 184.884 -78.513 185.084 -78.013 185.184 C -78.013 185.184 -77.913 185.184 -77.813 185.184 C -77.213 185.284 -76.713 185.484 -76.113 185.584 C -76.113 185.584 -76.113 185.584 -76.013 185.584 C -74.713 185.884 -73.413 186.184 -72.113 186.384 C -72.113 186.384 -72.113 186.384 -72.113 186.384 C -71.613 186.384 -71.013 186.584 -70.513 186.684 C -70.313 186.684 -70.113 186.684 -69.913 186.684 C -69.413 186.684 -68.913 186.784 -68.513 186.884 C -68.313 186.884 -68.113 186.884 -67.913 186.884 C -67.413 186.884 -66.913 186.984 -66.313 187.084 C -66.113 187.084 -65.913 187.084 -65.813 187.084 C -65.413 187.084 -65.013 187.084 -64.613 187.184 C -64.213 187.184 -63.813 187.184 -63.513 187.284 C -63.313 187.284 -63.013 187.284 -62.813 187.284 C -62.313 187.284 -61.913 187.284 -61.413 187.284 C -60.913 187.284 -60.413 187.284 -59.813 187.284 C -59.613 187.284 -59.413 187.284 -59.213 187.284 C -57.713 187.284 -56.213 187.284 -54.613 187.284 C -52.313 187.284 -50.113 187.284 -47.913 187.084 C -46.813 187.084 -45.813 186.884 -44.713 186.784 C -44.313 186.784 -43.813 186.784 -43.413 186.684 C -43.313 186.684 -43.113 186.684 -43.013 186.684 C -42.413 186.684 -41.913 186.584 -41.313 186.484 C -41.113 186.484 -41.013 186.484 -40.813 186.484 C -40.313 186.484 -39.713 186.384 -39.213 186.284 C -39.013 186.284 -38.913 186.284 -38.713 186.284 C -38.113 186.284 -37.513 186.084 -36.913 185.984 C -36.913 185.984 -36.913 185.984 -36.913 185.984 C -32.013 185.084 -27.513 183.884 -23.713 182.384 C -15.513 179.184 -9.713 174.684 -8.613 168.784 C -8.513 168.184 -8.413 167.584 -8.413 166.984 L -8.413 107.584 C -8.413 106.984 -8.413 106.384 -8.513 105.884 C -8.513 105.884 -8.513 105.684 -8.513 105.584 C -9.013 103.184 -10.313 100.984 -12.313 98.984 C -14.813 96.484 -18.213 94.384 -22.313 92.684 C -30.513 89.184 -41.713 87.084 -54.213 86.984 Z M -54.213 90.484 C -42.113 90.484 -31.213 92.584 -23.513 95.884 C -19.613 97.484 -16.613 99.484 -14.613 101.484 C -13.113 102.984 -12.213 104.584 -11.813 106.084 C -12.713 109.784 -17.313 113.784 -24.713 116.784 C -32.313 119.784 -42.813 121.684 -54.313 121.684 C -65.813 121.684 -76.213 119.784 -83.913 116.784 C -91.313 113.884 -95.913 109.884 -96.813 106.084 C -96.413 104.584 -95.513 102.984 -94.013 101.484 C -92.013 99.484 -88.913 97.484 -85.113 95.884 C -77.413 92.584 -66.513 90.484 -54.413 90.484 L -54.213 90.484 Z M -96.913 112.584 C -94.213 115.484 -90.113 117.984 -85.113 119.884 C -76.913 123.084 -66.113 124.984 -54.313 124.984 C -42.513 124.984 -31.613 123.084 -23.513 119.884 C -18.513 117.884 -14.413 115.484 -11.713 112.584 L -11.713 126.384 C -11.713 126.384 -11.713 126.584 -11.813 126.684 C -12.513 130.484 -17.113 134.684 -24.813 137.684 C -32.413 140.684 -42.913 142.584 -54.413 142.584 C -65.913 142.584 -76.313 140.684 -84.013 137.684 C -91.613 134.684 -96.213 130.584 -97.013 126.684 C -97.013 126.584 -97.013 126.484 -97.113 126.384 L -97.113 112.584 L -96.913 112.584 Z M -87.013 125.584 C -88.113 125.584 -89.113 126.484 -89.113 127.684 C -89.113 128.784 -88.213 129.784 -87.013 129.784 C -85.913 129.784 -84.913 128.884 -84.913 127.684 C -84.913 127.684 -84.913 127.684 -84.913 127.684 C -84.913 126.584 -85.813 125.584 -87.013 125.584 C -87.013 125.584 -87.013 125.584 -87.013 125.584 Z M -96.913 133.584 C -94.213 136.484 -90.113 138.984 -85.113 140.884 C -76.913 144.084 -66.113 145.984 -54.313 145.984 C -42.513 145.984 -31.613 144.084 -23.513 140.884 C -18.513 138.884 -14.413 136.484 -11.713 133.584 L -11.713 147.084 C -11.813 147.284 -11.913 147.484 -11.913 147.684 C -12.613 151.484 -17.213 155.684 -24.813 158.684 C -32.413 161.684 -42.913 163.584 -54.413 163.584 C -65.913 163.584 -75.813 161.784 -83.413 158.984 C -91.013 156.084 -95.813 152.084 -96.813 148.384 C -96.813 148.284 -96.813 148.184 -96.913 148.084 L -96.913 133.684 L -96.913 133.584 Z M -87.013 146.284 C -88.113 146.284 -89.113 147.184 -89.113 148.384 C -89.113 149.484 -88.213 150.484 -87.013 150.484 C -85.913 150.484 -84.913 149.584 -84.913 148.384 C -84.913 148.384 -84.913 148.384 -84.913 148.384 C -84.913 147.284 -85.813 146.284 -87.013 146.284 Z M -11.613 154.484 L -11.613 167.484 C -11.613 168.084 -11.613 168.684 -11.813 169.284 C -12.513 171.884 -15.013 174.584 -18.913 176.884 C -18.913 176.884 -19.013 176.884 -19.113 176.884 C -19.313 176.984 -19.513 177.084 -19.713 177.284 C -20.913 177.984 -22.213 178.584 -23.513 179.184 C -26.413 180.384 -29.713 181.484 -33.413 182.284 C -33.413 182.284 -33.513 182.284 -33.613 182.284 C -34.213 182.384 -34.713 182.484 -35.313 182.684 C -35.313 182.684 -35.313 182.684 -35.313 182.684 C -35.913 182.784 -36.513 182.884 -37.113 183.084 C -37.113 183.084 -37.113 183.084 -37.113 183.084 C -37.713 183.184 -38.413 183.284 -39.013 183.384 C -39.013 183.384 -39.013 183.384 -39.113 183.384 C -39.613 183.384 -40.213 183.584 -40.713 183.584 C -40.913 183.584 -41.013 183.584 -41.213 183.584 C -41.813 183.584 -42.413 183.684 -42.913 183.784 C -42.913 183.784 -43.013 183.784 -43.113 183.784 C -43.713 183.784 -44.313 183.884 -44.913 183.984 C -45.013 183.984 -45.113 183.984 -45.213 183.984 C -45.713 183.984 -46.213 183.984 -46.813 184.084 C -47.013 184.084 -47.213 184.084 -47.413 184.084 C -47.913 184.084 -48.513 184.084 -49.013 184.084 C -49.213 184.084 -49.313 184.084 -49.513 184.084 C -51.013 184.084 -52.513 184.084 -54.013 184.084 C -55.513 184.084 -57.013 184.084 -58.413 184.084 C -58.413 184.084 -58.413 184.084 -58.413 184.084 C -59.113 184.084 -59.813 184.084 -60.513 183.984 C -60.713 183.984 -60.913 183.984 -61.113 183.984 C -63.813 183.784 -66.313 183.484 -68.813 183.184 C -69.013 183.184 -69.113 183.184 -69.313 183.184 C -69.813 183.184 -70.313 182.984 -70.813 182.984 C -70.913 182.984 -71.013 182.984 -71.213 182.984 C -71.713 182.984 -72.213 182.784 -72.813 182.684 C -72.913 182.684 -73.113 182.684 -73.213 182.684 C -73.713 182.684 -74.113 182.484 -74.613 182.384 C -74.813 182.384 -75.013 182.384 -75.113 182.284 C -78.713 181.484 -82.013 180.384 -84.813 179.184 C -85.213 178.984 -85.613 178.784 -86.113 178.584 C -86.213 178.584 -86.313 178.584 -86.413 178.484 C -86.713 178.384 -87.013 178.184 -87.313 178.084 C -92.813 175.284 -96.013 171.884 -96.613 168.684 C -96.613 168.284 -96.713 167.884 -96.713 167.484 L -96.713 154.684 C -93.913 157.684 -89.613 160.184 -84.413 162.184 C -76.313 165.284 -65.813 167.084 -54.213 167.084 C -42.613 167.084 -31.513 165.184 -23.413 161.984 C -18.413 159.984 -14.213 157.484 -11.513 154.584 L -11.613 154.484 Z M -87.013 168.084 C -88.113 168.084 -89.113 168.984 -89.113 170.184 C -89.113 171.284 -88.213 172.284 -87.013 172.284 C -85.913 172.284 -84.913 171.384 -84.913 170.184 C -84.913 170.184 -84.913 170.184 -84.913 170.184 C -84.913 169.084 -85.813 168.084 -87.013 168.084 Z" style="fill: rgb(45, 60, 45); fill-rule: evenodd; stroke: rgb(45, 60, 45); stroke-miterlimit: 10; stroke-width: 0.5px;"/>
    <g transform="matrix(1.09353, 0, 0, 1.09353, -2729.459473, -896.111816)" style="">
      <title>Postgres Logo</title>
      <path d="M 2479.379 979.794 C 2479.789 976.367 2479.667 975.865 2482.219 976.42 L 2482.866 976.477 C 2484.829 976.566 2487.385 976.162 2488.904 975.46 C 2492.151 973.954 2494.075 971.439 2490.875 972.1 C 2483.573 973.606 2483.071 971.133 2483.071 971.133 C 2490.781 959.693 2494.004 945.17 2491.222 941.613 C 2483.633 931.916 2470.499 936.503 2470.278 936.621 L 2470.208 936.634 C 2468.764 936.335 2467.151 936.156 2465.337 936.126 C 2462.034 936.072 2459.525 936.992 2457.623 938.435 C 2457.623 938.435 2434.192 928.78 2435.28 950.577 C 2435.513 955.203 2441.927 985.661 2449.576 976.464 C 2452.373 973.101 2455.073 970.257 2455.073 970.257 C 2456.415 971.15 2458.021 971.601 2459.706 971.44 L 2459.835 971.329 C 2459.794 971.747 2459.814 972.156 2459.887 972.639 C 2457.916 974.841 2458.496 975.227 2454.555 976.038 C 2450.569 976.86 2452.911 978.322 2454.44 978.704 C 2456.293 979.167 2460.583 979.823 2463.479 975.767 L 2463.364 976.23 C 2464.138 976.848 2464.085 980.675 2464.194 983.409 C 2464.304 986.142 2464.487 988.694 2465.055 990.199 C 2465.623 991.704 2466.271 995.578 2471.449 994.468 C 2475.777 993.541 2479.085 992.206 2479.388 979.79" fill="#231f20" stroke="#231f20" stroke-width="5.046" style=""/>
      <path d="M 2490.876 972.1 C 2483.573 973.606 2483.071 971.133 2483.071 971.133 C 2490.781 959.692 2494.004 945.168 2491.223 941.613 C 2483.634 931.917 2470.499 936.503 2470.279 936.621 L 2470.208 936.634 C 2468.764 936.335 2467.151 936.156 2465.335 936.126 C 2462.032 936.072 2459.525 936.992 2457.621 938.435 C 2457.621 938.435 2434.187 928.781 2435.276 950.577 C 2435.507 955.203 2441.922 985.661 2449.572 976.465 C 2452.369 973.102 2455.058 970.258 2455.058 970.258 C 2456.4 971.151 2458.006 971.603 2459.691 971.441 L 2459.822 971.33 C 2459.781 971.748 2459.801 972.157 2459.876 972.64 C 2457.905 974.842 2458.484 975.228 2454.544 976.039 C 2450.557 976.861 2452.898 978.323 2454.428 978.705 C 2456.282 979.168 2460.571 979.824 2463.467 975.768 L 2463.352 976.231 C 2464.124 976.849 2464.667 980.254 2464.575 983.34 C 2464.484 986.425 2464.425 988.545 2465.032 990.2 C 2465.64 991.856 2466.248 995.579 2471.427 994.469 C 2475.755 993.542 2477.997 991.138 2478.309 987.13 C 2478.531 984.279 2479.03 984.701 2479.062 982.153 L 2479.465 980.948 C 2479.927 977.086 2479.538 975.838 2482.205 976.419 L 2482.852 976.476 C 2484.815 976.565 2487.382 976.161 2488.891 975.459 C 2492.137 973.953 2494.062 971.438 2490.862 972.098 L 2490.876 972.1 Z" fill="#417ba2" style=""/>
      <g fill="none" class="C B" style="stroke: rgb(255, 255, 255); stroke-width: 1.682px;" transform="matrix(1.075825, 0, 0, 1.075825, 2406.71167, 926.371338)">
        <g class="D" style="stroke-linecap: round;">
          <path d="M53.06 44.562c-.187 6.682.047 13.4.7 15.046s2.054 4.816 6.87 3.785c4.022-.862 5.486-2.53 6.12-6.214.468-2.7 1.37-10.236 1.485-11.778M47.3 11.063s-21.797-8.9-20.783 11.35c.216 4.3 6.178 32.613 13.3 24.064 2.6-3.126 4.95-5.578 4.95-5.578M59.064 9.437c-.755.237 12.125-4.708 19.444 4.644 2.585 3.304-.4 16.804-7.578 27.44" class="E" style="stroke-linejoin: round;"/>
          <path d="M70.93 41.52s.467 2.3 7.255.898c2.974-.614 1.184 1.724-1.832 3.125-2.476 1.15-8.026 1.443-8.117-.144-.234-4.096 2.92-2.852 2.694-3.878-.206-.924-1.617-1.832-2.55-4.094-.815-1.975-11.173-17.12 2.873-14.87.515-.106-3.663-13.36-16.808-13.575s-12.7 16.162-12.7 16.162" stroke-linejoin="bevel"/>
        </g>
        <g class="E" style="stroke-linejoin: round;">
          <path d="M49.383 42.922c-1.832 2.047-1.293 2.406-4.956 3.16-3.705.764-1.528 2.123-.108 2.478 1.723.43 5.71 1.042 8.402-2.73.82-1.148-.005-2.98-1.13-3.448-.544-.225-1.272-.508-2.208.54z"/>
          <path d="M49.262 42.886c-.184-1.203.396-2.635 1.017-4.31.934-2.513 3.09-5.028 1.365-13-1.285-5.942-9.904-1.237-9.91-.43s.4 4.084-.144 7.9c-.697 4.98 3.17 9.194 7.622 8.763" class="D" style="stroke-linecap: round; stroke-linejoin: round;"/>
        </g>
      </g>
      <g fill="#fff" class="C" style="stroke: rgb(255, 255, 255);" transform="matrix(1.075825, 0, 0, 1.075825, 2406.71167, 926.371338)">
        <path d="M47.212 25.023c-.04.275.504 1.01 1.21 1.108s1.31-.475 1.35-.75-.504-.578-1.21-.677-1.312.045-1.35.32z" stroke-width=".561"/>
        <path d="M68.725 24.462c.038.275-.504 1-1.21 1.108s-1.31-.475-1.35-.75.505-.578 1.212-.677 1.31.045 1.35.32z" stroke-width=".28"/>
      </g>
      <path d="M 2483.367 950.641 C 2483.491 952.963 2482.866 954.546 2482.788 957.018 C 2482.669 960.611 2484.501 964.723 2481.744 968.841" fill="none" class="B C D E" style="stroke: rgb(255, 255, 255); stroke-linecap: round; stroke-linejoin: round; stroke-width: 1.682px;"/>
    </g>
  </g>
  <g transform="matrix(0.6382220387458801, 0, 0, 0.6382220387458801, 617.0272827148439, 116.80284118652338)" style="">
    <title>Web UI</title>
    <text style="fill: rgb(45, 60, 45); font-family: Roboto; font-size: 39.3px; font-weight: 300; text-anchor: middle; white-space: pre;" x="270.023" y="114.274">Web UI</text>
    <g transform="matrix(0.418337, 0, 0, 0.418337, -29.942993, -2.700165)" style="">
      <title>Willow Logo</title>
      <svg id="Layer_1" dataname="Layer 1" xmlns="http://www.w3.org/2000/svg" viewBox="427.14453125 344.65234375 798.27734375 876.7677001953125" height="230" width="209.4166717529297" y="127.7099380493164" x="182.99502087402342" preserveAspectRatio="xMinYMin" style="overflow: visible;" transform="matrix(0.262327164412, 0, 0, 0.262327164412, 70.943405151367, 37.298259735107)">
        <path d="M1015.17,915.62A252.7,252.7,0,0,0,850.71,493.37,254.52,254.52,0,0,0,695.94,530l20.5,33.18c80.81-49.92,186.26-40,256.44,24.21a213.76,213.76,0,0,1-94,365.46V992.8A250.79,250.79,0,0,0,1015.17,915.62Z" style="fill: #409935; fill-opacity: 1;"/>
        <path d="M588.18,667.41A252.95,252.95,0,0,0,773.8,991.86V951.73A214,214,0,0,1,625.3,679.37Z" style="fill: #409935; fill-opacity: 1;"/>
        <path d="M794,422.83a322.5,322.5,0,0,0-62.79,629.11A324.71,324.71,0,0,0,773.8,1062v-39.63a286.67,286.67,0,0,1-31-7.71,283.49,283.49,0,1,1,266.09-487.95L1034,496.88A323.5,323.5,0,0,0,794,422.83Z" style="fill: #409935; fill-opacity: 1;"/>
        <path d="M1224.21,713.25A399.11,399.11,0,1,0,773.8,1139.41V1100a359.88,359.88,0,1,1,394-241.93l37,12.4A396.65,396.65,0,0,0,1224.21,713.25Z" style="fill: #409935; fill-opacity: 1;"/>
        <path d="M878.92,1100v39.39a395.56,395.56,0,0,0,130.45-40.87l-17.9-34.65A356.33,356.33,0,0,1,878.92,1100Z" style="fill: #409935; fill-opacity: 1;"/>
        <path d="M1108.51,715.39a283.81,283.81,0,0,1-229.59,307V1062a322.81,322.81,0,0,0,268.39-350.55Z" style="fill: #409935; fill-opacity: 1;"/>
        <polygon points="972.78 768.21 945.25 740.58 845.86 839.62 845.86 588.52 806.86 588.52 806.86 703.54 699.98 619.15 675.81 649.76 806.86 753.24 806.86 1221.42 845.86 1221.42 845.86 894.68 972.78 768.21" style="fill: #7c7955; fill-opacity: 1;"/>
      </svg>
    </g>
    <path d="M 175.299 6.668 L 9.226 6.668 C 4.13 6.668 0 10.798 0 15.894 L 0 157.358 C 0 162.454 4.13 166.585 9.226 166.585 L 175.299 166.585 C 180.395 166.585 184.525 162.454 184.525 157.358 L 184.525 15.894 C 184.525 10.798 180.395 6.668 175.299 6.668 L 175.299 6.668 Z M 9.226 12.816 L 175.299 12.816 C 176.113 12.816 176.899 13.141 177.475 13.717 C 178.052 14.294 178.376 15.08 178.376 15.894 L 178.376 37.425 L 6.148 37.417 L 6.148 15.894 C 6.148 14.193 7.525 12.816 9.226 12.816 L 9.226 12.816 Z M 175.299 160.436 L 9.226 160.436 C 7.525 160.436 6.148 159.059 6.148 157.358 L 6.148 43.573 L 178.376 43.573 L 178.376 157.358 C 178.376 158.173 178.052 158.958 177.475 159.535 C 176.899 160.112 176.113 160.436 175.299 160.436 L 175.299 160.436 Z" style="fill: rgb(45, 60, 45);"/>
    <path d="M 15.375 28.191 L 49.209 28.191 C 50.903 28.191 52.28 26.814 52.28 25.12 C 52.28 23.419 50.903 22.042 49.209 22.042 L 15.375 22.042 C 13.681 22.042 12.304 23.419 12.304 25.12 C 12.304 26.814 13.681 28.191 15.375 28.191 Z" style="fill: rgb(45, 60, 45);"/>
    <path d="M 61.506 28.191 L 64.584 28.191 C 66.285 28.191 67.662 26.814 67.662 25.12 C 67.662 23.419 66.285 22.042 64.584 22.042 L 61.506 22.042 C 59.812 22.042 58.435 23.419 58.435 25.12 C 58.435 26.814 59.812 28.191 61.506 28.191 Z" style="fill: rgb(45, 60, 45);"/>
    <path d="M 76.888 28.191 L 79.966 28.191 L 79.958 28.191 C 81.66 28.191 83.036 26.814 83.036 25.12 C 83.036 23.419 81.66 22.042 79.958 22.042 L 76.888 22.042 C 75.187 22.042 73.81 23.419 73.81 25.12 C 73.81 26.814 75.187 28.191 76.888 28.191 L 76.888 28.191 Z" style="fill: rgb(45, 60, 45);"/>
    <path style="fill: none; stroke: rgb(45, 60, 45); stroke-dasharray: 20;" d="M 158.209 166.585 C 158.209 166.585 129.998 107.614 288.1 436.467"/>
  </g>
  <g transform="matrix(1, 0, 0, 1, 245.44976806640625, 444.52456665039057)">
    <title>Sink Cache</title>
    <text style="fill: rgb(45, 60, 45); font-family: Roboto; font-size: 27.4px; font-weight: 300; text-anchor: middle; white-space: pre;" x="48.752" y="-15.427" transform="matrix(1.31225, 0, 0, 1.31225, 915.404297, -33.674923)">Sink<tspan x="48.75199890136719" dy="1em">​</tspan>Cache</text>
    <g id="cache_not_filled_in" transform="matrix(2.109012, 0, 0, 2.109012, 912.923645, -6.590851)" style="">
      <g>
        <path class="cls-1" d="M1.1,18.3l29.7,14.5c.3.1.6.2.9.2s.6,0,.9-.2l29.7-14.5c.7-.3,1.1-1,1.1-1.8s-.4-1.4-1.1-1.8L32.6.2c-.6-.3-1.2-.3-1.7,0L1.1,14.7C.4,15.1,0,15.8,0,16.5s.4,1.4,1.1,1.8ZM31.7,4.2l25.2,12.3-25.2,12.3L6.5,16.5,31.7,4.2Z" style="fill: rgb(45, 60, 45); stroke-width: 0px;"/>
        <path class="cls-1" d="M60.6,25.9l-28.9,14.1L2.9,25.9c-1-.5-2.2,0-2.7.9-.5,1,0,2.2.9,2.7l29.7,14.5c.3.1.6.2.9.2s.6,0,.9-.2l29.7-14.5c1-.5,1.4-1.7.9-2.7-.5-1-1.7-1.4-2.7-.9Z" style="fill: rgb(45, 60, 45); stroke-width: 0px;"/>
        <path class="cls-1" d="M60.6,37l-28.9,14.1L2.9,37c-1-.5-2.2,0-2.7.9-.5,1,0,2.2.9,2.7l29.7,14.5c.3.1.6.2.9.2s.6,0,.9-.2l29.7-14.5c1-.5,1.4-1.7.9-2.7-.5-1-1.7-1.4-2.7-.9Z" style="fill: rgb(45, 60, 45); stroke-width: 0px;"/>
      </g>
    </g>
  </g>
  <g style="transform-origin: 246.408px 268.026px;" transform="matrix(2.354012012482, 0.65282702446, -0.65282702446, 2.354012012482, 1016.792528304344, 341.246976234819)">
    <title>Arrow</title>
    <line class="cls-1" x1="148.867" y1="236.505" x2="180.66" y2="227.662" style="fill: none; stroke-miterlimit: 10; stroke: rgb(45, 60, 45); transform-box: fill-box; transform-origin: 50% 50%;"/>
    <polygon class="cls-2" points="173.021 232.653 182.721 226.953 171.521 227.053 173.021 232.653" style="stroke-width: 0px; fill: rgb(45, 60, 45); transform-box: fill-box; transform-origin: 50% 50%;"/>
  </g>
</svg>