<?xml version="1.0" encoding="utf-8"?>
<svg viewBox="277.5543 71.6899 380.576 310.9771" xmlns="http://www.w3.org/2000/svg" xmlns:bx="https://boxy-svg.com">
  <defs>
    <style bx:fonts="Roboto">@import url(https://fonts.googleapis.com/css2?family=Roboto%3Aital%2Cwght%400%2C100%3B0%2C300%3B0%2C400%3B0%2C500%3B0%2C700%3B0%2C900%3B1%2C100%3B1%2C300%3B1%2C400%3B1%2C500%3B1%2C700%3B1%2C900&amp;display=swap);</style>
  </defs>
  <path style="fill: rgb(62, 82, 62); fill-opacity: 0.15;" d="M 282.867 71.69 H 653.13 A 5 5 0 0 1 658.13 76.69 V 120.806 H 277.867 V 76.69 A 5 5 0 0 1 282.867 71.69 Z" transform="matrix(1, 0, 0, 1, -1.4210854715202004e-14, 3.552713678800501e-15)" bx:shape="rect 277.867 71.69 380.263 49.116 5 5 0 0 1@68ab2b5c">
    <title>Table Heading</title>
  </path>
  <g transform="matrix(1, 0, 0, 1, 229.98231506347656, 17.949916839599616)">
    <title>Table</title>
    <rect style="fill: none; stroke: rgb(45, 60, 45);" x="47.572" y="53.74" width="380.576" height="310.977" rx="5" ry="5"/>
    <path style="fill: none; stroke: rgb(45, 60, 45);" d="M 142.759 53.74 L 142.716 364.717"/>
    <path style="fill: none; stroke: rgb(45, 60, 45);" d="M 237.903 53.74 L 237.86 364.717"/>
    <path style="fill: none; stroke: rgb(45, 60, 45);" d="M 333.047 53.74 L 333.004 364.717"/>
    <path style="fill: none; stroke: rgb(45, 60, 45);" d="M 47.572 102.576 L 428.096 102.576"/>
    <path style="fill: none; stroke: rgb(45, 60, 45);" d="M 47.624 154.518 L 428.148 154.518"/>
    <path style="fill: none; stroke: rgb(45, 60, 45);" d="M 47.572 206.024 L 428.096 206.024"/>
    <path style="fill: none; stroke: rgb(45, 60, 45);" d="M 47.572 257.53 L 428.096 257.53"/>
    <path style="fill: none; stroke: rgb(45, 60, 45);" d="M 47.572 309.036 L 428.096 309.036"/>
  </g>
  <rect style="fill-opacity: 0.25; fill: none; stroke: rgb(64, 153, 53); stroke-width: 4px;" x="467.352" y="71.69" width="95.363" height="310.977" rx="10" ry="10" transform="matrix(1, 0, 0, 1, -1.4210854715202004e-14, 3.552713678800501e-15)">
    <title>Willow Box</title>
  </rect>
  <g transform="matrix(1, 0, 0, 1, 229.98231506347656, 17.949916839599616)">
    <title>Criteria</title>
    <text style="fill: rgb(45, 60, 45); font-family: Roboto; font-size: 11px; font-weight: 500; white-space: pre;" x="76.309" y="81.363">Criteria</text>
    <text style="fill: rgb(45, 60, 45); font-family: Roboto; font-size: 11px; font-weight: 300; white-space: pre; text-anchor: middle;" x="76.309" y="133.443" transform="matrix(1, 0, 0, 1, 17.246819, -3.913332)">No Vendor<tspan x="76.30899810791016" dy="1em">​</tspan>Lock-in</text>
    <text style="fill: rgb(45, 60, 45); font-family: Roboto; font-size: 11px; font-weight: 300; white-space: pre; text-anchor: middle;" x="76.309" y="133.443" transform="matrix(1, 0, 0, 1, 16.072819, 46.155537)">Easy to<tspan x="76.30899810791016" dy="1em">​</tspan>Configure</text>
    <text style="fill: rgb(45, 60, 45); font-family: Roboto; font-size: 11px; font-weight: 300; white-space: pre; text-anchor: middle;" x="76.309" y="133.443" transform="matrix(1, 0, 0, 1, 18.812332, 98.941673)">Infrastructure<tspan x="76.30899810791016" dy="1em">​</tspan>Control</text>
    <text style="fill: rgb(45, 60, 45); font-family: Roboto; font-size: 11px; font-weight: 300; white-space: pre; text-anchor: middle;" x="95.55" y="343.563">Cost</text>
    <text style="fill: rgb(45, 60, 45); font-family: Roboto; font-size: 11px; font-weight: 300; white-space: pre; text-anchor: middle;" x="76.309" y="133.443" transform="matrix(1, 0, 0, 1, 18.812, 146.464)">Large Number <tspan x="76.30899810791016" dy="1.1em">​</tspan>of Connectors</text>
  </g>
  <text style="fill: rgb(45, 60, 45); font-family: Roboto; font-size: 11px; font-weight: 500; white-space: pre;" x="395.859" y="85.909" transform="matrix(1, 0, 0, 1, -1.4210854715202004e-14, 3.552713678800501e-15)">Enterprise</text>
  <g transform="matrix(0.5174980163574219, 0, 0, 0.5174980163574219, 356.97918701171875, 54.37369537353517)" style="">
    <title>Enterprise</title>
    <g style="" transform="matrix(0.205938, 0, 0, 0.205938, 121.10994, 59.426376)">
      <title>Redis</title>
      <path d="M 283.495 223.45 C 269.833 230.571 199.061 259.67 183.994 267.525 C 168.927 275.381 160.557 275.305 148.654 269.615 C 136.752 263.925 61.438 233.503 47.871 227.018 C 41.091 223.778 37.525 221.042 37.525 218.458 L 37.525 192.582 C 37.525 192.582 135.575 171.237 151.404 165.558 C 167.232 159.879 172.724 159.674 186.194 164.608 C 199.666 169.544 280.212 184.076 293.525 188.952 L 293.519 214.462 C 293.521 217.02 290.449 219.826 283.495 223.45" fill="#912626"/>
      <path d="M 283.49 197.727 C 269.829 204.845 199.059 233.945 183.992 241.799 C 168.926 249.656 160.556 249.579 148.654 243.889 C 136.751 238.203 61.44 207.776 47.874 201.295 C 34.308 194.81 34.024 190.347 47.35 185.129 C 60.676 179.909 135.574 150.524 151.405 144.845 C 167.233 139.168 172.724 138.961 186.194 143.897 C 199.665 148.831 270.013 176.832 283.324 181.707 C 296.64 186.588 297.151 190.607 283.49 197.727" fill="#C6302B"/>
      <path d="M 283.495 181.581 C 269.833 188.703 199.061 217.801 183.994 225.659 C 168.927 233.512 160.557 233.436 148.654 227.746 C 136.751 222.059 61.438 191.634 47.871 185.149 C 41.091 181.909 37.525 179.177 37.525 176.592 L 37.525 150.713 C 37.525 150.713 135.575 129.369 151.404 123.69 C 167.232 118.011 172.724 117.805 186.194 122.74 C 199.667 127.675 280.213 142.204 293.525 147.081 L 293.519 172.594 C 293.521 175.151 290.449 177.957 283.495 181.581" fill="#912626"/>
      <path d="M 283.49 155.858 C 269.829 162.978 199.059 192.076 183.992 199.933 C 168.926 207.787 160.556 207.71 148.654 202.02 C 136.751 196.334 61.44 165.908 47.874 159.426 C 34.308 152.943 34.024 148.479 47.35 143.259 C 60.676 138.042 135.575 108.655 151.405 102.977 C 167.233 97.299 172.724 97.093 186.194 102.028 C 199.665 106.962 270.013 134.961 283.324 139.838 C 296.64 144.718 297.151 148.738 283.49 155.858" fill="#C6302B"/>
      <path d="M 283.495 138.16 C 269.833 145.28 199.061 174.38 183.994 182.238 C 168.927 190.092 160.557 190.015 148.654 184.325 C 136.751 178.638 61.438 148.212 47.871 141.73 C 41.091 138.487 37.525 135.754 37.525 133.172 L 37.525 107.292 C 37.525 107.292 135.575 85.949 151.404 80.271 C 167.232 74.591 172.724 74.387 186.194 79.321 C 199.667 84.256 280.213 98.785 293.525 103.662 L 293.519 129.174 C 293.521 131.729 290.449 134.535 283.495 138.16" fill="#912626"/>
      <path d="M 283.49 112.437 C 269.829 119.557 199.059 148.657 183.992 156.511 C 168.926 164.365 160.556 164.288 148.654 158.601 C 136.752 152.911 61.44 122.487 47.875 116.004 C 34.308 109.522 34.025 105.057 47.35 99.838 C 60.676 94.62 135.575 65.237 151.405 59.557 C 167.233 53.878 172.724 53.674 186.194 58.609 C 199.665 63.544 270.013 91.543 283.324 96.42 C 296.64 101.296 297.151 105.317 283.49 112.437" fill="#C6302B"/>
      <path d="M 196.808 87.264 L 174.798 89.549 L 169.871 101.405 L 161.913 88.175 L 136.498 85.891 L 155.462 79.052 L 149.772 68.554 L 167.527 75.498 L 184.265 70.018 L 179.741 80.873 L 196.808 87.264 M 168.557 144.782 L 127.48 127.745 L 186.34 118.71 L 168.557 144.782 M 111.607 93.854 C 128.982 93.854 143.067 99.314 143.067 106.048 C 143.067 112.784 128.982 118.243 111.607 118.243 C 94.232 118.243 80.147 112.783 80.147 106.048 C 80.147 99.314 94.232 93.854 111.607 93.854" fill="#FFF"/>
      <path d="M 222.82 90.505 L 257.656 104.271 L 222.85 118.024 L 222.82 90.504" fill="#621B1C"/>
      <path d="M 184.28 105.75 L 222.82 90.505 L 222.85 118.024 L 219.071 119.502 L 184.28 105.75" fill="#9A2928"/>
    </g>
    <g transform="matrix(0.950139, 0, 0, 0.950139, 62.949306, 71.725342)" style="">
      <title>Kafka</title>
      <path class="st0" d="M30.8,22.7c1.1-0.1,2.2-0.1,3.3-0.2v-0.8c-1.1-0.1-2.2-0.1-3.3-0.2l-3.3-0.1c-1.9-0.1-3.9-0.1-5.8-0.1 c0-1.9,0-3.9-0.1-5.8l-0.1-3.3c-0.1-1.1-0.1-2.2-0.2-3.3h-0.9c-0.1,1.1-0.1,2.2-0.2,3.3l-0.1,3.3c0,0.9,0,1.8,0,2.7 c-0.4-0.8-0.7-1.7-1.1-2.5l-1.4-3c-0.5-1-0.9-2-1.4-3L15.4,10c0.4,1.1,0.7,2.1,1.1,3.1l1.2,3.1c0.3,0.9,0.7,1.7,1,2.6 c-0.7-0.6-1.3-1.3-2-1.9l-2.4-2.3c-0.8-0.7-1.6-1.5-2.5-2.2l-0.7,0.7c0.7,0.8,1.5,1.6,2.2,2.5l2.3,2.4c0.6,0.7,1.3,1.3,1.9,2 c-0.8-0.3-1.7-0.7-2.6-1l-3.1-1.2c-1-0.4-2.1-0.8-3.1-1.1l-0.4,0.9c1,0.5,2,0.9,3,1.4l3,1.4c0.8,0.4,1.7,0.7,2.5,1.1 c-0.9,0-1.8,0-2.7,0l-3.3,0.1c-1.1,0.1-2.2,0.1-3.3,0.2v0.9c1.1,0.1,2.2,0.1,3.3,0.2l3.3,0.1c2,0.1,3.9,0.1,5.8,0.1 c0,1.9,0,3.9,0.1,5.8l0.1,3.3c0.1,1.1,0.1,2.2,0.2,3.3h0.8c0.1-1.1,0.1-2.2,0.2-3.3l0.1-3.3c0-0.9,0-1.9,0.1-2.8 c0.4,0.9,0.7,1.7,1.1,2.6l1.4,3c0.5,1,0.9,2,1.4,3l0.8-0.3c-0.3-1.1-0.7-2.1-1.1-3.1L24.1,28c-0.3-0.9-0.7-1.7-1-2.6 c0.7,0.7,1.3,1.3,2,1.9l2.4,2.3c0.8,0.7,1.6,1.5,2.5,2.2l0.6-0.6c-0.7-0.8-1.5-1.6-2.2-2.5l-2.3-2.4c-0.6-0.7-1.3-1.4-1.9-2 c0.9,0.3,1.7,0.7,2.6,1l3.1,1.2c1,0.4,2.1,0.8,3.1,1.1l0.3-0.8c-1-0.5-2-1-3-1.4l-3-1.4c-0.9-0.4-1.7-0.8-2.6-1.1 c0.9,0,1.9,0,2.8-0.1C27.5,22.8,30.8,22.7,30.8,22.7z" style="clip-rule: evenodd; fill: rgb(23, 51, 97); fill-rule: evenodd;"/>
      <path class="st0" d="M21.5,43C9.6,43,0,33.4,0,21.5S9.6,0,21.5,0S43,9.6,43,21.5S33.4,43,21.5,43 M21.5,2C10.8,2,2,10.8,2,21.5 S10.8,41,21.5,41S41,32.2,41,21.5S32.2,2,21.5,2" style="clip-rule: evenodd; fill: rgb(23, 51, 97); fill-rule: evenodd;"/>
    </g>
  </g>
  <g transform="matrix(0.24751900136470797, 0, 0, 0.24751900136470797, 446.3238830566407, -17.385053634643555)">
    <title>Willow Name</title>
    <svg xmlns="http://www.w3.org/2000/svg" y="387" viewBox="1.4300000667572021 12.630000114440918 261.7900085449219 44.55999755859375" x="156.80851660156247" height="44.55999755859375" width="261.7900085449219" style="overflow: visible;" transform="matrix(1, 0, 0, 1, 155.378524780273, 374.369995117188)">
      <g fill="#409935" fill-opacity="1" style="">
        <path d="M30.23 13.22L38.42 45.87L45.09 13.22L52.57 13.22L42.56 56.59L35.35 56.59L27.10 24.93L18.68 56.59L11.44 56.59L1.43 13.22L8.91 13.22L15.64 45.81L23.92 13.22L30.23 13.22ZM72.74 13.22L72.74 56.59L65.24 56.59L65.24 13.22L72.74 13.22ZM96.25 13.22L96.25 50.58L115.94 50.58L115.94 56.59L88.72 56.59L88.72 13.22L96.25 13.22ZM135.96 13.22L135.96 50.58L155.65 50.58L155.65 56.59L128.43 56.59L128.43 13.22L135.96 13.22ZM200.84 33.63L200.84 36.04Q200.84 42.41 198.64 47.22Q196.44 52.03 192.34 54.61Q188.25 57.19 182.91 57.19L182.91 57.19Q177.64 57.19 173.52 54.61Q169.39 52.03 167.14 47.27Q164.89 42.50 164.86 36.28L164.86 36.28L164.86 33.84Q164.86 27.49 167.11 22.64Q169.36 17.78 173.46 15.21Q177.55 12.63 182.85 12.63Q188.16 12.63 192.25 15.18Q196.35 17.72 198.58 22.50Q200.82 27.28 200.84 33.63L200.84 33.63ZM193.31 36.04L193.31 33.78Q193.31 26.57 190.58 22.73Q187.86 18.88 182.85 18.88L182.85 18.88Q177.97 18.88 175.21 22.71Q172.46 26.54 172.40 33.54L172.40 33.54L172.40 36.04Q172.40 43.19 175.18 47.09Q177.97 50.99 182.91 50.99L182.91 50.99Q187.92 50.99 190.61 47.18Q193.31 43.37 193.31 36.04L193.31 36.04ZM240.88 13.22L249.08 45.87L255.75 13.22L263.22 13.22L253.22 56.59L246.01 56.59L237.76 24.93L229.33 56.59L222.09 56.59L212.08 13.22L219.56 13.22L226.29 45.81L234.57 13.22L240.88 13.22Z" transform="translate(0, 0)"/>
      </g>
    </svg>
  </g>
  <g transform="matrix(0.11080199480056764, 0, 0, 0.11080199480056764, 484.90841674804693, 77.65830230712892)" style="">
    <title>Willow Logo</title>
    <svg id="Layer_1" dataname="Layer 1" xmlns="http://www.w3.org/2000/svg" viewBox="427.14453125 344.65234375 798.27734375 876.7677001953125" height="230" width="209.4166717529297" y="127.7099380493164" x="182.99502087402342" preserveAspectRatio="xMinYMin" style="overflow: visible;" transform="matrix(0.262327164412, 0, 0, 0.262327164412, 70.943405151367, 37.298259735107)">
      <path d="M1015.17,915.62A252.7,252.7,0,0,0,850.71,493.37,254.52,254.52,0,0,0,695.94,530l20.5,33.18c80.81-49.92,186.26-40,256.44,24.21a213.76,213.76,0,0,1-94,365.46V992.8A250.79,250.79,0,0,0,1015.17,915.62Z" style="fill: #409935; fill-opacity: 1;"/>
      <path d="M588.18,667.41A252.95,252.95,0,0,0,773.8,991.86V951.73A214,214,0,0,1,625.3,679.37Z" style="fill: #409935; fill-opacity: 1;"/>
      <path d="M794,422.83a322.5,322.5,0,0,0-62.79,629.11A324.71,324.71,0,0,0,773.8,1062v-39.63a286.67,286.67,0,0,1-31-7.71,283.49,283.49,0,1,1,266.09-487.95L1034,496.88A323.5,323.5,0,0,0,794,422.83Z" style="fill: #409935; fill-opacity: 1;"/>
      <path d="M1224.21,713.25A399.11,399.11,0,1,0,773.8,1139.41V1100a359.88,359.88,0,1,1,394-241.93l37,12.4A396.65,396.65,0,0,0,1224.21,713.25Z" style="fill: #409935; fill-opacity: 1;"/>
      <path d="M878.92,1100v39.39a395.56,395.56,0,0,0,130.45-40.87l-17.9-34.65A356.33,356.33,0,0,1,878.92,1100Z" style="fill: #409935; fill-opacity: 1;"/>
      <path d="M1108.51,715.39a283.81,283.81,0,0,1-229.59,307V1062a322.81,322.81,0,0,0,268.39-350.55Z" style="fill: #409935; fill-opacity: 1;"/>
      <polygon points="972.78 768.21 945.25 740.58 845.86 839.62 845.86 588.52 806.86 588.52 806.86 703.54 699.98 619.15 675.81 649.76 806.86 753.24 806.86 1221.42 845.86 1221.42 845.86 894.68 972.78 768.21" style="fill: #7c7955; fill-opacity: 1;"/>
    </svg>
  </g>
  <text style="fill: rgb(45, 60, 45); font-family: Roboto; font-size: 11px; font-weight: 500; white-space: pre;" x="601.736" y="85.909" transform="matrix(1, 0, 0, 1, -1.4210854715202004e-14, 3.552713678800501e-15)">DIY</text>
  <g style="" transform="matrix(0.8946099877357484, 0, 0, 0.8946099877357484, 269.5517578125, 29.26178169250489)">
    <title>DIY</title>
    <g transform="matrix(0.328553, 0, 0, 0.328553, 352.21167, 70.663605)" style="">
      <title>Debezium</title>
      <linearGradient id="SVGID_1_" gradientUnits="userSpaceOnUse" x1="9.6501" y1="55.4537" x2="55.733" y2="9.3708" gradientTransform="matrix(1 0 0 -1 0 65.094)">
        <stop offset="0" style="stop-color:#91D443"/>
        <stop offset="1" style="stop-color:#48BFE0"/>
      </linearGradient>
      <path class="st0" d="M45.8,55.9c0,4.5,3.6,8.1,8.1,8.1h10V54c0-4.5-3.6-8.1-8.1-8.1H54c-7.1,0-12.9-5.8-12.9-12.9V31 c0-4.5-3.6-8.1-8.1-8.1H31c-7.1,0-12.9-5.8-12.9-12.9l0,0V8.1C18.2,3.6,14.5,0,10,0H0v10c0,4.5,3.6,8.1,8.1,8.1H10 c7.1,0,12.9,5.8,12.9,12.9v1.9c0,4.5,3.6,8.1,8.1,8.1H33c7.1,0,12.9,5.8,12.9,12.9l0,0V55.9z" style="fill: url('#SVGID_1_');"/>
      <linearGradient id="SVGID_2_" gradientUnits="userSpaceOnUse" x1="21.1064" y1="66.91" x2="67.1893" y2="20.827" gradientTransform="matrix(1 0 0 -1 0 65.094)">
        <stop offset="0" style="stop-color:#91D443"/>
        <stop offset="1" style="stop-color:#48BFE0"/>
      </linearGradient>
      <path class="st1" d="M64,31c0-4.5-3.6-8.1-8.1-8.1H54c-7.1,0-12.9-5.8-12.9-12.9V8.1C41,3.6,37.4,0,32.9,0h-10v10.1 c0.1,4.4,3.7,8,8.1,8H33c7.1,0,12.9,5.8,12.9,12.9l0,0v1.9c0,4.5,3.6,8.1,8.1,8.1H64V31z" style="fill: url('#SVGID_2_');"/>
      <linearGradient id="SVGID_3_" gradientUnits="userSpaceOnUse" x1="32.529" y1="78.3326" x2="78.6119" y2="32.2497" gradientTransform="matrix(1 0 0 -1 0 65.094)">
        <stop offset="0" style="stop-color:#91D443"/>
        <stop offset="1" style="stop-color:#48BFE0"/>
      </linearGradient>
      <path class="st2" d="M64,8.1c0-4.3-3.5-7.9-7.8-8.1H45.7v10.1c0.1,4.4,3.7,8,8.1,8H64V8.1z" style="fill: url('#SVGID_3_');"/>
      <linearGradient id="SVGID_4_" gradientUnits="userSpaceOnUse" x1="-1.8193" y1="43.9892" x2="44.2636" y2="-2.0937" gradientTransform="matrix(1 0 0 -1 0 65.094)">
        <stop offset="0" style="stop-color:#91D443"/>
        <stop offset="1" style="stop-color:#48BFE0"/>
      </linearGradient>
      <path class="st3" d="M0,33c0,4.5,3.6,8.1,8.1,8.1H10c7.1,0,12.9,5.8,12.9,12.9v1.9c0,4.5,3.6,8.1,8.1,8.1h10V53.9 c-0.1-4.4-3.7-8-8.1-8H31c-7.1,0-12.9-5.8-12.9-12.9l0,0v-1.9c0-4.5-3.6-8.1-8.1-8.1H0V33z" style="fill: url('#SVGID_4_');"/>
      <linearGradient id="SVGID_5_" gradientUnits="userSpaceOnUse" x1="-13.2407" y1="32.5678" x2="32.8422" y2="-13.5152" gradientTransform="matrix(1 0 0 -1 0 65.094)">
        <stop offset="0" style="stop-color:#91D443"/>
        <stop offset="1" style="stop-color:#48BFE0"/>
      </linearGradient>
      <path class="st4" d="M0,55.9c0,4.3,3.5,7.9,7.8,8.1h10.5V53.9c-0.1-4.4-3.7-8-8.1-8H0V55.9z" style="fill: url('#SVGID_5_');"/>
    </g>
    <path d="M 397.62 71.028 C 397.09 70.485 396.215 70.485 395.685 71.028 L 395.679 71.028 C 395.422 71.29 395.279 71.645 395.281 72.013 C 395.281 72.4 395.433 72.747 395.68 72.994 L 395.687 73.001 C 395.929 73.251 396.268 73.404 396.649 73.404 C 397.031 73.404 397.374 73.251 397.62 73.001 L 397.623 72.994 C 397.87 72.747 398.021 72.4 398.021 72.013 C 398.021 71.627 397.87 71.279 397.623 71.028 L 397.62 71.028 Z M 396.649 90.079 C 397.031 90.079 397.374 89.921 397.62 89.673 L 397.623 89.667 C 397.87 89.419 398.021 89.07 398.021 88.687 C 398.021 88.3 397.87 87.952 397.623 87.7 L 397.62 87.7 C 397.366 87.438 397.015 87.29 396.649 87.293 C 396.286 87.289 395.937 87.438 395.685 87.7 L 395.679 87.7 C 395.433 87.952 395.28 88.3 395.28 88.687 C 395.28 89.071 395.433 89.419 395.679 89.667 L 395.685 89.673 C 395.929 89.921 396.268 90.079 396.649 90.079 Z M 404.106 85.862 C 404.445 85.772 404.751 85.55 404.939 85.215 L 404.965 85.167 C 405.126 84.856 405.165 84.495 405.073 84.158 C 404.982 83.802 404.752 83.497 404.435 83.311 L 404.415 83.298 C 404.106 83.123 403.739 83.079 403.396 83.174 C 403.056 83.26 402.75 83.49 402.563 83.822 C 402.374 84.151 402.336 84.531 402.426 84.88 C 402.519 85.222 402.737 85.533 403.063 85.727 L 403.065 85.727 C 403.392 85.918 403.762 85.952 404.106 85.862 Z M 398.053 78.924 C 397.684 78.545 397.177 78.332 396.649 78.331 C 396.101 78.331 395.607 78.56 395.249 78.924 C 394.892 79.287 394.67 79.789 394.67 80.348 C 394.67 80.906 394.89 81.41 395.249 81.779 C 396.019 82.562 397.283 82.562 398.053 81.779 C 398.411 81.41 398.632 80.906 398.632 80.348 C 398.632 79.789 398.411 79.287 398.053 78.924 Z M 397.264 76.551 C 398.06 76.685 398.776 77.073 399.322 77.632 L 399.326 77.632 C 399.413 77.72 399.498 77.818 399.577 77.915 L 400.943 77.111 C 400.763 76.557 400.747 75.964 400.898 75.403 C 401.097 74.637 401.592 73.982 402.275 73.582 L 402.298 73.567 C 402.968 73.178 403.767 73.074 404.514 73.278 C 405.242 73.477 405.898 73.959 406.308 74.678 L 406.308 74.681 C 406.715 75.396 406.797 76.217 406.604 76.956 C 406.406 77.723 405.911 78.378 405.228 78.778 L 405.041 78.889 L 405.021 78.889 C 404.389 79.196 403.665 79.263 402.986 79.08 C 402.433 78.927 401.936 78.618 401.555 78.188 L 400.191 78.988 C 400.515 79.867 400.515 80.832 400.191 81.71 L 401.555 82.509 C 401.946 82.065 402.442 81.764 402.986 81.617 C 403.743 81.407 404.553 81.516 405.227 81.919 L 405.272 81.94 L 405.272 81.943 C 405.932 82.348 406.409 82.993 406.602 83.743 C 406.805 84.511 406.699 85.326 406.307 86.016 L 406.283 86.066 L 406.279 86.061 C 405.889 86.725 405.257 87.212 404.515 87.418 C 403.758 87.623 402.951 87.514 402.275 87.119 L 402.275 87.113 C 401.593 86.712 401.098 86.057 400.898 85.292 C 400.748 84.73 400.763 84.138 400.943 83.586 L 399.577 82.784 C 399.498 82.881 399.415 82.973 399.326 83.062 L 399.322 83.067 C 398.768 83.636 398.047 84.013 397.264 84.142 L 397.264 85.748 C 397.825 85.869 398.337 86.152 398.738 86.562 L 398.74 86.567 C 399.274 87.107 399.603 87.859 399.603 88.686 C 399.603 89.511 399.273 90.258 398.74 90.802 L 398.738 90.81 C 398.188 91.372 397.436 91.689 396.649 91.691 C 395.865 91.688 395.114 91.372 394.565 90.811 L 394.563 90.811 L 394.563 90.803 C 394.008 90.239 393.696 89.479 393.697 88.687 C 393.697 87.86 394.028 87.107 394.563 86.567 L 394.563 86.563 L 394.565 86.563 C 394.965 86.154 395.478 85.871 396.037 85.749 L 396.037 84.143 C 395.255 84.014 394.534 83.637 393.981 83.068 L 393.975 83.063 C 393.264 82.338 392.865 81.363 392.866 80.347 C 392.866 79.286 393.293 78.328 393.975 77.632 L 393.981 77.632 C 394.534 77.062 395.255 76.684 396.037 76.551 L 396.037 74.953 C 395.478 74.828 394.966 74.545 394.565 74.136 L 394.563 74.136 L 394.563 74.132 C 394.007 73.567 393.696 72.805 393.697 72.013 C 393.697 71.19 394.028 70.435 394.563 69.893 L 394.565 69.891 C 395.113 69.327 395.864 69.01 396.649 69.009 C 397.463 69.009 398.2 69.345 398.738 69.89 L 398.738 69.892 L 398.74 69.892 C 399.274 70.434 399.603 71.189 399.603 72.011 C 399.603 72.84 399.273 73.587 398.74 74.131 L 398.738 74.136 C 398.336 74.545 397.824 74.829 397.264 74.953 L 397.264 76.551 Z M 404.938 75.485 L 404.927 75.467 C 404.747 75.157 404.452 74.93 404.105 74.835 C 403.753 74.739 403.377 74.788 403.063 74.974 L 403.064 74.974 C 402.736 75.162 402.516 75.473 402.425 75.82 C 402.335 76.165 402.374 76.546 402.562 76.878 L 402.569 76.886 C 402.758 77.214 403.059 77.433 403.395 77.522 C 403.732 77.62 404.109 77.578 404.433 77.386 L 404.451 77.378 C 404.759 77.189 404.981 76.89 405.072 76.541 C 405.167 76.185 405.12 75.806 404.938 75.485" style="">
      <title>Kafka</title>
    </path>
  </g>
  <g transform="matrix(1, 0, 0, 1, 505.18530273437506, 132.1959228515625)">
    <path d="M12 24c-6.617 0-12-5.383-12-12s5.383-12 12-12 12 5.383 12 12-5.383 12-12 12zm0-22c-5.514 0-10 4.486-10 10s4.486 10 10 10 10-4.486 10-10-4.486-10-10-10zM11 17c-.264 0-.519-.104-.707-.293l-4-4c-.391-.391-.391-1.023 0-1.414s1.023-.391 1.414 0l3.185 3.185 5.308-7.078c.331-.44.958-.531 1.399-.2.442.331.532.958.2 1.4l-6 8c-.174.232-.44.377-.729.397l-.07.003z" style="fill: rgb(64, 153, 53);"/>
  </g>
  <g transform="matrix(1, 0, 0, 1, 599.96630859375, 132.1959228515625)">
    <path d="M12 24c-6.617 0-12-5.383-12-12s5.383-12 12-12 12 5.383 12 12-5.383 12-12 12zm0-22c-5.514 0-10 4.486-10 10s4.486 10 10 10 10-4.486 10-10-4.486-10-10-10zM11 17c-.264 0-.519-.104-.707-.293l-4-4c-.391-.391-.391-1.023 0-1.414s1.023-.391 1.414 0l3.185 3.185 5.308-7.078c.331-.44.958-.531 1.399-.2.442.331.532.958.2 1.4l-6 8c-.174.232-.44.377-.729.397l-.07.003z" style="fill: rgb(64, 153, 53);"/>
  </g>
  <g transform="matrix(1, 0, 0, 1, 409.7853088378906, 187.29391479492188)">
    <path d="M12 24c-6.617 0-12-5.383-12-12s5.383-12 12-12 12 5.383 12 12-5.383 12-12 12zm0-22c-5.514 0-10 4.486-10 10s4.486 10 10 10 10-4.486 10-10-4.486-10-10-10zM11 17c-.264 0-.519-.104-.707-.293l-4-4c-.391-.391-.391-1.023 0-1.414s1.023-.391 1.414 0l3.185 3.185 5.308-7.078c.331-.44.958-.531 1.399-.2.442.331.532.958.2 1.4l-6 8c-.174.232-.44.377-.729.397l-.07.003z" style="fill: rgb(64, 153, 53);"/>
  </g>
  <g transform="matrix(1, 0, 0, 1, 505.18530273437506, 240.0799102783203)">
    <path d="M12 24c-6.617 0-12-5.383-12-12s5.383-12 12-12 12 5.383 12 12-5.383 12-12 12zm0-22c-5.514 0-10 4.486-10 10s4.486 10 10 10 10-4.486 10-10-4.486-10-10-10zM11 17c-.264 0-.519-.104-.707-.293l-4-4c-.391-.391-.391-1.023 0-1.414s1.023-.391 1.414 0l3.185 3.185 5.308-7.078c.331-.44.958-.531 1.399-.2.442.331.532.958.2 1.4l-6 8c-.174.232-.44.377-.729.397l-.07.003z" style="fill: rgb(64, 153, 53);"/>
  </g>
  <g transform="matrix(1, 0, 0, 1, 599.96630859375, 240.0799102783203)">
    <path d="M12 24c-6.617 0-12-5.383-12-12s5.383-12 12-12 12 5.383 12 12-5.383 12-12 12zm0-22c-5.514 0-10 4.486-10 10s4.486 10 10 10 10-4.486 10-10-4.486-10-10-10zM11 17c-.264 0-.519-.104-.707-.293l-4-4c-.391-.391-.391-1.023 0-1.414s1.023-.391 1.414 0l3.185 3.185 5.308-7.078c.331-.44.958-.531 1.399-.2.442.331.532.958.2 1.4l-6 8c-.174.232-.44.377-.729.397l-.07.003z" style="fill: rgb(64, 153, 53);"/>
  </g>
  <g transform="matrix(1, 0, 0, 1, 504.38830566406256, 187.29391479492188)">
    <path d="M12 24c-6.617 0-12-5.383-12-12s5.383-12 12-12 12 5.383 12 12-5.383 12-12 12zm0-22c-5.514 0-10 4.486-10 10s4.486 10 10 10 10-4.486 10-10-4.486-10-10-10zM11 17c-.264 0-.519-.104-.707-.293l-4-4c-.391-.391-.391-1.023 0-1.414s1.023-.391 1.414 0l3.185 3.185 5.308-7.078c.331-.44.958-.531 1.399-.2.442.331.532.958.2 1.4l-6 8c-.174.232-.44.377-.729.397l-.07.003z" style="fill: rgb(64, 153, 53);"/>
  </g>
  <g transform="matrix(0.41759699583053594, 0, 0, 0.41759699583053594, 508.11706542968756, 345.6219787597656)" style="">
    <path d="M22,25.843C16.822,25.021 13,21.065 13,16.5C13,11.935 16.822,7.979 22,7.157L22,5C22,3.896 22.896,3 24,3C25.104,3 26,3.896 26,5L26,7.157C31.178,7.979 35,11.935 35,16.5C35,17.604 34.104,18.5 33,18.5C31.896,18.5 31,17.604 31,16.5C31,13.93 28.847,11.888 26,11.227L26,22.157C31.178,22.979 35,26.935 35,31.5C35,36.066 31.178,40.021 26,40.843L26,43C26,44.104 25.104,45 24,45C22.896,45 22,44.104 22,43L22,40.843C16.822,40.021 13,36.066 13,31.5C13,30.396 13.896,29.5 15,29.5C16.104,29.5 17,30.396 17,31.5C17,34.07 19.153,36.112 22,36.773L22,25.843ZM22,11.227C19.153,11.888 17,13.93 17,16.5C17,19.07 19.153,21.112 22,21.773L22,11.227ZM26,36.773C28.847,36.112 31,34.07 31,31.5C31,28.93 28.847,26.888 26,26.227L26,36.773Z" style="fill: rgb(45, 60, 45);"/>
  </g>
  <g transform="matrix(0.41759699583053594, 0, 0, 0.41759699583053594, 595.3248291015625, 345.6219787597656)" style="">
    <path d="M22,25.843C16.822,25.021 13,21.065 13,16.5C13,11.935 16.822,7.979 22,7.157L22,5C22,3.896 22.896,3 24,3C25.104,3 26,3.896 26,5L26,7.157C31.178,7.979 35,11.935 35,16.5C35,17.604 34.104,18.5 33,18.5C31.896,18.5 31,17.604 31,16.5C31,13.93 28.847,11.888 26,11.227L26,22.157C31.178,22.979 35,26.935 35,31.5C35,36.066 31.178,40.021 26,40.843L26,43C26,44.104 25.104,45 24,45C22.896,45 22,44.104 22,43L22,40.843C16.822,40.021 13,36.066 13,31.5C13,30.396 13.896,29.5 15,29.5C16.104,29.5 17,30.396 17,31.5C17,34.07 19.153,36.112 22,36.773L22,25.843ZM22,11.227C19.153,11.888 17,13.93 17,16.5C17,19.07 19.153,21.112 22,21.773L22,11.227ZM26,36.773C28.847,36.112 31,34.07 31,31.5C31,28.93 28.847,26.888 26,26.227L26,36.773Z" style="fill: rgb(45, 60, 45);"/>
  </g>
  <g transform="matrix(0.41759699583053594, 0, 0, 0.41759699583053594, 604.511962890625, 345.6219787597656)" style="">
    <path d="M22,25.843C16.822,25.021 13,21.065 13,16.5C13,11.935 16.822,7.979 22,7.157L22,5C22,3.896 22.896,3 24,3C25.104,3 26,3.896 26,5L26,7.157C31.178,7.979 35,11.935 35,16.5C35,17.604 34.104,18.5 33,18.5C31.896,18.5 31,17.604 31,16.5C31,13.93 28.847,11.888 26,11.227L26,22.157C31.178,22.979 35,26.935 35,31.5C35,36.066 31.178,40.021 26,40.843L26,43C26,44.104 25.104,45 24,45C22.896,45 22,44.104 22,43L22,40.843C16.822,40.021 13,36.066 13,31.5C13,30.396 13.896,29.5 15,29.5C16.104,29.5 17,30.396 17,31.5C17,34.07 19.153,36.112 22,36.773L22,25.843ZM22,11.227C19.153,11.888 17,13.93 17,16.5C17,19.07 19.153,21.112 22,21.773L22,11.227ZM26,36.773C28.847,36.112 31,34.07 31,31.5C31,28.93 28.847,26.888 26,26.227L26,36.773Z" style="fill: rgb(45, 60, 45);"/>
  </g>
  <g transform="matrix(0.41759699583053594, 0, 0, 0.41759699583053594, 401.5823669433594, 345.6219482421875)" style="">
    <path d="M22,25.843C16.822,25.021 13,21.065 13,16.5C13,11.935 16.822,7.979 22,7.157L22,5C22,3.896 22.896,3 24,3C25.104,3 26,3.896 26,5L26,7.157C31.178,7.979 35,11.935 35,16.5C35,17.604 34.104,18.5 33,18.5C31.896,18.5 31,17.604 31,16.5C31,13.93 28.847,11.888 26,11.227L26,22.157C31.178,22.979 35,26.935 35,31.5C35,36.066 31.178,40.021 26,40.843L26,43C26,44.104 25.104,45 24,45C22.896,45 22,44.104 22,43L22,40.843C16.822,40.021 13,36.066 13,31.5C13,30.396 13.896,29.5 15,29.5C16.104,29.5 17,30.396 17,31.5C17,34.07 19.153,36.112 22,36.773L22,25.843ZM22,11.227C19.153,11.888 17,13.93 17,16.5C17,19.07 19.153,21.112 22,21.773L22,11.227ZM26,36.773C28.847,36.112 31,34.07 31,31.5C31,28.93 28.847,26.888 26,26.227L26,36.773Z" style="fill: rgb(45, 60, 45);"/>
  </g>
  <g transform="matrix(0.41759699583053594, 0, 0, 0.41759699583053594, 410.7695007324219, 345.6219482421875)" style="">
    <path d="M22,25.843C16.822,25.021 13,21.065 13,16.5C13,11.935 16.822,7.979 22,7.157L22,5C22,3.896 22.896,3 24,3C25.104,3 26,3.896 26,5L26,7.157C31.178,7.979 35,11.935 35,16.5C35,17.604 34.104,18.5 33,18.5C31.896,18.5 31,17.604 31,16.5C31,13.93 28.847,11.888 26,11.227L26,22.157C31.178,22.979 35,26.935 35,31.5C35,36.066 31.178,40.021 26,40.843L26,43C26,44.104 25.104,45 24,45C22.896,45 22,44.104 22,43L22,40.843C16.822,40.021 13,36.066 13,31.5C13,30.396 13.896,29.5 15,29.5C16.104,29.5 17,30.396 17,31.5C17,34.07 19.153,36.112 22,36.773L22,25.843ZM22,11.227C19.153,11.888 17,13.93 17,16.5C17,19.07 19.153,21.112 22,21.773L22,11.227ZM26,36.773C28.847,36.112 31,34.07 31,31.5C31,28.93 28.847,26.888 26,26.227L26,36.773Z" style="fill: rgb(45, 60, 45);"/>
  </g>
  <g transform="matrix(0.41759699583053594, 0, 0, 0.41759699583053594, 419.9566345214844, 345.6219482421875)" style="">
    <path d="M22,25.843C16.822,25.021 13,21.065 13,16.5C13,11.935 16.822,7.979 22,7.157L22,5C22,3.896 22.896,3 24,3C25.104,3 26,3.896 26,5L26,7.157C31.178,7.979 35,11.935 35,16.5C35,17.604 34.104,18.5 33,18.5C31.896,18.5 31,17.604 31,16.5C31,13.93 28.847,11.888 26,11.227L26,22.157C31.178,22.979 35,26.935 35,31.5C35,36.066 31.178,40.021 26,40.843L26,43C26,44.104 25.104,45 24,45C22.896,45 22,44.104 22,43L22,40.843C16.822,40.021 13,36.066 13,31.5C13,30.396 13.896,29.5 15,29.5C16.104,29.5 17,30.396 17,31.5C17,34.07 19.153,36.112 22,36.773L22,25.843ZM22,11.227C19.153,11.888 17,13.93 17,16.5C17,19.07 19.153,21.112 22,21.773L22,11.227ZM26,36.773C28.847,36.112 31,34.07 31,31.5C31,28.93 28.847,26.888 26,26.227L26,36.773Z" style="fill: rgb(45, 60, 45);"/>
  </g>
  <g transform="matrix(1, 0, 0, 1, 409.7853088378906, 288.9399108886719)">
    <path d="M12 24c-6.617 0-12-5.383-12-12s5.383-12 12-12 12 5.383 12 12-5.383 12-12 12zm0-22c-5.514 0-10 4.486-10 10s4.486 10 10 10 10-4.486 10-10-4.486-10-10-10zM11 17c-.264 0-.519-.104-.707-.293l-4-4c-.391-.391-.391-1.023 0-1.414s1.023-.391 1.414 0l3.185 3.185 5.308-7.078c.331-.44.958-.531 1.399-.2.442.331.532.958.2 1.4l-6 8c-.174.232-.44.377-.729.397l-.07.003z" style="fill: rgb(64, 153, 53);"/>
  </g>
  <g transform="matrix(1, 0, 0, 1, 599.96630859375, 288.9399108886719)">
    <path d="M12 24c-6.617 0-12-5.383-12-12s5.383-12 12-12 12 5.383 12 12-5.383 12-12 12zm0-22c-5.514 0-10 4.486-10 10s4.486 10 10 10 10-4.486 10-10-4.486-10-10-10zM11 17c-.264 0-.519-.104-.707-.293l-4-4c-.391-.391-.391-1.023 0-1.414s1.023-.391 1.414 0l3.185 3.185 5.308-7.078c.331-.44.958-.531 1.399-.2.442.331.532.958.2 1.4l-6 8c-.174.232-.44.377-.729.397l-.07.003z" style="fill: rgb(64, 153, 53);"/>
  </g>
</svg>