<?xml version="1.0" encoding="UTF-8"?><svg id="Layer_1" xmlns="http://www.w3.org/2000/svg" xmlns:xlink="http://www.w3.org/1999/xlink" viewBox="0 0 1920 1557.29"><defs><style>.cls-1{stroke:#3d8d39;stroke-width:8px;}.cls-1,.cls-2{fill:none;}.cls-2{stroke:#283429;}.cls-3{letter-spacing:0em;}.cls-4{fill:url(#linear-gradient);}.cls-4,.cls-5,.cls-6,.cls-7,.cls-8,.cls-9,.cls-10,.cls-11,.cls-12,.cls-13,.cls-14,.cls-15,.cls-16,.cls-17,.cls-18,.cls-19{stroke-width:0px;}.cls-5{fill:#832524;}.cls-6{fill:rgba(55,72,56,.15);}.cls-7{fill:#000;}.cls-8{fill:#561b1b;}.cls-20,.cls-21{font-family:Roboto-Light, Roboto;font-weight:300;}.cls-20,.cls-21,.cls-22{font-size:40.55px;}.cls-20,.cls-21,.cls-22,.cls-19{fill:#283429;}.cls-20,.cls-22{isolation:isolate;}.cls-9{fill:#716e4e;}.cls-10{fill:#8c2726;}.cls-11{fill:url(#linear-gradient-4);}.cls-12{fill:url(#linear-gradient-2);}.cls-13{fill:url(#linear-gradient-3);}.cls-14{fill:url(#linear-gradient-5);}.cls-23{letter-spacing:0em;}.cls-24{letter-spacing:-.02em;}.cls-15{fill:#ba2f2b;}.cls-16{fill:#fff;}.cls-17{fill:#3d8d39;}.cls-22{font-family:Roboto-Medium, Roboto;font-weight:500;}.cls-18{fill:#172d54;fill-rule:evenodd;}</style><linearGradient id="linear-gradient" x1="532.92" y1="-8595.47" x2="743.29" y2="-8385.1" gradientTransform="translate(1237.88 2844.6) scale(.29)" gradientUnits="userSpaceOnUse"><stop offset="0" stop-color="#88cc4d"/><stop offset="1" stop-color="#46b5d7"/></linearGradient><linearGradient id="linear-gradient-2" x1="585.37" y1="-8647.92" x2="795.74" y2="-8437.55" xlink:href="#linear-gradient"/><linearGradient id="linear-gradient-3" x1="637.44" y1="-8699.99" x2="847.81" y2="-8489.62" xlink:href="#linear-gradient"/><linearGradient id="linear-gradient-4" x1="480.41" y1="-8542.98" x2="690.78" y2="-8332.61" xlink:href="#linear-gradient"/><linearGradient id="linear-gradient-5" x1="428.38" y1="-8490.95" x2="638.75" y2="-8280.58" xlink:href="#linear-gradient"/></defs><rect class="cls-16" x="-8.66" y="-11.55" width="1943.67" height="1587"/><path class="cls-6" d="M278.13,234.04h1364.89c10.18,0,18.43,8.25,18.43,18.43v162.62H259.7v-162.62c0-10.18,8.25-18.43,18.43-18.43Z"/><rect class="cls-2" x="258.55" y="234.04" width="1402.91" height="1146.35" rx="18.43" ry="18.43"/><path class="cls-2" d="M609.43,234.04l-.16,1146.35"/><path class="cls-2" d="M960.16,234.04l-.16,1146.35"/><polyline class="cls-2" points="958.19 234.04 1310.89 234.04 1310.73 1380.39"/><path class="cls-2" d="M258.55,414.07h1402.72"/><path class="cls-2" d="M258.74,605.54h1402.72"/><path class="cls-2" d="M258.55,795.4h1402.72"/><path class="cls-2" d="M258.55,985.27h1402.72"/><path class="cls-2" d="M258.55,1175.13h1402.72"/><path class="cls-1" d="M995.06,145.32h277.81c20.36,0,36.86,18.24,36.86,40.73v1185.19c0,22.5-16.5,40.73-36.86,40.73h-277.81c-20.36,0-36.86-18.24-36.86-40.73V186.05c0-22.5,16.5-40.73,36.86-40.73Z"/><text class="cls-22" transform="translate(364.48 335.87)"><tspan x="0" y="0">Criteria</tspan></text><text class="cls-20" transform="translate(336.68 505.01)"><tspan x="0" y="0">No Vendor</tspan></text><text class="cls-21" transform="translate(367.02 545.55)"><tspan x="0" y="0">Lock-in</tspan></text><text class="cls-20" transform="translate(366.02 695.62)"><tspan x="0" y="0">Easy </tspan><tspan class="cls-23" x="94.44" y="0">t</tspan><tspan x="107.07" y="0">o</tspan></text><text class="cls-21" transform="translate(344.32 736.17)"><tspan x="0" y="0">Configure</tspan></text><text class="cls-20" transform="translate(310.26 889.8)"><tspan x="0" y="0">Inf</tspan><tspan class="cls-24" x="46.49" y="0">r</tspan><tspan class="cls-3" x="59.34" y="0">astructure</tspan></text><text class="cls-21" transform="translate(366.22 930.35)"><tspan x="0" y="0">Cont</tspan><tspan class="cls-23" x="84.35" y="0">r</tspan><tspan x="97.59" y="0">ol</tspan></text><text class="cls-20" transform="translate(389.61 1292.32)"><tspan x="0" y="0">Cost</tspan></text><text class="cls-20" transform="translate(298.94 1075.25)"><tspan x="0" y="0">Large Number </tspan></text><text class="cls-21" transform="translate(305.45 1119.85)"><tspan x="0" y="0">of Connec</tspan><tspan class="cls-23" x="181.42" y="0">t</tspan><tspan x="194.05" y="0">ors</tspan></text><text class="cls-22" transform="translate(689.83 282.32)"><tspan x="0" y="0">Enterprise</tspan></text><path class="cls-5" d="M893.1,371.36c-5.37,2.8-33.17,14.23-39.09,17.32-5.92,3.09-9.21,3.06-13.88.82-4.68-2.24-34.26-14.19-39.59-16.73-2.66-1.27-4.06-2.35-4.06-3.36v-10.17s38.52-8.39,44.74-10.62c6.22-2.23,8.38-2.31,13.67-.37,5.29,1.94,36.94,7.65,42.17,9.56v10.02c0,1-1.21,2.11-3.94,3.53"/><path class="cls-15" d="M893.09,361.25c-5.37,2.8-33.17,14.23-39.09,17.31-5.92,3.09-9.21,3.06-13.88.82-4.68-2.23-34.26-14.19-39.59-16.73-5.33-2.55-5.44-4.3-.21-6.35,5.24-2.05,34.66-13.59,40.88-15.83,6.22-2.23,8.38-2.31,13.67-.37,5.29,1.94,32.93,12.94,38.16,14.85,5.23,1.92,5.43,3.5.07,6.29"/><path class="cls-5" d="M893.1,354.91c-5.37,2.8-33.17,14.23-39.09,17.32-5.92,3.09-9.21,3.06-13.88.82-4.68-2.23-34.26-14.19-39.59-16.73-2.66-1.27-4.06-2.35-4.06-3.36v-10.17s38.52-8.39,44.74-10.62c6.22-2.23,8.38-2.31,13.67-.37,5.29,1.94,36.94,7.65,42.17,9.56v10.02c0,1-1.21,2.11-3.94,3.53"/><path class="cls-15" d="M893.09,344.8c-5.37,2.8-33.17,14.23-39.09,17.32-5.92,3.09-9.21,3.06-13.88.82-4.68-2.23-34.26-14.19-39.59-16.73-5.33-2.55-5.44-4.3-.21-6.35,5.24-2.05,34.66-13.59,40.88-15.83,6.22-2.23,8.38-2.31,13.67-.37,5.29,1.94,32.93,12.94,38.16,14.85,5.23,1.92,5.43,3.5.07,6.29"/><path class="cls-5" d="M893.1,337.85c-5.37,2.8-33.17,14.23-39.09,17.32-5.92,3.09-9.21,3.06-13.88.82-4.68-2.23-34.26-14.19-39.59-16.73-2.66-1.27-4.06-2.35-4.06-3.36v-10.17s38.52-8.38,44.74-10.62c6.22-2.23,8.38-2.31,13.67-.37,5.29,1.94,36.94,7.65,42.17,9.56v10.02c0,1-1.21,2.11-3.94,3.53"/><path class="cls-15" d="M893.09,327.75c-5.37,2.8-33.17,14.23-39.09,17.31-5.92,3.09-9.21,3.06-13.88.82-4.68-2.24-34.26-14.19-39.59-16.73-5.33-2.55-5.44-4.3-.21-6.35,5.24-2.05,34.66-13.59,40.88-15.82,6.22-2.23,8.38-2.31,13.67-.37,5.29,1.94,32.93,12.94,38.16,14.85,5.23,1.92,5.43,3.5.07,6.29"/><path class="cls-16" d="M859.04,317.86l-8.65.9-1.94,4.66-3.13-5.2-9.98-.9,7.45-2.69-2.24-4.12,6.98,2.73,6.58-2.15-1.78,4.26,6.7,2.51M847.94,340.45l-16.14-6.69,23.12-3.55-6.99,10.24M825.57,320.44c6.83,0,12.36,2.14,12.36,4.79s-5.53,4.79-12.36,4.79-12.36-2.14-12.36-4.79,5.53-4.79,12.36-4.79"/><path class="cls-8" d="M869.26,319.13l13.69,5.41-13.67,5.4v-10.81"/><path class="cls-10" d="M854.12,325.12l15.14-5.99v10.81s-1.47.58-1.47.58l-13.67-5.4"/><path class="cls-18" d="M727.92,349.59c2.15-.2,4.3-.2,6.45-.39v-1.56c-2.15-.2-4.3-.2-6.45-.39l-6.45-.2c-3.71-.2-7.62-.2-11.34-.2,0-3.71,0-7.62-.2-11.34l-.2-6.45c-.2-2.15-.2-4.3-.39-6.45h-1.76c-.2,2.15-.2,4.3-.39,6.45l-.2,6.45v5.28c-.78-1.56-1.37-3.32-2.15-4.89l-2.74-5.86c-.98-1.95-1.76-3.91-2.74-5.86l-1.56.59c.78,2.15,1.37,4.1,2.15,6.06l2.35,6.06c.59,1.76,1.37,3.32,1.95,5.08-1.37-1.17-2.54-2.54-3.91-3.71l-4.69-4.5c-1.56-1.37-3.13-2.93-4.89-4.3l-1.37,1.37c1.37,1.56,2.93,3.13,4.3,4.89l4.5,4.69c1.17,1.37,2.54,2.54,3.71,3.91-1.56-.59-3.32-1.37-5.08-1.95l-6.06-2.35c-1.95-.78-4.1-1.56-6.06-2.15l-.78,1.76c1.95.98,3.91,1.76,5.86,2.74l5.86,2.74c1.56.78,3.32,1.37,4.89,2.15h-5.28l-6.45.2c-2.15.2-4.3.2-6.45.39v1.76c2.15.2,4.3.2,6.45.39l6.45.2c3.91.2,7.62.2,11.34.2,0,3.71,0,7.62.2,11.34l.2,6.45c.2,2.15.2,4.3.39,6.45h1.56c.2-2.15.2-4.3.39-6.45l.2-6.45c0-1.76,0-3.71.2-5.47.78,1.76,1.37,3.32,2.15,5.08l2.74,5.86c.98,1.95,1.76,3.91,2.74,5.86l1.56-.59c-.59-2.15-1.37-4.1-2.15-6.06l-1.95-6.45c-.59-1.76-1.37-3.32-1.95-5.08,1.37,1.37,2.54,2.54,3.91,3.71l4.69,4.5c1.56,1.37,3.13,2.93,4.89,4.3l1.17-1.17c-1.37-1.56-2.93-3.13-4.3-4.89l-4.5-4.69c-1.17-1.37-2.54-2.74-3.71-3.91,1.76.59,3.32,1.37,5.08,1.95l6.06,2.35c1.95.78,4.1,1.56,6.06,2.15l.59-1.56c-1.95-.98-3.91-1.95-5.86-2.74l-5.86-2.74c-1.76-.78-3.32-1.56-5.08-2.15,1.76,0,3.71,0,5.47-.2,0,0,6.45-.2,6.45-.2Z"/><path class="cls-18" d="M709.74,389.27c-23.26,0-42.03-18.77-42.03-42.03s18.77-42.03,42.03-42.03,42.03,18.77,42.03,42.03-18.77,42.03-42.03,42.03M709.74,309.13c-20.92,0-38.12,17.2-38.12,38.12s17.2,38.12,38.12,38.12,38.12-17.2,38.12-38.12-17.2-38.12-38.12-38.12"/><path class="cls-17" d="M1306.61,169.95c-.42-1.03-8.77-14.7-12.98-17.47s-39.52-7.16-43.73-7.16-261.73.73-261.73.73c0,0-12.17,4.63-15.26,7.55s-12.25,16.44-13.26,21.51-1.45,35.37-1.45,35.37v24.68h352.69l-4.28-65.21Z"/><path class="cls-16" d="M1040.81,172.09l7.47,29.79,6.09-29.79h6.82l-9.13,39.57h-6.58l-7.53-28.89-7.68,28.89h-6.61l-9.13-39.57h6.82l6.14,29.74,7.55-29.74h5.76ZM1079.59,172.09v39.57h-6.84v-39.57h6.84ZM1101.04,172.09v34.09h17.97v5.48h-24.84v-39.57h6.87ZM1137.28,172.09v34.09h17.97v5.48h-24.84v-39.57h6.87ZM1196.47,190.71v2.2c0,3.87-.67,7.28-2.01,10.2-1.34,2.93-3.25,5.17-5.75,6.74-2.49,1.57-5.36,2.35-8.6,2.35h0c-3.21,0-6.06-.78-8.57-2.35-2.51-1.57-4.45-3.8-5.82-6.7-1.37-2.9-2.06-6.24-2.08-10.03h0v-2.23c0-3.86.68-7.27,2.05-10.22,1.37-2.96,3.3-5.22,5.79-6.78,2.49-1.57,5.34-2.35,8.57-2.35s6.09.78,8.58,2.33c2.49,1.55,4.42,3.77,5.78,6.68,1.36,2.91,2.05,6.29,2.06,10.16h0ZM1189.6,192.91v-2.06c0-4.39-.83-7.75-2.49-10.08-1.65-2.34-4.01-3.51-7.05-3.51h0c-2.97,0-5.29,1.16-6.97,3.49-1.67,2.33-2.53,5.62-2.56,9.88h0v2.28c0,4.35.85,7.71,2.54,10.08,1.7,2.37,4.05,3.56,7.05,3.56h0c3.05,0,5.39-1.16,7.03-3.48,1.64-2.32,2.46-5.71,2.46-10.16h0ZM1233.01,172.09l7.48,29.79,6.09-29.79h6.82l-9.12,39.57h-6.58l-7.53-28.89-7.69,28.89h-6.61l-9.13-39.57h6.82l6.14,29.74,7.55-29.74h5.76Z"/><path class="cls-17" d="M1162.25,346.55c14.1-15.42,13.03-39.36-2.39-53.46-6.14-5.61-13.95-9.04-22.23-9.77-8.11-.69-16.24,1.23-23.18,5.49l3.07,4.97c12.1-7.48,27.89-5.99,38.4,3.63,13.04,11.93,13.94,32.18,2.01,45.23-4.3,4.7-9.9,8-16.08,9.5v5.98c7.86-1.57,15.01-5.63,20.41-11.56Z"/><path class="cls-17" d="M1098.3,309.38c-6.42,19.91,4.52,41.26,24.44,47.67,1.11.36,2.23.66,3.36.91v-6.01c-17.1-4.57-27.26-22.13-22.7-39.23.14-.52.29-1.04.46-1.56l-5.56-1.79Z"/><path class="cls-17" d="M1129.13,272.75c-26.54,2.66-45.9,26.33-43.24,52.87,1.94,19.33,15.27,35.63,33.84,41.34,2.09.65,4.22,1.15,6.38,1.51v-5.93c-1.57-.3-3.12-.68-4.64-1.15-22.4-6.93-34.93-30.71-28-53.11,6.93-22.4,30.71-34.93,53.11-28,5.4,1.67,10.41,4.4,14.74,8.04l3.76-4.47c-10-8.39-22.96-12.38-35.94-11.09Z"/><path class="cls-17" d="M1193.55,316.24c-2.52-32.91-31.25-57.55-64.16-55.02-32.91,2.52-57.55,31.25-55.02,64.16,2.16,28.16,23.74,50.97,51.74,54.68v-5.9c-29.44-4.36-49.78-31.76-45.42-61.2,4.36-29.44,31.76-49.78,61.2-45.42,29.44,4.36,49.78,31.76,45.42,61.2-.46,3.12-1.2,6.2-2.2,9.19l5.54,1.86c2.54-7.57,3.53-15.58,2.91-23.54Z"/><path class="cls-17" d="M1141.84,374.16v5.9c6.82-.89,13.43-2.96,19.54-6.12l-2.68-5.19c-5.28,2.73-10.97,4.56-16.85,5.41Z"/><path class="cls-17" d="M1176.22,316.56c2.18,21.92-12.74,41.87-34.38,45.97v5.93c25.14-4.17,42.73-27.14,40.19-52.5l-5.81.59Z"/><polygon class="cls-9" points="1155.9 324.47 1151.78 320.33 1136.89 335.17 1136.89 297.56 1131.05 297.56 1131.05 314.79 1115.05 302.15 1111.43 306.73 1131.05 322.23 1131.05 392.34 1136.89 392.34 1136.89 343.41 1155.9 324.47"/><text class="cls-22" transform="translate(1453.57 282.32)"><tspan x="0" y="0">DIY</tspan></text><path class="cls-4" d="M1443.03,380.22c0,6.04,4.83,10.87,10.87,10.87h13.42v-13.42c0-6.04-4.83-10.87-10.87-10.87h-2.42c-9.53,0-17.31-7.78-17.31-17.31v-2.68c0-6.04-4.83-10.87-10.87-10.87h-2.68c-9.53,0-17.31-7.78-17.31-17.31h0v-2.55c.13-6.04-4.83-10.87-10.87-10.87h-13.42v13.42c0,6.04,4.83,10.87,10.87,10.87h2.55c9.53,0,17.31,7.78,17.31,17.31v2.55c0,6.04,4.83,10.87,10.87,10.87h2.68c9.53,0,17.31,7.78,17.31,17.31h0v2.68h-.13Z"/><path class="cls-12" d="M1467.45,346.81c0-6.04-4.83-10.87-10.87-10.87h-2.55c-9.53,0-17.31-7.78-17.31-17.31v-2.55c-.13-6.04-4.96-10.87-11-10.87h-13.42v13.55c.13,5.9,4.96,10.73,10.87,10.73h2.68c9.53,0,17.31,7.78,17.31,17.31h0v2.55c0,6.04,4.83,10.87,10.87,10.87h13.42v-13.42Z"/><path class="cls-13" d="M1467.45,316.09c0-5.77-4.7-10.6-10.47-10.87h-14.09v13.55c.13,5.9,4.96,10.73,10.87,10.73h13.69v-13.42Z"/><path class="cls-11" d="M1381.58,349.5c0,6.04,4.83,10.87,10.87,10.87h2.55c9.53,0,17.31,7.78,17.31,17.31v2.55c0,6.04,4.83,10.87,10.87,10.87h13.42v-13.55c-.13-5.9-4.96-10.73-10.87-10.73h-2.55c-9.53,0-17.31-7.78-17.31-17.31h0v-2.55c0-6.04-4.83-10.87-10.87-10.87h-13.42v13.42Z"/><path class="cls-14" d="M1381.58,380.22c0,5.77,4.7,10.6,10.47,10.87h14.09v-13.55c-.13-5.9-4.96-10.73-10.87-10.73h-13.69v13.42Z"/><path class="cls-7" d="M1553.81,312.86c-2.01-2.06-5.32-2.06-7.33,0h-.02c-.97.99-1.51,2.34-1.51,3.73,0,1.47.58,2.78,1.51,3.71l.03.03c.92.95,2.2,1.53,3.64,1.53s2.74-.58,3.68-1.53v-.03c.95-.94,1.52-2.25,1.52-3.71s-.57-2.78-1.51-3.73h-.01ZM1550.14,384.99c1.45,0,2.74-.6,3.68-1.54v-.02c.95-.94,1.52-2.26,1.52-3.71s-.57-2.78-1.51-3.74h-.01c-.96-.99-2.29-1.55-3.68-1.54-1.37-.02-2.7.55-3.65,1.54h-.02c-.93.95-1.51,2.27-1.51,3.74s.58,2.77,1.51,3.71l.02.02c.92.94,2.21,1.54,3.65,1.54ZM1578.37,369.02c1.28-.34,2.44-1.18,3.15-2.45l.1-.18c.61-1.18.76-2.54.41-3.82-.34-1.35-1.22-2.5-2.42-3.21l-.08-.05c-1.17-.66-2.56-.83-3.86-.47-1.29.33-2.45,1.2-3.15,2.45-.72,1.25-.86,2.68-.52,4.01.35,1.29,1.18,2.47,2.41,3.21h0c1.24.72,2.64.85,3.94.51ZM1555.45,342.75c-1.4-1.43-3.32-2.24-5.32-2.25-2.07,0-3.94.87-5.3,2.25-1.35,1.37-2.19,3.27-2.19,5.39s.83,4.02,2.19,5.42c2.92,2.96,7.7,2.96,10.62,0,1.36-1.4,2.19-3.31,2.19-5.42s-.84-4.02-2.19-5.39ZM1552.47,333.77c3.01.51,5.72,1.98,7.79,4.09h.02c.33.33.65.7.95,1.07l5.17-3.04c-.68-2.1-.74-4.34-.17-6.47.75-2.9,2.63-5.38,5.21-6.89l.09-.06c2.54-1.47,5.56-1.87,8.39-1.09,2.76.75,5.24,2.58,6.79,5.3h0c1.54,2.72,1.85,5.83,1.12,8.62-.75,2.9-2.62,5.38-5.21,6.9l-.71.42h-.08c-2.39,1.16-5.13,1.42-7.7.72-2.09-.58-3.98-1.75-5.42-3.38l-5.16,3.03c1.23,3.33,1.23,6.98,0,10.31l5.16,3.02c1.48-1.68,3.36-2.82,5.42-3.38,2.87-.8,5.93-.38,8.48,1.14l.17.08h0c2.5,1.54,4.3,3.99,5.04,6.83.77,2.91.37,5.99-1.12,8.61l-.09.19-.02-.02c-1.48,2.51-3.87,4.36-6.68,5.14-2.87.78-5.92.36-8.48-1.13v-.02c-2.58-1.52-4.46-4-5.21-6.89-.57-2.13-.51-4.37.17-6.46l-5.17-3.04c-.3.37-.61.72-.95,1.05l-.02.02c-2.1,2.15-4.83,3.58-7.79,4.07v6.08c2.12.46,4.06,1.53,5.58,3.08v.02c2.03,2.04,3.27,4.89,3.27,8.02s-1.25,5.95-3.27,8.01v.03c-2.09,2.13-4.94,3.33-7.92,3.34-2.97-.01-5.81-1.21-7.89-3.33h0v-.03c-2.1-2.14-3.28-5.01-3.28-8.01,0-3.13,1.25-5.98,3.28-8.03v-.02h0c1.51-1.55,3.46-2.62,5.57-3.08v-6.08c-2.96-.49-5.69-1.92-7.78-4.07l-.02-.02c-2.69-2.74-4.2-6.44-4.2-10.28,0-4.02,1.62-7.64,4.2-10.28h.02c2.09-2.16,4.82-3.59,7.78-4.09v-6.05c-2.12-.47-4.05-1.54-5.57-3.09h0v-.02c-2.1-2.14-3.28-5.02-3.28-8.02,0-3.12,1.25-5.97,3.28-8.03h0c2.07-2.14,4.92-3.34,7.89-3.35,3.08,0,5.87,1.27,7.91,3.34h0s0,0,0,0c2.02,2.05,3.27,4.91,3.27,8.02s-1.25,5.97-3.27,8.03v.02c-1.53,1.55-3.47,2.62-5.59,3.09v6.05ZM1581.52,329.73l-.04-.07c-.68-1.17-1.8-2.03-3.11-2.39-1.33-.36-2.76-.18-3.95.53h0c-1.24.71-2.07,1.89-2.42,3.2-.34,1.31-.19,2.75.52,4.01l.03.03c.72,1.24,1.86,2.07,3.13,2.41,1.28.37,2.7.21,3.93-.51l.07-.03c1.17-.72,2.01-1.85,2.35-3.17.36-1.35.18-2.78-.51-4"/><path class="cls-17" d="M1133.96,557.67c-24.39,0-44.24-19.84-44.24-44.24s19.84-44.24,44.24-44.24,44.24,19.84,44.24,44.24-19.84,44.24-44.24,44.24ZM1133.96,476.57c-20.33,0-36.86,16.54-36.86,36.86s16.54,36.86,36.86,36.86,36.86-16.54,36.86-36.86-16.54-36.86-36.86-36.86ZM1130.27,531.86c-.97,0-1.91-.38-2.61-1.08l-14.75-14.75c-1.44-1.44-1.44-3.77,0-5.21s3.77-1.44,5.21,0l11.74,11.74,19.57-26.09c1.22-1.62,3.53-1.96,5.16-.74,1.63,1.22,1.96,3.53.74,5.16l-22.12,29.49c-.64.86-1.62,1.39-2.69,1.46,0,0-.26.01-.26.01Z"/><path class="cls-17" d="M1484.89,557.67c-24.39,0-44.24-19.84-44.24-44.24s19.84-44.24,44.24-44.24,44.24,19.84,44.24,44.24-19.84,44.24-44.24,44.24ZM1484.89,476.57c-20.33,0-36.86,16.54-36.86,36.86s16.54,36.86,36.86,36.86,36.86-16.54,36.86-36.86-16.54-36.86-36.86-36.86ZM1481.21,531.86c-.97,0-1.91-.38-2.61-1.08l-14.75-14.75c-1.44-1.44-1.44-3.77,0-5.21s3.77-1.44,5.21,0l11.74,11.74,19.57-26.09c1.22-1.62,3.53-1.96,5.16-.74,1.63,1.22,1.96,3.53.74,5.16l-22.12,29.49c-.64.86-1.62,1.39-2.69,1.46,0,0-.26.01-.26.01Z"/><path class="cls-17" d="M782.38,748.28c-24.39,0-44.24-19.84-44.24-44.24s19.84-44.24,44.24-44.24,44.24,19.84,44.24,44.24-19.84,44.24-44.24,44.24ZM782.38,667.19c-20.33,0-36.86,16.54-36.86,36.86s16.54,36.86,36.86,36.86,36.86-16.54,36.86-36.86-16.54-36.86-36.86-36.86ZM778.69,722.48c-.97,0-1.91-.38-2.61-1.08l-14.75-14.75c-1.44-1.44-1.44-3.77,0-5.21s3.77-1.44,5.21,0l11.74,11.74,19.57-26.09c1.22-1.62,3.53-1.96,5.16-.74,1.63,1.22,1.96,3.53.74,5.16l-22.12,29.49c-.64.86-1.62,1.39-2.69,1.46,0,0-.26.01-.26.01Z"/><path class="cls-17" d="M1133.96,942.46c-24.39,0-44.24-19.84-44.24-44.24s19.84-44.24,44.24-44.24,44.24,19.84,44.24,44.24-19.84,44.24-44.24,44.24ZM1133.96,861.36c-20.33,0-36.86,16.54-36.86,36.86s16.54,36.86,36.86,36.86,36.86-16.54,36.86-36.86-16.54-36.86-36.86-36.86ZM1130.27,916.65c-.97,0-1.91-.38-2.61-1.08l-14.75-14.75c-1.44-1.44-1.44-3.77,0-5.21s3.77-1.44,5.21,0l11.74,11.74,19.57-26.09c1.22-1.62,3.53-1.96,5.16-.74,1.63,1.22,1.96,3.53.74,5.16l-22.12,29.49c-.64.86-1.62,1.39-2.69,1.46,0,0-.26.01-.26.01Z"/><path class="cls-17" d="M1484.89,942.46c-24.39,0-44.24-19.84-44.24-44.24s19.84-44.24,44.24-44.24,44.24,19.84,44.24,44.24-19.84,44.24-44.24,44.24ZM1484.89,861.36c-20.33,0-36.86,16.54-36.86,36.86s16.54,36.86,36.86,36.86,36.86-16.54,36.86-36.86-16.54-36.86-36.86-36.86ZM1481.21,916.65c-.97,0-1.91-.38-2.61-1.08l-14.75-14.75c-1.44-1.44-1.44-3.77,0-5.21s3.77-1.44,5.21,0l11.74,11.74,19.57-26.09c1.22-1.62,3.53-1.96,5.16-.74,1.63,1.22,1.96,3.53.74,5.16l-22.12,29.49c-.64.86-1.62,1.39-2.69,1.46,0,0-.26.01-.26.01Z"/><path class="cls-17" d="M1133.96,748.28c-24.39,0-44.24-19.84-44.24-44.24s19.84-44.24,44.24-44.24,44.24,19.84,44.24,44.24-19.84,44.24-44.24,44.24ZM1133.96,667.19c-20.33,0-36.86,16.54-36.86,36.86s16.54,36.86,36.86,36.86,36.86-16.54,36.86-36.86-16.54-36.86-36.86-36.86ZM1130.27,722.48c-.97,0-1.91-.38-2.61-1.08l-14.75-14.75c-1.44-1.44-1.44-3.77,0-5.21s3.77-1.44,5.21,0l11.74,11.74,19.57-26.09c1.22-1.62,3.53-1.96,5.16-.74,1.63,1.22,1.96,3.53.74,5.16l-22.12,29.49c-.64.86-1.62,1.39-2.69,1.46,0,0-.26.01-.26.01Z"/><path class="cls-19" d="M1130.88,1283.31c-7.97-1.27-13.85-7.36-13.85-14.38s5.88-13.12,13.85-14.38v-3.32c0-1.7,1.38-3.08,3.08-3.08s3.08,1.38,3.08,3.08v3.32c7.97,1.27,13.85,7.36,13.85,14.38,0,1.7-1.38,3.08-3.08,3.08s-3.08-1.38-3.08-3.08c0-3.96-3.31-7.1-7.7-8.12v16.83c7.97,1.27,13.85,7.36,13.85,14.38s-5.88,13.12-13.85,14.38v3.32c0,1.7-1.38,3.08-3.08,3.08s-3.08-1.38-3.08-3.08v-3.32c-7.97-1.27-13.85-7.35-13.85-14.38,0-1.7,1.38-3.08,3.08-3.08s3.08,1.38,3.08,3.08c0,3.96,3.31,7.1,7.7,8.12v-16.83ZM1130.88,1260.81c-4.38,1.02-7.7,4.16-7.7,8.12s3.31,7.1,7.7,8.12v-16.23ZM1137.04,1300.13c4.38-1.02,7.7-4.16,7.7-8.12s-3.31-7.1-7.7-8.12v16.23Z"/><path class="cls-19" d="M1462.88,1283.31c-7.97-1.27-13.85-7.36-13.85-14.38s5.88-13.12,13.85-14.38v-3.32c0-1.7,1.38-3.08,3.08-3.08s3.08,1.38,3.08,3.08v3.32c7.97,1.27,13.85,7.36,13.85,14.38,0,1.7-1.38,3.08-3.08,3.08s-3.08-1.38-3.08-3.08c0-3.96-3.31-7.1-7.7-8.12v16.83c7.97,1.27,13.85,7.36,13.85,14.38s-5.88,13.12-13.85,14.38v3.32c0,1.7-1.38,3.08-3.08,3.08s-3.08-1.38-3.08-3.08v-3.32c-7.97-1.27-13.85-7.35-13.85-14.38,0-1.7,1.38-3.08,3.08-3.08s3.08,1.38,3.08,3.08c0,3.96,3.31,7.1,7.7,8.12v-16.83ZM1462.88,1260.81c-4.38,1.02-7.7,4.16-7.7,8.12s3.31,7.1,7.7,8.12v-16.23ZM1469.04,1300.13c4.38-1.02,7.7-4.16,7.7-8.12s-3.31-7.1-7.7-8.12v16.23Z"/><path class="cls-19" d="M1500.75,1283.31c-7.97-1.27-13.85-7.36-13.85-14.38s5.88-13.12,13.85-14.38v-3.32c0-1.7,1.38-3.08,3.08-3.08s3.08,1.38,3.08,3.08v3.32c7.97,1.27,13.85,7.36,13.85,14.38,0,1.7-1.38,3.08-3.08,3.08s-3.08-1.38-3.08-3.08c0-3.96-3.31-7.1-7.7-8.12v16.83c7.97,1.27,13.85,7.36,13.85,14.38s-5.88,13.12-13.85,14.38v3.32c0,1.7-1.38,3.08-3.08,3.08s-3.08-1.38-3.08-3.08v-3.32c-7.97-1.27-13.85-7.35-13.85-14.38,0-1.7,1.38-3.08,3.08-3.08s3.08,1.38,3.08,3.08c0,3.96,3.31,7.1,7.7,8.12v-16.83ZM1500.75,1260.81c-4.38,1.02-7.7,4.16-7.7,8.12s3.31,7.1,7.7,8.12v-16.23ZM1506.9,1300.13c4.38-1.02,7.7-4.16,7.7-8.12s-3.31-7.1-7.7-8.12v16.23Z"/><path class="cls-19" d="M742.43,1283.31c-7.97-1.27-13.85-7.36-13.85-14.38s5.88-13.12,13.85-14.38v-3.32c0-1.7,1.38-3.08,3.08-3.08s3.08,1.38,3.08,3.08v3.32c7.97,1.27,13.85,7.36,13.85,14.38,0,1.7-1.38,3.08-3.08,3.08s-3.08-1.38-3.08-3.08c0-3.96-3.31-7.1-7.7-8.12v16.83c7.97,1.27,13.85,7.36,13.85,14.38s-5.88,13.12-13.85,14.38v3.32c0,1.7-1.38,3.08-3.08,3.08s-3.08-1.38-3.08-3.08v-3.32c-7.97-1.27-13.85-7.35-13.85-14.38,0-1.7,1.38-3.08,3.08-3.08s3.08,1.38,3.08,3.08c0,3.96,3.31,7.1,7.7,8.12v-16.83ZM742.43,1260.81c-4.38,1.02-7.7,4.16-7.7,8.12s3.31,7.1,7.7,8.12v-16.23ZM748.59,1300.13c4.38-1.02,7.7-4.16,7.7-8.12s-3.31-7.1-7.7-8.12v16.23Z"/><path class="cls-19" d="M779.3,1283.31c-7.97-1.27-13.85-7.36-13.85-14.38s5.88-13.12,13.85-14.38v-3.32c0-1.7,1.38-3.08,3.08-3.08s3.08,1.38,3.08,3.08v3.32c7.97,1.27,13.85,7.36,13.85,14.38,0,1.7-1.38,3.08-3.08,3.08s-3.08-1.38-3.08-3.08c0-3.96-3.31-7.1-7.7-8.12v16.83c7.97,1.27,13.85,7.36,13.85,14.38s-5.88,13.12-13.85,14.38v3.32c0,1.7-1.38,3.08-3.08,3.08s-3.08-1.38-3.08-3.08v-3.32c-7.97-1.27-13.85-7.35-13.85-14.38,0-1.7,1.38-3.08,3.08-3.08s3.08,1.38,3.08,3.08c0,3.96,3.31,7.1,7.7,8.12v-16.83ZM779.3,1260.81c-4.38,1.02-7.7,4.16-7.7,8.12s3.31,7.1,7.7,8.12v-16.23ZM785.46,1300.13c4.38-1.02,7.7-4.16,7.7-8.12s-3.31-7.1-7.7-8.12v16.23Z"/><path class="cls-19" d="M816.17,1283.31c-7.97-1.27-13.85-7.36-13.85-14.38s5.88-13.12,13.85-14.38v-3.32c0-1.7,1.38-3.08,3.08-3.08s3.08,1.38,3.08,3.08v3.32c7.97,1.27,13.85,7.36,13.85,14.38,0,1.7-1.38,3.08-3.08,3.08s-3.08-1.38-3.08-3.08c0-3.96-3.31-7.1-7.7-8.12v16.83c7.97,1.27,13.85,7.36,13.85,14.38s-5.88,13.12-13.85,14.38v3.32c0,1.7-1.38,3.08-3.08,3.08s-3.08-1.38-3.08-3.08v-3.32c-7.97-1.27-13.85-7.35-13.85-14.38,0-1.7,1.38-3.08,3.08-3.08s3.08,1.38,3.08,3.08c0,3.96,3.31,7.1,7.7,8.12v-16.83ZM816.17,1260.81c-4.38,1.02-7.7,4.16-7.7,8.12s3.31,7.1,7.7,8.12v-16.23ZM822.32,1300.13c4.38-1.02,7.7-4.16,7.7-8.12s-3.31-7.1-7.7-8.12v16.23Z"/><path class="cls-17" d="M782.38,1129.94c-24.39,0-44.24-19.84-44.24-44.24s19.84-44.24,44.24-44.24,44.24,19.84,44.24,44.24-19.84,44.24-44.24,44.24ZM782.38,1048.84c-20.33,0-36.86,16.54-36.86,36.86s16.54,36.86,36.86,36.86,36.86-16.54,36.86-36.86-16.54-36.86-36.86-36.86ZM778.69,1104.13c-.97,0-1.91-.38-2.61-1.08l-14.75-14.75c-1.44-1.44-1.44-3.77,0-5.21s3.77-1.44,5.21,0l11.74,11.74,19.57-26.09c1.22-1.62,3.53-1.96,5.16-.74,1.63,1.22,1.96,3.53.74,5.16l-22.12,29.49c-.64.86-1.62,1.39-2.69,1.46,0,0-.26.01-.26.01Z"/><path class="cls-17" d="M1484.89,1129.94c-24.39,0-44.24-19.84-44.24-44.24s19.84-44.24,44.24-44.24,44.24,19.84,44.24,44.24-19.84,44.24-44.24,44.24ZM1484.89,1048.84c-20.33,0-36.86,16.54-36.86,36.86s16.54,36.86,36.86,36.86,36.86-16.54,36.86-36.86-16.54-36.86-36.86-36.86ZM1481.21,1104.13c-.97,0-1.91-.38-2.61-1.08l-14.75-14.75c-1.44-1.44-1.44-3.77,0-5.21s3.77-1.44,5.21,0l11.74,11.74,19.57-26.09c1.22-1.62,3.53-1.96,5.16-.74,1.63,1.22,1.96,3.53.74,5.16l-22.12,29.49c-.64.86-1.62,1.39-2.69,1.46,0,0-.26.01-.26.01Z"/><path class="cls-17" d="M960,1379.66h348.78s-5.63,17.32-7.07,17.91-12.09,9.98-13.89,10.82-21.58,3.58-25.69,3.58-273.41-.61-273.41-.61l-10.55-4s-9.11-6.92-12.94-12.55-6.11-15.15-6.11-15.15h.87Z"/></svg>