<?xml version="1.0" encoding="utf-8"?>
<svg viewBox="34.1351 257.767 344.8648 119.2075" xmlns="http://www.w3.org/2000/svg" xmlns:bx="https://boxy-svg.com">
  <defs>
    <style bx:fonts="Roboto">@import url(https://fonts.googleapis.com/css2?family=Roboto%3Aital%2Cwght%400%2C100%3B0%2C300%3B0%2C400%3B0%2C500%3B0%2C700%3B0%2C900%3B1%2C100%3B1%2C300%3B1%2C400%3B1%2C500%3B1%2C700%3B1%2C900&amp;display=swap);</style>
  </defs>
  <g id="g-1" transform="matrix(1, 0, 0, 1, 33.93514633178712, 276.4744873046875)">
    <title>Database</title>
    <text style="fill: rgb(51, 51, 51); font-family: Roboto; font-size: 16px; font-weight: 300; white-space: pre;" x="12.002" y="-3.707">Database</text>
    <path class="cls-1" d="M46.4.2C33.9.2,22.6,2.4,14.3,5.9c-4.2,1.8-7.6,3.9-10,6.3C1.8,14.7.2,17.6.2,20.8v59.9c0,1.1.2,2.2.6,3.3,0,0,0,.1,0,.2,0,0,0,0,0,0,1.8,5.1,7.3,9.1,14.7,12,.6.2,1.3.5,1.9.7,0,0,0,0,0,0,1.1.4,2.2.7,3.4,1.1,0,0,.2,0,.2,0,.5.1,1.1.3,1.6.4,0,0,.1,0,.2,0,.6.1,1.1.3,1.7.4,0,0,0,0,.1,0,1.3.3,2.6.6,3.9.8,0,0,0,0,0,0,.5,0,1.1.2,1.6.3.2,0,.4,0,.6,0,.5,0,1,.1,1.4.2.2,0,.4,0,.6,0,.5,0,1,.1,1.6.2.2,0,.4,0,.5,0,.4,0,.8,0,1.2.1.4,0,.8,0,1.1.1.2,0,.5,0,.7,0,.5,0,.9,0,1.4,0,.5,0,1,0,1.6,0,.2,0,.4,0,.6,0,1.5,0,3,0,4.6,0,2.3,0,4.5,0,6.7-.2,1.1,0,2.1-.2,3.2-.3.4,0,.9,0,1.3-.1.1,0,.3,0,.4,0,.6,0,1.1-.1,1.7-.2.2,0,.3,0,.5,0,.5,0,1.1-.1,1.6-.2.2,0,.3,0,.5,0,.6,0,1.2-.2,1.8-.3,0,0,0,0,0,0,4.9-.9,9.4-2.1,13.2-3.6,8.2-3.2,14-7.7,15.1-13.6h0c.1-.6.2-1.2.2-1.8V20.8c0-.6,0-1.2-.1-1.7,0,0,0-.2,0-.3-.5-2.4-1.8-4.6-3.8-6.6-2.5-2.5-5.9-4.6-10-6.3C70.1,2.4,58.9.3,46.4.2ZM46.4,3.7c12.1,0,23,2.1,30.7,5.4,3.9,1.6,6.9,3.6,8.9,5.6,1.5,1.5,2.4,3.1,2.8,4.6-.9,3.7-5.5,7.7-12.9,10.7-7.6,3-18.1,4.9-29.6,4.9s-21.9-1.9-29.6-4.9c-7.4-2.9-12-6.9-12.9-10.7h0c.4-1.5,1.3-3.1,2.8-4.6,2-2,5.1-4,8.9-5.6,7.7-3.3,18.6-5.4,30.7-5.4ZM3.7,25.8c2.7,2.9,6.8,5.4,11.8,7.3,8.2,3.2,19,5.1,30.8,5.1s22.7-1.9,30.8-5.1c5-2,9.1-4.4,11.8-7.3v13.8c0,0,0,.2-.1.3-.7,3.8-5.3,8-13,11-7.6,3-18.1,4.9-29.6,4.9s-21.9-1.9-29.6-4.9c-7.6-3-12.2-7.1-13-11,0-.1,0-.2-.1-.3v-13.8ZM13.6,38.8c-1.1,0-2.1.9-2.1,2.1,0,1.1.9,2.1,2.1,2.1,1.1,0,2.1-.9,2.1-2.1,0,0,0,0,0,0,0-1.1-.9-2.1-2.1-2.1,0,0,0,0,0,0ZM3.7,46.8c2.7,2.9,6.8,5.4,11.8,7.3,8.2,3.2,19,5.1,30.8,5.1s22.7-1.9,30.8-5.1c5-2,9.1-4.4,11.8-7.3v13.5c-.1.2-.2.4-.2.6-.7,3.8-5.3,8-12.9,11-7.6,3-18.1,4.9-29.6,4.9s-21.4-1.8-29-4.6c-7.6-2.9-12.4-6.9-13.4-10.6,0-.1,0-.2-.1-.3v-14.4ZM13.6,59.5c-1.1,0-2.1.9-2.1,2.1,0,1.1.9,2.1,2.1,2.1,1.1,0,2.1-.9,2.1-2.1,0,0,0,0,0,0,0-1.1-.9-2.1-2.1-2.1h0ZM89,67.7v13c0,.6,0,1.2-.2,1.8-.7,2.6-3.2,5.3-7.1,7.6,0,0-.1,0-.2,0-.2.1-.4.2-.6.4-1.2.7-2.5,1.3-3.8,1.9-2.9,1.2-6.2,2.3-9.9,3.1,0,0-.1,0-.2,0-.6.1-1.1.2-1.7.4,0,0,0,0,0,0-.6.1-1.2.2-1.8.4,0,0,0,0,0,0-.6.1-1.3.2-1.9.3,0,0,0,0-.1,0-.5,0-1.1.2-1.6.2-.2,0-.3,0-.5,0-.6,0-1.2.1-1.7.2,0,0-.1,0-.2,0-.6,0-1.2.1-1.8.2-.1,0-.2,0-.3,0-.5,0-1,0-1.6.1-.2,0-.4,0-.6,0-.5,0-1.1,0-1.6,0-.2,0-.3,0-.5,0-1.5,0-3,0-4.5,0s-3,0-4.4,0c0,0,0,0,0,0-.7,0-1.4,0-2.1-.1-.2,0-.4,0-.6,0-2.7-.2-5.2-.5-7.7-.8-.2,0-.3,0-.5,0-.5,0-1-.2-1.5-.2-.1,0-.2,0-.4,0-.5,0-1-.2-1.6-.3-.1,0-.3,0-.4,0-.5,0-.9-.2-1.4-.3-.2,0-.4,0-.5-.1-3.6-.8-6.9-1.9-9.7-3.1-.4-.2-.8-.4-1.3-.6-.1,0-.2,0-.3-.1-.3-.1-.6-.3-.9-.4-5.5-2.8-8.7-6.2-9.3-9.4h0c0-.4-.1-.8-.1-1.2v-12.8c2.8,3,7.1,5.5,12.3,7.5,8.1,3.1,18.6,4.9,30.2,4.9s22.7-1.9,30.8-5.1c5-2,9.2-4.5,11.9-7.4ZM13.6,81.3c-1.1,0-2.1.9-2.1,2.1,0,1.1.9,2.1,2.1,2.1,1.1,0,2.1-.9,2.1-2.1,0,0,0,0,0,0,0-1.1-.9-2.1-2.1-2.1h0Z" style="fill: rgb(45, 60, 45); fill-rule: evenodd; stroke: rgb(45, 60, 45); stroke-miterlimit: 10; stroke-width: 0.5px;"/>
  </g>
  <g transform="matrix(1.3891780376434326, 0, 0, 1.3891780376434326, 290.0925903320313, 280.6056213378906)" style="">
    <linearGradient id="SVGID_1_" gradientUnits="userSpaceOnUse" x1="9.6501" y1="55.4537" x2="55.733" y2="9.3708" gradientTransform="matrix(1 0 0 -1 0 65.094)">
      <stop offset="0" style="stop-color:#91D443"/>
      <stop offset="1" style="stop-color:#48BFE0"/>
    </linearGradient>
    <text style="fill: rgb(51, 51, 51); font-family: Roboto; font-size: 11.5px; font-weight: 300; white-space: pre;" x="7.169" y="-4.923">Debezium</text>
    <path class="st0" d="M45.8,55.9c0,4.5,3.6,8.1,8.1,8.1h10V54c0-4.5-3.6-8.1-8.1-8.1H54c-7.1,0-12.9-5.8-12.9-12.9V31 c0-4.5-3.6-8.1-8.1-8.1H31c-7.1,0-12.9-5.8-12.9-12.9l0,0V8.1C18.2,3.6,14.5,0,10,0H0v10c0,4.5,3.6,8.1,8.1,8.1H10 c7.1,0,12.9,5.8,12.9,12.9v1.9c0,4.5,3.6,8.1,8.1,8.1H33c7.1,0,12.9,5.8,12.9,12.9l0,0V55.9z" style="fill: url('#SVGID_1_');"/>
    <linearGradient id="SVGID_2_" gradientUnits="userSpaceOnUse" x1="21.1064" y1="66.91" x2="67.1893" y2="20.827" gradientTransform="matrix(1 0 0 -1 0 65.094)">
      <stop offset="0" style="stop-color:#91D443"/>
      <stop offset="1" style="stop-color:#48BFE0"/>
    </linearGradient>
    <path class="st1" d="M64,31c0-4.5-3.6-8.1-8.1-8.1H54c-7.1,0-12.9-5.8-12.9-12.9V8.1C41,3.6,37.4,0,32.9,0h-10v10.1 c0.1,4.4,3.7,8,8.1,8H33c7.1,0,12.9,5.8,12.9,12.9l0,0v1.9c0,4.5,3.6,8.1,8.1,8.1H64V31z" style="fill: url('#SVGID_2_');"/>
    <linearGradient id="SVGID_3_" gradientUnits="userSpaceOnUse" x1="32.529" y1="78.3326" x2="78.6119" y2="32.2497" gradientTransform="matrix(1 0 0 -1 0 65.094)">
      <stop offset="0" style="stop-color:#91D443"/>
      <stop offset="1" style="stop-color:#48BFE0"/>
    </linearGradient>
    <path class="st2" d="M64,8.1c0-4.3-3.5-7.9-7.8-8.1H45.7v10.1c0.1,4.4,3.7,8,8.1,8H64V8.1z" style="fill: url('#SVGID_3_');"/>
    <linearGradient id="SVGID_4_" gradientUnits="userSpaceOnUse" x1="-1.8193" y1="43.9892" x2="44.2636" y2="-2.0937" gradientTransform="matrix(1 0 0 -1 0 65.094)">
      <stop offset="0" style="stop-color:#91D443"/>
      <stop offset="1" style="stop-color:#48BFE0"/>
    </linearGradient>
    <path class="st3" d="M0,33c0,4.5,3.6,8.1,8.1,8.1H10c7.1,0,12.9,5.8,12.9,12.9v1.9c0,4.5,3.6,8.1,8.1,8.1h10V53.9 c-0.1-4.4-3.7-8-8.1-8H31c-7.1,0-12.9-5.8-12.9-12.9l0,0v-1.9c0-4.5-3.6-8.1-8.1-8.1H0V33z" style="fill: url('#SVGID_4_');"/>
    <linearGradient id="SVGID_5_" gradientUnits="userSpaceOnUse" x1="-13.2407" y1="32.5678" x2="32.8422" y2="-13.5152" gradientTransform="matrix(1 0 0 -1 0 65.094)">
      <stop offset="0" style="stop-color:#91D443"/>
      <stop offset="1" style="stop-color:#48BFE0"/>
    </linearGradient>
    <path class="st4" d="M0,55.9c0,4.3,3.5,7.9,7.8,8.1h10.5V53.9c-0.1-4.4-3.7-8-8.1-8H0V55.9z" style="fill: url('#SVGID_5_');"/>
  </g>
  <g style="transform-origin: 171.45px 229.403px;" transform="matrix(0.963632106781, 0.267239004374, -0.267239004374, 0.963632106781, 89.505411669196, 95.268890075149)">
    <title>Arrow</title>
    <polyline class="cls-1" style="fill: none; stroke-miterlimit: 10; stroke: rgb(45, 60, 45); transform-box: fill-box; transform-origin: 50% 50%;" points="62.221 260.605 104.786 248.766 180.66 227.662"/>
    <polygon class="cls-2" points="173.021 232.653 182.721 226.953 171.521 227.053 173.021 232.653" style="stroke-width: 0px; fill: rgb(45, 60, 45); transform-box: fill-box; transform-origin: 50% 50%;"/>
  </g>
</svg>