<?xml version="1.0" encoding="UTF-8"?><svg id="Layer_1" xmlns="http://www.w3.org/2000/svg" xmlns:xlink="http://www.w3.org/1999/xlink" viewBox="0 0 1920 1080"><defs><style>.cls-1{fill-rule:evenodd;stroke-width:.5px;}.cls-1,.cls-2,.cls-3,.cls-4{fill:#2d3c2d;}.cls-1,.cls-5{stroke:#2d3c2d;stroke-miterlimit:10;}.cls-6{fill:url(#linear-gradient);}.cls-6,.cls-2,.cls-7,.cls-8,.cls-9,.cls-10,.cls-11{stroke-width:0px;}.cls-5{fill:none;stroke-width:3px;}.cls-7{fill:url(#linear-gradient-4);}.cls-8{fill:url(#linear-gradient-2);}.cls-9{fill:url(#linear-gradient-3);}.cls-10{fill:url(#linear-gradient-5);}.cls-11{fill:#fff;}.cls-3,.cls-4{font-family:Roboto-Light, Roboto;font-size:65px;font-weight:300;}.cls-4{isolation:isolate;}</style><linearGradient id="linear-gradient" x1="1207.63" y1="940.2" x2="1451.93" y2="1184.5" gradientTransform="translate(-4.82 -708.56) scale(1.12)" gradientUnits="userSpaceOnUse"><stop offset="0" stop-color="#88cc4d"/><stop offset="1" stop-color="#46b5d7"/></linearGradient><linearGradient id="linear-gradient-2" x1="1268.54" y1="879.29" x2="1512.84" y2="1123.59" xlink:href="#linear-gradient"/><linearGradient id="linear-gradient-3" x1="1329.01" y1="818.82" x2="1573.31" y2="1063.12" xlink:href="#linear-gradient"/><linearGradient id="linear-gradient-4" x1="1146.65" y1="1001.16" x2="1390.95" y2="1245.46" xlink:href="#linear-gradient"/><linearGradient id="linear-gradient-5" x1="1086.23" y1="1061.58" x2="1330.53" y2="1305.88" xlink:href="#linear-gradient"/></defs><rect class="cls-11" x="-8.66" y="-3.48" width="1943.67" height="1093.58"/><text class="cls-4" transform="translate(1344.28 790.41)"><tspan x="0" y="0">Debezium</tspan></text><path class="cls-6" d="M1569.19,624.87c0,26.83,21.47,48.3,48.3,48.3h59.63v-59.63c0-26.83-21.47-48.3-48.3-48.3h-10.73c-42.34,0-76.93-34.59-76.93-76.93v-11.93c0-26.83-21.47-48.3-48.3-48.3h-11.93c-42.34,0-76.93-34.59-76.93-76.93h0v-11.33c.6-26.83-21.47-48.3-48.3-48.3h-59.63v59.63c0,26.83,21.47,48.3,48.3,48.3h11.33c42.34,0,76.93,34.59,76.93,76.93v11.33c0,26.83,21.47,48.3,48.3,48.3h11.93c42.34,0,76.93,34.59,76.93,76.93h0v11.93h-.6Z"/><path class="cls-8" d="M1677.72,476.38c0-26.83-21.47-48.3-48.3-48.3h-11.33c-42.34,0-76.93-34.59-76.93-76.93v-11.33c-.6-26.83-22.06-48.3-48.9-48.3h-59.63v60.23c.6,26.24,22.06,47.71,48.3,47.71h11.93c42.34,0,76.93,34.59,76.93,76.93h0v11.33c0,26.83,21.47,48.3,48.3,48.3h59.63v-59.63Z"/><path class="cls-9" d="M1677.72,339.82c0-25.64-20.87-47.11-46.51-48.3h-62.61v60.23c.6,26.24,22.06,47.71,48.3,47.71h60.82v-59.63Z"/><path class="cls-7" d="M1296.07,488.31c0,26.83,21.47,48.3,48.3,48.3h11.33c42.34,0,76.93,34.59,76.93,76.93v11.33c0,26.83,21.47,48.3,48.3,48.3h59.63v-60.23c-.6-26.24-22.06-47.71-48.3-47.71h-11.33c-42.34,0-76.93-34.59-76.93-76.93h0v-11.33c0-26.83-21.47-48.3-48.3-48.3h-59.63v59.63Z"/><path class="cls-10" d="M1296.07,624.87c0,25.64,20.87,47.11,46.51,48.3h62.61v-60.23c-.6-26.24-22.06-47.71-48.3-47.71h-60.82v59.63Z"/><text class="cls-3" transform="translate(301.15 790.41)"><tspan x="0" y="0">Database</tspan></text><g id="database"><path class="cls-1" d="M436.37,291.52c-47.22,0-89.9,7.96-121.33,21.27-15.72,6.65-28.66,14.64-37.98,23.99-9.32,9.35-15.06,20.44-15.06,32.36v226.45c0,4.23.75,8.35,2.09,12.32.07.22.13.44.21.66,0,0,0,.02.01.02,6.71,19.18,27.43,34.22,55.44,45.23,2.37.93,4.82,1.83,7.31,2.7.09.03.18.07.27.1,4.17,1.46,8.5,2.82,12.97,4.1.29.08.58.17.87.26,2,.57,4.03,1.11,6.08,1.65.27.07.54.14.81.21,2.12.54,4.27,1.07,6.45,1.57.18.04.37.09.55.13,4.78,1.09,9.69,2.09,14.72,2.98.12.02.25.04.37.06,2.04.36,4.09.7,6.17,1.03.69.11,1.38.22,2.08.32,1.81.27,3.63.54,5.46.78.8.11,1.6.22,2.4.32,1.96.25,3.95.48,5.94.71.67.07,1.34.15,2.02.22,1.53.16,3.07.32,4.61.46,1.44.13,2.87.27,4.32.39.89.07,1.78.14,2.67.21,1.71.13,3.42.26,5.15.37,1.97.12,3.97.21,5.96.31.72.03,1.43.08,2.16.12,5.68.24,11.43.36,17.26.36,8.63,0,17.1-.27,25.38-.78,4.07-.25,8.07-.59,12.04-.96,1.61-.15,3.22-.29,4.82-.46.55-.06,1.1-.13,1.65-.19,2.15-.24,4.29-.49,6.4-.76.59-.08,1.18-.15,1.77-.23,2.03-.27,4.05-.56,6.04-.86.57-.09,1.14-.18,1.71-.27,2.28-.36,4.53-.73,6.76-1.13,0,0,.02,0,.02,0,18.48-3.29,35.37-7.93,50.03-13.69,30.92-12.15,52.96-29.22,57.07-51.34h-.02c.42-2.26.66-4.56.66-6.89v-226.45c0-2.19-.19-4.35-.57-6.48-.05-.37-.12-.74-.23-1.11-1.86-9.04-6.96-17.44-14.27-24.78-9.32-9.35-22.26-17.34-37.98-23.99-31.44-13.31-74.07-21.27-121.29-21.27ZM436.37,304.68c45.72,0,86.93,7.89,116.14,20.25,14.61,6.18,26.19,13.48,33.81,21.13,5.75,5.78,9.21,11.56,10.56,17.39-3.45,14.18-20.64,29.26-48.7,40.28-28.89,11.35-68.33,18.46-111.82,18.46s-82.92-7.11-111.81-18.46c-28.13-11.05-45.34-26.18-48.72-40.39h0c1.37-5.79,4.83-11.54,10.54-17.27,7.62-7.65,19.21-14.94,33.81-21.13,29.21-12.37,70.45-20.25,116.18-20.25ZM275.16,388.22c10.2,11.1,25.74,20.34,44.6,27.75,30.92,12.15,71.7,19.33,116.62,19.33s85.71-7.18,116.63-19.33c18.82-7.39,34.34-16.61,44.54-27.68v52.13c-.16.36-.29.73-.39,1.11-2.7,14.54-20.07,30.14-48.96,41.49-28.89,11.35-68.33,18.46-111.82,18.46s-82.92-7.11-111.81-18.46c-28.89-11.35-46.26-26.95-48.96-41.49-.1-.43-.25-.86-.44-1.26v-52.04ZM312.63,437.14c-4.3.02-7.79,3.5-7.8,7.79-.01,4.31,3.48,7.82,7.8,7.84,4.33.02,7.85-3.47,7.87-7.79,0-.02,0-.04,0-.05-.02-4.32-3.54-7.8-7.86-7.79,0,0,0,0,0,0ZM275.16,467.49c10.2,11.1,25.74,20.34,44.6,27.75,30.92,12.15,71.7,19.38,116.62,19.38s85.71-7.23,116.63-19.38c18.82-7.39,34.34-16.61,44.54-27.68v51.07c-.42.66-.71,1.39-.87,2.16-2.7,14.54-20.02,30.14-48.91,41.49-28.89,11.35-68.33,18.46-111.82,18.46s-80.85-6.74-109.52-17.58c-28.67-10.84-46.73-25.92-50.71-40.07-.14-.4-.32-.79-.54-1.16v-54.43ZM312.63,515.48c-4.3.02-7.79,3.5-7.8,7.79-.01,4.31,3.48,7.82,7.8,7.84,4.33.02,7.85-3.47,7.87-7.79,0-.02,0-.04,0-.05-.02-4.32-3.54-7.8-7.86-7.79h0ZM597.55,546.38v49.21c0,2.22-.3,4.42-.9,6.62-2.76,9.77-11.99,19.9-26.74,28.81-.19.11-.38.23-.58.35-.75.44-1.5.89-2.27,1.32-4.43,2.49-9.28,4.87-14.54,7.09-10.95,4.64-23.59,8.65-37.53,11.85-.21.05-.42.09-.63.14-2.12.48-4.26.94-6.44,1.39-.11.02-.22.04-.33.06-2.29.46-4.59.9-6.94,1.32-.09.02-.18.03-.27.05-2.37.42-4.78.82-7.21,1.2-.15.02-.31.04-.46.06-1.98.3-3.98.59-6,.86-.6.08-1.2.17-1.81.24-2.17.28-4.37.54-6.58.78-.27.03-.53.06-.8.09-2.28.25-4.59.47-6.91.68-.4.03-.79.08-1.18.12-1.96.17-3.94.31-5.92.45-.82.06-1.62.11-2.44.17-1.99.13-4,.24-6.01.33-.58.03-1.15.06-1.73.09-5.56.24-11.21.36-16.93.36s-11.23-.12-16.73-.36c-.06,0-.12,0-.18,0-2.62-.11-5.22-.26-7.8-.42-.74-.05-1.46-.1-2.2-.15-10.07-.7-19.82-1.78-29.16-3.2-.66-.1-1.31-.2-1.97-.31-1.89-.3-3.76-.61-5.62-.94-.46-.08-.92-.16-1.38-.24-1.99-.36-3.95-.74-5.9-1.13-.49-.1-.99-.19-1.48-.3-1.74-.36-3.46-.73-5.17-1.12-.67-.15-1.33-.3-1.99-.45-13.57-3.16-25.91-7.1-36.61-11.63-1.63-.69-3.21-1.39-4.77-2.11-.38-.18-.78-.36-1.16-.54-1.15-.54-2.27-1.11-3.38-1.67-20.67-10.51-33.05-23.35-35.29-35.42h-.03c-.27-1.48-.41-2.97-.41-4.46v-48.3c10.63,11.36,26.85,20.72,46.59,28.18,30.61,11.57,70.45,18.4,114.19,18.4s85.71-7.23,116.63-19.38c19.09-7.5,34.79-16.85,44.98-28.12ZM312.63,597.88c-4.3.02-7.79,3.5-7.8,7.79-.01,4.31,3.48,7.82,7.8,7.84,4.33.02,7.85-3.47,7.87-7.79,0-.02,0-.04,0-.05-.01-4.32-3.54-7.8-7.86-7.79h0Z"/></g><line class="cls-5" x1="686.59" y1="501.45" x2="1206.83" y2="501.45"/><polygon class="cls-2" points="1200.88 510.17 1233.41 501.45 1200.88 492.74 1200.88 510.17"/></svg>