<?xml version="1.0" encoding="utf-8"?>
<svg viewBox="100 84.4548 262.105 235.2003" xmlns="http://www.w3.org/2000/svg" xmlns:bx="https://boxy-svg.com">
  <defs>
    <style bx:fonts="Roboto">@import url(https://fonts.googleapis.com/css2?family=Roboto%3Aital%2Cwght%400%2C100%3B0%2C300%3B0%2C400%3B0%2C500%3B0%2C700%3B0%2C900%3B1%2C100%3B1%2C300%3B1%2C400%3B1%2C500%3B1%2C700%3B1%2C900&amp;display=swap);</style>
  </defs>
  <path style="fill: rgb(62, 82, 62); fill-opacity: 0.15;" d="M 105 84.455 H 357.104 A 5 5 0 0 1 362.104 89.455 V 123.655 H 100 V 89.455 A 5 5 0 0 1 105 84.455 Z" transform="matrix(1, 0, 0, 1, 0, 8.881784197001252e-16)" bx:shape="rect 100 84.455 262.104 39.2 5 5 0 0 1@801b3d87"/>
  <rect x="100" y="162.075" width="262.104" height="39.98" style="fill: rgb(64, 153, 53); fill-opacity: 0.3;" transform="matrix(1, 0, 0, 1, 0, 8.881784197001252e-16)"/>
  <rect style="stroke: rgb(45, 60, 45); fill: none; transform-origin: 196.801px 177.225px;" x="65.749" y="59.625" width="262.104" height="235.2" rx="5" ry="5" transform="matrix(1, 0.000001, -0.000001, 1, 34.251455465384, 24.829937325331)"/>
  <line style="stroke: rgb(45, 60, 45); fill: none;" x1="100" y1="123.655" x2="362.105" y2="123.655" transform="matrix(1, 0, 0, 1, 0, 8.881784197001252e-16)"/>
  <text style="fill: rgb(51, 51, 51); font-family: Roboto; font-size: 10px; font-weight: 500; text-anchor: middle; white-space: pre;" transform="matrix(1, 0, 0, 1, 86.8137435913086, 23.510555267333984)"><tspan x="82.926" y="77.007">Database </tspan><tspan>Management <tspan x="82.9260025024414" dy="1em">​</tspan>System</tspan></text>
  <text style="fill: rgb(51, 51, 51); font-family: Roboto; font-size: 10px; font-weight: 500; text-anchor: middle; white-space: pre;" x="217.661" y="27.511" transform="matrix(1, 0, 0, 1, 0, 8.881784197001252e-16)"><tspan x="300.587" y="104.518" style="font-size: 10px; word-spacing: 0px;">Log </tspan><tspan style="font-size: 10px; word-spacing: 0px;">Name</tspan></text>
  <line style="stroke: rgb(45, 60, 45); fill: none;" x1="236.897" y1="84.455" x2="236.897" y2="319.655" transform="matrix(1, 0, 0, 1, 0, 8.881784197001252e-16)"/>
  <line style="stroke: rgb(45, 60, 45); fill: none;" x1="100" y1="162.855" x2="362.105" y2="162.855" transform="matrix(1, 0, 0, 1, 0, 8.881784197001252e-16)"/>
  <line style="stroke: rgb(45, 60, 45); fill: none;" x1="100" y1="202.055" x2="362.105" y2="202.055" transform="matrix(1, 0, 0, 1, 0, 8.881784197001252e-16)"/>
  <line style="stroke: rgb(45, 60, 45); fill: none;" x1="100" y1="280.455" x2="362.105" y2="280.455" transform="matrix(1, 0, 0, 1, 0, 8.881784197001252e-16)"/>
  <path d="M 132.09 123.655 L 203.246 123.655 L 203.246 172.975 L 132.09 172.975 L 132.09 123.655 Z" fill="none" style="" transform="matrix(1, 0, 0, 1, 0, 8.881784197001252e-16)"/>
  <path d="M 166.342 151.057 L 164.416 151.057 C 164.347 147.806 164.16 144.749 163.853 141.884 L 163.836 141.884 L 160.903 151.057 L 159.436 151.057 L 156.521 141.884 L 156.504 141.884 C 156.288 144.635 156.152 147.692 156.095 151.057 L 154.339 151.057 C 154.452 146.965 154.737 143.129 155.191 139.548 L 157.579 139.548 L 160.358 148.005 L 160.375 148.005 L 163.171 139.548 L 165.455 139.548 C 165.956 143.742 166.251 147.579 166.342 151.057 M 174.696 142.566 C 173.912 146.822 172.877 149.915 171.593 151.845 C 170.592 153.331 169.496 154.075 168.302 154.075 C 167.984 154.075 167.591 153.979 167.126 153.788 L 167.126 152.762 C 167.353 152.795 167.62 152.813 167.927 152.813 C 168.485 152.813 168.933 152.66 169.275 152.352 C 169.683 151.978 169.888 151.557 169.888 151.091 C 169.888 150.772 169.728 150.119 169.41 149.13 L 167.296 142.565 L 169.189 142.565 L 170.706 147.475 C 171.047 148.59 171.189 149.369 171.132 149.812 C 171.962 147.596 172.542 145.18 172.872 142.565 L 174.696 142.565 L 174.696 142.566 Z" fill="#5d87a1" style="" transform="matrix(1, 0, 0, 1, 0, 8.881784197001252e-16)"/>
  <path d="M 200.339 151.057 L 194.867 151.057 L 194.867 139.548 L 196.708 139.548 L 196.708 149.641 L 200.339 149.641 L 200.339 151.057 Z M 193.434 151.336 L 191.319 150.291 C 191.506 150.137 191.686 149.97 191.847 149.777 C 192.747 148.721 193.195 147.158 193.195 145.089 C 193.195 141.281 191.701 139.377 188.711 139.377 C 187.245 139.377 186.102 139.86 185.284 140.826 C 184.385 141.884 183.937 143.44 183.937 145.499 C 183.937 147.522 184.334 149.006 185.13 149.947 C 185.858 150.8 186.955 151.227 188.422 151.227 C 188.969 151.227 189.471 151.16 189.929 151.025 L 192.683 152.629 L 193.434 151.336 Z M 186.58 148.754 C 186.114 148.005 185.881 146.801 185.881 145.141 C 185.881 142.243 186.761 140.792 188.524 140.792 C 189.445 140.792 190.121 141.139 190.552 141.832 C 191.018 142.582 191.252 143.775 191.252 145.412 C 191.252 148.334 190.371 149.795 188.609 149.795 C 187.688 149.795 187.012 149.45 186.58 148.754 M 183.135 147.867 C 183.135 148.843 182.776 149.644 182.061 150.271 C 181.345 150.896 180.384 151.209 179.181 151.209 C 178.055 151.209 176.964 150.849 175.907 150.134 L 176.402 149.146 C 177.311 149.601 178.134 149.827 178.873 149.827 C 179.567 149.827 180.109 149.673 180.502 149.369 C 180.894 149.063 181.129 148.633 181.129 148.091 C 181.129 147.407 180.652 146.822 179.777 146.333 C 178.97 145.89 177.357 144.964 177.357 144.964 C 176.482 144.326 176.045 143.642 176.045 142.515 C 176.045 141.582 176.371 140.829 177.024 140.256 C 177.679 139.681 178.522 139.394 179.557 139.394 C 180.625 139.394 181.596 139.681 182.471 140.247 L 182.028 141.236 C 181.279 140.918 180.541 140.759 179.812 140.759 C 179.222 140.759 178.767 140.901 178.45 141.186 C 178.13 141.469 177.934 141.832 177.934 142.278 C 177.934 142.958 178.42 143.55 179.319 144.049 C 180.136 144.493 181.79 145.435 181.79 145.435 C 182.687 146.071 183.135 146.749 183.135 147.867" fill="#f8981d" style="" transform="matrix(1, 0, 0, 1, 0, 8.881784197001252e-16)"/>
  <path d="M 148.516 148.315 C 147.31 148.283 146.376 148.406 145.593 148.737 C 145.367 148.827 145.007 148.827 144.976 149.113 C 145.098 149.233 145.112 149.429 145.218 149.596 C 145.398 149.897 145.713 150.302 146.002 150.514 C 146.317 150.755 146.634 150.995 146.966 151.206 C 147.552 151.569 148.216 151.78 148.786 152.141 C 149.12 152.351 149.451 152.623 149.783 152.849 C 149.947 152.969 150.052 153.165 150.264 153.24 L 150.264 153.194 C 150.158 153.059 150.128 152.863 150.024 152.712 L 149.571 152.276 C 149.134 151.689 148.59 151.176 148.004 150.755 C 147.522 150.423 146.467 149.971 146.272 149.415 L 146.241 149.385 C 146.572 149.353 146.966 149.233 147.281 149.141 C 147.793 149.007 148.261 149.037 148.786 148.902 C 149.028 148.841 149.269 148.765 149.511 148.691 L 149.511 148.555 C 149.238 148.283 149.044 147.924 148.757 147.667 C 147.99 147.004 147.145 146.356 146.272 145.814 C 145.804 145.512 145.202 145.317 144.705 145.061 C 144.525 144.97 144.223 144.925 144.117 144.775 C 143.847 144.443 143.695 144.007 143.499 143.615 C 143.064 142.787 142.64 141.868 142.265 140.992 C 141.993 140.405 141.828 139.819 141.497 139.276 C 139.944 136.716 138.258 135.165 135.667 133.643 C 135.11 133.325 134.447 133.191 133.74 133.024 L 132.61 132.965 C 132.368 132.859 132.127 132.572 131.917 132.437 C 131.057 131.895 128.844 130.72 128.211 132.271 C 127.804 133.252 128.813 134.216 129.16 134.713 C 129.417 135.057 129.748 135.45 129.927 135.843 C 130.033 136.098 130.063 136.37 130.169 136.641 C 130.41 137.304 130.636 138.042 130.953 138.66 C 131.118 138.975 131.298 139.307 131.509 139.592 C 131.631 139.758 131.841 139.832 131.887 140.105 C 131.677 140.405 131.66 140.858 131.54 141.234 C 130.998 142.937 131.209 145.044 131.977 146.296 C 132.218 146.673 132.792 147.501 133.559 147.184 C 134.237 146.912 134.087 146.054 134.282 145.301 C 134.327 145.119 134.298 145 134.387 144.881 L 134.387 144.91 C 134.598 145.331 134.81 145.738 135.005 146.16 C 135.472 146.898 136.286 147.666 136.963 148.177 C 137.324 148.449 137.61 148.916 138.063 149.083 L 138.063 149.037 L 138.032 149.037 C 137.941 148.902 137.807 148.841 137.687 148.737 C 137.415 148.465 137.114 148.134 136.904 147.833 C 136.272 146.989 135.713 146.055 135.217 145.091 C 134.975 144.623 134.765 144.112 134.569 143.645 C 134.478 143.464 134.478 143.192 134.327 143.102 C 134.1 143.433 133.77 143.72 133.605 144.125 C 133.318 144.774 133.289 145.572 133.182 146.402 L 133.123 146.431 C 132.643 146.311 132.476 145.814 132.294 145.392 C 131.843 144.322 131.767 142.605 132.158 141.37 C 132.263 141.054 132.717 140.06 132.536 139.759 C 132.445 139.471 132.143 139.307 131.978 139.079 C 131.783 138.794 131.571 138.433 131.436 138.116 C 131.074 137.272 130.892 136.339 130.503 135.496 C 130.321 135.103 130.006 134.697 129.75 134.335 C 129.463 133.929 129.147 133.643 128.92 133.161 C 128.845 132.995 128.74 132.724 128.86 132.543 C 128.89 132.423 128.951 132.377 129.071 132.347 C 129.266 132.182 129.824 132.392 130.02 132.482 C 130.578 132.709 131.045 132.919 131.512 133.235 C 131.722 133.387 131.948 133.673 132.219 133.749 L 132.536 133.749 C 133.017 133.853 133.559 133.777 134.012 133.913 C 134.81 134.17 135.533 134.546 136.181 134.952 C 138.155 136.203 139.782 137.981 140.88 140.105 C 141.06 140.451 141.137 140.768 141.302 141.129 C 141.619 141.867 142.011 142.62 142.325 143.344 C 142.643 144.051 142.944 144.774 143.395 145.362 C 143.621 145.678 144.527 145.844 144.932 146.01 C 145.234 146.144 145.702 146.264 145.972 146.43 C 146.485 146.746 146.995 147.108 147.477 147.456 C 147.716 147.637 148.471 148.012 148.516 148.315 M 133.15 135.224 C 132.942 135.222 132.734 135.248 132.534 135.3 L 132.534 135.33 L 132.563 135.33 C 132.685 135.571 132.895 135.738 133.045 135.948 C 133.167 136.189 133.272 136.429 133.391 136.67 L 133.42 136.64 C 133.632 136.489 133.739 136.249 133.739 135.887 C 133.647 135.781 133.632 135.677 133.557 135.571 C 133.468 135.42 133.272 135.345 133.15 135.224" fill="#5d87a1" style="" transform="matrix(1, 0, 0, 1, 0, 8.881784197001252e-16)"/>
  <path d="M 203.974 151.056 L 204.262 151.056 L 204.262 149.645 L 203.83 149.645 L 203.478 150.608 L 203.095 149.645 L 202.679 149.645 L 202.679 151.056 L 202.951 151.056 L 202.951 149.983 L 202.966 149.983 L 203.367 151.056 L 203.575 151.056 L 203.974 149.983 L 203.974 151.056 Z M 201.653 151.056 L 201.958 151.056 L 201.958 149.884 L 202.357 149.884 L 202.357 149.645 L 201.238 149.645 L 201.238 149.884 L 201.653 149.884 L 201.653 151.056 Z" fill="#f8981d" style="" transform="matrix(1, 0, 0, 1, 0, 8.881784197001252e-16)"/>
  <text style="fill: rgb(51, 51, 51); font-family: Roboto; font-size: 10px; font-weight: 300; text-anchor: middle; white-space: pre;" x="298.877" y="145.914" transform="matrix(1, 0, 0, 1, 0, 8.881784197001252e-16)">Bin Log</text>
  <line style="stroke: rgb(45, 60, 45); fill: none;" x1="100" y1="241.255" x2="362.105" y2="241.255" transform="matrix(1, 0, 0, 1, 0, 8.881784197001252e-16)"/>
  <path d="M 155.627 181.88 L 152.341 181.88 L 152.341 178.033 L 155.812 178.033 C 157.083 178.033 157.719 178.683 157.719 179.985 C 157.719 181.246 157.024 181.88 155.634 181.88 M 158.001 177.996 C 157.55 177.527 156.918 177.292 156.107 177.292 L 151.391 177.323 L 151.391 186.53 L 152.341 186.53 L 152.332 182.613 L 155.841 182.613 C 156.722 182.613 157.416 182.38 157.919 181.91 C 158.424 181.44 158.677 180.791 158.677 179.957 C 158.677 179.124 158.453 178.475 158.001 178.003 L 158.001 177.996 Z M 164.151 184.581 C 164.058 184.888 163.901 185.158 163.7 185.364 C 163.274 185.848 162.627 186.089 161.753 186.089 C 160.965 186.089 160.357 185.852 159.937 185.383 C 159.514 184.913 159.303 184.286 159.303 183.502 C 159.303 183.091 159.358 182.727 159.468 182.412 C 159.579 182.099 159.741 181.822 159.949 181.607 C 160.387 181.144 160.984 180.914 161.753 180.914 C 163.448 180.914 164.297 181.777 164.297 183.498 C 164.297 183.908 164.249 184.271 164.154 184.581 M 164.325 181.184 C 163.746 180.572 162.887 180.265 161.753 180.265 C 160.681 180.265 159.85 180.579 159.268 181.202 C 158.738 181.771 158.476 182.535 158.476 183.497 C 158.476 184.459 158.747 185.223 159.294 185.811 C 159.604 186.131 159.961 186.368 160.345 186.496 C 160.747 186.638 161.214 186.709 161.755 186.709 C 162.883 186.709 163.744 186.405 164.336 185.799 C 164.863 185.247 165.128 184.477 165.128 183.497 C 165.128 182.504 164.861 181.734 164.325 181.181 L 164.325 181.184 Z M 171.512 184.849 C 171.512 186.086 170.556 186.703 168.646 186.703 C 168.06 186.703 167.568 186.662 167.171 186.575 C 166.767 186.491 166.445 186.345 166.196 186.145 C 166.003 185.996 165.843 185.799 165.738 185.554 C 165.618 185.273 165.542 184.957 165.515 184.638 L 166.405 184.625 C 166.405 185.113 166.561 185.471 166.872 185.704 C 167.207 185.98 167.798 186.12 168.647 186.12 C 169.983 186.12 170.65 185.729 170.65 184.945 C 170.65 184.492 170.429 184.178 169.979 184.005 C 169.888 183.974 169.347 183.887 168.359 183.735 L 166.507 183.356 C 165.983 183.112 165.718 182.677 165.718 182.041 C 165.718 181.424 165.954 180.964 166.426 180.658 C 166.66 180.533 166.948 180.438 167.298 180.368 C 167.647 180.298 168.051 180.265 168.511 180.265 C 170.35 180.265 171.265 180.933 171.265 182.274 L 170.416 182.274 C 170.416 181.332 169.772 180.863 168.476 180.863 C 167.818 180.863 167.327 180.956 167.003 181.148 C 166.681 181.337 166.52 181.632 166.52 182.027 C 166.52 182.388 166.731 182.663 167.175 182.827 C 167.428 182.912 168.015 183.012 168.935 183.123 C 169.758 183.208 170.32 183.331 170.629 183.485 C 171.213 183.751 171.504 184.198 171.504 184.83 L 171.512 184.849 Z M 175.005 186.524 L 174.641 186.585 L 174.418 186.605 C 173.836 186.605 173.418 186.505 173.162 186.312 C 172.906 186.115 172.78 185.773 172.78 185.285 L 172.78 181.088 L 171.724 181.088 L 171.724 180.471 L 172.77 180.471 L 172.78 178.488 L 173.592 178.488 L 173.592 180.471 L 175.002 180.471 L 175.002 181.099 L 173.592 181.088 L 173.592 185.177 C 173.592 185.477 173.661 185.688 173.798 185.804 C 173.939 185.919 174.188 185.978 174.544 185.978 C 174.595 185.984 174.653 185.98 174.714 185.97 C 174.775 185.961 174.869 185.935 174.994 185.894 L 175.002 186.528 L 175.005 186.524 Z M 180.612 185.132 C 180.383 185.349 180.127 185.511 179.855 185.617 C 179.57 185.729 179.244 185.784 178.876 185.784 C 177.181 185.784 176.333 184.973 176.333 183.348 C 176.333 182.591 176.549 181.997 176.983 181.573 C 177.42 181.144 178.026 180.939 178.815 180.939 C 179.608 180.939 180.213 181.156 180.623 181.586 C 181.033 182.015 181.239 182.594 181.239 183.319 C 181.239 184.107 181.03 184.716 180.609 185.143 M 182.048 180.488 L 181.241 180.488 L 181.233 181.527 C 180.875 181.101 180.618 180.836 180.467 180.727 C 180.013 180.437 179.426 180.292 178.707 180.292 C 177.65 180.292 176.844 180.561 176.289 181.13 C 175.761 181.644 175.496 182.388 175.496 183.361 C 175.496 183.842 175.563 184.273 175.699 184.651 C 175.831 185.028 176.031 185.357 176.282 185.613 C 176.846 186.153 177.625 186.422 178.643 186.422 C 179.861 186.422 180.729 186.035 181.241 185.248 L 181.241 186.333 C 181.241 187.019 181.056 187.547 180.677 187.922 C 180.298 188.298 179.695 188.49 178.843 188.49 C 178.042 188.49 177.472 188.357 177.131 188.101 C 176.876 187.906 176.709 187.563 176.604 187.08 L 175.771 187.08 C 175.861 187.756 176.108 188.25 176.51 188.55 C 176.976 188.901 177.763 189.075 178.869 189.075 C 180.985 189.075 182.045 188.16 182.045 186.333 L 182.045 180.466 L 182.048 180.488 Z M 186.435 181.097 C 186.211 181.053 185.982 181.03 185.756 181.028 C 184.422 181.028 183.757 181.876 183.757 183.572 L 183.757 186.521 L 182.957 186.521 L 182.948 180.488 L 183.757 180.495 L 183.757 181.573 L 183.8 181.573 C 183.925 181.167 184.152 180.824 184.447 180.607 C 184.769 180.396 185.25 180.291 185.894 180.291 L 186.437 180.291 L 186.437 181.097 L 186.435 181.097 Z M 187.189 183.112 C 187.29 182.425 187.52 181.895 187.879 181.52 C 188.11 181.304 188.375 181.138 188.668 181.03 C 188.962 180.919 189.293 180.865 189.655 180.865 C 190.375 180.865 190.964 181.097 191.419 181.554 C 191.874 182.014 192.103 182.535 192.103 183.113 L 187.179 183.113 M 192.184 181.25 C 191.899 180.919 191.548 180.675 191.127 180.517 C 190.706 180.362 190.21 180.279 189.654 180.279 C 188.597 180.279 187.789 180.565 187.21 181.13 C 186.631 181.697 186.343 182.47 186.343 183.444 C 186.343 184.418 186.622 185.191 187.177 185.767 C 187.779 186.4 188.628 186.716 189.723 186.716 C 190.159 186.716 190.561 186.657 190.936 186.534 C 191.309 186.41 191.632 186.255 191.909 186.047 C 192.397 185.639 192.706 185.138 192.838 184.541 L 191.96 184.541 C 191.66 185.575 190.911 186.089 189.714 186.089 C 188.871 186.089 188.219 185.836 187.766 185.33 C 187.375 184.899 187.182 184.339 187.182 183.65 L 192.967 183.65 C 192.967 182.624 192.709 181.822 192.19 181.241 L 192.184 181.25 Z" fill="#231f20" style="" transform="matrix(1, 0, 0, 1, 0, 8.881784197001252e-16)"/>
  <path d="M 201.532 184.048 C 201.532 185.838 200.287 186.735 197.797 186.735 C 196.304 186.735 195.217 186.425 194.529 185.811 C 193.968 185.3 193.688 184.527 193.688 183.485 L 194.689 183.485 C 194.689 185.161 195.723 185.998 197.794 185.998 C 198.79 185.998 199.506 185.816 199.952 185.484 C 200.325 185.182 200.513 184.705 200.513 184.06 C 200.513 183.421 200.255 182.975 199.746 182.719 C 199.463 182.58 198.75 182.407 197.626 182.196 C 196.213 181.944 195.296 181.694 194.876 181.446 C 194.271 181.075 193.959 180.452 193.959 179.567 C 193.959 178.757 194.218 178.124 194.734 177.733 C 195.29 177.292 196.244 177.071 197.594 177.071 C 200.036 177.071 201.255 178.013 201.255 179.894 L 200.244 179.894 C 200.244 178.484 199.337 177.779 197.526 177.779 C 196.618 177.779 195.953 177.924 195.532 178.203 C 195.133 178.509 194.936 178.953 194.936 179.54 C 194.936 180.155 195.192 180.584 195.701 180.835 C 195.973 180.979 196.774 181.177 198.102 181.437 C 199.35 181.655 200.193 181.907 200.63 182.197 C 201.227 182.553 201.525 183.169 201.525 184.048 L 201.532 184.048 Z M 209.674 184.961 C 209.291 185.315 208.862 185.582 208.406 185.747 C 207.935 185.92 207.405 186.015 206.819 186.015 C 205.621 186.015 204.663 185.642 203.927 184.899 C 203.194 184.151 202.833 183.145 202.833 181.902 C 202.833 180.607 203.197 179.599 203.926 178.875 C 204.654 178.149 205.622 177.788 206.827 177.788 C 208.047 177.788 209.009 178.17 209.706 178.924 C 210.056 179.265 210.337 179.709 210.523 180.215 C 210.708 180.708 210.788 181.272 210.788 181.905 C 210.788 183.195 210.42 184.215 209.68 184.961 M 210.215 185.575 C 210.736 185.143 211.122 184.625 211.374 184.02 C 211.624 183.41 211.748 182.708 211.748 181.91 C 211.748 180.483 211.339 179.336 210.522 178.475 C 210.084 177.999 209.556 177.649 208.938 177.419 C 208.321 177.187 207.611 177.073 206.819 177.073 C 205.275 177.073 204.063 177.507 203.184 178.374 C 202.303 179.247 201.864 180.425 201.864 181.91 C 201.837 183.286 202.334 184.592 203.195 185.413 C 204.082 186.304 205.298 186.747 206.834 186.747 C 207.363 186.753 207.887 186.707 208.408 186.605 C 208.855 186.51 209.238 186.368 209.55 186.172 L 211.032 187.362 L 211.648 186.702 L 210.215 185.575 Z M 219.248 186.512 L 212.4 186.512 L 212.4 177.303 L 213.34 177.284 L 213.34 185.741 L 219.257 185.741 L 219.248 186.512 Z" fill="#367faf" style="" transform="matrix(1, 0, 0, 1, 0, 8.881784197001252e-16)"/>
  <g fill="none" class="C B" style="stroke: rgb(255, 255, 255); stroke-width: 1.682px;" transform="matrix(0.5034360289573669, 0, 0, 0.5034360289573669, 104.48394012451172, 164.00856018066406)">
    <g class="D" style="stroke-linecap: round;">
      <path d="M53.06 44.562c-.187 6.682.047 13.4.7 15.046s2.054 4.816 6.87 3.785c4.022-.862 5.486-2.53 6.12-6.214.468-2.7 1.37-10.236 1.485-11.778M47.3 11.063s-21.797-8.9-20.783 11.35c.216 4.3 6.178 32.613 13.3 24.064 2.6-3.126 4.95-5.578 4.95-5.578M59.064 9.437c-.755.237 12.125-4.708 19.444 4.644 2.585 3.304-.4 16.804-7.578 27.44" class="E" style="stroke-linejoin: round;"/>
      <path d="M70.93 41.52s.467 2.3 7.255.898c2.974-.614 1.184 1.724-1.832 3.125-2.476 1.15-8.026 1.443-8.117-.144-.234-4.096 2.92-2.852 2.694-3.878-.206-.924-1.617-1.832-2.55-4.094-.815-1.975-11.173-17.12 2.873-14.87.515-.106-3.663-13.36-16.808-13.575s-12.7 16.162-12.7 16.162" stroke-linejoin="bevel"/>
    </g>
    <g class="E" style="stroke-linejoin: round;">
      <path d="M49.383 42.922c-1.832 2.047-1.293 2.406-4.956 3.16-3.705.764-1.528 2.123-.108 2.478 1.723.43 5.71 1.042 8.402-2.73.82-1.148-.005-2.98-1.13-3.448-.544-.225-1.272-.508-2.208.54z"/>
      <path d="M49.262 42.886c-.184-1.203.396-2.635 1.017-4.31.934-2.513 3.09-5.028 1.365-13-1.285-5.942-9.904-1.237-9.91-.43s.4 4.084-.144 7.9c-.697 4.98 3.17 9.194 7.622 8.763" class="D" style="stroke-linecap: round; stroke-linejoin: round;"/>
    </g>
  </g>
  <g fill="none" stroke="#fff" transform="matrix(1.180232048034668, 0, 0, 1.180232048034668, 116.05846405029297, 167.0332489013672)" style="">
    <path d="M18.983 18.636c.163-1.357.114-1.555 1.124-1.336l.257.023c.777.035 1.793-.125 2.4-.402 1.285-.596 2.047-1.592.78-1.33-2.89.596-3.1-.383-3.1-.383 3.053-4.53 4.33-10.28 3.227-11.687-3.004-3.84-8.205-2.024-8.292-1.976l-.028.005c-.57-.12-1.2-.19-1.93-.2-1.308-.02-2.3.343-3.054.914 0 0-9.277-3.822-8.846 4.807.092 1.836 2.63 13.9 5.66 10.25C8.29 15.987 9.36 14.86 9.36 14.86c.53.353 1.167.533 1.834.468l.052-.044a2.01 2.01 0 0 0 .021.518c-.78.872-.55 1.025-2.11 1.346-1.578.325-.65.904-.046 1.056.734.184 2.432.444 3.58-1.162l-.046.183c.306.245.285 1.76.33 2.842s.116 2.093.337 2.688.48 2.13 2.53 1.7c1.713-.367 3.023-.896 3.143-5.81" fill="#000" stroke="#000" stroke-linecap="butt" stroke-width="2.149" class="D"/>
    <path d="M23.535 15.6c-2.89.596-3.1-.383-3.1-.383 3.053-4.53 4.33-10.28 3.228-11.687-3.004-3.84-8.205-2.023-8.292-1.976l-.028.005a10.31 10.31 0 0 0-1.929-.201c-1.308-.02-2.3.343-3.054.914 0 0-9.278-3.822-8.846 4.807.092 1.836 2.63 13.9 5.66 10.25C8.29 15.987 9.36 14.86 9.36 14.86c.53.353 1.167.533 1.834.468l.052-.044a2.02 2.02 0 0 0 .021.518c-.78.872-.55 1.025-2.11 1.346-1.578.325-.65.904-.046 1.056.734.184 2.432.444 3.58-1.162l-.046.183c.306.245.52 1.593.484 2.815s-.06 2.06.18 2.716.48 2.13 2.53 1.7c1.713-.367 2.6-1.32 2.725-2.906.088-1.128.286-.962.3-1.97l.16-.478c.183-1.53.03-2.023 1.085-1.793l.257.023c.777.035 1.794-.125 2.39-.402 1.285-.596 2.047-1.592.78-1.33z" fill="#336791" stroke="none"/>
    <g class="E" style="stroke-width: 0.716px;">
      <g class="B" style="stroke-linecap: round; stroke-width: 0.716px;">
        <path d="M12.814 16.467c-.08 2.846.02 5.712.298 6.4s.875 2.05 2.926 1.612c1.713-.367 2.337-1.078 2.607-2.647l.633-5.017M10.356 2.2S1.072-1.596 1.504 7.033c.092 1.836 2.63 13.9 5.66 10.25C8.27 15.95 9.27 14.907 9.27 14.907m6.1-13.4c-.32.1 5.164-2.005 8.282 1.978 1.1 1.407-.175 7.157-3.228 11.687" class="C" style="stroke-linejoin: round;"/>
        <path d="M20.425 15.17s.2.98 3.1.382c1.267-.262.504.734-.78 1.33-1.054.49-3.418.615-3.457-.06-.1-1.745 1.244-1.215 1.147-1.652-.088-.394-.69-.78-1.086-1.744-.347-.84-4.76-7.29 1.224-6.333.22-.045-1.56-5.7-7.16-5.782S7.99 8.196 7.99 8.196" stroke-linejoin="bevel"/>
      </g>
      <g class="C" style="stroke-linejoin: round; stroke-width: 0.716px;">
        <path d="M11.247 15.768c-.78.872-.55 1.025-2.11 1.346-1.578.325-.65.904-.046 1.056.734.184 2.432.444 3.58-1.163.35-.49-.002-1.27-.482-1.468-.232-.096-.542-.216-.94.23z"/>
        <path d="M11.196 15.753c-.08-.513.168-1.122.433-1.836.398-1.07 1.316-2.14.582-5.537-.547-2.53-4.22-.527-4.22-.184s.166 1.74-.06 3.365c-.297 2.122 1.35 3.916 3.246 3.733" class="B" style="stroke-linecap: round; stroke-linejoin: round; stroke-width: 0.716px;"/>
      </g>
    </g>
    <g fill="#fff" class="D">
      <path d="M10.322 8.145c-.017.117.215.43.516.472s.558-.202.575-.32-.215-.246-.516-.288-.56.02-.575.136z" stroke-width=".239"/>
      <path d="M19.486 7.906c.016.117-.215.43-.516.472s-.56-.202-.575-.32.215-.246.516-.288.56.02.575.136z" stroke-width=".119"/>
    </g>
    <path d="M20.562 7.095c.05.92-.198 1.545-.23 2.524-.046 1.422.678 3.05-.413 4.68" class="B C E" style="stroke-linecap: round; stroke-linejoin: round; stroke-width: 0.716px;"/>
  </g>
  <g transform="matrix(0.0836300179362297, 0, 0, 0.0836300179362297, 124.4267807006836, 208.55564880371094)" style="">
    <path class="st0" d="M82.3,28.6C71.5,15.8,62.2,2.8,60.4,0.1c-0.2-0.2-0.5-0.2-0.7,0c-1.9,2.7-11.2,15.7-22,28.5 c-92.6,118.1,14.6,197.8,14.6,197.8l0.9,0.6c0.8,12.3,2.8,30,2.8,30h4h4c0,0,2-17.6,2.8-30l0.9-0.7 C67.7,226.4,174.9,146.7,82.3,28.6z M60,224.6c0,0-4.8-4.1-6.1-6.2v-0.2l5.8-128.6c0-0.4,0.6-0.4,0.6,0L66,218.2v0.2 C64.7,220.5,60,224.6,60,224.6z" style="fill: rgb(0, 237, 100);"/>
    <path class="st0" d="M260.5,198.4L215.8,89.3l-0.1-0.3H181v7.3h5.6c1.7,0,3.3,0.7,4.5,1.9c1.2,1.2,1.8,2.8,1.8,4.5l-1,109.8 c0,3.4-2.8,6.2-6.2,6.3L180,219v7.2h33.8V219l-3.5-0.1c-3.4-0.1-6.2-2.9-6.2-6.3V109.1l48.7,117.1c0.7,1.7,2.3,2.8,4.1,2.8 c1.8,0,3.4-1.1,4.1-2.8l47.6-114.5l0.7,100.8c0,3.5-2.8,6.3-6.3,6.4h-3.6v7.2H339V219h-5.4c-3.4,0-6.2-2.9-6.3-6.3L327,102.9 c0-3.5,2.8-6.3,6.2-6.4l5.8-0.1V89h-33.8L260.5,198.4z" style="fill: rgb(0, 237, 100);"/>
    <path class="st0" d="M571.9,217c-1.1-1.1-1.7-2.6-1.7-4.4v-53.9c0-10.3-3-18.3-9-24c-5.9-5.7-14.2-8.7-24.4-8.7 c-14.4,0-25.7,5.8-33.6,17.3c-0.1,0.2-0.4,0.3-0.7,0.3c-0.3,0-0.5-0.2-0.5-0.5l-3.7-14.4H492l-16,9.2v5h4.1c1.9,0,3.5,0.5,4.6,1.5 c1.1,1,1.7,2.5,1.7,4.6v63.5c0,1.8-0.6,3.3-1.7,4.4c-1.1,1.1-2.6,1.7-4.4,1.7h-4v7.3H513v-7.3h-4c-1.8,0-3.3-0.6-4.4-1.7 c-1.1-1.1-1.7-2.6-1.7-4.4v-42.1c0-5.3,1.2-10.7,3.4-15.9c2.3-5.1,5.7-9.5,10.2-12.8c4.5-3.3,9.9-4.9,16.2-4.9 c7,0,12.3,2.2,15.7,6.6c3.3,4.4,5,10.2,5,17v51.9c0,1.8-0.6,3.3-1.7,4.4s-2.6,1.7-4.4,1.7h-4v7.3H580v-7.3h-4 C574.5,218.8,573.1,218.2,571.9,217z" style="fill: rgb(0, 237, 100);"/>
    <path class="st0" d="M907.5,97.2C897.4,91.8,886,89,873.8,89H826v7.3h4.7c1.8,0,3.4,0.7,5,2.3c1.5,1.5,2.3,3.2,2.3,5v107.8 c0,1.8-0.8,3.5-2.3,5c-1.5,1.5-3.2,2.3-5,2.3H826v7.3h47.8c12.2,0,23.6-2.8,33.8-8.2c10.2-5.4,18.4-13.4,24.4-23.6 c6-10.2,9.1-22.5,9.1-36.6c0-14-3.1-26.2-9.1-36.6C925.9,110.6,917.7,102.7,907.5,97.2z M921.8,157.4c0,12.8-2.3,23.6-6.8,32.3 c-4.5,8.7-10.5,15.2-17.8,19.4c-7.4,4.2-15.5,6.3-24.3,6.3h-9.7c-1.8,0-3.4-0.7-5-2.3c-1.5-1.5-2.3-3.2-2.3-5V106.5 c0-1.8,0.7-3.4,2.3-5c1.5-1.5,3.2-2.3,5-2.3h9.7c8.8,0,16.9,2.1,24.3,6.3c7.4,4.2,13.3,10.7,17.8,19.4 C919.5,133.8,921.8,144.7,921.8,157.4z" style="fill: rgb(0, 237, 100);"/>
    <path class="st0" d="M1054,164.7c-4.4-5.1-12.9-9.4-23-11.7c13.8-6.9,21-16.6,21-29.1c0-6.8-1.8-12.9-5.4-18.1 c-3.6-5.2-8.7-9.4-15.2-12.3c-6.5-2.9-14.2-4.4-22.8-4.4h-54.1v7.3h4.3c1.8,0,3.4,0.7,5,2.3c1.5,1.5,2.3,3.2,2.3,5v107.8 c0,1.8-0.8,3.5-2.3,5c-1.5,1.5-3.2,2.3-5,2.3H954v7.3h58.7c8.9,0,17.3-1.5,24.8-4.5c7.5-3,13.6-7.4,17.9-13.2 c4.4-5.8,6.6-12.9,6.6-21.1C1061.9,178.3,1059.3,170.8,1054,164.7z M986.6,213.3c-1.5-1.5-2.3-3.2-2.3-5v-48.4h27.9 c9.8,0,17.4,2.5,22.6,7.5c5.2,5,7.8,11.5,7.8,19.5c0,4.8-1.2,9.5-3.4,13.8c-2.3,4.4-5.7,7.9-10.3,10.6c-4.5,2.7-10.1,4.1-16.7,4.1 h-20.6C989.8,215.5,988.2,214.8,986.6,213.3z M984.4,149.6v-43c0-1.8,0.7-3.4,2.3-5c1.5-1.5,3.2-2.3,5-2.3h13.2 c9.5,0,16.6,2.4,21,7c4.4,4.7,6.6,10.7,6.6,18.1c0,7.6-2.1,13.7-6.2,18.3c-4.1,4.5-10.3,6.8-18.6,6.8H984.4z" style="fill: rgb(0, 237, 100);"/>
    <path class="st0" d="M432,132.4c-7.7-4.2-16.2-6.4-25.5-6.4s-17.9,2.1-25.5,6.4c-7.7,4.2-13.7,10.3-18.2,18 C358.3,158,356,167,356,177s2.3,19,6.8,26.6c4.5,7.7,10.6,13.8,18.2,18c7.7,4.2,16.2,6.4,25.5,6.4s17.9-2.1,25.5-6.4 c7.7-4.2,13.7-10.3,18.2-18c4.5-7.7,6.8-16.7,6.8-26.6s-2.3-19-6.8-26.6C445.7,142.7,439.7,136.6,432,132.4z M439.4,177 c0,12.3-3,22.3-9,29.4c-5.9,7.2-13.9,10.9-23.9,10.9c-10,0-18-3.7-23.9-10.9c-6-7.2-9-17.2-9-29.4s3-22.3,9-29.4 c5.9-7.2,13.9-10.9,23.9-10.9c10,0,18,3.7,23.9,10.9C436.4,154.7,439.4,164.7,439.4,177z" style="fill: rgb(0, 237, 100);"/>
    <path class="st0" d="M785,132.4c-7.7-4.2-16.2-6.4-25.5-6.4s-17.9,2.1-25.5,6.4c-7.7,4.2-13.7,10.3-18.2,18S709,167,709,177 s2.3,19,6.8,26.6s10.6,13.8,18.2,18c7.7,4.2,16.2,6.4,25.5,6.4s17.9-2.1,25.5-6.4c7.7-4.2,13.7-10.3,18.2-18S810,187,810,177 s-2.3-19-6.8-26.6S792.6,136.6,785,132.4z M792.4,177c0,12.3-3,22.3-9,29.4c-5.9,7.2-13.9,10.9-23.9,10.9c-10,0-18-3.7-23.9-10.9 c-6-7.2-9-17.2-9-29.4c0-12.4,3-22.3,9-29.4c5.9-7.2,13.9-10.9,23.9-10.9c10,0,18,3.7,23.9,10.9C789.3,154.7,792.4,164.7,792.4,177 z" style="fill: rgb(0, 237, 100);"/>
    <path class="st0" d="M642.6,126c-8,0-15.3,1.7-22,5.1c-6.6,3.4-11.8,8-15.5,13.9c-3.7,5.8-5.6,12.3-5.6,19.3c0,6.2,1.4,11.9,4.3,17 c2.8,4.9,6.6,9,11.4,12.4l-14.3,19.5c-1.8,2.4-2,5.6-0.7,8.2c1.4,2.7,4,4.3,7,4.3h4.1c-4,2.7-7.2,5.9-9.4,9.7 c-2.6,4.3-3.9,8.8-3.9,13.4c0,8.6,3.8,15.7,11.3,21.1c7.4,5.3,17.9,8,31,8c9.1,0,17.9-1.5,25.8-4.4c8-2.9,14.5-7.2,19.4-12.8 c4.9-5.6,7.4-12.4,7.4-20.3c0-8.2-3-14-10-19.7c-6-4.7-15.4-7.2-27.2-7.2h-40.1c-0.1,0-0.2-0.1-0.2-0.1s-0.1-0.2,0-0.3l10.4-14 c2.8,1.3,5.4,2.1,7.7,2.6c2.4,0.5,5.1,0.7,8.1,0.7c8.4,0,16.1-1.7,22.7-5.1c6.6-3.4,11.9-8,15.8-13.9c3.8-5.8,5.7-12.3,5.7-19.2 c0-7.4-3.6-21-13.4-27.9c0-0.1,0.1-0.1,0.1-0.1l21.6,2.4v-9.9h-34.5C654.1,127,648.5,126,642.6,126z M654.7,188.8 c-3.8,2-7.9,3.1-12,3.1c-6.7,0-12.6-2.4-17.7-7.1c-5-4.7-7.5-11.6-7.5-20.5s2.5-15.7,7.5-20.5c5-4.7,10.9-7.1,17.7-7.1 c4.2,0,8.2,1,12,3.1c3.8,2,6.9,5.1,9.4,9.2c2.4,4.1,3.7,9.2,3.7,15.2c0,6.1-1.2,11.2-3.7,15.2C661.7,183.7,658.5,186.8,654.7,188.8 z M627.5,225.7h27.2c7.5,0,12.3,1.5,15.5,4.7c3.2,3.2,4.8,7.5,4.8,12.5c0,7.3-2.9,13.3-8.7,17.8c-5.8,4.5-13.6,6.8-23.3,6.8 c-8.4,0-15.4-1.9-20.6-5.5c-5.1-3.6-7.7-9.1-7.7-16.1c0-4.4,1.2-8.5,3.6-12.1C620.8,230.2,623.7,227.6,627.5,225.7z" style="fill: rgb(0, 237, 100);"/>
    <path class="st0" d="M1082.3,224.3c-2-1.1-3.5-2.7-4.7-4.5c-1.1-2-1.7-4-1.7-6.3s0.6-4.4,1.7-6.3c1.1-2,2.7-3.4,4.7-4.5 c2-1.1,4.2-1.7,6.7-1.7s4.7,0.6,6.7,1.7c2,1.1,3.5,2.7,4.7,4.5c1.1,2,1.7,4,1.7,6.3s-0.6,4.4-1.7,6.3c-1.1,2-2.7,3.4-4.7,4.5 c-2,1.1-4.2,1.7-6.7,1.7C1086.6,226,1084.3,225.5,1082.3,224.3z M1094.6,222.9c1.7-0.9,2.9-2.3,3.9-3.8c0.9-1.7,1.4-3.5,1.4-5.6 s-0.5-3.9-1.4-5.6c-0.9-1.7-2.2-3-3.9-3.8c-1.7-0.9-3.5-1.4-5.6-1.4s-3.9,0.5-5.6,1.4c-1.7,0.9-2.9,2.3-3.9,3.8 c-0.9,1.7-1.4,3.5-1.4,5.6s0.5,3.9,1.4,5.6c0.9,1.7,2.2,3,3.9,3.8c1.7,0.9,3.5,1.4,5.6,1.4S1093,223.8,1094.6,222.9z M1083.6,219.5 v-0.9l0.2-0.1h0.6c0.2,0,0.4-0.1,0.5-0.2c0.2-0.2,0.2-0.3,0.2-0.5v-9.2c0-0.2-0.1-0.4-0.2-0.5c-0.2-0.2-0.3-0.2-0.5-0.2h-0.6 l-0.2-0.1V207l0.2-0.1h5.2c1.5,0,2.6,0.3,3.5,1c0.9,0.7,1.3,1.6,1.3,2.8c0,0.9-0.3,1.8-1,2.4c-0.7,0.7-1.5,1.1-2.5,1.2l1.2,0.4 l2.3,3.6c0.2,0.3,0.4,0.4,0.7,0.4h0.6l0.1,0.1v0.9l-0.1,0.1h-3.1l-0.2-0.1l-3.2-5.3h-0.8v3.5c0,0.2,0.1,0.4,0.2,0.5 c0.2,0.2,0.3,0.2,0.5,0.2h0.6l0.2,0.1v0.9l-0.2,0.1h-5.3L1083.6,219.5z M1088.7,213c0.8,0,1.5-0.2,1.9-0.7c0.4-0.4,0.7-1.1,0.7-1.9 c0-0.8-0.2-1.4-0.6-1.9c-0.4-0.5-1-0.7-1.7-0.7h-0.4c-0.2,0-0.4,0.1-0.5,0.2c-0.2,0.2-0.2,0.3-0.2,0.5v4.4H1088.7z" style="fill: rgb(0, 237, 100);"/>
  </g>
  <g transform="matrix(0.14991602301597595, 0, 0, 0.14991602301597595, 418.3614196777344, 171.78396606445312)" style="">
    <g transform="matrix(1.567763, 0, 0, 1.567763, -1718.832642, 556.681274)" fill="#373535" style="">
      <path d="M15.9,13.2 C18.1,13.2 20.1,13.6999999 21.2,14.7 C21.4,16.3 19.9,18.9 19,18.9 C17.9,18.5 16.9,18.3 15.6,18.3 C10.4,18.3 7.8,23.7 7.8,29 C7.8,32.3 8.9,34.3 11.6,34.3 C14.4,34.3 17.2,32.4 18.8,31 C19.2,31.3 19.7,32.2 19.7,33.2 C19.7,34.3 19.4,35.4 18.3,36.5 C16.5,38.3 13.4,39.9 8.9,39.9 C3.8,39.9 0.2,37 0.2,30.2 C0.4,21.2 6.2,13.2 15.9,13.2 L15.9,13.2 L15.9,13.2 Z"/>
      <path d="M32.7,34 C35.5,34 40.6,29.1 42,19.7 C42.1,19.1 42.1,19 42.2,18.4 C41.6,18.2 40.7,18 39.9,18 C37.8,18 35.6,18.6 33.7,21.3 C31.7,24.1 30.8,27.6 30.8,30.4 C30.8,32.7 31.5,34 32.7,34 L32.7,34 L32.7,34 Z M23.5,31.4 C23.5,28 24.6,22.2 28.9,17.9 C32.6,14.1 37,13.2 41.1,13.2 C43.8,13.2 47.4,14.1 49.7,14.5 C49.1,17 47.8,26.5 47.1,32 C46.8,34.3 46.7,37.6 46.8,38.8 C44.9,39.6 41.4,39.8 40.4,39.8 C39.9,39.8 39.8,37.5 39.9,35.2 C40,34.5 40.1,33.4 40.1,32.9 C37.9000001,36.6 33.5,39.7 28.9,39.7 C25.6,39.8 23.5,37 23.5,31.4 L23.5,31.4 L23.5,31.4 Z"/>
      <path d="M63.9,13.2 C66.2,13.2 68.5,14.1 69.5,15.1 C69.4,16.7 68.2,19.4 66.2,18.6 C65.3,18.3 64.5,18.1 63.3,18.1 C61.8,18.1 60.4,18.8 60.4,20.2 C60.4,21.3 61.2,22.1 65,24.8 C67.7,26.8 68.8,28.6 68.8,31.1 C68.8,35.3 64.9,39.8 58,39.8 C55.2,39.8 52.7,38.7 52,37.6 C51,35.9 51.8,32.5 52.9,33.1 C54.4,33.8 56.8,34.6 58.8,34.6 C60.7,34.6 61.9,33.7 61.9,32.6 C61.9,31.6 61,30.8 57.6,28.3 C54.7,26.1 53.8,24.1 53.8,21.9 C53.8,17.1 57.9,13.2 63.9,13.2 L63.9,13.2 L63.9,13.2 Z"/>
      <path d="M83.6,13.2 C85.9,13.2 88.2,14.1 89.2,15.1 C89.1,16.7 87.9,19.4 85.9,18.6 C85,18.3 84.2,18.1 83,18.1 C81.5,18.1 80.1,18.8 80.1,20.2 C80.1,21.3 80.9,22.1 84.7,24.8 C87.4,26.8 88.5,28.6 88.5,31.1 C88.5,35.3 84.6,39.8 77.7,39.8 C74.9,39.8 72.5,38.7 71.7,37.6 C70.7,35.9 71.5,32.5 72.6,33.1 C74.1,33.8 76.5,34.6 78.5,34.6 C80.4,34.6 81.6,33.7 81.6,32.6 C81.6,31.6 80.7,30.8 77.3,28.3 C74.4,26.1 73.5,24.1 73.5,21.9 C73.5,17.1 77.6,13.2 83.6,13.2 L83.6,13.2 L83.6,13.2 Z"/>
      <path d="M101.5,34 C104.3,34 109.4,29.1 110.8,19.7 C110.9,19.1 110.9,19 111,18.4 C110.4,18.2 109.5,18 108.7,18 C106.6,18 104.4,18.6 102.5,21.3 C100.5,24.1 99.6,27.6 99.6,30.4 C99.7,32.7 100.3,34 101.5,34 L101.5,34 L101.5,34 Z M92.3,31.4 C92.3,28 93.4,22.2 97.7,17.9 C101.4,14.1 105.8,13.2 109.9,13.2 C112.6,13.2 116.2,14.1 118.5,14.5 C117.9,17 116.6,26.5 115.9,32 C115.6,34.3 115.5,37.6 115.6,38.8 C113.7,39.6 110.2,39.8 109.2,39.8 C108.7,39.8 108.6,37.5 108.7,35.2 C108.8,34.5 108.9,33.4 108.9,32.9 C106.7,36.6 102.3,39.7 97.7,39.7 C94.5,39.8 92.3,37 92.3,31.4 L92.3,31.4 L92.3,31.4 Z"/>
      <path d="M131.4,20.6 C134,16.4 137.4,13.2 142.2,13.2 C146.3,13.2 147.6,17 146.800001,22.3 C146.4,24.8 145.7,28.4 145.3,31.7 C144.9,34.5 144.6,37 144.7,38.7 C143.2,39.4 138.9,39.7 137.9,39.7 C137.5,39.7 137.4,36.6 138,33.3 C138.5,30.6 139.4,25.6 139.9,22.7 C140.2,21 140.1,19 138.5,19 C136.4,19 131.4,22.4 128.9,36.2 C128.7,37.3 128.3,38 127.6,38.4 C126.7,38.9 124.9,39.4 121.2,39.4 C121.9,35.9 123,28.8 123.8,23.5 C124.5,18.7 124.8,15.6 124.7,14.4 C125.7,14.1 130.8,13 131.3,13 C131.9,13 132,14.8 131.5,19 C131.4,19.4 131.4,20 131.3,20.4 L131.4,20.4 L131.4,20.6 L131.4,20.6 Z"/>
      <path d="M160.4,33.9 C162.9,33.9 168,29.2 169.4,20.9 C169.5,20.4 169.6,19.6 169.7,19.1 C169,18.4 168,18 166.4,18 C160.6,18 158.1,24.9 158.1,29.9 C158.2,32.5 159.1,33.9 160.4,33.9 L160.4,33.9 L160.4,33.9 Z M156.7,39.8 C153,39.8 150.8,36.5 150.8,31 C150.8,21.8 156.6,13.3 166.3,13.3 C168,13.3 169.6,13.8 170.5,14.3 C171,11.7 172.2,3.6 172.3,1.2 C173.9,0.9 177.3,0.4 178.9,0.4 C179.5,0.4 179.7,1 179.5,2.50000001 C178.1,11.1 175.7,27.5 175.2,31.1 C174.9,34.2 174.8,37.2 174.9,38.9 C173.1,39.7 169.4,39.9 168.4,39.9 C168,39.9 167.8,37.3 167.9,34.9 C168,34.2 168.1,33.1 168.1,32.9 C165,37.5 161.1,39.8 156.7,39.8 L156.7,39.8 L156.7,39.8 Z"/>
      <path d="M190.1,21.4 C193.1,14.7 196.7,13.2 199.1,13.2 C199.8,13.2 201,13.7 201.5,14.2 C201.7,16.1 200.2,19.8 198.9,21.3 C198.2,21 197.4,20.6 196.4,20.6 C194.5,20.6 190.6,23.6 188.2,36.6 C188,37.7 187.7,38.1 187.1,38.4 C186.1,39 182.3,39.4 180.5,39.5 C181.4,34.8 182.8,25.3 183.4,19.7 C183.6,18.3 183.6,15.6 183.5,14.6 C184.6,14.1 188.9,13.1 189.8,13.1 C190.3,13.1 190.7,16.2 189.9,21.3 L190.1,21.3 L190.1,21.4 L190.1,21.4 Z"/>
      <path d="M210.2,34 C213,34 218.1,29.1 219.5,19.7 C219.6,19.1 219.6,19 219.7,18.4 C219.1,18.2 218.2,18 217.4,18 C215.3,18 213.1,18.6 211.2,21.3 C209.2,24.1 208.3,27.6 208.3,30.4 C208.4,32.7 209,34 210.2,34 L210.2,34 L210.2,34 Z M201,31.4 C201,28 202.1,22.2 206.4,17.9 C210.1,14.1 214.5,13.2 218.6,13.2 C221.3,13.2 224.9,14.1 227.2,14.5 C226.6,17 225.3,26.5 224.6,32 C224.3,34.3 224.200001,37.6 224.3,38.8 C222.4,39.6 218.9,39.8 217.9,39.8 C217.4,39.8 217.3,37.5 217.4,35.2 C217.5,34.5 217.6,33.4 217.6,32.9 C215.4,36.6 211,39.7 206.4,39.7 C203.2,39.8 201,37 201,31.4 L201,31.4 L201,31.4 Z"/>
    </g>
    <g transform="matrix(1.171409, 0, 0, 1.171409, -2056.945068, 522.057922)" style="">
      <path d="M205.5,45.5 C207.4,67.4 172.9,88.3 128.4,92.1 C83.9,95.9 46.4,81.2 44.5,59.3 C42.6,37.4 77.1,16.5 121.6,12.7 C166,8.9 203.6,23.5 205.5,45.5" fill="#BBE6FB"/>
      <path d="M122.8,15.2 C105.8,14.9 86,21.7 71.2,28 C69.7,32.4 68.8,37.1 68.8,42 C68.8,68 92.3,89.1 121.3,89.1 C150.3,89.1 173.9,68.1 173.9,42 C173.9,33.8 171.5,26 167.4,19.3 C155.6,17.5 139.3,15.5 122.8,15.2" fill="#FFFFFF"/>
      <path d="M121.4,15.2 C112,14.6 95.8,19.5 82.3,24.4 C80.2,29.2 79.1,34.5 79.1,40.1 C79.1,62.9 99.8,81.4 121.6,81.4 C143.3,81.4 162.5,62.9 164.1,40.1 C164.6,32.7 162.1,25.7 158.5,19.7 C144.6,17.3 129.8,15.8 121.4,15.2" fill="#FFFFFF"/>
      <path d="M97.3,37.2 C98.5,34.6 100.2,33.4 101.9,31.3 C101.7,30.8 101.3,29.1 101.3,28.6 C101.3,26 103.4,24 105.9,24 C106.5,24 107.1,24.1 107.6,24.3 C115.3,18.4 125.4,15.9 135.6,18.2 C136.5,18.4 137.4,18.7 138.3,18.9 C128.3,17.5 116.9,21.1 109.2,27.3 C109.4,27.9 110.1,29.4 110.1,30.1 C110.1,32.7 108.4,33.3 105.9,33.3 C105.3,33.3 104.8,33.2 104.2,33 C102.5,35.3 100.3,39.8 99.3,42.6 C103.6,46.4 107.4,47.8 112.4,49.7 C112.4,49.5 112.6,49.2 112.6,49 C112.6,41.3 119.4,35 127.1,35 C134,35 139.8,40 140.9,46.6 C144.4,44.4 147.7,42.7 150.2,39.4999999 C149.6,38.8 149,36.7 149,35.7 C149,33.4 150.9,31.5 153.2,31.5 C153.5,31.5 153.8,31.5 154.2,31.6 C155.5,28.9 156.5,26.1 157.1,23.2 C145,14.2 121.6,15.5 121.6,15.5 C121.6,15.5 103,14.5 90.4,20.7 C91.3,26.5 93.7,32.3 97.3,37.2" fill="#373535"/>
      <path d="M155.1,33.7 C156,34.5 156.4,35.1 156.8,35.8 C157.9,37.8 155.7,39.7 153.3,39.7 C153.1,39.7 152.8,39.7 152.6,39.6 C150,43.7 145.4,48.9 141.3,51.6 C147.6,52.6 153.5,55.1 158.1,59 C161.5,52.9 164.1,44 164.1,36.5 C164.1,30.8 161.6,26.5999999 157.8,23.5 C157.7,26.5999999 156,30.9 155.1,33.7" fill="#373535"/>
      <path d="M104.3,72.5 C106.4,66.7 111.5,62.3 116.4,58.4 C115.7,57.4 114.6,55 114.2,53.9 C108.3,52.1 103.1,48.7 99,44.3 C99,44.4 98.9,44.6 98.9,44.7 C98.1,48.1 98,51.6 98.4,54.9 C101.2,55.4 103.4,57.9 103.4,60.9 C103.4,62.7 101.8,65.2 100.6,66.4 C101.8,69 102.7,70.4 104.3,72.5" fill="#373535"/>
      <path d="M103.9,77.3 C101.4,74.8 99.7,69.9 98.1,66.8 C97.8,66.8 97.5,66.9 97.2,66.9 C93.8,66.9 90.3,64.1 91.0999999,60.8 C91.5,59 92.8,57.8 94.8,56.8 C94.3,53 94.2,47.7 95.1,43.8 C95.3,42.7 95.9,42.2 96.2,41.1 C92.5,35.7 90.1,28.5 90.1,21.4 L90.1,20.6 C83.8,23.8 79.1,28.7 79.1,36.5 C79.1,53.8 89.1,70.8 103.9,77.4 L103.9,77.3" fill="#373535"/>
      <path d="M140.4,53.4 C138.5,58.8 133.3,62.8 127.2,62.8 C123.9,62.8 120.9,61.7 118.6,59.8 C113.7,63.6 109.2,70.3 107,76.2 C108,77.3 108.7,78.2 109.9,79.2 C113.3,80.1 118.1,79.2 121.8,79.2 C136.7,79.2 150,72.6 157.6,60.9 C152.4,57.3 146.4,53.9 140.4,53.4" fill="#373535"/>
      <path d="M96.9,39.2 C98.1,36.6 99.5,34.3 101.2,32.1 C101,31.6 100.9,31 100.9,30.5 C100.9,27.9 103,25.9 105.5,25.9 C106.1,25.9 106.7,26 107.2,26.2 C114.9,20.3 125,17.8 135.2,20.1 C136.1,20.3 137,20.6 137.9,20.8 C127.9,19.4 117.5,22.5 109.8,28.7 C110,29.3 110.2,29.9 110.2,30.5 C110.2,33.1 108.100001,35.1 105.6,35.1 C105,35.1 104.5,35 103.9,34.8 C102.2,37.1 100.7,39.7 99.7,42.5 C103.4,46.4 107.9,49.6 112.9,51.4 L112.9,50.7 C112.9,43 119.2,36.7 126.9,36.7 C133.8,36.7 139.6,41.7 140.7,48.3 C144.2,46.1 147.2,43.3 149.8,40 C149.2,39.3 148.8,38.4 148.8,37.4 C148.8,35.1 150.7,33.2 153,33.2 C153.3,33.2 153.6,33.2 154,33.3 C155.3,30.6 156.3,27.8 156.9,24.9 C144.8,15.9 121.4,17.2 121.4,17.2 C121.4,17.2 102.8,16.2 90.2,22.4 C90.9,28.5 93.3,34.3 96.9,39.2" fill="#1287B1"/>
      <path d="M155.7,34.4 C156.6,35.2 157.1,36.3 157.1,37.5 C157.1,39.8 155.2,41.7 152.9,41.7 C152.7,41.7 152.4,41.7 152.2,41.6 C149.6,45.7 146.1,49.2 142,51.8 C148,52.7 153.7,55.3 158.4,59.2 C161.8,53.1 163.8,46 163.8,38.5 C163.8,32.8 161.3,28.6 157.5,25.5 C157.3,28.6 156.7,31.6 155.7,34.4" fill="#1287B1"/>
      <path d="M104.9,73.8 C107,68 110.6,62.9 115.5,59 C114.8,58 114.2,57 113.8,55.8 C107.9,54 102.7,50.6 98.6,46.2 C98.6,46.3 98.5,46.5 98.5,46.6 C97.7,50 97.6,53.5 98,56.8 C100.8,57.3 103,59.8 103,62.8 C103,64.6 102.2,66.2 101,67.3 C102,69.6 103.4,71.8 104.9,73.8" fill="#1287B1"/>
      <path d="M103.9,77.2 C101.4,74.7 99.3,71.9 97.7,68.8 C97.4,68.8 97.1,68.9 96.8,68.9 C93.4,68.9 90.7,66.2 90.7,62.8 C90.7,60.4 92.1,58.3 94.1,57.3 C93.6,53.5 93.8,49.7 94.7,45.8 C94.9,44.7 95.3,43.6 95.6,42.5 C91.9,37.1 89.7,30.5 89.7,23.4 L89.7,22.6 C83.4,25.8 78.7,30.7 78.7,38.5 C78.7,55.8 89,70.7 103.8,77.3 C103.9,77.3 103.9,77.3 103.9,77.2" fill="#1287B1"/>
      <path d="M140,55.4 C138.1,60.8 132.9,64.8 126.8,64.8 C123.5,64.8 120.5,63.7 118.2,61.8 C113.3,65.6 109.6,70.8 107.3,76.7 C108.3,77.8 109.4,78.8 110.5,79.8 C113.9,80.7 117.5,81.2 121.2,81.2 C136.1,81.2 149.3,73.5 156.9,61.8 C151.9,58.2 146,55.9 140,55.4" fill="#1287B1"/>
      <path d="M140.5,51.8 L153.4,48.7 L140.4,48 L151,40 L139,44.3 L147.1,33 L135.8,40.5 L139.7,27.3 L132,38.2 L131.8,24.4 L126.7,36.7 L122.5,24.3 L122.7,38.9 L115.4,25.8 L119.4,39.7 L107.5,31.1 L116.8,42.8 L102,37.4 L113.6,46 L98.7,46.5 L114,50.4 L98.7,53.7 L113.8,54.8 L101.1,62.9 L114.2,58.2 L105.1,69.7 L116.6,60.4 L112.5,75.8 L121.4,63.2 L120.2,78 L125.2,64.5 L129.5,78.6 L130.5,64.4 L136.9,76.5 L133.1,62.7 L144.7,71.7 L137.2,60.2 L150,65.2 L140.2,55.6 L153.3,56.6 L140.5,51.8 L140.5,51.8 Z" fill="#FFFFFF"/>
      <path d="M2.8,76.5 C42.9,36.4 74.9,24 104,18.4 C107.8,17.7 108.6,9.2 108.6,9.2 C108.6,9.2 109.1,15.4 111.8,16.2 C114.5,17 118,6.5 118,6.5 C118,6.5 114.8,15.9 118,16.5 C121.2,17 127.2,7.3 127.2,7.3 C127.2,7.3 124.8,15.6 126.4,16.2 C128,16.7 136.1,4.1 136.1,4.1 C136.1,4.1 131.3,12.4 135.8,13.3 C140.4,14.1 147.1,7.6 147.1,7.6 C147.1,7.6 141.9,13.5 144.2,14.4 C154.2,17.9 162.2,5 162.2,5 C162.2,5 160.3,10.7 155.5,16.9 C166,19.6 173.8,3.8 173.8,3.8 L166,19.6 C170,21.6 186.1,3 186.1,3 C186.1,3 177.8,17.5 172.9,20.5 C175.6,22.7 185.3,14 185.3,14 C185.3,14 177.5,23.7 180.5,24.2 C184.8,27.7 200.7,6.2 200.7,6.2 C200.7,6.2 194.5,18.9 185.4,28.8 C193,32.7 212,8.2 212,8.2 C212,8.2 211.5,16 197.7,28.4 C207.9,27.1 221.1,7.7 221.1,7.7 C221.1,7.7 216.3,22.2 204.7,32.5 C214.7,31.5 230.8,6.7 230.8,6.7 C230.8,6.7 224.6,23.9 212,33.9 C226,37 246.2,16.1 246.2,16.1 C246.2,16.1 238.3,30.9 227.9,37 C239.5,41.4 255.4,23.1 255.4,23.1 C255.4,23.1 239.5,47.6 214.2,46.5 C205.9,46.1 180.8,21.3 127,23.3 C55.8,25.9 40.8,56.1 2.8,76.5" fill-opacity="0.35" fill="#373535"/>
      <path d="M4.4,73.5 C44.5,33.4 76.5,21 105.6,15.4 C109.4,14.7 110.2,6.2 110.2,6.2 C110.2,6.2 110.7,12.4 113.4,13.2 C116.1,14 119.6,3.5 119.6,3.5 C119.6,3.5 116.4,12.9 119.6,13.5 C122.8,14 128.8,4.3 128.8,4.3 C128.8,4.3 126.4,12.6 128,13.2 C129.6,13.7 137.7,1.1 137.7,1.1 C137.7,1.1 132.9,9.4 137.4,10.3 C142,11.1 148.7,4.6 148.7,4.6 C148.7,4.6 143.5,10.5 145.8,11.4 C155.8,14.9 163.8,2 163.8,2 C163.8,2 161.9,7.7 157.1,13.9 C167.6,16.6 175.4,0.8 175.4,0.8 L167.6,16.6 C171.6,18.8 187.8,0.2 187.8,0.2 C187.8,0.2 179.5,14.7 174.6,17.7 C177.3,19.6 187,11 187,11 C187,11 179.2,20.7 182.2,21.2 C186.5,24.7 202.4,3.2 202.4,3.2 C202.4,3.2 196.1,15.9 187,25.8 C194.6,29.6 213.7,5.1 213.7,5.1 C213.7,5.1 213.2,12.9 199.4,25.3 C209.6,24 222.8,4.6 222.8,4.6 C222.8,4.6 218,19.1 206.4,29.4 C216.4,28.4 232.5,3.6 232.5,3.6 C232.5,3.6 226.3,20.8 213.7,30.8 C227.7,33.9 247.9,13 247.9,13 C247.9,13 240,27.8 229.6,33.9 C241.2,38.3 257.1,20 257.1,20 C257.1,20 241.2,44.5 215.9,43.4 C207.6,43 182.5,18.2 128.7,20.2 C57.5,22.9 42.4,53 4.4,73.5" fill="#373535"/>
      <path d="M1.8,80.9 C23,91.5 42.4,79.3 66.8,86.2 C85.4,91.4 108,97.9 138.7,93.4 C169.4,89 195.6,75.6 208.2,51.8 C212.1,41.2 228,54.2 228,54.2 C228,54.2 216.4,49.4 216.7,51.6 C217,53.9 234.1,61.8 234.1,61.8 C234.1,61.8 218.6,57 219.6,60.6 C220.5,64.2 239,78.8 239,78.8 C239,78.8 217.9,63 216.2,65.2 C214.4,67.4 225.1,76.1 225.1,76.1 C225.1,76.1 207.5,65.2 201.3,68.4 C196.8,70.7 219.6,85.6 219.6,85.6 C219.6,85.6 204.8,74.3 201.3,77.3 C197.8,80.3 218,104.5 218,104.5 C218,104.5 195,79.7 192.7,80.9 C190.4,82.1 199,94 199,94 C199,94 187.8,81.6 184.7,83.7 C181.6,85.9 200.9,118 200.9,118 C200.9,118 180,85.1 171.3,90.6 C184.8,120.3 179.8,124.5 179.8,124.5 C179.8,124.5 178.1,94.2 161.2,95 C152.7,95.4 165.2,117.6 165.2,117.6 C165.2,117.6 153.7,97.3 146,97.7 C160.1,124.5 155.1,135.3 155.1,135.3 C155.1,135.3 157.4,112.4 138.3,99.7 C145.6,106.2 133.7,135.3 133.7,135.3 C133.7,135.3 144.1,92.4 126,100.6 C123.1,101.9 125.8,122 125.8,122 C125.8,122 122.2,99 116.7,100.2 C113.5,100.9 96.5,132.1 96.5,132.1 C96.5,132.1 110.4,98.4 106.2,99.8 C103.1,100.8 97.3,114.7 97.3,114.7 C97.3,114.7 100.1,101 97.3,100.2 C94.5,99.4 78.7,114.7 78.7,114.7 C78.7,114.7 90.4,101 88.4,98.1 C85.3,93.8 81.8,93.6 77.5,95.3 C71.3,97.7 63,109 63,109 C63,109 71.3,97.5 69.9,93.3 C67.6,86.4 43.7,106.6 43.7,106.6 C43.7,106.6 57.8,93.3 54.6,90.4 C51.4,87.6 33.8,88.4 28.4,88.4 C12.3,88.6 6.7,84.8 1.8,80.9" fill-opacity="0.35" fill="#373535"/>
      <path d="M0.9,78.5 C22.1,89.1 41.5,76.9 65.9,83.8 C84.5,89 107.1,95.5 137.8,91 C168.5,86.6 194.7,73.2 207.3,49.4 C211.2,38.8 227.1,51.8 227.1,51.8 C227.1,51.8 215.5,47 215.8,49.2 C216.1,51.5 233.2,59.4 233.2,59.4 C233.2,59.4 217.7,54.6 218.7,58.2 C219.6,61.8 238.1,76.4 238.1,76.4 C238.1,76.4 217.2,60.5 215.5,62.7 C213.8,64.9 224.4,73.6 224.4,73.6 C224.4,73.6 206.8,62.7 200.6,65.9 C196.1,68.2 218.9,83.1 218.9,83.1 C218.9,83.1 204.1,71.8 200.6,74.8 C197.1,77.8 217.3,102 217.3,102 C217.3,102 194.4,77.2 192.1,78.4 C189.8,79.6 198.400001,91.5 198.400001,91.5 C198.400001,91.5 187,79.2 183.9,81.3 C180.8,83.5 200,115.6 200,115.6 C200,115.6 179.1,82.6 170.5,88.1 C184.1,117.9 179,122.1 179,122.1 C179,122.1 177.3,91.8 160.4,92.6 C151.9,93 164.4,115.2 164.4,115.2 C164.4,115.2 153,95 145.3,95.4 C159.4,122.2 154.4,133 154.4,133 C154.4,133 156.7,110.1 137.6,97.4 C144.9,103.9 133,133 133,133 C133,133 143.4,90.1 125.3,98.3 C122.4,99.6 125.1,119.7 125.1,119.7 C125.1,119.7 121.5,96.7 116,97.9 C112.8,98.6 95.8,129.8 95.8,129.8 C95.8,129.8 109.7,96.1 105.5,97.5 C102.4,98.5 96.6,112.4 96.6,112.4 C96.6,112.4 99.4,98.7 96.6,97.9 C93.8,97.1 78,112.4 78,112.4 C78,112.4 89.7,98.7 87.7,95.8 C84.6,91.5 81.1,91.3 76.8,93 C70.6,95.4 62.3,106.7 62.3,106.7 C62.3,106.7 70.6,95.2 69.2,91 C66.9,84.1 43,104.3 43,104.3 C43,104.3 57.1,91 53.9,88.1 C50.7,85.3 33.1,86.1 27.7,86.1 C11.4,86.2 5.8,82.4 0.9,78.5" fill="#373535"/>
    </g>
  </g>
  <g transform="matrix(0.01743200048804283, 0, 0, 0.01743200048804283, 108.33577728271484, 283.320068359375)" style="">
    <linearGradient id="a" gradientUnits="userSpaceOnUse" x1="-2901.952" y1="923.573" x2="-2061.249" y2="1420.331" gradientTransform="matrix(.1234 0 0 -.1234 1158.33 1550.273)">
      <stop offset="0" stop-color="#909ca9"/>
      <stop offset="1" stop-color="#ededee"/>
    </linearGradient>
    <path fill="url(#a)" d="M1410.773 814.195l-286.9 93.683-249.599 110.161-69.829 18.435c-17.784 16.916-36.431 34.049-56.599 51.397-22.119 19.082-42.72 36.433-58.553 49.008-17.564 13.88-43.587 39.902-56.814 56.38-19.735 24.721-35.348 50.96-42.071 71.13-11.928 36.433-6.07 73.297 16.916 107.346 29.492 43.369 88.261 87.606 156.785 117.749 34.916 15.4 93.683 35.132 137.92 46.19 73.512 18.651 215.771 38.819 294.054 41.857 15.828.65 37.082.65 37.947 0 1.737-1.088 13.881-24.289 27.979-53.129 48.142-98.238 82.838-190.402 101.703-269.119 11.276-47.706 20.166-111.246 26.019-186.492 1.521-21.036 2.169-91.514.868-115.37-1.953-39.033-5.423-70.692-10.84-101.703-.868-4.555-1.088-8.676-.652-8.892.865-.65 3.467-1.517 38.815-11.712l-7.153-16.912v-.005h.004zm-65.49 38.386c2.602 0 9.539 66.573 11.273 108.646.436 8.89.216 14.745-.216 14.745-1.733 0-36.649-20.599-61.583-36.212-21.687-13.663-62.888-40.988-69.393-46.192-2.173-1.517-1.957-1.733 15.828-7.807 30.14-10.194 101.706-33.18 104.091-33.18zm-146.161 48.143c1.953 0 6.937 2.816 18.865 10.191 44.671 27.974 105.393 61.805 131.415 73.083 8.022 3.469 8.887 2.166-9.542 14.746-39.468 26.889-88.697 53.344-148.983 80.018-10.624 4.771-19.514 8.456-19.73 8.456-.432 0 .865-5.418 2.598-11.925 14.53-54.001 22.772-108.647 23.208-152.452.216-21.687.216-21.687 2.169-22.334-.436.217-.22.217 0 .217zm-30.142 11.492c1.297 1.299.432 49.877-1.304 63.104-3.903 31.662-9.975 61.153-19.947 94.335-2.386 8.018-4.558 14.745-4.987 15.177-.872 1.083-30.581-27.975-40.339-39.251-16.916-19.518-30.141-39.035-39.9-58.117-4.988-9.759-12.793-28.84-12.144-29.492 3.469-2.385 117.753-46.622 118.621-45.756zm-141.826 55.731c.216 0 .432 0 .652.216.432.434 1.953 3.905 3.254 7.807 6.937 18.867 22.548 46.624 35.997 64.407 14.746 19.518 34.048 40.334 50.091 53.996 5.207 4.337 9.975 8.456 10.624 9.108 1.304 1.302 1.737 1.083-33.612 14.53-40.981 15.613-85.656 31.226-136.835 47.706a6825.474 6825.474 0 0 0-36.643 11.928c-1.955.652-1.303-.434 4.335-9.323 25.371-39.686 63.97-117.536 85.657-172.618 3.687-9.542 7.373-19.082 8.025-21.251.868-3.038 1.95-4.121 4.768-5.64 1.518-.43 3.038-.866 3.687-.866zm-43.367 17.999c.649.436-10.411 23.637-21.254 44.889-21.036 40.985-44.022 81.323-74.815 130.331-5.204 8.456-10.19 16.265-10.842 17.132-1.083 1.519-1.519 1.083-4.988-5.638-7.373-14.53-13.447-33.181-16.699-50.313-3.254-16.916-2.602-46.406 1.086-64.621 2.816-13.444 2.602-13.227 9.107-16.481 27.757-14.095 117.537-56.166 118.405-55.299zm374.073 15.182v9.107c0 48.359-5.204 114.716-12.797 163.077-1.301 8.456-2.389 15.393-2.602 15.613 0 0-6.288-1.733-13.661-3.905-32.527-10.193-67.875-25.156-99.754-42.718-21.038-11.494-51.612-30.363-50.743-31.231.213-.215 9.323-4.986 19.947-10.625 42.509-22.118 83.274-45.972 118.622-69.609 13.229-8.892 33.176-23.202 37.518-27.107l3.47-2.602zm-537.802 64.185c.867 0 .65 1.735-.651 9.542-.868 5.64-1.951 16.049-2.382 23.202-1.739 31.662 3.469 55.084 19.082 87.177 4.337 8.892 7.809 16.265 7.589 16.48-1.519 1.303-145.074 43.375-190.183 55.734-13.444 3.685-25.152 6.939-26.024 7.153-1.515.436-1.733.22-1.083-3.47 4.987-31.875 29.276-73.512 63.104-108.644 22.554-23.419 40.554-37.08 71.347-54.648 22.119-12.575 56.165-31.439 58.767-32.309.002-.217.218-.217.434-.217zm338.295 60.503c.216-.216 5.42 2.605 11.708 6.29 46.408 26.891 111.03 51.83 166.108 64.623l4.991 1.086-6.941 3.899c-28.84 16.049-123.606 55.515-220.538 91.732-14.098 5.202-27.975 10.409-30.581 11.492-2.602 1.083-4.988 1.735-4.988 1.519 0-.22 3.906-7.809 8.89-17.132 27.107-50.744 54.433-112.547 68.311-155.485 1.739-4.12 2.82-7.805 3.04-8.024zm-34.48 11.278c.22.221-1.517 4.771-3.687 9.975-18.865 45.756-43.59 95.636-75.249 151.583-8.022 14.314-14.746 25.808-14.966 25.808-.213 0-6.721-3.906-14.527-8.676-45.976-28.192-86.743-62.888-113.414-96.501l-3.905-4.771 19.732-5.422c70.696-19.298 130.762-40.116 190.4-65.704 8.459-3.471 15.4-6.292 15.616-6.292zm214.253 74.815s.217.217 0 0c.216 4.988-10.844 49.661-19.953 81.969-7.589 27.107-14.098 48.361-26.022 85.874-5.204 16.485-9.755 30.143-9.975 30.143-.216 0-1.517-.216-2.818-.647-64.405-11.714-122.089-27.977-176.303-49.661-15.182-6.074-36.866-15.833-38.167-16.916-.432-.438 12.58-6.506 29.06-13.663 98.669-43.154 201.024-92.164 236.153-113.196 4.119-2.603 7.373-3.903 8.025-3.903zm-494.646 16.916c.434.432-27.107 40.118-65.709 94.114-13.444 18.867-29.057 40.985-34.911 49.225-5.856 8.241-14.746 21.253-19.734 29.06l-9.112 14.096-9.759-8.24c-11.494-9.544-31.442-29.927-40.333-41.204-18.651-23.201-31.226-47.706-36.214-70.04-2.386-10.411-2.386-15.618-.22-16.265 3.252-.867 61.153-14.53 115.37-27.11 30.143-6.937 65.054-15.177 77.632-18.213 12.579-3.041 22.774-5.423 22.99-5.423zm27.756 10.626l6.937 7.806c31.231 34.914 63.108 60.724 101.708 83.272 6.941 3.906 12.144 7.373 11.708 7.594-1.514 1.083-134.016 48.136-195.385 69.389-34.478 12.143-62.888 21.901-63.102 21.901-.216 0-2.169-1.299-4.341-2.818l-3.901-2.82 6.288-9.106c20.383-29.493 45.976-61.803 101.707-129.028l38.381-46.19zm173.053 123.822c.213-.215 9.755 3.252 21.464 7.594 28.195 10.624 50.527 17.345 80.456 24.936 36.866 9.326 90.211 18.434 121.657 21.035 4.771.432 7.373.868 6.505 1.519-1.521.868-33.395 11.494-56.816 18.867-37.302 11.708-151.149 45.32-243.962 71.995-17.132 4.987-31.879 9.108-32.746 9.323-2.166.436-9.325-1.519-9.325-2.386 0-.431 5.204-7.153 11.494-14.527 31.225-37.3 62.238-78.935 88.044-118.403 7.154-10.846 13.229-19.736 13.229-19.953zm-38.17 1.087c.216.216-15.179 24.936-42.066 67.439-11.496 17.999-24.291 38.383-28.846 45.54-4.337 6.939-10.842 17.784-14.527 23.854l-6.29 11.061-3.252-.868c-7.809-2.169-62.672-21.471-77.202-27.325-18-7.157-36.649-15.829-50.529-23.202-17.346-9.326-39.03-23.206-37.297-23.637.433-.216 30.143-8.243 65.922-17.999 94.984-25.809 147.678-40.77 182.161-51.612 6.29-1.952 11.71-3.471 11.926-3.251zm269.985 63.318h.216c.868 2.171-34.26 99.755-47.06 130.547-2.815 6.939-3.896 8.677-5.417 8.456-3.687-.213-54.646-7.37-85.66-11.925-53.994-8.24-144.641-24.073-167.409-29.275l-5.204-1.083 32.307-7.378c69.396-15.613 102.791-24.069 136.619-34.478 42.722-13.011 85.011-29.276 127.729-49.225 6.722-3.037 12.361-5.422 13.879-5.639z"/>
    <linearGradient id="b" gradientUnits="userSpaceOnUse" x1="-2882.7" y1="10288.81" x2="-2206.249" y2="10288.81" gradientTransform="matrix(.1234 0 0 -.1234 1158.33 1550.273)">
      <stop offset="0" stop-color="#939fab"/>
      <stop offset="1" stop-color="#dcdee1"/>
    </linearGradient>
    <path fill="url(#b)" d="M1114.983 145.414c-4.771-.647-81.757 27.11-131.415 47.275-67.01 27.327-119.052 53.351-151.148 75.899-11.925 8.461-26.891 23.422-29.273 29.276-.867 2.169-1.303 4.771-1.303 7.373l29.06 27.541 69.175 22.119 164.594 29.493 188.228 32.312 1.953-16.264c-.649 0-1.085-.216-1.73-.216l-24.728-3.905-4.984-8.89c-25.59-45.107-53.781-101.056-70.261-138.789-12.793-29.276-24.938-63.102-31.662-87.391-3.687-14.746-4.119-15.613-6.501-15.829v-.005h-.005zm-3.474 11.063h.223c.213.214 1.081 6.29 1.95 13.442 3.683 30.364 10.411 59.635 21.035 91.297 8.022 23.855 8.022 22.555-1.301 19.734-22.119-6.07-121.221-23.202-193-33.177-11.494-1.519-21.253-3.036-21.253-3.252-.867-.867 51.827-28.41 75.031-39.25 29.709-13.665 111.246-47.711 117.315-48.794zm-209.047 97.15l8.461 2.816c45.97 15.616 161.551 37.736 225.31 42.94 7.154.651 13.229 1.303 13.442 1.303.216.216-5.852 3.469-13.661 7.154-30.79 15.397-64.621 34.264-88.042 48.794-6.937 4.335-13.229 7.807-14.094 7.807-.868 0-5.42-.868-10.191-1.519l-8.674-1.303-21.683-21.253c-38.167-37.08-68.094-65.704-79.588-76.549l-11.28-10.19zm-8.671 6.721l30.576 38.168c16.696 21.035 33.611 41.635 37.301 46.187 3.683 4.557 6.721 8.245 6.505 8.461-.868.65-44.236-7.809-67.226-13.011-23.637-5.423-33.395-8.025-47.924-12.577l-11.928-3.905v-3.038c.216-14.53 18.651-36.214 49.877-58.331l2.819-1.954zm259.791 52.046c.869 0 1.95 1.951 4.552 7.806 7.373 16.263 30.364 60.07 35.997 68.526 1.74 2.822 4.771 3.038-25.802-1.95-73.512-11.93-97.152-15.829-97.152-16.263 0-.216 2.169-1.735 4.988-3.254 22.771-12.575 45.756-28.624 66.142-45.756 4.988-4.121 9.542-8.024 10.407-8.676.216-.433.652-.649.868-.433z"/>
    <radialGradient id="c" cx="-14217.448" cy="7277.705" r="898.12" gradientTransform="matrix(-.1185 -.0178 -.036 .237 -198.955 -1314.415)" gradientUnits="userSpaceOnUse">
      <stop offset="0" stop-color="#ee352c"/>
      <stop offset="1" stop-color="#a91d22"/>
    </radialGradient>
    <path fill="url(#c)" d="M804.66 294.828s-4.768 7.593-.215 18.87c2.822 6.937 11.061 15.393 20.384 24.069 0 0 96.5 94.114 108.211 107.561 53.344 61.585 76.549 122.305 78.718 206.012 1.301 53.78-8.894 101.054-34.264 155.919-45.106 98.453-140.307 207.098-287.117 327.67l21.472-7.157c13.878-10.411 32.745-21.467 76.982-45.756 102.137-55.952 217.071-107.346 358.028-160.258 202.971-76.335 536.715-165.681 726.676-194.736l19.737-3.038-3.038-4.771c-17.345-26.891-29.276-43.587-43.59-61.369-41.633-51.612-92.157-93.463-153.964-128.161-85.007-47.489-194.956-84.571-334.173-112.112-26.239-5.207-83.923-15.181-130.763-22.337-99.321-15.393-163.51-26.021-234.203-38.165-25.37-4.339-63.323-10.843-88.478-16.263-13.011-2.822-37.947-8.676-57.464-15.398-15.613-6.075-38.168-12.147-42.939-30.58zm55.952 54.216c.214-.214 3.683 1.083 8.24 2.602 8.24 2.816 18.865 6.07 31.446 9.542a1599.47 1599.47 0 0 0 28.624 7.589c13.011 3.251 23.852 6.288 24.068 6.288 1.521 1.519 23.424 71.558 30.797 98.449 2.815 10.195 4.988 18.867 4.771 18.867-.223.22-2.605-3.469-5.423-8.456-25.373-44.673-65.491-89.995-111.899-126.428-6.069-4.333-10.624-8.237-10.624-8.453zm106.692 29.492c1.085 0 5.856.651 11.708 1.951 36.866 8.24 103.008 20.818 145.293 27.975 7.157 1.083 12.797 2.387 12.797 2.818 0 .436-2.605 1.951-5.859 3.688-7.153 3.685-35.997 20.815-45.536 27.322-24.073 16.047-45.756 33.395-61.371 49.008-6.288 6.29-11.712 11.494-11.712 11.494s-1.297-3.685-2.386-8.242c-7.802-30.143-24.069-74.816-38.815-106.258-2.386-4.986-4.339-9.541-4.339-9.973 0 .433 0 .217.22.217zm187.795 35.781c1.301.432 3.47 7.806 7.806 24.069 8.025 31.446 11.712 66.576 10.411 99.321-.436 9.108-.868 17.564-1.304 18.651l-.649 2.166-11.276-3.685c-23.204-7.373-60.935-18.435-93.245-27.541-18.436-4.988-33.395-9.542-33.395-9.975 0-1.303 26.891-28.192 38.383-38.383 21.898-19.303 81.316-65.275 83.269-64.623zm14.963 2.166c.652-.647 89.779 14.746 130.331 22.554 30.145 5.854 73.948 14.963 76.549 16.049 1.301.432-3.254 3.034-17.784 9.539-57.248 25.808-99.754 49.008-142.036 77.202-11.06 7.373-20.386 13.444-20.602 13.444-.216 0-.433-6.287-.433-13.878 0-41.201-8.241-82.838-23.424-117.968-1.517-3.47-2.818-6.722-2.601-6.942zm230.516 45.542c.652.65-2.169 18.217-4.771 28.624-7.806 32.312-28.84 80.24-54.643 125.343-4.558 8.024-8.677 14.53-9.114 14.746-.429.216-6.285-3.038-13.009-6.941-25.154-14.746-53.778-28.624-85.007-41.637-8.671-3.685-16.263-6.723-16.48-7.153-1.521-1.303 68.308-47.493 105.174-69.612 29.276-17.781 76.982-44.239 77.85-43.37zm16.48 2.601c1.953 0 41.421 10.844 62.019 16.916 50.963 15.181 109.512 36.648 147.679 53.996l15.828 7.159-11.056 2.6c-93.245 21.467-173.049 46.192-250.034 77.418-6.289 2.602-11.928 4.771-12.357 4.771-.436 0 1.733-4.987 4.552-11.061 23.204-49.225 38.167-100.62 41.85-144.427.221-4.121.867-7.372 1.519-7.372zm-392.938 90.213c.649-.652 30.793 6.506 47.057 11.056 24.721 6.942 77.198 24.505 77.198 25.808 0 .216-5.853 5.204-12.79 11.278-28.408 23.637-55.734 48.572-88.481 80.234-9.759 9.328-17.997 16.917-18.429 16.917-.436 0-.649-1.304-.436-3.038 4.987-36.433 3.906-83.272-3.034-130.763-.653-6.074-1.302-11.276-1.085-11.492zm633.433.652c.429.431-13.881 22.984-22.988 35.777-13.009 18.649-32.098 43.375-75.252 97.588-22.765 28.622-48.358 60.936-56.812 71.778-8.678 10.842-15.831 19.948-16.051 19.948-.216 0-3.031-3.901-6.069-8.671-24.289-36.433-53.349-68.311-87.829-96.935-6.505-5.423-13.658-11.278-16.044-13.013-2.386-1.734-4.339-3.469-4.339-3.685 0-.649 36.862-16.483 64.841-27.757 49.01-19.952 115.794-43.805 165.892-59.203 26.24-8.239 54.215-16.263 54.651-15.827zm16.696 4.334c.865-.215 6.072 2.387 12.361 6.07 52.697 30.143 104.305 68.962 145.077 108.864 11.492 11.278 39.9 40.77 39.464 40.986 0 0-9.975.867-21.683 1.733-91.296 6.942-208.178 26.239-320.511 53.345-7.589 1.733-14.31 3.252-14.746 3.252-.429 0 8.025-8.456 18.653-18.647 65.922-63.538 96.067-103.656 131.628-175.22 4.986-10.623 9.325-19.731 9.757-20.383-.216 0-.216 0 0 0zm-482.936 49.446c3.038.647 31.229 13.88 52.48 24.503 19.517 9.755 48.794 25.372 50.311 26.671.216.216-10.195 5.638-22.984 11.928-40.772 20.384-75.684 39.682-112.118 61.802-10.408 6.29-19.082 11.497-19.298 11.497-.868 0-.652-.872 5.204-11.497 19.518-35.561 35.129-78.065 44.023-119.486.864-3.252 1.733-5.418 2.382-5.418zm-28.192 5.202c.652.652-6.721 27.323-11.273 41.853-8.894 27.541-23.856 62.02-38.383 88.043-3.474 6.069-8.677 14.961-11.496 19.948l-5.42 8.674-12.144-11.707c-14.094-13.663-25.59-22.12-40.333-29.712-5.859-3.033-10.411-5.638-10.411-6.069 0-1.735 37.082-35.347 65.49-59.635 20.383-17.566 63.321-52.045 63.97-51.395zm172.404 70.913l10.627 6.937c24.282 15.833 52.906 36.866 74.813 55.298 12.357 10.19 36.21 31.662 40.985 36.866l2.598 2.822-17.561 4.986c-99.321 27.538-176.087 52.043-265.649 85.007-9.975 3.685-18.433 6.721-19.085 6.721-1.297 0-2.385 1.083 19.954-19.519 57.251-52.691 107.992-110.812 145.726-167.411l7.592-11.707zm-45.324 11.276c.432.432-29.276 42.284-47.06 65.922-21.251 28.192-58.985 75.465-85.007 106.256-10.84 12.797-20.163 23.422-20.599 23.64-.652.216-.868-3.036-.868-8.024 0-26.242-6.721-54.216-18.433-78.068-4.988-9.975-5.856-12.361-4.768-13.444 4.119-3.688 67.223-39.686 107.123-61.153 26.89-14.312 68.956-35.563 69.612-35.129zm-274.107 67.225c.652 0 5.64 2.6 11.279 5.638 13.878 7.589 26.239 16.046 37.298 25.156.432.432-5.204 4.988-12.577 10.406-20.602 14.746-51.828 38.385-70.041 52.915-19.088 15.18-19.734 15.613-17.568 12.361 14.314-21.903 21.467-34.264 29.06-50.093 6.721-14.094 13.442-30.793 18.213-45.323 1.734-6.289 3.904-11.06 4.336-11.06zm73.083 57.248c1.081-.214 2.386 1.735 8.238 10.411 12.361 18.429 21.903 43.154 24.292 63.104l.429 4.339-29.705 11.494c-53.133 20.599-102.139 40.985-135.322 56.162-9.322 4.339-25.587 12.144-36.211 17.352-10.627 5.418-19.301 9.539-19.301 9.323s6.721-5.204 14.961-11.278c64.844-47.055 121.007-98.669 163.076-150.279 4.555-5.423 8.677-10.411 9.107-10.627l.436-.001zm-33.612 8.242c.868.867-23.853 28.84-40.768 45.971-41.853 42.723-83.273 76.12-134.669 108.649-6.505 4.119-12.359 7.804-13.011 8.24-1.519.867.432-1.303 22.986-25.808 14.314-15.397 25.155-28.408 37.516-44.453 8.24-10.624 9.759-12.143 21.688-20.604 31.878-22.987 105.39-72.864 106.258-71.995z"/>
  </g>
  <path fill="#231F1F" d="M 161.874 297.513 C 161.771 297.513 161.668 297.523 161.567 297.523 C 159.491 297.634 158.092 298.547 157.274 300.33 C 156.574 301.943 156.65 304.051 157.282 305.674 C 158.015 307.259 159.202 308.096 161.182 308.412 C 161.601 308.481 161.882 308.711 162.693 309.658 L 163.691 310.828 L 165.502 310.828 L 164.298 309.614 C 163.632 308.949 163.094 308.369 163.094 308.318 C 163.094 308.267 163.349 308.156 163.657 308.062 C 164.673 307.754 165.516 306.969 166.106 305.767 C 166.584 304.801 166.653 304.502 166.721 303.3 C 166.9 299.723 165.014 297.487 161.874 297.512 L 161.874 297.513 Z M 163.461 306.868 C 162.58 307.295 161.301 307.38 160.466 307.073 C 159.603 306.756 158.767 305.86 158.392 304.845 C 157.973 303.735 158.033 301.687 158.511 300.765 C 159.279 299.298 160.295 298.622 161.78 298.622 C 163.982 298.622 165.235 299.971 165.398 302.506 C 165.527 304.622 164.819 306.209 163.462 306.867 L 163.461 306.868 Z M 194.739 300.568 C 193.979 300.568 193.398 300.876 193.007 301.482 L 192.699 301.961 L 192.699 300.714 L 191.385 300.714 L 191.385 308.192 L 192.699 308.192 L 192.699 305.802 C 192.699 303.617 192.726 303.361 193.031 302.763 C 193.452 301.943 194.176 301.534 194.876 301.73 L 195.346 301.867 L 195.346 300.571 L 194.739 300.571 L 194.739 300.568 Z M 187.017 300.5 C 186.759 300.5 186.487 300.535 186.214 300.595 C 184.456 301.054 183.464 302.738 183.525 304.47 C 183.525 305.92 183.807 306.645 184.506 307.406 C 185.941 308.582 187.237 308.676 188.987 308.045 C 189.286 307.918 189.611 307.771 189.611 307.771 L 189.611 306.595 L 188.987 306.918 C 187.571 307.534 186.504 307.534 185.65 306.808 C 185.105 306.253 184.865 305.588 184.754 304.828 L 190.054 304.828 L 190.054 303.82 C 190.054 301.765 188.817 300.467 187.016 300.5 L 187.017 300.5 Z M 184.874 303.779 C 184.874 303.779 185.069 302.497 185.796 301.993 C 186.145 301.747 186.546 301.628 186.939 301.628 C 187.332 301.628 187.725 301.755 188.049 302.003 C 188.714 302.515 188.826 303.77 188.826 303.77 L 184.874 303.77 L 184.874 303.779 Z M 153.185 302.431 C 151.76 301.568 151.128 300.945 151.206 300.211 C 151.427 298.18 153.937 298.46 155.326 299.229 L 155.336 297.863 C 155.336 297.863 154.568 297.53 153.467 297.513 C 151.777 297.487 150.685 298.041 150.173 299.168 C 149.421 300.832 150.087 302.087 152.493 303.486 C 153.843 304.272 154.44 304.955 154.44 305.698 C 154.44 307.235 152.587 307.771 150.676 306.807 C 150.282 306.611 149.95 306.448 149.933 306.448 C 149.864 306.883 149.899 307.926 149.899 307.926 C 149.899 307.926 150.486 308.173 151.367 308.343 C 153.552 308.778 155.539 307.754 155.727 306.09 C 155.891 304.528 155.326 303.708 153.186 302.429 L 153.185 302.431 Z M 206.372 300.483 C 206.116 300.483 205.844 300.518 205.56 300.578 C 203.803 301.038 202.814 302.721 202.881 304.453 C 202.881 305.902 203.162 306.62 203.862 307.38 C 205.296 308.557 206.593 308.652 208.351 308.02 C 208.649 307.892 208.972 307.748 208.972 307.748 L 208.972 306.57 L 208.35 306.894 C 206.931 307.509 205.864 307.509 205.013 306.783 C 204.465 306.229 204.227 305.571 204.116 304.803 L 209.407 304.803 L 209.407 303.795 C 209.407 301.749 208.17 300.45 206.369 300.485 L 206.372 300.483 Z M 204.229 303.761 C 204.229 303.761 204.426 302.481 205.152 301.968 C 205.5 301.721 205.901 301.601 206.294 301.601 C 206.686 301.601 207.08 301.729 207.404 301.977 C 208.069 302.489 208.181 303.753 208.181 303.753 L 204.23 303.753 L 204.229 303.761 Z M 180.137 302.447 C 178.712 301.586 178.081 300.961 178.158 300.227 C 178.379 298.195 180.889 298.477 182.278 299.246 L 182.288 297.879 C 182.288 297.879 181.52 297.547 180.418 297.531 C 178.729 297.506 177.637 298.059 177.124 299.187 C 176.373 300.851 177.048 302.106 179.446 303.505 C 180.795 304.29 181.392 304.963 181.392 305.707 C 181.392 307.244 179.54 307.789 177.628 306.816 C 177.236 306.62 176.904 306.459 176.885 306.459 C 176.816 306.894 176.851 307.937 176.851 307.937 C 176.851 307.937 177.431 308.175 178.31 308.353 C 180.496 308.79 182.484 307.766 182.672 306.102 C 182.834 304.548 182.27 303.729 180.137 302.449 L 180.137 302.447 Z M 214.095 300.551 C 213.336 300.551 212.748 300.859 212.363 301.465 L 212.056 301.943 L 212.056 300.698 L 210.741 300.698 L 210.741 308.173 L 212.055 308.173 L 212.055 305.783 C 212.055 303.599 212.081 303.343 212.388 302.745 C 212.808 301.926 213.532 301.517 214.232 301.713 L 214.702 301.85 L 214.702 300.551 L 214.095 300.551 Z M 169.684 302.404 L 169.684 297.641 L 168.359 297.641 L 168.359 308.19 L 173.932 308.19 L 173.932 306.945 L 169.684 306.945 L 169.684 302.404 Z M 200.329 303.888 L 199.237 306.731 L 198.187 303.873 L 197.12 300.706 L 195.764 300.706 C 196.643 303.198 197.599 305.733 198.563 308.19 C 198.981 308.2 199.4 308.19 199.817 308.19 L 201.293 304.487 L 202.795 300.707 L 201.498 300.707 C 201.498 300.707 200.926 302.208 200.329 303.889 L 200.329 303.888 Z M 172.737 294.767 C 172.951 294.767 173.129 294.699 173.276 294.552 C 173.42 294.407 173.497 294.236 173.497 294.023 C 173.497 293.81 173.42 293.632 173.276 293.495 C 173.129 293.358 172.959 293.289 172.747 293.289 C 172.532 293.289 172.354 293.358 172.209 293.503 C 172.062 293.648 171.995 293.825 171.995 294.031 C 171.995 294.247 172.064 294.424 172.209 294.559 C 172.346 294.696 172.524 294.765 172.737 294.765 L 172.737 294.767 Z M 172.268 293.553 C 172.395 293.426 172.549 293.367 172.747 293.367 C 172.933 293.367 173.088 293.426 173.217 293.553 C 173.344 293.68 173.413 293.835 173.413 294.023 C 173.413 294.211 173.344 294.373 173.217 294.501 C 173.088 294.627 172.933 294.688 172.747 294.688 C 172.559 294.688 172.405 294.63 172.278 294.501 C 172.15 294.373 172.082 294.211 172.082 294.023 C 172.082 293.835 172.141 293.68 172.268 293.553 Z M 172.584 294.092 L 172.67 294.092 C 172.73 294.092 172.791 294.15 172.841 294.262 L 172.944 294.493 L 173.105 294.493 L 172.978 294.236 C 172.926 294.134 172.875 294.074 172.816 294.057 C 172.891 294.04 172.951 294.014 172.994 293.963 C 173.037 293.919 173.052 293.86 173.052 293.792 C 173.052 293.714 173.028 293.655 172.976 293.612 C 172.917 293.563 172.824 293.537 172.702 293.537 L 172.43 293.537 L 172.43 294.493 L 172.567 294.493 L 172.567 294.091 L 172.584 294.092 Z M 172.584 293.648 L 172.703 293.648 C 172.789 293.648 172.85 293.665 172.883 293.69 C 172.916 293.716 172.924 293.749 172.924 293.81 C 172.924 293.921 172.856 293.973 172.729 293.973 L 172.582 293.973 L 172.582 293.648 L 172.584 293.648 Z M 150.694 294.006 C 150.694 293.673 150.684 293.426 150.676 293.28 L 150.684 293.28 C 150.718 293.453 150.76 293.58 150.795 293.666 L 152.067 296.508 L 152.28 296.508 L 153.553 293.64 C 153.587 293.562 153.621 293.444 153.663 293.281 L 153.672 293.281 C 153.647 293.565 153.639 293.812 153.639 294.009 L 153.639 296.517 L 154.074 296.517 L 154.074 292.788 L 153.528 292.788 L 152.358 295.382 C 152.315 295.484 152.256 295.638 152.179 295.842 L 152.162 295.842 C 152.136 295.741 152.077 295.587 151.991 295.399 L 150.848 292.779 L 150.268 292.779 L 150.268 296.508 L 150.687 296.508 L 150.687 294.008 L 150.694 294.006 Z M 155.028 294.013 L 155.404 294.013 L 155.404 296.336 L 155.028 296.336 L 155.028 294.013 Z M 155.217 293.162 C 155.294 293.162 155.361 293.135 155.412 293.083 C 155.464 293.033 155.498 292.966 155.498 292.888 C 155.498 292.812 155.473 292.743 155.413 292.692 C 155.36 292.64 155.293 292.613 155.216 292.613 C 155.139 292.613 155.071 292.64 155.02 292.692 C 154.968 292.743 154.933 292.812 154.933 292.888 C 154.933 292.973 154.96 293.033 155.02 293.083 C 155.078 293.135 155.139 293.162 155.216 293.162 L 155.217 293.162 Z M 158.084 296.387 L 158.084 295.978 C 157.878 296.131 157.657 296.208 157.428 296.208 C 157.154 296.208 156.932 296.114 156.77 295.933 C 156.608 295.756 156.522 295.508 156.522 295.199 C 156.522 294.877 156.608 294.62 156.786 294.425 C 156.957 294.236 157.18 294.143 157.452 294.143 C 157.674 294.143 157.887 294.211 158.084 294.348 L 158.084 293.912 C 157.905 293.819 157.7 293.776 157.47 293.776 C 157.043 293.776 156.71 293.912 156.462 294.177 C 156.215 294.441 156.087 294.8 156.087 295.234 C 156.087 295.62 156.198 295.944 156.428 296.191 C 156.668 296.446 156.974 296.575 157.35 296.575 C 157.641 296.567 157.878 296.506 158.084 296.387 Z M 159.159 295.149 C 159.159 294.843 159.228 294.595 159.355 294.424 C 159.475 294.27 159.62 294.193 159.79 294.193 C 159.935 294.193 160.038 294.22 160.114 294.28 L 160.114 293.835 C 160.055 293.81 159.97 293.801 159.859 293.801 C 159.706 293.801 159.569 293.853 159.448 293.947 C 159.321 294.048 159.22 294.202 159.159 294.398 L 159.15 294.398 L 159.15 293.853 L 158.724 293.853 L 158.724 296.515 L 159.151 296.515 L 159.151 295.149 L 159.159 295.149 Z M 161.609 296.568 C 162.011 296.568 162.334 296.439 162.573 296.182 C 162.812 295.928 162.931 295.585 162.931 295.159 C 162.931 294.723 162.822 294.39 162.599 294.142 C 162.378 293.895 162.07 293.776 161.669 293.776 C 161.267 293.776 160.944 293.895 160.705 294.126 C 160.449 294.38 160.313 294.74 160.313 295.201 C 160.313 295.601 160.423 295.935 160.654 296.182 C 160.893 296.439 161.209 296.567 161.609 296.567 L 161.609 296.568 Z M 161.003 294.399 C 161.165 294.228 161.378 294.143 161.643 294.143 C 161.917 294.143 162.122 294.228 162.275 294.399 C 162.428 294.578 162.505 294.833 162.505 295.175 C 162.505 295.5 162.437 295.756 162.292 295.927 C 162.147 296.106 161.934 296.2 161.651 296.2 C 161.377 296.2 161.165 296.106 161.003 295.927 C 160.841 295.746 160.764 295.5 160.764 295.175 C 160.747 294.852 160.832 294.588 161.003 294.399 Z M 164.8 296.336 C 164.962 296.191 165.049 296.013 165.049 295.79 C 165.049 295.594 164.98 295.431 164.853 295.303 C 164.749 295.201 164.588 295.108 164.357 295.014 C 164.151 294.928 164.024 294.851 163.955 294.791 C 163.887 294.723 163.845 294.638 163.845 294.518 C 163.845 294.407 163.888 294.321 163.972 294.253 C 164.059 294.185 164.168 294.151 164.314 294.151 C 164.545 294.151 164.742 294.212 164.922 294.34 L 164.922 293.914 C 164.749 293.828 164.562 293.786 164.349 293.786 C 164.075 293.786 163.844 293.862 163.674 294.008 C 163.495 294.152 163.409 294.341 163.409 294.561 C 163.409 294.757 163.468 294.92 163.579 295.039 C 163.674 295.14 163.834 295.244 164.057 295.337 C 164.271 295.431 164.416 295.516 164.493 295.585 C 164.569 295.653 164.603 295.739 164.603 295.84 C 164.603 296.088 164.433 296.217 164.1 296.217 C 163.844 296.217 163.614 296.132 163.408 295.962 L 163.408 296.422 C 163.594 296.533 163.817 296.584 164.064 296.584 C 164.38 296.568 164.628 296.49 164.798 296.337 L 164.8 296.336 Z M 166.832 293.776 C 166.43 293.776 166.108 293.895 165.867 294.126 C 165.613 294.38 165.476 294.74 165.476 295.201 C 165.476 295.602 165.587 295.935 165.817 296.182 C 166.057 296.439 166.372 296.567 166.773 296.567 C 167.184 296.567 167.498 296.438 167.737 296.181 C 167.977 295.927 168.096 295.584 168.096 295.157 C 168.096 294.722 167.985 294.389 167.763 294.141 C 167.533 293.894 167.225 293.774 166.834 293.774 L 166.832 293.776 Z M 167.66 295.175 C 167.66 295.5 167.592 295.756 167.447 295.927 C 167.302 296.106 167.088 296.2 166.806 296.2 C 166.532 296.2 166.32 296.106 166.157 295.927 C 165.996 295.746 165.918 295.5 165.918 295.175 C 165.918 294.833 166.004 294.568 166.175 294.39 C 166.336 294.22 166.55 294.134 166.815 294.134 C 167.079 294.134 167.292 294.22 167.446 294.39 C 167.582 294.578 167.659 294.833 167.659 295.175 L 167.66 295.175 Z M 168.813 296.507 L 169.239 296.507 L 169.239 294.202 L 169.862 294.202 L 169.862 293.844 L 169.239 293.844 L 169.239 293.433 C 169.239 293.059 169.383 292.871 169.683 292.871 C 169.783 292.871 169.887 292.897 169.963 292.94 L 169.963 292.555 C 169.887 292.521 169.783 292.513 169.655 292.513 C 169.425 292.513 169.238 292.581 169.084 292.726 C 168.905 292.897 168.81 293.118 168.81 293.417 L 168.81 293.854 L 168.359 293.854 L 168.359 294.212 L 168.81 294.212 L 168.81 296.508 L 168.813 296.507 Z M 170.562 295.781 C 170.562 296.302 170.792 296.567 171.262 296.567 C 171.432 296.567 171.56 296.539 171.663 296.479 L 171.663 296.113 C 171.585 296.172 171.492 296.199 171.389 296.199 C 171.244 296.199 171.142 296.164 171.082 296.087 C 171.022 296.011 170.987 295.882 170.987 295.704 L 170.987 294.201 L 171.663 294.201 L 171.663 293.843 L 170.987 293.843 L 170.987 293.058 C 170.841 293.109 170.697 293.152 170.56 293.195 L 170.56 293.843 L 170.101 293.843 L 170.101 294.201 L 170.56 294.201 L 170.56 295.78 L 170.562 295.781 Z M 216.366 300.688 C 216.221 300.551 216.05 300.483 215.838 300.483 C 215.622 300.483 215.444 300.551 215.299 300.698 C 215.154 300.842 215.086 301.021 215.086 301.227 C 215.086 301.44 215.154 301.618 215.298 301.755 C 215.443 301.892 215.621 301.961 215.837 301.961 C 216.049 301.961 216.228 301.892 216.375 301.747 C 216.519 301.6 216.595 301.431 216.595 301.219 C 216.587 301.003 216.51 300.825 216.365 300.688 L 216.366 300.688 Z M 216.298 301.697 C 216.17 301.823 216.016 301.882 215.828 301.882 C 215.641 301.882 215.487 301.823 215.358 301.697 C 215.231 301.568 215.162 301.406 215.162 301.216 C 215.162 301.031 215.221 300.876 215.35 300.747 C 215.477 300.62 215.631 300.561 215.828 300.561 C 216.014 300.561 216.168 300.62 216.298 300.747 C 216.425 300.876 216.493 301.031 216.493 301.216 C 216.493 301.414 216.434 301.568 216.298 301.697 Z M 215.914 301.261 C 215.99 301.243 216.051 301.209 216.093 301.167 C 216.136 301.123 216.151 301.063 216.151 300.995 C 216.151 300.918 216.127 300.858 216.076 300.816 C 216.017 300.766 215.922 300.74 215.801 300.74 L 215.529 300.74 L 215.529 301.695 L 215.666 301.695 L 215.666 301.294 L 215.751 301.294 C 215.81 301.294 215.869 301.353 215.922 301.464 L 216.024 301.694 L 216.186 301.694 L 216.059 301.438 C 216.015 301.326 215.964 301.275 215.912 301.259 L 215.914 301.261 Z M 215.82 301.175 L 215.673 301.175 L 215.673 300.852 L 215.793 300.852 C 215.879 300.852 215.938 300.868 215.973 300.894 C 216.007 300.92 216.015 300.952 216.015 301.013 C 216.015 301.124 215.946 301.175 215.819 301.175 L 215.82 301.175 Z" style="" transform="matrix(1, 0, 0, 1, 0, 8.881784197001252e-16)"/>
  <text style="fill: rgb(51, 51, 51); font-family: Roboto; font-size: 10px; font-weight: 300; text-anchor: middle; white-space: pre;" x="298.145" y="184.584" transform="matrix(1, 0, 0, 1, 0, 8.881784197001252e-16)">Write-ahead Log</text>
  <text style="fill: rgb(51, 51, 51); font-family: Roboto; font-size: 10px; font-weight: 300; text-anchor: middle; white-space: pre;" x="297.463" y="224.2" transform="matrix(1, 0, 0, 1, 0, 8.881784197001252e-16)">Operation Log</text>
  <text style="fill: rgb(51, 51, 51); font-family: Roboto; font-size: 10px; font-weight: 300; text-anchor: middle; white-space: pre;" x="296.009" y="263.839" transform="matrix(1, 0, 0, 1, 0, 8.881784197001252e-16)">Commit Log</text>
  <text style="fill: rgb(51, 51, 51); font-family: Roboto; font-size: 10px; font-weight: 300; text-anchor: middle; white-space: pre;" x="298.009" y="302.062" transform="matrix(1, 0, 0, 1, 0, 8.881784197001252e-16)">Transaction Log</text>
</svg>