<?xml version="1.0" encoding="UTF-8"?><svg id="Layer_1" xmlns="http://www.w3.org/2000/svg" viewBox="0 0 1920 1080"><defs><style>.cls-1{letter-spacing:0em;}.cls-2{font-size:142.21px;}.cls-2,.cls-3,.cls-4,.cls-5{isolation:isolate;}.cls-2,.cls-4{font-family:Roboto-Light, Roboto;font-weight:300;}.cls-2,.cls-4,.cls-5{fill:#2d3c2d;}.cls-6,.cls-7,.cls-8,.cls-9,.cls-10{fill:none;stroke-miterlimit:4;}.cls-6,.cls-7,.cls-8,.cls-10{stroke:#bdbdbd;}.cls-7{stroke-dasharray:0 0 5.92 5.92;}.cls-8{stroke-dasharray:0 0 5.96 5.96;}.cls-11{letter-spacing:-.1em;}.cls-12{fill:#000;}.cls-12,.cls-13,.cls-14{stroke-width:0px;}.cls-9{stroke:#283429;stroke-width:3px;}.cls-15{letter-spacing:-.01em;}.cls-10{stroke-width:1px;}.cls-16{letter-spacing:0em;}.cls-13{fill:#fff;}.cls-4{font-size:50px;}.cls-17{letter-spacing:-.03em;}.cls-5{font-family:Roboto-Medium, Roboto;font-size:74.03px;font-weight:500;}.cls-14{fill:#283429;}</style></defs><rect class="cls-13" x="-8.66" y="-3.48" width="1943.67" height="1093.58"/><path class="cls-10" d="M373.33,924.34v-212.84c0-16.49,13.37-29.87,29.87-29.87h909.31s0,272.57,0,272.57H403.2c-16.49,0-29.87-13.37-29.87-29.87h0Z"/><text class="cls-2" transform="translate(442.8 859.48)"><tspan x="0" y="0">0</tspan></text><text class="cls-2" transform="translate(679.65 859.48)"><tspan x="0" y="0">1</tspan></text><text class="cls-2" transform="translate(916.49 859.48)"><tspan x="0" y="0">2</tspan></text><text class="cls-2" transform="translate(1153.34 859.48)"><tspan x="0" y="0">3</tspan></text><text class="cls-2" transform="translate(1390.18 859.48)"><tspan x="0" y="0">4</tspan></text><line class="cls-10" x1="599.67" y1="681.63" x2="599.67" y2="954.2"/><line class="cls-10" x1="842.92" y1="681.63" x2="842.92" y2="954.2"/><line class="cls-10" x1="1079.55" y1="681.63" x2="1079.55" y2="954.2"/><g class="cls-3"><text class="cls-4" transform="translate(367.33 478.73)"><tspan x="0" y="0">First </tspan><tspan class="cls-15" x="109.69" y="0">E</tspan><tspan x="137.5" y="0">vent</tspan></text></g><g class="cls-3"><text class="cls-4" transform="translate(1234.73 478.73)"><tspan x="0" y="0">Next </tspan><tspan class="cls-15" x="113.87" y="0">E</tspan><tspan x="141.67" y="0">vent S</tspan><tspan class="cls-16" x="276.86" y="0">t</tspan><tspan x="292.43" y="0">ored</tspan></text></g><g class="cls-3"><text class="cls-5" transform="translate(866.37 245.85)"><tspan x="0" y="0">Kafka</tspan><tspan class="cls-17" x="191.66" y="0"> </tspan><tspan class="cls-11" x="207.93" y="0">T</tspan><tspan class="cls-1" x="245.35" y="0">opic</tspan></text></g><path class="cls-12" d="M715.28,129.13c-5.41-5.54-14.32-5.54-19.73,0h-.07c-2.62,2.68-4.08,6.3-4.06,10.05,0,3.95,1.55,7.49,4.07,10.01l.07.07c2.48,2.54,5.94,4.11,9.82,4.11s7.38-1.56,9.9-4.11l.03-.07c2.52-2.52,4.06-6.06,4.06-10.01s-1.53-7.49-4.06-10.05h-.03ZM705.38,323.45c3.89,0,7.38-1.61,9.9-4.14l.03-.07c2.52-2.52,4.06-6.08,4.06-9.99s-1.53-7.5-4.06-10.06h-.03c-2.59-2.68-6.17-4.19-9.9-4.17-3.71-.03-7.27,1.48-9.83,4.17h-.07c-2.51,2.56-4.07,6.11-4.07,10.06s1.55,7.47,4.07,9.99l.07.07c2.49,2.53,5.95,4.14,9.83,4.14ZM781.44,280.44c3.46-.92,6.58-3.18,8.5-6.59l.26-.5c1.65-3.17,2.04-6.84,1.1-10.28-.93-3.63-3.27-6.75-6.51-8.64l-.2-.14c-3.15-1.78-6.89-2.23-10.39-1.27-3.47.88-6.59,3.23-8.49,6.61-1.93,3.36-2.32,7.23-1.41,10.79.96,3.5,3.18,6.66,6.51,8.64h.02c3.33,1.95,7.1,2.3,10.61,1.39ZM719.7,209.67c-3.76-3.86-8.93-6.03-14.31-6.04-5.59,0-10.63,2.33-14.29,6.04-3.64,3.71-5.9,8.83-5.9,14.53s2.25,10.84,5.9,14.6c7.86,7.99,20.74,7.99,28.6,0,3.66-3.76,5.9-8.9,5.9-14.6s-2.25-10.81-5.9-14.53ZM711.65,185.47c8.12,1.36,15.42,5.32,20.99,11.03h.04c.88.9,1.75,1.89,2.55,2.88l13.94-8.2c-1.83-5.65-2-11.7-.45-17.43,2.02-7.81,7.08-14.49,14.04-18.57l.24-.15c6.83-3.97,14.98-5.03,22.6-2.95,7.42,2.02,14.12,6.95,18.3,14.29v.02c4.15,7.3,4.99,15.67,3.02,23.21-2.02,7.82-7.07,14.51-14.04,18.58l-1.91,1.14h-.19c-6.46,3.12-13.83,3.81-20.76,1.94-5.64-1.55-10.71-4.71-14.6-9.1l-13.92,8.17c3.31,8.96,3.31,18.8,0,27.75l13.92,8.15c3.98-4.53,9.05-7.61,14.6-9.1,7.72-2.14,15.98-1.03,22.85,3.08l.46.22v.02c6.73,4.14,11.6,10.72,13.57,18.37,2.06,7.83.98,16.15-3.02,23.18l-.25.51-.03-.05c-3.98,6.77-10.43,11.73-18,13.84-7.72,2.08-15.95.97-22.85-3.06v-.06c-6.95-4.09-12-10.77-14.04-18.58-1.53-5.73-1.38-11.77.45-17.4l-13.94-8.18c-.8.98-1.65,1.93-2.55,2.84l-.04.05c-5.65,5.8-13,9.65-20.99,10.97v16.38c5.73,1.23,10.95,4.12,15.04,8.31l.02.04c5.45,5.51,8.81,13.19,8.81,21.62s-3.37,16.04-8.81,21.58l-.02.09c-5.61,5.73-13.28,8.96-21.3,8.97-8-.02-15.66-3.25-21.27-8.96h-.02v-.09c-5.66-5.76-8.84-13.51-8.83-21.58,0-8.44,3.37-16.12,8.83-21.62v-.04h.02c4.09-4.18,9.31-7.06,15.02-8.31v-16.38c-7.98-1.32-15.34-5.17-20.97-10.97l-.06-.05c-7.25-7.39-11.32-17.34-11.31-27.7,0-10.81,4.36-20.59,11.31-27.69h.06c5.64-5.81,12.99-9.68,20.97-11.03v-16.31c-5.71-1.27-10.92-4.16-15.02-8.33h-.02v-.04c-5.67-5.76-8.84-13.53-8.83-21.62,0-8.4,3.37-16.09,8.83-21.62l.02-.02c5.59-5.75,13.25-8.99,21.27-8.99,8.3,0,15.82,3.42,21.3,8.99v.02h.02c5.45,5.53,8.81,13.22,8.81,21.62s-3.37,16.07-8.81,21.62l-.02.05c-4.1,4.17-9.32,7.07-15.04,8.33v16.31ZM789.93,174.59l-.12-.18c-1.84-3.16-4.85-5.48-8.39-6.44-3.59-.98-7.42-.48-10.63,1.41h.02c-3.35,1.93-5.59,5.1-6.53,8.64-.91,3.52-.52,7.4,1.41,10.78l.07.09c1.93,3.35,5,5.58,8.43,6.49,3.44.99,7.28.57,10.59-1.39l.18-.09c3.14-1.92,5.41-4.98,6.33-8.53.97-3.63.49-7.5-1.36-10.78"/><line class="cls-9" x1="482.78" y1="498.34" x2="482.78" y2="638.31"/><polygon class="cls-14" points="474.07 632.37 482.78 664.89 491.5 632.37 474.07 632.37"/><line class="cls-9" x1="1430.17" y1="498.34" x2="1430.17" y2="638.31"/><polygon class="cls-14" points="1421.45 632.37 1430.17 664.89 1438.88 632.37 1421.45 632.37"/><polyline class="cls-6" points="1315.51 954.2 1312.51 954.2 1312.51 951.2"/><line class="cls-7" x1="1312.51" y1="945.28" x2="1312.51" y2="687.59"/><polyline class="cls-6" points="1312.51 684.63 1312.51 681.63 1315.51 681.63"/><path class="cls-8" d="M1321.47,681.63h195.19c16.57,0,30,13.43,30,30v212.57c0,16.57-13.43,30-30,30h-198.17"/></svg>