<?xml version="1.0" encoding="utf-8"?>
<svg viewBox="144.174 46.8635 224.9829 162.3057" xmlns="http://www.w3.org/2000/svg" xmlns:bx="https://boxy-svg.com">
  <defs>
    <style bx:fonts="Roboto">@import url(https://fonts.googleapis.com/css2?family=Roboto%3Aital%2Cwght%400%2C100%3B0%2C300%3B0%2C400%3B0%2C500%3B0%2C700%3B0%2C900%3B1%2C100%3B1%2C300%3B1%2C400%3B1%2C500%3B1%2C700%3B1%2C900&amp;display=swap);</style>
  </defs>
  <path d="M 174.864 49.644 C 174.178 48.941 173.048 48.941 172.36 49.644 L 172.352 49.644 C 172.02 49.984 171.835 50.441 171.837 50.918 C 171.837 51.42 172.034 51.869 172.353 52.189 L 172.362 52.198 C 172.676 52.521 173.115 52.719 173.608 52.719 C 174.102 52.719 174.545 52.521 174.864 52.198 L 174.868 52.189 C 175.187 51.869 175.383 51.42 175.383 50.918 C 175.383 50.42 175.189 49.968 174.868 49.644 L 174.864 49.644 Z M 173.608 74.301 C 174.102 74.301 174.545 74.097 174.864 73.777 L 174.868 73.767 C 175.187 73.447 175.383 72.995 175.383 72.5 C 175.383 71.998 175.189 71.548 174.868 71.223 L 174.864 71.223 C 174.535 70.883 174.081 70.692 173.608 70.695 C 173.137 70.691 172.687 70.883 172.36 71.223 L 172.352 71.223 C 172.034 71.548 171.835 71.998 171.835 72.5 C 171.835 72.997 172.033 73.447 172.352 73.767 L 172.36 73.777 C 172.676 74.097 173.115 74.301 173.608 74.301 Z M 183.259 68.844 C 183.698 68.727 184.094 68.44 184.337 68.007 L 184.37 67.944 C 184.581 67.541 184.629 67.075 184.51 66.638 C 184.392 66.177 184.095 65.782 183.684 65.542 L 183.659 65.525 C 183.259 65.299 182.784 65.242 182.34 65.364 C 181.9 65.475 181.503 65.774 181.263 66.203 C 181.018 66.63 180.967 67.121 181.084 67.572 C 181.205 68.015 181.487 68.417 181.909 68.668 L 181.912 68.668 C 182.335 68.916 182.814 68.96 183.259 68.844 Z M 175.424 59.864 C 174.947 59.374 174.293 59.098 173.608 59.097 C 172.898 59.097 172.259 59.392 171.796 59.864 C 171.333 60.334 171.047 60.984 171.047 61.707 C 171.047 62.429 171.332 63.082 171.796 63.559 C 172.793 64.573 174.427 64.573 175.424 63.559 C 175.888 63.082 176.173 62.429 176.173 61.707 C 176.173 60.984 175.888 60.334 175.424 59.864 Z M 174.403 56.793 C 175.434 56.966 176.36 57.469 177.067 58.193 L 177.072 58.193 C 177.185 58.307 177.294 58.433 177.396 58.558 L 179.165 57.517 C 178.932 56.801 178.913 56.033 179.107 55.306 C 179.365 54.315 180.005 53.468 180.888 52.95 L 180.918 52.93 C 181.787 52.427 182.819 52.292 183.787 52.557 C 184.728 52.813 185.579 53.439 186.109 54.369 L 186.109 54.372 C 186.636 55.298 186.742 56.361 186.491 57.317 C 186.236 58.309 185.595 59.157 184.711 59.675 L 184.468 59.819 L 184.444 59.819 C 183.624 60.216 182.689 60.303 181.809 60.065 C 181.094 59.869 180.45 59.467 179.957 58.91 L 178.191 59.948 C 178.611 61.084 178.611 62.333 178.191 63.469 L 179.957 64.504 C 180.462 63.929 181.106 63.539 181.809 63.349 C 182.789 63.078 183.837 63.219 184.709 63.74 L 184.768 63.767 L 184.768 63.771 C 185.621 64.295 186.239 65.13 186.49 66.101 C 186.751 67.093 186.614 68.151 186.107 69.043 L 186.075 69.108 L 186.072 69.102 C 185.566 69.96 184.748 70.59 183.788 70.858 C 182.808 71.122 181.764 70.982 180.888 70.469 L 180.888 70.462 C 180.006 69.944 179.365 69.095 179.107 68.105 C 178.913 67.379 178.932 66.612 179.165 65.897 L 177.396 64.86 C 177.294 64.985 177.187 65.105 177.072 65.22 L 177.067 65.226 C 176.35 65.962 175.417 66.449 174.403 66.618 L 174.403 68.696 C 175.13 68.852 175.792 69.218 176.311 69.75 L 176.313 69.755 C 177.004 70.455 177.432 71.428 177.432 72.499 C 177.432 73.566 177.004 74.534 176.313 75.237 L 176.311 75.248 C 175.599 75.975 174.625 76.384 173.608 76.387 C 172.593 76.384 171.622 75.975 170.91 75.249 L 170.907 75.249 L 170.907 75.238 C 170.189 74.508 169.787 73.524 169.787 72.5 C 169.787 71.43 170.215 70.455 170.907 69.756 L 170.907 69.752 L 170.91 69.752 C 171.428 69.22 172.091 68.853 172.816 68.697 L 172.816 66.619 C 171.803 66.452 170.869 65.963 170.154 65.227 L 170.147 65.221 C 169.227 64.283 168.711 63.019 168.712 61.705 C 168.712 60.333 169.264 59.093 170.147 58.193 L 170.154 58.193 C 170.869 57.454 171.803 56.965 172.816 56.793 L 172.816 54.724 C 172.093 54.562 171.43 54.195 170.91 53.667 L 170.907 53.667 L 170.907 53.662 C 170.188 52.93 169.786 51.945 169.787 50.918 C 169.787 49.854 170.215 48.878 170.907 48.175 L 170.91 48.173 C 171.619 47.444 172.591 47.033 173.608 47.031 C 174.661 47.031 175.615 47.465 176.311 48.171 L 176.311 48.174 L 176.313 48.174 C 177.004 48.876 177.432 49.853 177.432 50.917 C 177.432 51.989 177.004 52.957 176.313 53.661 L 176.311 53.667 C 175.791 54.195 175.128 54.562 174.403 54.724 L 174.403 56.793 Z M 184.336 55.412 L 184.321 55.389 C 184.088 54.988 183.706 54.694 183.257 54.572 C 182.802 54.446 182.315 54.511 181.909 54.751 L 181.91 54.751 C 181.486 54.995 181.201 55.398 181.083 55.846 C 180.966 56.293 181.016 56.786 181.261 57.215 L 181.27 57.227 C 181.514 57.651 181.905 57.935 182.339 58.049 C 182.775 58.175 183.262 58.122 183.682 57.874 L 183.705 57.862 C 184.104 57.619 184.391 57.231 184.509 56.78 C 184.632 56.319 184.571 55.829 184.336 55.412" style="fill-opacity: 0.79;"/>
  <path style="stroke: rgb(45, 60, 45); fill: none; transform-origin: 34.263px 118.474px;" transform="matrix(0.000001, -1, 1, 0.000001, 196.628417899487, 67.877746800938)" d="M 16.447 39.859 H 52.079 A 5 5 0 0 1 57.079 44.859 V 197.09 H 11.447 V 44.859 A 5 5 0 0 1 16.447 39.859 Z" bx:shape="rect 11.447 39.859 45.632 157.231 5 5 0 0 1@082b76fc"/>
  <line style="stroke: rgb(45, 60, 45); fill: none; transform-origin: 198.276px 297.583px;" x1="205.076" y1="385.997" x2="205.076" y2="431.629" transform="matrix(-1, 0, -6.68775e-7, -1, 0.000306141119, 0)"/>
  <line style="stroke: rgb(45, 60, 45); fill: none; transform-origin: 198.276px 258.383px;" x1="165.876" y1="307.597" x2="165.876" y2="353.229" transform="matrix(-1, 0, 1.28467e-7, -1.000000199311, 0, 0)"/>
  <line style="stroke: rgb(45, 60, 45); fill: none; transform-origin: 198.276px 219.183px;" x1="126.676" y1="229.197" x2="126.676" y2="274.829" transform="matrix(-1, 0, -2.70154e-7, -1, 0.00007653531, 0)"/>
  <path style="stroke: rgb(45, 60, 45); fill: none; stroke-dasharray: 4; stroke-width: 0.9px; transform-origin: 34.263px 177.225px;" transform="matrix(0.000001, -1, 1, 0.000001, 442.530960013745, 9.128286203302)" d="M 11.447 9.938 H 57.079 V 44.138 A 5 5 0 0 1 52.079 49.138 H 16.447 A 5 5 0 0 1 11.447 44.138 V 9.938 Z" bx:shape="rect 11.447 9.938 45.632 39.2 0 0 5 5 1@a5a7e8f2"/>
  <text style="fill: rgb(45, 60, 45); font-family: Roboto; font-size: 16px; font-weight: 300; white-space: pre; transform-origin: 172.143px 186.507px;" x="167.708" y="192.171">0</text>
  <text style="fill: rgb(45, 60, 45); font-family: Roboto; font-size: 16px; font-weight: 300; white-space: pre; transform-origin: 210.416px 186.507px;" x="205.981" y="192.171">1</text>
  <text style="fill: rgb(45, 60, 45); font-family: Roboto; font-size: 16px; font-weight: 300; white-space: pre; transform-origin: 247.896px 186.507px;" x="243.461" y="192.171">2</text>
  <text style="fill: rgb(45, 60, 45); font-family: Roboto; font-size: 16px; font-weight: 300; white-space: pre; transform-origin: 289.798px 186.507px;" x="285.363" y="192.171">3</text>
  <text style="fill: rgb(45, 60, 45); font-family: Roboto; font-size: 16px; font-weight: 300; white-space: pre; transform-origin: 329.414px 186.367px;" x="324.839" y="192.031">4</text>
  <text style="fill: rgb(45, 60, 45); font-family: Roboto; font-size: 12.2px; font-weight: 300; white-space: pre; transform-origin: 172.306px 110.193px;" x="144.174" y="114.55">First Event</text>
  <g style="transform-origin: 246.408px 268.026px;" transform="matrix(-0.267239004374, 0.963631093502, -0.963631093502, -0.267239004374, -129.525945184318, -60.831498174491)">
    <title>Arrow</title>
    <line class="cls-1" x1="148.867" y1="236.505" x2="180.66" y2="227.662" style="fill: none; stroke-miterlimit: 10; stroke: rgb(45, 60, 45); transform-box: fill-box; transform-origin: 50% 50%;"/>
    <polygon class="cls-2" points="173.021 232.653 182.721 226.953 171.521 227.053 173.021 232.653" style="stroke-width: 0px; fill: rgb(45, 60, 45); transform-box: fill-box; transform-origin: 50% 50%;"/>
  </g>
  <text style="fill: rgb(45, 60, 45); font-family: Roboto; font-size: 12.2px; font-weight: 300; white-space: pre; text-anchor: middle; transform-origin: 321.379px 110.193px;" x="321.379" y="114.55">Next Event Stored</text>
  <g style="transform-origin: 174.292px 229.702px;" transform="matrix(-0.267239004374, 0.963631093502, -0.963631093502, -0.267239004374, 153.940152793993, -81.759064576152)">
    <title>Arrow</title>
    <line class="cls-1" x1="148.867" y1="236.505" x2="180.66" y2="227.662" style="fill: none; stroke-miterlimit: 10; stroke: rgb(45, 60, 45); transform-box: fill-box; transform-origin: 50% 50%;"/>
    <polygon class="cls-2" points="173.021 232.653 182.721 226.953 171.521 227.053 173.021 232.653" style="stroke-width: 0px; fill: rgb(45, 60, 45); transform-box: fill-box; transform-origin: 50% 50%;"/>
  </g>
  <text style="fill: rgb(45, 60, 45); font-family: Roboto; font-size: 26px; font-weight: 300; white-space: pre; text-anchor: middle;" y="71.865" x="264.386">Kafka Topic</text>
</svg>