<?xml version="1.0" encoding="utf-8"?>
<svg viewBox="547.2419 -17.6688 1093.3406 433.0682" xmlns="http://www.w3.org/2000/svg" xmlns:xlink="http://www.w3.org/1999/xlink" xmlns:bx="https://boxy-svg.com">
  <defs>
    <linearGradient id="linear-gradient" x1="34.79" y1="15" x2="20.44" y2="25.31" gradientUnits="userSpaceOnUse">
      <stop offset="0" stop-color="#ffdc00"/>
      <stop offset="0.8" stop-color="#fba313"/>
    </linearGradient>
    <linearGradient id="linear-gradient-2" x1="35.32" y1="18.3" x2="13.77" y2="31.05" gradientUnits="userSpaceOnUse">
      <stop offset="0.04" stop-color="#f05eb7"/>
      <stop offset="0.8" stop-color="#a170cc"/>
    </linearGradient>
    <linearGradient id="linear-gradient-3" x1="-86.67" y1="-86.86" x2="-88.3" y2="-85.39" gradientTransform="translate(108.52 97.44) rotate(-2.03)" xlink:href="#linear-gradient"/>
    <linearGradient id="linear-gradient-4" x1="-190.83" y1="-182.17" x2="-192.08" y2="-180.81" gradientTransform="translate(223.34 196.94) rotate(-4.2)" xlink:href="#linear-gradient"/>
    <linearGradient id="linear-gradient-5" x1="-184.34" y1="-193.95" x2="-185.98" y2="-192.5" gradientTransform="translate(223.34 196.94) rotate(-4.2)" xlink:href="#linear-gradient"/>
    <linearGradient id="linear-gradient-6" x1="-184.73" y1="-186.69" x2="-186.3" y2="-185.15" gradientTransform="translate(223.34 196.94) rotate(-4.2)" xlink:href="#linear-gradient"/>
    <linearGradient id="linear-gradient-7" x1="-189.23" y1="-192.14" x2="-193.12" y2="-188.26" gradientTransform="translate(223.34 196.94) rotate(-4.2)" gradientUnits="userSpaceOnUse">
      <stop offset="0.04" stop-color="#ffdc00"/>
      <stop offset="0.8" stop-color="#fba313"/>
    </linearGradient>
    <linearGradient id="linear-gradient-8" x1="27.89" y1="37.28" x2="25.09" y2="38.94" gradientUnits="userSpaceOnUse">
      <stop offset="0.04" stop-color="#ffdf3f"/>
      <stop offset="0.8" stop-color="#fba313"/>
    </linearGradient>
    <style bx:fonts="Roboto">@import url(https://fonts.googleapis.com/css2?family=Roboto%3Aital%2Cwght%400%2C100%3B0%2C300%3B0%2C400%3B0%2C500%3B0%2C700%3B0%2C900%3B1%2C100%3B1%2C300%3B1%2C400%3B1%2C500%3B1%2C700%3B1%2C900&amp;display=swap);</style>
  </defs>
  <g style="" transform="matrix(0.8852429389953613, 0, 0, 0.9078000783920288, 407.778076171875, 330.1905517578125)">
    <title>Kafka</title>
    <text style="fill: rgb(45, 60, 45); font-family: Roboto; font-size: 36px; font-weight: 300; text-anchor: middle; white-space: pre;" transform="matrix(1.129633, 0, 0, 1.129633, 438.216431, -197.509583)"><tspan x="-181.21" y="155.758">Kafka</tspan><tspan x="-181.2100067138672" dy="1em">​</tspan></text>
    <rect style="fill: none; stroke: rgb(45, 60, 45);" x="157.543" y="-102.041" width="227.235" height="148.557" rx="5" ry="5"/>
    <g fill="#1A1919" transform="matrix(0.549876, 0, 0, 0.549876, 358.882019, -89.094444)" style="">
      <path d="M -63.507 33.54 C -65.376 31.664 -67.969 30.508 -70.859 30.508 C -73.741 30.508 -76.314 31.664 -78.16 33.54 L -78.207 33.54 C -80.07 35.403 -81.225 38.003 -81.225 40.875 C -81.225 43.763 -80.07 46.347 -78.207 48.192 L -78.16 48.243 C -76.314 50.102 -73.741 51.242 -70.859 51.242 C -67.969 51.242 -65.376 50.102 -63.507 48.243 L -63.485 48.192 C -61.615 46.347 -60.474 43.763 -60.474 40.875 C -60.474 38.003 -61.615 35.403 -63.485 33.54 L -63.507 33.54 Z M -70.859 175.454 C -67.969 175.454 -65.376 174.277 -63.507 172.436 L -63.485 172.381 C -61.615 170.543 -60.474 167.944 -60.474 165.086 C -60.474 162.198 -61.615 159.61 -63.485 157.738 L -63.507 157.738 C -65.376 155.844 -67.969 154.699 -70.859 154.699 C -73.741 154.699 -76.314 155.844 -78.16 157.738 L -78.207 157.738 C -80.07 159.61 -81.225 162.198 -81.225 165.086 C -81.225 167.944 -80.07 170.543 -78.207 172.381 L -78.16 172.436 C -76.314 174.277 -73.741 175.454 -70.859 175.454 Z M -14.374 144.043 C -11.807 143.368 -9.483 141.721 -8.062 139.229 L -7.871 138.864 C -6.609 136.503 -6.378 133.775 -7.053 131.352 C -7.734 128.767 -9.399 126.474 -11.886 125.046 L -12.033 124.948 C -14.457 123.616 -17.215 123.326 -19.751 124.017 C -22.329 124.661 -24.646 126.378 -26.058 128.849 C -27.488 131.305 -27.785 134.129 -27.101 136.726 C -26.395 139.283 -24.743 141.593 -22.27 143.037 L -22.256 143.037 C -19.777 144.461 -16.976 144.716 -14.374 144.043 Z M -60.225 92.358 C -62.947 89.644 -66.702 87.942 -70.859 87.942 C -75.01 87.942 -78.754 89.644 -81.471 92.358 C -84.178 95.068 -85.846 98.807 -85.846 102.964 C -85.846 107.121 -84.178 110.876 -81.471 113.618 C -78.754 116.315 -75.01 118.001 -70.859 118.001 C -66.702 118.001 -62.947 116.315 -60.225 113.618 C -57.51 110.876 -55.842 107.121 -55.842 102.964 C -55.842 98.807 -57.51 95.068 -60.225 92.358 Z M -66.205 74.688 C -60.17 75.683 -54.753 78.573 -50.611 82.743 L -50.58 82.743 C -49.921 83.4 -49.281 84.124 -48.684 84.846 L -38.334 78.859 C -39.725 74.654 -39.79 70.258 -38.671 66.133 C -37.196 60.612 -33.617 55.67 -28.25 52.573 L -28.075 52.463 C -22.767 49.46 -16.735 48.834 -11.29 50.309 C -5.774 51.788 -0.8 55.384 2.297 60.742 L 2.297 60.758 C 5.38 66.086 6.004 72.201 4.535 77.705 C 3.067 83.225 -0.525 88.201 -5.886 91.28 L -7.3 92.115 L -7.444 92.115 C -12.402 94.475 -17.854 94.845 -22.861 93.526 C -26.973 92.437 -30.743 90.141 -33.696 86.884 L -44.032 92.855 C -42.844 95.997 -42.187 99.385 -42.187 102.964 C -42.187 106.526 -42.844 109.962 -44.032 113.121 L -33.696 119.075 C -30.743 115.767 -26.973 113.523 -22.861 112.431 C -17.344 110.923 -11.229 111.564 -5.886 114.679 L -5.543 114.838 L -5.543 114.855 C -0.382 117.985 3.083 122.815 4.535 128.27 C 6.004 133.742 5.38 139.86 2.297 145.199 L 2.111 145.571 L 2.089 145.54 C -1.006 150.687 -5.886 154.174 -11.274 155.65 C -16.798 157.106 -22.914 156.484 -28.25 153.415 L -28.25 153.373 C -33.617 150.27 -37.196 145.317 -38.671 139.807 C -39.79 135.701 -39.725 131.305 -38.334 127.102 L -48.684 121.129 C -49.281 121.851 -49.921 122.542 -50.58 123.199 L -50.611 123.231 C -54.753 127.388 -60.17 130.276 -66.205 131.238 L -66.205 143.198 C -61.905 144.096 -58.055 146.246 -55.039 149.263 L -55.023 149.294 C -50.981 153.318 -48.477 158.925 -48.477 165.086 C -48.477 171.229 -50.981 176.803 -55.023 180.847 L -55.039 180.91 C -59.111 184.952 -64.696 187.456 -70.859 187.456 C -76.989 187.456 -82.588 184.952 -86.65 180.91 L -86.667 180.91 L -86.667 180.847 C -90.713 176.803 -93.222 171.229 -93.222 165.086 C -93.222 158.925 -90.713 153.318 -86.667 149.294 L -86.667 149.263 L -86.65 149.263 C -83.637 146.246 -79.78 144.096 -75.496 143.198 L -75.496 131.238 C -81.529 130.276 -86.937 127.388 -91.072 123.231 L -91.116 123.199 C -96.279 118.017 -99.512 110.876 -99.512 102.964 C -99.512 95.068 -96.279 87.927 -91.116 82.743 L -91.072 82.743 C -86.937 78.573 -81.529 75.683 -75.496 74.688 L -75.496 62.779 C -79.78 61.85 -83.637 59.7 -86.65 56.699 L -86.667 56.699 L -86.667 56.667 C -90.713 52.607 -93.222 47.038 -93.222 40.875 C -93.222 34.745 -90.713 29.127 -86.667 25.083 L -86.65 25.067 C -82.588 21.008 -76.989 18.506 -70.859 18.506 C -64.696 18.506 -59.111 21.008 -55.039 25.067 L -55.039 25.083 L -55.023 25.083 C -50.981 29.127 -48.477 34.745 -48.477 40.875 C -48.477 47.038 -50.981 52.607 -55.023 56.667 L -55.039 56.699 C -58.055 59.7 -61.905 61.85 -66.205 62.779 L -66.205 74.688 Z M -8.062 66.745 L -8.151 66.615 C -9.577 64.209 -11.855 62.605 -14.374 61.913 C -16.976 61.222 -19.777 61.512 -22.27 62.942 L -22.256 62.942 C -24.743 64.354 -26.406 66.662 -27.101 69.248 C -27.785 71.816 -27.488 74.654 -26.058 77.126 L -26.009 77.19 C -24.578 79.631 -22.297 81.267 -19.751 81.925 C -17.193 82.649 -14.343 82.343 -11.886 80.913 L -11.754 80.85 C -9.336 79.406 -7.724 77.126 -7.053 74.623 C -6.368 72.039 -6.641 69.216 -8.062 66.745 Z" style=""/>
    </g>
  </g>
  <g style="" transform="matrix(1.6237859725952148, 0, 0, 1.6651630401611328, 610.962646484375, 337.94256591796875)">
    <title>Node App</title>
    <text style="fill: rgb(45, 60, 45); font-family: Roboto; font-size: 36px; font-weight: 300; text-anchor: middle; white-space: pre;" transform="matrix(0.560311, 0, 0, 0.560311, 416.481293, -194.356613)"><tspan x="-181.21" y="155.758">Node Application</tspan><tspan x="-181.2100067138672" dy="1em">​</tspan></text>
    <rect style="fill: none; stroke: rgb(45, 60, 45);" x="157.543" y="-102.041" width="321.314" height="148.557" rx="5" ry="5"/>
    <g transform="matrix(0.156751, 0, 0, 0.156751, 395.992584, -147.25798)" style="">
      <title>NodeJS Logo</title>
      <path d="M127.999999,288.463771 C124.024844,288.463771 120.314699,287.403728 116.869564,285.548656 L81.6231884,264.612838 C76.32298,261.697724 78.9730854,260.637682 80.5631458,260.107661 C87.7184259,257.72257 89.0434775,257.192547 96.4637688,252.952381 C97.2587979,252.422361 98.3188405,252.687372 99.1138718,253.217392 L126.144927,269.383024 C127.20497,269.913045 128.530021,269.913045 129.325053,269.383024 L235.064182,208.165634 C236.124225,207.635611 236.654245,206.575571 236.654245,205.250519 L236.654245,83.0807467 C236.654245,81.7556929 236.124225,80.6956526 235.064182,80.1656324 L129.325053,19.2132506 C128.26501,18.6832305 126.939959,18.6832305 126.144927,19.2132506 L20.4057954,80.1656324 C19.3457551,80.6956526 18.8157349,82.0207041 18.8157349,83.0807467 L18.8157349,205.250519 C18.8157349,206.31056 19.3457551,207.635611 20.4057954,208.165634 L49.2919247,224.861286 C64.9275364,232.811595 74.7329196,223.536234 74.7329196,214.260871 L74.7329196,93.681159 C74.7329196,92.0910985 76.0579711,90.5010358 77.9130428,90.5010358 L91.4285716,90.5010358 C93.0186343,90.5010358 94.6086948,91.8260873 94.6086948,93.681159 L94.6086948,214.260871 C94.6086948,235.196689 83.2132512,247.387164 63.3374737,247.387164 C57.2422362,247.387164 52.4720502,247.387164 38.9565214,240.761906 L11.1304347,224.861286 C4.24016581,220.886129 5.68434189e-14,213.46584 5.68434189e-14,205.515528 L5.68434189e-14,83.3457557 C5.68434189e-14,75.3954465 4.24016581,67.9751552 11.1304347,64.0000006 L116.869564,2.78260752 C123.494824,-0.927535841 132.505176,-0.927535841 139.130436,2.78260752 L244.869565,64.0000006 C251.759834,67.9751552 256,75.3954465 256,83.3457557 L256,205.515528 C256,213.46584 251.759834,220.886129 244.869565,224.861286 L139.130436,286.078676 C135.685299,287.668739 131.710145,288.463771 127.999999,288.463771 L127.999999,288.463771 Z M160.596274,204.455488 C114.219461,204.455488 104.679089,183.254659 104.679089,165.233955 C104.679089,163.643893 106.004141,162.053832 107.859212,162.053832 L121.639752,162.053832 C123.229813,162.053832 124.554864,163.113872 124.554864,164.703935 C126.674947,178.749484 132.770187,185.639753 160.861283,185.639753 C183.122154,185.639753 192.662526,180.604556 192.662526,168.67909 C192.662526,161.788821 190.012423,156.753624 155.296065,153.308489 C126.409938,150.393375 108.389235,144.033126 108.389235,120.977226 C108.389235,99.5113875 126.409938,86.7908901 156.621119,86.7908901 C190.542443,86.7908901 207.238095,98.4513472 209.358178,123.89234 C209.358178,124.687371 209.093167,125.482403 208.563147,126.277434 C208.033127,126.807454 207.238095,127.337474 206.443064,127.337474 L192.662526,127.337474 C191.337475,127.337474 190.012423,126.277434 189.747412,124.952382 C186.567289,110.376813 178.351966,105.606625 156.621119,105.606625 C132.240165,105.606625 129.325053,114.086957 129.325053,120.447205 C129.325053,128.132506 132.770187,130.5176 165.631471,134.757766 C198.227744,138.997931 213.598344,145.093169 213.598344,167.884058 C213.333333,191.20497 194.252589,204.455488 160.596274,204.455488 L160.596274,204.455488 Z" fill="#539E43"/>
    </g>
    <title>logomark circle</title>
    <g transform="matrix(1, 0, 0, 1, 0, -23.421139)">
      <title>KafkJS Consumer</title>
      <g id="_Group_" data-name="&lt;Group&gt;" transform="matrix(0.615845, 0, 0, 0.600542, 186.944199, -23.772499)">
        <rect id="_Rectangle_" data-name="&lt;Rectangle&gt;" class="cls-1" width="50" height="50" rx="25" ry="25" style="fill: rgb(52, 0, 75);"/>
        <path class="cls-2" d="M31.15,33c3.92-2.68,5.85-8.16,4.32-13.78C34,14,27.73,9.79,20.48,11.81c-3,.85-5.66,2.1-6.89,3.88,1.16-2.11,4.49-4.47,8.2-5.22,8.1-1.63,13.68,3.11,14.9,8.59A13.58,13.58,0,0,1,31.15,33Z" style="fill: url('#linear-gradient');"/>
        <path class="cls-3" d="M31.15,33l-.07,0a11.6,11.6,0,0,1-1.47.8A10.12,10.12,0,0,0,26.9,35.5l0,0a4.3,4.3,0,0,0-1.76,2.1,1.63,1.63,0,0,0-.1.57,1.35,1.35,0,0,0,.05.53,1.6,1.6,0,0,0,.14.35,1.44,1.44,0,0,0,.28.35l.12.09a1.58,1.58,0,0,0,.56.23l.2,0a2.15,2.15,0,0,0,.47,0h0c-.16,0-.53.09-.85.13a0,0,0,0,1,0,0l-.53.07a5.46,5.46,0,0,1-.68.08c-7.35.71-11.31-6.8-6.37-11l0,0,.16-.13c.72-.56,2.13-1.4,3.11-2.16l.27-.22.52-.46a7.59,7.59,0,0,0,1.12-1.34c.06-.1.11-.2.17-.29s.12-.22.17-.33a6.66,6.66,0,0,0,.26-.67A5.33,5.33,0,0,0,24.4,22a6.79,6.79,0,0,0-.82-3.34,1.61,1.61,0,0,0-.17-.28,6.64,6.64,0,0,0-6.17-2.74l-.59,0c-2.48.3-3.23,1.39-3.45,1.08v0a.21.21,0,0,1,0-.18.2.2,0,0,1,0-.07,2.1,2.1,0,0,1,.35-.72l0,0,0-.05a10.67,10.67,0,0,1,2.75-2.61h0a14.21,14.21,0,0,1,4.12-1.93A12.11,12.11,0,0,1,31.3,13.26c.15.11.3.22.44.34a11.84,11.84,0,0,1,3.46,4.82c.11.28.19.55.27.83C37,24.87,35.07,30.35,31.15,33Z" style="fill: url('#linear-gradient-2');"/>
        <circle id="_Path_" data-name="&lt;Path&gt;" class="cls-4" cx="17.98" cy="14.51" r="1.1" style="fill: url('#linear-gradient-3');"/>
        <circle id="_Path_2" data-name="&lt;Path&gt;" class="cls-5" cx="19.08" cy="29.99" r="1.1" style="fill: url('#linear-gradient-4');"/>
        <circle id="_Path_3" data-name="&lt;Path&gt;" class="cls-6" cx="24.41" cy="17.92" r="1.1" style="fill: url('#linear-gradient-5');"/>
        <circle id="_Path_4" data-name="&lt;Path&gt;" class="cls-7" cx="24.64" cy="25.18" r="1.1" style="fill: url('#linear-gradient-6');"/>
        <circle id="_Path_5" data-name="&lt;Path&gt;" class="cls-8" cx="18.38" cy="21.67" r="2.75" style="fill: url('#linear-gradient-7');"/>
        <path class="cls-9" d="M28,39.59a6.37,6.37,0,0,1-1.16.22c-.08,0-.27,0-.5,0l-.2,0a1.58,1.58,0,0,1-.56-.23l-.12-.09a1.44,1.44,0,0,1-.28-.35,1.6,1.6,0,0,1-.14-.35A1.35,1.35,0,0,1,25,38.2a1.63,1.63,0,0,1,.1-.57,4.3,4.3,0,0,1,1.76-2.1A2.78,2.78,0,0,0,26,38.6,1.93,1.93,0,0,0,28,39.59Z" style="fill: url('#linear-gradient-8');"/>
      </g>
      <text style="fill: rgb(45, 60, 45); font-family: Roboto; font-size: 36px; font-weight: 300; text-anchor: middle; white-space: pre;" transform="matrix(0.398436, 0, 0, 0.398436, 275.502716, -40.658089)"><tspan x="-181.21" y="155.758">KafkaJS<tspan x="-181.2100067138672" dy="1em">​</tspan></tspan>Consumer</text>
    </g>
    <g transform="matrix(1, 0, 0, 1, 213.183456, -23.421141)">
      <title>Redis Class</title>
      <g transform="matrix(0.644693, 0, 0, 0.644693, -1.01951, 33.496952)" style="">
        <title>Redis Logo</title>
        <path d="M 341.827 -52.356 C 338.682 -50.757 322.389 -44.225 318.92 -42.461 C 315.452 -40.698 313.525 -40.715 310.785 -41.992 C 308.044 -43.269 290.706 -50.099 287.583 -51.555 C 286.022 -52.282 285.201 -52.896 285.201 -53.477 L 285.201 -59.285 C 285.201 -59.285 307.773 -64.077 311.417 -65.352 C 315.061 -66.627 316.326 -66.673 319.427 -65.566 C 322.528 -64.458 341.071 -61.195 344.136 -60.1 L 344.135 -54.373 C 344.135 -53.799 343.428 -53.169 341.827 -52.356" fill="#912626" style=""/>
        <path d="M 341.826 -58.13 C 338.681 -56.533 322.388 -50 318.92 -48.236 C 315.451 -46.473 313.525 -46.49 310.785 -47.767 C 308.044 -49.044 290.706 -55.875 287.583 -57.33 C 284.46 -58.785 284.395 -59.787 287.463 -60.959 C 290.531 -62.131 307.773 -68.727 311.418 -70.002 C 315.062 -71.277 316.326 -71.323 319.427 -70.215 C 322.528 -69.107 338.723 -62.821 341.788 -61.727 C 344.853 -60.631 344.971 -59.729 341.826 -58.13" fill="#C6302B" style=""/>
        <path d="M 341.827 -61.755 C 338.682 -60.156 322.389 -53.624 318.92 -51.86 C 315.452 -50.097 313.525 -50.114 310.785 -51.391 C 308.044 -52.668 290.706 -59.498 287.583 -60.954 C 286.022 -61.682 285.201 -62.295 285.201 -62.875 L 285.201 -68.685 C 285.201 -68.685 307.773 -73.476 311.417 -74.751 C 315.061 -76.026 316.326 -76.072 319.427 -74.964 C 322.528 -73.857 341.071 -70.595 344.136 -69.5 L 344.135 -63.773 C 344.135 -63.199 343.428 -62.569 341.827 -61.755" fill="#912626" style=""/>
        <path d="M 341.826 -67.53 C 338.681 -65.932 322.388 -59.399 318.92 -57.635 C 315.451 -55.872 313.525 -55.889 310.785 -57.167 C 308.044 -58.443 290.706 -65.274 287.583 -66.729 C 284.46 -68.184 284.395 -69.186 287.463 -70.358 C 290.531 -71.529 307.773 -78.127 311.418 -79.401 C 315.062 -80.676 316.326 -80.722 319.427 -79.614 C 322.528 -78.507 338.723 -72.221 341.788 -71.126 C 344.853 -70.031 344.971 -69.128 341.826 -67.53" fill="#C6302B" style=""/>
        <path d="M 341.827 -71.503 C 338.682 -69.904 322.389 -63.372 318.92 -61.608 C 315.452 -59.845 313.525 -59.862 310.785 -61.139 C 308.044 -62.416 290.706 -69.246 287.583 -70.701 C 286.022 -71.43 285.201 -72.043 285.201 -72.623 L 285.201 -78.432 C 285.201 -78.432 307.773 -83.224 311.417 -84.499 C 315.061 -85.774 316.326 -85.819 319.427 -84.712 C 322.528 -83.604 341.071 -80.342 344.136 -79.247 L 344.135 -73.52 C 344.135 -72.947 343.428 -72.317 341.827 -71.503" fill="#912626" style=""/>
        <path d="M 341.826 -77.278 C 338.681 -75.679 322.388 -69.146 318.92 -67.383 C 315.451 -65.62 313.525 -65.637 310.785 -66.914 C 308.044 -68.191 290.706 -75.021 287.584 -76.477 C 284.46 -77.932 284.395 -78.934 287.463 -80.106 C 290.531 -81.278 307.773 -87.874 311.418 -89.149 C 315.062 -90.424 316.326 -90.469 319.427 -89.362 C 322.528 -88.254 338.723 -81.968 341.788 -80.873 C 344.853 -79.779 344.971 -78.876 341.826 -77.278" fill="#C6302B" style=""/>
        <path d="M 321.87 -82.929 L 316.803 -82.416 L 315.669 -79.754 L 313.837 -82.724 L 307.986 -83.237 L 312.352 -84.772 L 311.042 -87.129 L 315.129 -85.57 L 318.983 -86.8 L 317.941 -84.363 L 321.87 -82.929 M 315.366 -70.016 L 305.91 -73.841 L 319.461 -75.869 L 315.366 -70.016 M 302.256 -81.45 C 306.256 -81.45 309.498 -80.224 309.498 -78.712 C 309.498 -77.2 306.256 -75.974 302.256 -75.974 C 298.256 -75.974 295.013 -77.2 295.013 -78.712 C 295.013 -80.224 298.256 -81.45 302.256 -81.45" fill="#FFF" style=""/>
        <path d="M 327.859 -82.201 L 335.878 -79.111 L 327.866 -76.023 L 327.859 -82.201" fill="#621B1C" style=""/>
        <path d="M 318.986 -78.779 L 327.859 -82.201 L 327.866 -76.023 L 326.996 -75.692 L 318.986 -78.779" fill="#9A2928" style=""/>
      </g>
      <text style="fill: rgb(45, 60, 45); font-family: Roboto; font-size: 36px; font-weight: 300; text-anchor: middle; white-space: pre;" transform="matrix(0.398436, 0, 0, 0.398436, 275.502716, -40.658089)" x="-181.2100067138672" y="155.75799560546875">Custom Class<tspan x="-181.2100067138672" dy="1em">​</tspan>built on <tspan x="-181.2100067138672" dy="1em">​</tspan>Redis package</text>
    </g>
  </g>
  <g transform="matrix(0.6382220387458801, 0, 0, 0.6382220387458801, 828.6298828125, 11.135986328125)" style="">
    <title>Web UI</title>
    <text style="fill: rgb(45, 60, 45); font-family: Roboto; font-size: 39.3px; font-weight: 300; text-anchor: middle; white-space: pre;" x="86.45" y="-7.528">Web UI</text>
    <g transform="matrix(0.418337, 0, 0, 0.418337, -29.942993, -2.700165)" style="">
      <title>Willow Logo</title>
      <svg id="Layer_1" dataname="Layer 1" xmlns="http://www.w3.org/2000/svg" viewBox="427.14453125 344.65234375 798.27734375 876.7677001953125" height="230" width="209.4166717529297" y="127.7099380493164" x="182.99502087402342" preserveAspectRatio="xMinYMin" style="overflow: visible;" transform="matrix(0.262327164412, 0, 0, 0.262327164412, 70.943405151367, 37.298259735107)">
        <path d="M1015.17,915.62A252.7,252.7,0,0,0,850.71,493.37,254.52,254.52,0,0,0,695.94,530l20.5,33.18c80.81-49.92,186.26-40,256.44,24.21a213.76,213.76,0,0,1-94,365.46V992.8A250.79,250.79,0,0,0,1015.17,915.62Z" style="fill: #409935; fill-opacity: 1;"/>
        <path d="M588.18,667.41A252.95,252.95,0,0,0,773.8,991.86V951.73A214,214,0,0,1,625.3,679.37Z" style="fill: #409935; fill-opacity: 1;"/>
        <path d="M794,422.83a322.5,322.5,0,0,0-62.79,629.11A324.71,324.71,0,0,0,773.8,1062v-39.63a286.67,286.67,0,0,1-31-7.71,283.49,283.49,0,1,1,266.09-487.95L1034,496.88A323.5,323.5,0,0,0,794,422.83Z" style="fill: #409935; fill-opacity: 1;"/>
        <path d="M1224.21,713.25A399.11,399.11,0,1,0,773.8,1139.41V1100a359.88,359.88,0,1,1,394-241.93l37,12.4A396.65,396.65,0,0,0,1224.21,713.25Z" style="fill: #409935; fill-opacity: 1;"/>
        <path d="M878.92,1100v39.39a395.56,395.56,0,0,0,130.45-40.87l-17.9-34.65A356.33,356.33,0,0,1,878.92,1100Z" style="fill: #409935; fill-opacity: 1;"/>
        <path d="M1108.51,715.39a283.81,283.81,0,0,1-229.59,307V1062a322.81,322.81,0,0,0,268.39-350.55Z" style="fill: #409935; fill-opacity: 1;"/>
        <polygon points="972.78 768.21 945.25 740.58 845.86 839.62 845.86 588.52 806.86 588.52 806.86 703.54 699.98 619.15 675.81 649.76 806.86 753.24 806.86 1221.42 845.86 1221.42 845.86 894.68 972.78 768.21" style="fill: #7c7955; fill-opacity: 1;"/>
      </svg>
    </g>
    <path d="M 175.299 6.668 L 9.226 6.668 C 4.13 6.668 0 10.798 0 15.894 L 0 157.358 C 0 162.454 4.13 166.585 9.226 166.585 L 175.299 166.585 C 180.395 166.585 184.525 162.454 184.525 157.358 L 184.525 15.894 C 184.525 10.798 180.395 6.668 175.299 6.668 L 175.299 6.668 Z M 9.226 12.816 L 175.299 12.816 C 176.113 12.816 176.899 13.141 177.475 13.717 C 178.052 14.294 178.376 15.08 178.376 15.894 L 178.376 37.425 L 6.148 37.417 L 6.148 15.894 C 6.148 14.193 7.525 12.816 9.226 12.816 L 9.226 12.816 Z M 175.299 160.436 L 9.226 160.436 C 7.525 160.436 6.148 159.059 6.148 157.358 L 6.148 43.573 L 178.376 43.573 L 178.376 157.358 C 178.376 158.173 178.052 158.958 177.475 159.535 C 176.899 160.112 176.113 160.436 175.299 160.436 L 175.299 160.436 Z" style="fill: rgb(45, 60, 45);"/>
    <path d="M 15.375 28.191 L 49.209 28.191 C 50.903 28.191 52.28 26.814 52.28 25.12 C 52.28 23.419 50.903 22.042 49.209 22.042 L 15.375 22.042 C 13.681 22.042 12.304 23.419 12.304 25.12 C 12.304 26.814 13.681 28.191 15.375 28.191 Z" style="fill: rgb(45, 60, 45);"/>
    <path d="M 61.506 28.191 L 64.584 28.191 C 66.285 28.191 67.662 26.814 67.662 25.12 C 67.662 23.419 66.285 22.042 64.584 22.042 L 61.506 22.042 C 59.812 22.042 58.435 23.419 58.435 25.12 C 58.435 26.814 59.812 28.191 61.506 28.191 Z" style="fill: rgb(45, 60, 45);"/>
    <path d="M 76.888 28.191 L 79.966 28.191 L 79.958 28.191 C 81.66 28.191 83.036 26.814 83.036 25.12 C 83.036 23.419 81.66 22.042 79.958 22.042 L 76.888 22.042 C 75.187 22.042 73.81 23.419 73.81 25.12 C 73.81 26.814 75.187 28.191 76.888 28.191 L 76.888 28.191 Z" style="fill: rgb(45, 60, 45);"/>
    <path style="fill: none; stroke-dasharray: 8; stroke: rgb(45, 60, 45);" d="M 158.209 166.585 L 208.738 246.605"/>
  </g>
  <g transform="matrix(1, 0, 0, 1, 593.6427612304688, 271.438232421875)">
    <title>Sink Cache</title>
    <text style="fill: rgb(45, 60, 45); font-family: Roboto; font-size: 27.4px; font-weight: 300; text-anchor: middle; white-space: pre;" x="48.752" y="-15.427" transform="matrix(1.31225, 0, 0, 1.31225, 915.404297, -33.674923)">Sink<tspan x="48.75199890136719" dy="1em">​</tspan>Cache</text>
    <g id="cache_not_filled_in" transform="matrix(2.04998, 0, 0, 2.04998, 916.939636, -3.141056)">
      <g>
        <path class="cls-1" d="M1.1,18.3l29.7,14.5c.3.1.6.2.9.2s.6,0,.9-.2l29.7-14.5c.7-.3,1.1-1,1.1-1.8s-.4-1.4-1.1-1.8L32.6.2c-.6-.3-1.2-.3-1.7,0L1.1,14.7C.4,15.1,0,15.8,0,16.5s.4,1.4,1.1,1.8ZM31.7,4.2l25.2,12.3-25.2,12.3L6.5,16.5,31.7,4.2Z" style="fill: rgb(45, 60, 45); stroke-width: 0px;"/>
        <path class="cls-1" d="M60.6,25.9l-28.9,14.1L2.9,25.9c-1-.5-2.2,0-2.7.9-.5,1,0,2.2.9,2.7l29.7,14.5c.3.1.6.2.9.2s.6,0,.9-.2l29.7-14.5c1-.5,1.4-1.7.9-2.7-.5-1-1.7-1.4-2.7-.9Z" style="fill: rgb(45, 60, 45); stroke-width: 0px;"/>
        <path class="cls-1" d="M60.6,37l-28.9,14.1L2.9,37c-1-.5-2.2,0-2.7.9-.5,1,0,2.2.9,2.7l29.7,14.5c.3.1.6.2.9.2s.6,0,.9-.2l29.7-14.5c1-.5,1.4-1.7.9-2.7-.5-1-1.7-1.4-2.7-.9Z" style="fill: rgb(45, 60, 45); stroke-width: 0px;"/>
      </g>
    </g>
  </g>
  <g style="transform-origin: 246.408px 268.026px;" transform="matrix(2.354012012482, 0.65282702446, -0.65282702446, 2.354012012482, 1362.626939925436, 159.404950477994)">
    <title>Arrow</title>
    <line class="cls-1" x1="148.867" y1="236.505" x2="180.66" y2="227.662" style="fill: none; stroke-miterlimit: 10; stroke: rgb(45, 60, 45); transform-box: fill-box; transform-origin: 50% 50%;"/>
    <polygon class="cls-2" points="173.021 232.653 182.721 226.953 171.521 227.053 173.021 232.653" style="stroke-width: 0px; fill: rgb(45, 60, 45); transform-box: fill-box; transform-origin: 50% 50%;"/>
  </g>
  <g style="transform-origin: 246.408px 268.026px;" transform="matrix(2.354012012482, 0.65282702446, -0.65282702446, 2.354012012482, 729.217943343399, 159.404950477994)">
    <title>Arrow</title>
    <line class="cls-1" x1="148.867" y1="236.505" x2="180.66" y2="227.662" style="fill: none; stroke-miterlimit: 10; stroke: rgb(45, 60, 45); transform-box: fill-box; transform-origin: 50% 50%;"/>
    <polygon class="cls-2" points="173.021 232.653 182.721 226.953 171.521 227.053 173.021 232.653" style="stroke-width: 0px; fill: rgb(45, 60, 45); transform-box: fill-box; transform-origin: 50% 50%;"/>
  </g>
  <g style="transform-origin: 246.408px 268.026px;" transform="matrix(2.354012012482, 0.65282702446, -0.65282702446, 2.354012012482, 1084.998033675425, 163.354382851048)">
    <title>Arrow</title>
    <line class="cls-1" x1="111.954" y1="246.772" x2="180.66" y2="227.662" style="fill: none; stroke-miterlimit: 10; stroke: rgb(45, 60, 45); transform-box: fill-box; transform-origin: 50% 50%;"/>
    <polygon class="cls-2" points="173.021 232.653 182.721 226.953 171.521 227.053 173.021 232.653" style="stroke-width: 0px; fill: rgb(45, 60, 45); transform-box: fill-box; transform-origin: 50% 50%;"/>
  </g>
</svg>