<?xml version="1.0" encoding="utf-8"?>
<svg viewBox="-251.6875 120.8224 1524.1535 256.8938" xmlns="http://www.w3.org/2000/svg" xmlns:bx="https://boxy-svg.com">
  <defs>
    <style bx:fonts="Roboto">@import url(https://fonts.googleapis.com/css2?family=Roboto%3Aital%2Cwght%400%2C100%3B0%2C300%3B0%2C400%3B0%2C500%3B0%2C700%3B0%2C900%3B1%2C100%3B1%2C300%3B1%2C400%3B1%2C500%3B1%2C700%3B1%2C900&amp;display=swap);</style>
  </defs>
  <g transform="matrix(1, 0, 0, 1, 369.9037780761719, 217.3943328857423)">
    <title>Database WAL</title>
    <g id="database" transform="matrix(1.31225, 0, 0, 1.31225, -610.784058, -3.103293)" style="">
      <title>Database</title>
      <text style="fill: rgb(45, 60, 45); font-family: Roboto; font-size: 27.4px; font-weight: 300; text-anchor: middle; white-space: pre;" x="48.752" y="-15.427" transform="matrix(1, 0, 0, 1, 0, -25.909706)">Source<tspan x="48.75199890136719" dy="1em">​</tspan>Database</text>
      <path class="cls-1" d="M46.4.2C33.9.2,22.6,2.4,14.3,5.9c-4.2,1.8-7.6,3.9-10,6.3C1.8,14.7.2,17.6.2,20.8v59.9c0,1.1.2,2.2.6,3.3,0,0,0,.1,0,.2,0,0,0,0,0,0,1.8,5.1,7.3,9.1,14.7,12,.6.2,1.3.5,1.9.7,0,0,0,0,0,0,1.1.4,2.2.7,3.4,1.1,0,0,.2,0,.2,0,.5.1,1.1.3,1.6.4,0,0,.1,0,.2,0,.6.1,1.1.3,1.7.4,0,0,0,0,.1,0,1.3.3,2.6.6,3.9.8,0,0,0,0,0,0,.5,0,1.1.2,1.6.3.2,0,.4,0,.6,0,.5,0,1,.1,1.4.2.2,0,.4,0,.6,0,.5,0,1,.1,1.6.2.2,0,.4,0,.5,0,.4,0,.8,0,1.2.1.4,0,.8,0,1.1.1.2,0,.5,0,.7,0,.5,0,.9,0,1.4,0,.5,0,1,0,1.6,0,.2,0,.4,0,.6,0,1.5,0,3,0,4.6,0,2.3,0,4.5,0,6.7-.2,1.1,0,2.1-.2,3.2-.3.4,0,.9,0,1.3-.1.1,0,.3,0,.4,0,.6,0,1.1-.1,1.7-.2.2,0,.3,0,.5,0,.5,0,1.1-.1,1.6-.2.2,0,.3,0,.5,0,.6,0,1.2-.2,1.8-.3,0,0,0,0,0,0,4.9-.9,9.4-2.1,13.2-3.6,8.2-3.2,14-7.7,15.1-13.6h0c.1-.6.2-1.2.2-1.8V20.8c0-.6,0-1.2-.1-1.7,0,0,0-.2,0-.3-.5-2.4-1.8-4.6-3.8-6.6-2.5-2.5-5.9-4.6-10-6.3C70.1,2.4,58.9.3,46.4.2ZM46.4,3.7c12.1,0,23,2.1,30.7,5.4,3.9,1.6,6.9,3.6,8.9,5.6,1.5,1.5,2.4,3.1,2.8,4.6-.9,3.7-5.5,7.7-12.9,10.7-7.6,3-18.1,4.9-29.6,4.9s-21.9-1.9-29.6-4.9c-7.4-2.9-12-6.9-12.9-10.7h0c.4-1.5,1.3-3.1,2.8-4.6,2-2,5.1-4,8.9-5.6,7.7-3.3,18.6-5.4,30.7-5.4ZM3.7,25.8c2.7,2.9,6.8,5.4,11.8,7.3,8.2,3.2,19,5.1,30.8,5.1s22.7-1.9,30.8-5.1c5-2,9.1-4.4,11.8-7.3v13.8c0,0,0,.2-.1.3-.7,3.8-5.3,8-13,11-7.6,3-18.1,4.9-29.6,4.9s-21.9-1.9-29.6-4.9c-7.6-3-12.2-7.1-13-11,0-.1,0-.2-.1-.3v-13.8ZM13.6,38.8c-1.1,0-2.1.9-2.1,2.1,0,1.1.9,2.1,2.1,2.1,1.1,0,2.1-.9,2.1-2.1,0,0,0,0,0,0,0-1.1-.9-2.1-2.1-2.1,0,0,0,0,0,0ZM3.7,46.8c2.7,2.9,6.8,5.4,11.8,7.3,8.2,3.2,19,5.1,30.8,5.1s22.7-1.9,30.8-5.1c5-2,9.1-4.4,11.8-7.3v13.5c-.1.2-.2.4-.2.6-.7,3.8-5.3,8-12.9,11-7.6,3-18.1,4.9-29.6,4.9s-21.4-1.8-29-4.6c-7.6-2.9-12.4-6.9-13.4-10.6,0-.1,0-.2-.1-.3v-14.4ZM13.6,59.5c-1.1,0-2.1.9-2.1,2.1,0,1.1.9,2.1,2.1,2.1,1.1,0,2.1-.9,2.1-2.1,0,0,0,0,0,0,0-1.1-.9-2.1-2.1-2.1h0ZM89,67.7v13c0,.6,0,1.2-.2,1.8-.7,2.6-3.2,5.3-7.1,7.6,0,0-.1,0-.2,0-.2.1-.4.2-.6.4-1.2.7-2.5,1.3-3.8,1.9-2.9,1.2-6.2,2.3-9.9,3.1,0,0-.1,0-.2,0-.6.1-1.1.2-1.7.4,0,0,0,0,0,0-.6.1-1.2.2-1.8.4,0,0,0,0,0,0-.6.1-1.3.2-1.9.3,0,0,0,0-.1,0-.5,0-1.1.2-1.6.2-.2,0-.3,0-.5,0-.6,0-1.2.1-1.7.2,0,0-.1,0-.2,0-.6,0-1.2.1-1.8.2-.1,0-.2,0-.3,0-.5,0-1,0-1.6.1-.2,0-.4,0-.6,0-.5,0-1.1,0-1.6,0-.2,0-.3,0-.5,0-1.5,0-3,0-4.5,0s-3,0-4.4,0c0,0,0,0,0,0-.7,0-1.4,0-2.1-.1-.2,0-.4,0-.6,0-2.7-.2-5.2-.5-7.7-.8-.2,0-.3,0-.5,0-.5,0-1-.2-1.5-.2-.1,0-.2,0-.4,0-.5,0-1-.2-1.6-.3-.1,0-.3,0-.4,0-.5,0-.9-.2-1.4-.3-.2,0-.4,0-.5-.1-3.6-.8-6.9-1.9-9.7-3.1-.4-.2-.8-.4-1.3-.6-.1,0-.2,0-.3-.1-.3-.1-.6-.3-.9-.4-5.5-2.8-8.7-6.2-9.3-9.4h0c0-.4-.1-.8-.1-1.2v-12.8c2.8,3,7.1,5.5,12.3,7.5,8.1,3.1,18.6,4.9,30.2,4.9s22.7-1.9,30.8-5.1c5-2,9.2-4.5,11.9-7.4ZM13.6,81.3c-1.1,0-2.1.9-2.1,2.1,0,1.1.9,2.1,2.1,2.1,1.1,0,2.1-.9,2.1-2.1,0,0,0,0,0,0,0-1.1-.9-2.1-2.1-2.1h0Z" style="fill: rgb(45, 60, 45); fill-rule: evenodd; stroke: rgb(45, 60, 45); stroke-miterlimit: 10; stroke-width: 0.5px;"/>
    </g>
    <g transform="matrix(1, 0, 0, 1, -40.143269, -181.26149)">
      <title>WAL</title>
      <text style="fill: rgb(51, 51, 51); font-family: Roboto; font-size: 16px; font-weight: 300; text-anchor: middle; white-space: pre;" transform="matrix(1, 0, 0, 1, -179.027649, 37.874241)" y="283.7090148925781" x="-241.36399841308594">Write-ahead<tspan x="-241.36399841308594" dy="1em">​</tspan>Log</text>
      <path style="fill: rgb(255, 255, 255);" d="M -458.897 231.463 L -459.305 286.055 L -443.284 303.301 L -409.406 302.892 L -407.876 231.463 L -458.897 231.463 Z"/>
      <path d="M -412.496 226.886 L -454.353 226.886 C -458.847 226.886 -462.49 230.529 -462.49 235.023 L -462.49 286.267 C -462.49 286.895 -462.247 287.492 -461.811 287.945 L -444.422 305.658 C -443.972 306.12 -443.356 306.379 -442.712 306.379 L -412.496 306.379 C -407.999 306.379 -404.359 302.738 -404.359 298.242 L -404.359 235.023 C -404.359 232.864 -405.215 230.793 -406.74 229.267 C -408.266 227.74 -410.335 226.886 -412.496 226.886 Z M -444.777 298.463 L -454.383 288.702 L -448.116 288.702 C -447.231 288.702 -446.383 289.055 -445.753 289.682 C -445.125 290.307 -444.777 291.157 -444.777 292.041 L -444.777 298.463 Z M -409.156 298.242 C -409.156 300.089 -410.647 301.58 -412.496 301.58 L -439.977 301.58 L -439.977 291.985 C -440.009 287.516 -443.644 283.904 -448.116 283.904 L -457.715 283.904 L -457.712 235.023 C -457.712 233.177 -456.216 231.682 -454.371 231.682 L -412.496 231.682 C -411.609 231.682 -410.76 232.036 -410.134 232.662 C -409.506 233.287 -409.156 234.136 -409.156 235.023 L -409.156 298.242 Z M -451.003 269.339 L -444.631 269.339 L -444.631 274.135 L -451.003 274.135 L -451.003 269.339 Z M -440.449 269.339 L -415.844 269.339 L -415.844 274.135 L -440.449 274.135 L -440.449 269.339 Z M -451.003 259.741 L -444.631 259.741 L -444.631 264.538 L -451.003 264.544 L -451.003 259.741 Z M -440.449 259.741 L -415.844 259.741 L -415.844 264.538 L -440.449 264.544 L -440.449 259.741 Z M -451.003 250.145 L -444.631 250.145 L -444.631 254.941 L -451.003 254.943 L -451.003 250.145 Z M -440.449 250.145 L -415.844 250.146 L -415.844 254.943 L -440.449 254.943 L -440.449 250.145 Z M -451.003 240.545 L -444.631 240.545 L -444.631 245.343 L -451.003 245.346 L -451.003 240.545 Z M -440.449 240.545 L -415.844 240.551 L -415.844 245.346 L -440.449 245.346 L -440.449 240.545 Z" style="fill: rgb(45, 60, 45);"/>
    </g>
  </g>
  <g style="transform-origin: 246.408px 268.026px;" transform="matrix(2.354012012482, 0.65282702446, -0.65282702446, 2.354012012482, 72.66536918567, 142.186353065894)">
    <title>Arrow</title>
    <text style="fill: rgb(45, 60, 45); font-family: Roboto; font-size: 9.4152px; font-weight: 300; text-anchor: middle; white-space: pre;" transform="matrix(0.96363, -0.267239, 0.267239, 0.96363, 81.442825, 254.652603)" x="45.766" y="-4.886">Log Entry</text>
    <line class="cls-1" x1="86.332" y1="253.899" x2="180.66" y2="227.662" style="fill: none; stroke-miterlimit: 10; stroke: rgb(45, 60, 45); transform-box: fill-box; transform-origin: 50% 50%;"/>
    <polygon class="cls-2" points="173.021 232.653 182.721 226.953 171.521 227.053 173.021 232.653" style="stroke-width: 0px; fill: rgb(45, 60, 45); transform-box: fill-box; transform-origin: 50% 50%;"/>
  </g>
  <g transform="matrix(1.6991560459136963, 0, 0, 1.6991560459136963, 238.9029083251953, 218.63462829589855)" style="">
    <title>Debezium Logo</title>
    <linearGradient id="gradient-1" gradientUnits="userSpaceOnUse" x1="9.6501" y1="55.4537" x2="55.733" y2="9.3708" gradientTransform="matrix(1 0 0 -1 0 65.094)">
      <stop offset="0" style="stop-color:#91D443"/>
      <stop offset="1" style="stop-color:#48BFE0"/>
    </linearGradient>
    <text style="fill: rgb(45, 60, 45); font-family: Roboto; font-size: 21.2px; font-weight: 300; text-anchor: middle; white-space: pre;" x="30.079" y="-23.987">Debezium</text>
    <path class="st0" d="M45.8,55.9c0,4.5,3.6,8.1,8.1,8.1h10V54c0-4.5-3.6-8.1-8.1-8.1H54c-7.1,0-12.9-5.8-12.9-12.9V31 c0-4.5-3.6-8.1-8.1-8.1H31c-7.1,0-12.9-5.8-12.9-12.9l0,0V8.1C18.2,3.6,14.5,0,10,0H0v10c0,4.5,3.6,8.1,8.1,8.1H10 c7.1,0,12.9,5.8,12.9,12.9v1.9c0,4.5,3.6,8.1,8.1,8.1H33c7.1,0,12.9,5.8,12.9,12.9l0,0V55.9z" style="fill: url('#gradient-1');"/>
    <linearGradient id="gradient-2" gradientUnits="userSpaceOnUse" x1="21.1064" y1="66.91" x2="67.1893" y2="20.827" gradientTransform="matrix(1 0 0 -1 0 65.094)">
      <stop offset="0" style="stop-color:#91D443"/>
      <stop offset="1" style="stop-color:#48BFE0"/>
    </linearGradient>
    <path class="st1" d="M64,31c0-4.5-3.6-8.1-8.1-8.1H54c-7.1,0-12.9-5.8-12.9-12.9V8.1C41,3.6,37.4,0,32.9,0h-10v10.1 c0.1,4.4,3.7,8,8.1,8H33c7.1,0,12.9,5.8,12.9,12.9l0,0v1.9c0,4.5,3.6,8.1,8.1,8.1H64V31z" style="fill: url('#gradient-2');"/>
    <linearGradient id="gradient-3" gradientUnits="userSpaceOnUse" x1="32.529" y1="78.3326" x2="78.6119" y2="32.2497" gradientTransform="matrix(1 0 0 -1 0 65.094)">
      <stop offset="0" style="stop-color:#91D443"/>
      <stop offset="1" style="stop-color:#48BFE0"/>
    </linearGradient>
    <path class="st2" d="M64,8.1c0-4.3-3.5-7.9-7.8-8.1H45.7v10.1c0.1,4.4,3.7,8,8.1,8H64V8.1z" style="fill: url('#gradient-3');"/>
    <linearGradient id="gradient-4" gradientUnits="userSpaceOnUse" x1="-1.8193" y1="43.9892" x2="44.2636" y2="-2.0937" gradientTransform="matrix(1 0 0 -1 0 65.094)">
      <stop offset="0" style="stop-color:#91D443"/>
      <stop offset="1" style="stop-color:#48BFE0"/>
    </linearGradient>
    <path class="st3" d="M0,33c0,4.5,3.6,8.1,8.1,8.1H10c7.1,0,12.9,5.8,12.9,12.9v1.9c0,4.5,3.6,8.1,8.1,8.1h10V53.9 c-0.1-4.4-3.7-8-8.1-8H31c-7.1,0-12.9-5.8-12.9-12.9l0,0v-1.9c0-4.5-3.6-8.1-8.1-8.1H0V33z" style="fill: url('#gradient-4');"/>
    <linearGradient id="gradient-5" gradientUnits="userSpaceOnUse" x1="-13.2407" y1="32.5678" x2="32.8422" y2="-13.5152" gradientTransform="matrix(1 0 0 -1 0 65.094)">
      <stop offset="0" style="stop-color:#91D443"/>
      <stop offset="1" style="stop-color:#48BFE0"/>
    </linearGradient>
    <path class="st4" d="M0,55.9c0,4.3,3.5,7.9,7.8,8.1h10.5V53.9c-0.1-4.4-3.7-8-8.1-8H0V55.9z" style="fill: url('#gradient-5');"/>
  </g>
  <g style="transform-origin: 246.408px 268.026px;" transform="matrix(2.354012012482, 0.65282702446, -0.65282702446, 2.354012012482, 502.005235823854, 142.186353065892)">
    <title>Arrow</title>
    <text style="fill: rgb(45, 60, 45); font-family: Roboto; font-size: 9.4px; font-weight: 300; text-anchor: middle; white-space: pre;" transform="matrix(0.96363, -0.267239, 0.267239, 0.96363, 83.209267, 254.16272)" x="45.766" y="-4.886">Event Object</text>
    <line class="cls-1" x1="86.332" y1="253.899" x2="180.66" y2="227.662" style="fill: none; stroke-miterlimit: 10; stroke: rgb(45, 60, 45); transform-box: fill-box; transform-origin: 50% 50%;"/>
    <polygon class="cls-2" points="173.021 232.653 182.721 226.953 171.521 227.053 173.021 232.653" style="stroke-width: 0px; fill: rgb(45, 60, 45); transform-box: fill-box; transform-origin: 50% 50%;"/>
  </g>
  <g transform="matrix(0.6811879873275757, 0, 0, 0.6811879873275757, 533.75537109375, 110.0293426513673)" style="">
    <title>Willow Logo</title>
    <text style="fill: rgb(45, 60, 45); font-family: Roboto; font-size: 52.8px; font-weight: 300; text-anchor: middle; white-space: pre;" x="288.403" y="91.865">Willow</text>
    <svg id="svg-2" dataname="Layer 1" xmlns="http://www.w3.org/2000/svg" viewBox="427.14453125 344.65234375 798.27734375 876.7677001953125" height="230" width="209.4166717529297" y="127.7099380493164" x="182.99502087402342" preserveAspectRatio="xMinYMin" style="overflow: visible;" transform="matrix(0.262327164412, 0, 0, 0.262327164412, 70.943405151367, 37.298259735107)">
      <path d="M1015.17,915.62A252.7,252.7,0,0,0,850.71,493.37,254.52,254.52,0,0,0,695.94,530l20.5,33.18c80.81-49.92,186.26-40,256.44,24.21a213.76,213.76,0,0,1-94,365.46V992.8A250.79,250.79,0,0,0,1015.17,915.62Z" style="fill: #409935; fill-opacity: 1;"/>
      <path d="M588.18,667.41A252.95,252.95,0,0,0,773.8,991.86V951.73A214,214,0,0,1,625.3,679.37Z" style="fill: #409935; fill-opacity: 1;"/>
      <path d="M794,422.83a322.5,322.5,0,0,0-62.79,629.11A324.71,324.71,0,0,0,773.8,1062v-39.63a286.67,286.67,0,0,1-31-7.71,283.49,283.49,0,1,1,266.09-487.95L1034,496.88A323.5,323.5,0,0,0,794,422.83Z" style="fill: #409935; fill-opacity: 1;"/>
      <path d="M1224.21,713.25A399.11,399.11,0,1,0,773.8,1139.41V1100a359.88,359.88,0,1,1,394-241.93l37,12.4A396.65,396.65,0,0,0,1224.21,713.25Z" style="fill: #409935; fill-opacity: 1;"/>
      <path d="M878.92,1100v39.39a395.56,395.56,0,0,0,130.45-40.87l-17.9-34.65A356.33,356.33,0,0,1,878.92,1100Z" style="fill: #409935; fill-opacity: 1;"/>
      <path d="M1108.51,715.39a283.81,283.81,0,0,1-229.59,307V1062a322.81,322.81,0,0,0,268.39-350.55Z" style="fill: #409935; fill-opacity: 1;"/>
      <polygon points="972.78 768.21 945.25 740.58 845.86 839.62 845.86 588.52 806.86 588.52 806.86 703.54 699.98 619.15 675.81 649.76 806.86 753.24 806.86 1221.42 845.86 1221.42 845.86 894.68 972.78 768.21" style="fill: #7c7955; fill-opacity: 1;"/>
    </svg>
  </g>
  <g style="transform-origin: 246.408px 268.026px;" transform="matrix(2.354012012482, 0.65282702446, -0.65282702446, 2.354012012482, 961.733385237918, 142.186353065893)">
    <title>Arrow</title>
    <text style="fill: rgb(45, 60, 45); font-family: Roboto; font-size: 9.4px; font-weight: 300; text-anchor: middle; white-space: pre;" transform="matrix(0.96363, -0.267239, 0.267239, 0.96363, 82.788795, 244.524551)" x="45.766" y="-4.886">Redis formatted<tspan x="45.76599884033203" dy="1em">​</tspan>key-value pair</text>
    <line class="cls-1" x1="86.332" y1="253.899" x2="180.66" y2="227.662" style="fill: none; stroke-miterlimit: 10; stroke: rgb(45, 60, 45); transform-box: fill-box; transform-origin: 50% 50%;"/>
    <polygon class="cls-2" points="173.021 232.653 182.721 226.953 171.521 227.053 173.021 232.653" style="stroke-width: 0px; fill: rgb(45, 60, 45); transform-box: fill-box; transform-origin: 50% 50%;"/>
  </g>
  <g transform="matrix(0.8939899802207947, 0, 0, 0.8939899802207947, 1124.9566650390625, 202.1563720703126)" style="">
    <title>Redis</title>
    <text style="fill: rgb(45, 60, 45); font-family: Roboto; font-size: 40.3px; font-weight: 300; text-anchor: middle; white-space: pre;" x="71.568" y="-33.9" transform="matrix(1, 0, 0, 1, 10.83696, -19.046471)">Sink<tspan x="71.56800079345703" dy="1em">​</tspan>Cache</text>
    <g id="cache_not_filled_in" transform="matrix(2.506451, 0, 0, 2.506451, 6.053882, 16.169258)" style="">
      <g>
        <path class="cls-1" d="M1.1,18.3l29.7,14.5c.3.1.6.2.9.2s.6,0,.9-.2l29.7-14.5c.7-.3,1.1-1,1.1-1.8s-.4-1.4-1.1-1.8L32.6.2c-.6-.3-1.2-.3-1.7,0L1.1,14.7C.4,15.1,0,15.8,0,16.5s.4,1.4,1.1,1.8ZM31.7,4.2l25.2,12.3-25.2,12.3L6.5,16.5,31.7,4.2Z" style="fill: rgb(45, 60, 45); stroke-width: 0px;"/>
        <path class="cls-1" d="M60.6,25.9l-28.9,14.1L2.9,25.9c-1-.5-2.2,0-2.7.9-.5,1,0,2.2.9,2.7l29.7,14.5c.3.1.6.2.9.2s.6,0,.9-.2l29.7-14.5c1-.5,1.4-1.7.9-2.7-.5-1-1.7-1.4-2.7-.9Z" style="fill: rgb(45, 60, 45); stroke-width: 0px;"/>
        <path class="cls-1" d="M60.6,37l-28.9,14.1L2.9,37c-1-.5-2.2,0-2.7.9-.5,1,0,2.2.9,2.7l29.7,14.5c.3.1.6.2.9.2s.6,0,.9-.2l29.7-14.5c1-.5,1.4-1.7.9-2.7-.5-1-1.7-1.4-2.7-.9Z" style="fill: rgb(45, 60, 45); stroke-width: 0px;"/>
      </g>
    </g>
  </g>
</svg>