<?xml version="1.0" encoding="utf-8"?>
<svg viewBox="182.9986 127.7104 209.4064 229.9996" xmlns="http://www.w3.org/2000/svg">
  <svg id="Layer_1" dataname="Layer 1" xmlns="http://www.w3.org/2000/svg" viewBox="427.14453125 344.65234375 798.27734375 876.7677001953125" height="230" width="209.4166717529297" y="127.7099380493164" x="182.99502087402342" preserveAspectRatio="xMinYMin" style="overflow: visible;" transform="matrix(0.2623271819305892, 0, 0, 0.2623271819305892, 70.94340447489064, 37.2982599676062)">
    <path d="M1015.17,915.62A252.7,252.7,0,0,0,850.71,493.37,254.52,254.52,0,0,0,695.94,530l20.5,33.18c80.81-49.92,186.26-40,256.44,24.21a213.76,213.76,0,0,1-94,365.46V992.8A250.79,250.79,0,0,0,1015.17,915.62Z" style="fill: #409935; fill-opacity: 1;"/>
    <path d="M588.18,667.41A252.95,252.95,0,0,0,773.8,991.86V951.73A214,214,0,0,1,625.3,679.37Z" style="fill: #409935; fill-opacity: 1;"/>
    <path d="M794,422.83a322.5,322.5,0,0,0-62.79,629.11A324.71,324.71,0,0,0,773.8,1062v-39.63a286.67,286.67,0,0,1-31-7.71,283.49,283.49,0,1,1,266.09-487.95L1034,496.88A323.5,323.5,0,0,0,794,422.83Z" style="fill: #409935; fill-opacity: 1;"/>
    <path d="M1224.21,713.25A399.11,399.11,0,1,0,773.8,1139.41V1100a359.88,359.88,0,1,1,394-241.93l37,12.4A396.65,396.65,0,0,0,1224.21,713.25Z" style="fill: #409935; fill-opacity: 1;"/>
    <path d="M878.92,1100v39.39a395.56,395.56,0,0,0,130.45-40.87l-17.9-34.65A356.33,356.33,0,0,1,878.92,1100Z" style="fill: #409935; fill-opacity: 1;"/>
    <path d="M1108.51,715.39a283.81,283.81,0,0,1-229.59,307V1062a322.81,322.81,0,0,0,268.39-350.55Z" style="fill: #409935; fill-opacity: 1;"/>
    <polygon points="972.78 768.21 945.25 740.58 845.86 839.62 845.86 588.52 806.86 588.52 806.86 703.54 699.98 619.15 675.81 649.76 806.86 753.24 806.86 1221.42 845.86 1221.42 845.86 894.68 972.78 768.21" style="fill: #7c7955; fill-opacity: 1;"/>
  </svg>
</svg>